<?xml version="1.0" encoding="utf-8"?><svg viewBox="0 0 532 492" xmlns="http://www.w3.org/2000/svg" xmlns:xlink="http://www.w3.org/1999/xlink"><style>:root>svg{display:none}:root>svg:target{display:block}</style><svg fill="none" viewBox="0 0 532 492" id="figure" xmlns="http://www.w3.org/2000/svg"><path d="M421.184 59.212c49.768 32.016 95.1 79.25 106.828 134.09 12.046 54.842-9.51 117.29-41.526 174.668-32.018 57.377-74.812 109.048-126.166 120.777-51.354 11.412-111.584-17.752-169.596-42.795-58.01-25.36-114.12-46.599-148.673-88.76C7.815 315.031-4.865 251.63 3.061 189.498 10.667 127.05 38.88 65.87 85.48 33.218 132.396.567 197.698-3.554 257.294 3.103c59.914 6.657 114.12 24.092 163.89 56.109z" fill="#FFDBB4"/></svg><svg fill="none" viewBox="0 0 69 74" id="logo" xmlns="http://www.w3.org/2000/svg"><path d="M18.639 13.915c4.926-4.483 11.375-8.041 17.67-7.722 6.305.285 12.455 4.446 17.75 9.599 5.296 5.152 9.657 11.31 9.433 17.239-.258 5.919-5.18 11.623-9.59 17.206-4.443 5.574-8.385 11.06-13.969 13.593-5.574 2.499-12.826 2.034-19.34-.635C14.036 60.55 8.217 55.7 6.031 49.682c-2.177-6.054-.72-13.278 1.74-19.569C10.24 23.79 13.711 18.4 18.638 13.915z" fill="#FFDBB4"/><path fill-rule="evenodd" clip-rule="evenodd" d="M33.68 15.244c5.264 0 10.708 4.115 12.638 6.74 2.23 3.037 3.99 17.613 3.165 22.56-.826 4.945-4.927 10.336-12.046 10.336-7.12 0-11.452-.884-11.625-2.169-.116-.856-1.682-3.668-4.696-8.435-3.083-.875-4.631-2.357-4.643-4.446-.012-2.09.814-3.514 2.478-4.274-.593-8.246-.143-13.442 1.352-15.588 2.241-3.22 8.114-4.724 13.377-4.724z" fill="#EDB98A"/><path fill-rule="evenodd" clip-rule="evenodd" d="M31 14.004h.094c5.824.039 11.747 2.741 15.212 7.463l.104.144c.006.007.11.163.134.207.144.26.313.503.443.768.11.224.182.475.263.714l.024.071c.207.597.381 1.199.535 1.811.299 1.192.531 2.403.758 3.611A106.524 106.524 0 0150.17 41.9l.052.884c.054.916.095 1.836-.007 2.75a9.369 9.369 0 01-.88 3.023 12.001 12.001 0 01-1.592 2.467c-.333.405-.688.799-1.123 1.095-.347.236-.752.391-1.142.54-.635.64-1.45 1.124-2.247 1.51-1.312.635-2.735.985-4.175 1.161a15.095 15.095 0 01-4.419-.12c-1.395-.243-2.89-.865-3.75-2.05-.074-.101.064-.197.155-.155 2.494 1.164 5.296 1.468 8.014 1.1a12.48 12.48 0 003.674-1.073c.977-.463 1.801-1.136 2.678-1.746.17-.229.343-.454.54-.664l.306-.324c.23-.244.455-.49.66-.757a9.967 9.967 0 001.501-2.735c.673-1.91.491-3.982.372-5.971l-.01-.176a88.162 88.162 0 00-.598-6.361 97.077 97.077 0 00-1.043-6.316c-.205-1.032-.435-2.056-.638-3.088-.104-.532-.178-1.071-.257-1.609-.049-.327-.048-.642-.049-.962-.009.015-.02.03-.031.043.033.08.01.182-.072.228-.308.178-.664.118-1.012.12a453.964 453.964 0 01-2.26.004l-1.152-.003-4.611-.014c-3.02-.01-6.09.112-9.1-.175l-.23-.023c-.237-.028-2.906-.357-3.628-.442l-.022-.002c-1.32-.154-2.62-.381-3.902-.721.42.169.822.397 1.238.57.536.223 1.085.417 1.635.603 1.128.382 2.258.754 3.382 1.148.322.113 1.054 2.896 1.238 3.337l.006.012c.093.213.222.445.15.687-.157.533-.992.927-1.406 1.228l-.426.31-.557.407c-.229.165-.44.291-.739.197l-.003-.001c.256 1.197.38 5.071.419 5.75.033.593.205 1.351-.07 1.89a.428.428 0 01-.376.22l-1.88-.142c-.168-.013-.321-.11-.367-.281l-.002-.01a.061.061 0 01-.063-.018 2.726 2.726 0 00-.106-.101c-.825-.743-2.115-.926-3.133-.54-.534.202-1.141.542-1.518.984-.418.49-.508 1.174-.509 1.8-.002 1.206.43 2.427 1.312 3.264.81.768 1.855.991 2.907 1.211l.112.024c.24.05.316.411.136.563.48.475.896 1.041 1.301 1.564a49.172 49.172 0 011.553 2.137l.242.349c.86 1.24 2.107 2.946 1.565 4.495-.073.209-.375.284-.493.065-.386-.72-.602-1.513-.97-2.241-.36-.715-.808-1.377-1.254-2.038l-.256-.384c-.428-.64-.851-1.288-1.243-1.948l-.274-.457c-.256-.432-.51-.878-.7-1.341-1.265.307-2.64-.377-3.53-1.289-1.118-1.148-1.643-2.84-1.499-4.43.076-.832.32-1.637.924-2.235.062-.06.126-.117.192-.174a.11.11 0 01-.052-.053c-.406-.971-.492-2.128-.526-3.173a29.903 29.903 0 01.068-3.243c.15-1.979.504-3.947 1.066-5.849.831-2.81 2.26-5.562 4.542-7.448C24.642 14.745 27.902 14 31 14.004zM18.886 38.587c.343-.157.88.123 1.186.302l.02.011c.903.53 1.547 1.434 1.844 2.434.191.645-.881.902-.972.27a3.505 3.505 0 00-.526-1.428.86.86 0 00-.19.089c-.223.145-.353.396-.663.359-.23-.028-.466-.188-.45-.454.025-.438.375-.613.75-.636a5.5 5.5 0 00-.162-.142l-.06-.05c-.07-.05-.804-.56-.825-.429v.008c0 .052-.07.082-.105.043-.141-.153-.01-.302.153-.377z" fill="#000"/><path fill-rule="evenodd" clip-rule="evenodd" d="M37.732 43.95c.52-.86 1.627 1.248 1.745 1.61.104.322.173.65.208.983.403.091.821.091 1.234.012.614-.119.989-.45 1.522-.736.368-.197.832.034 1.024.36.225.385.082.784-.215 1.071-.562.544-1.667.669-2.4.524a3.092 3.092 0 01-1.146-.472l-.007.13-.007.074c-.056.603-.22 1.36-.686 1.753-.763.644-1.705-.594-.963-1.237l.023-.02c.46-.374.561-1.38.536-1.933a4.031 4.031 0 00-.195-1.072l-.023-.069c-.034-.097-.407-1.02-.541-.902l-.007.006c-.055.067-.145-.01-.102-.081zm4.15-4.854c.7.43 1.77 1.43 1.015 2.494-.888.938-2.167-.138-2.798-.624-.584-.377-1.24.593-.698 1.033 4.554 3.393 6.402-2.79 2.835-3.408-.393-.068-.539.372-.355.505zm-7.492-3.967a2.591 2.591 0 011.956.453l.043.031c.546.403 1.158 1.109.844 1.802-.126.279-.503.322-.742.196-.398-.21-.47-.727-.826-1.013-.291-.235-.684-.377-1.059-.343-.882.08-1.424.956-1.698 1.71-.035.097-.175.134-.23.03-.646-1.214.497-2.649 1.712-2.866zm10.982-.458c1.313-.11 2.85 1.261 2.504 2.656-.165.67-1.152.65-1.327 0-.097-.358-.087-.674-.343-.971a1.01 1.01 0 00-.834-.366c-.356.024-.684.203-.933.454-.225.227-.36.56-.593.76-.057.05-.134.053-.19 0-.402-.372-.161-1.147.093-1.536.364-.556.957-.942 1.623-.997zM31.89 32.655c.842-.75 2.373-1.476 3.509-1.106.653.212.938 1.271.209 1.607-.845.389-1.818.23-2.678.633-.36.17-.7.381-.951.692-.198.244-.4.566-.686.707-.075.037-.177.038-.237-.03-.628-.715.285-2.015.834-2.503zm12.034-1.144c.52-.147 1.098-.144 1.627-.051a3.586 3.586 0 011.497.634l.05.038c.472.357 1.034.878 1.004 1.51-.025.53-.578.887-1.055.61-.389-.226-.572-.679-.901-.98a3.184 3.184 0 00-2.095-.813c-.313-.006-.627.097-.934.13.026.053-.217.028-.356-.018-.103-.044-.103-.175-.068-.26.177-.421.821-.684 1.23-.8z" fill="#000"/><path fill-rule="evenodd" clip-rule="evenodd" d="M52.669 31.977a12.016 12.016 0 00-.23-.036.688.688 0 00-.211-.076 3.605 3.605 0 00-.556-.097c-2.65-.6-8.783.252-9.036 2.529-.844.283-1.574.03-2.552.055-.745-3.133-13.619-2.691-14.238-.802a.094.094 0 01-.007-.002c-.595-.186-1.472-.14-2.153-.17-1.454-.03-2.91.1-4.332.408-2.664.426-6.3.925-4.447 4.273l.001.002c.32.329.862.064.882-.382-.623-1.586.784-1.777 1.866-2.233 2.694-.974 5.436-1.108 8.222-.807.209.248.527.465.863.578 1.863.311.881 1.702 2.058 1.904-.216 4.847 5.631 7.493 9.019 4.306 1.353-1.33 1.675-3.302 1.989-5.08a.47.47 0 00.332-.25c.4-.4.65-.77 1.438-.88.789-.11 1.396.11 1.478.178.02.042.043.084.069.127a.477.477 0 00.14.152c-.778 4.826 2.945 7.879 6.704 5.376 1.633-1.547 1.978-3.914 2.046-6.027.221-.134.361-.395.285-.722-.106-.452.142-.843.536-1.04.513-.254.422-1.186-.166-1.284zm-16.15 2.29c-.467-.103-.666.621-.198.724.332.074.612.242.802.527l.02.031c.255.408.899.031.642-.38a1.995 1.995 0 00-1.266-.902zm13.664-.449c-.165-.116-.414-.03-.51.135-.104.182-.035.384.119.502l.015.012c.142.1.28.28.296.464l.002.023c.019.482.762.484.744 0-.018-.474-.29-.87-.666-1.136z" fill="#000"/></svg><svg fill="none" viewBox="0 0 294 33" id="shadow" xmlns="http://www.w3.org/2000/svg"><path d="M146.892 33c81.126 0 146.891-7.343 146.891-16.4 0-9.059-65.765-16.402-146.891-16.402C65.766.198 0 7.541 0 16.6S65.766 33 146.892 33z" fill="#F7859C"/></svg></svg>