<?xml version="1.0" encoding="utf-8"?><svg viewBox="0 0 245 251" xmlns="http://www.w3.org/2000/svg" xmlns:xlink="http://www.w3.org/1999/xlink"><style>:root>svg{display:none}:root>svg:target{display:block}</style><svg fill="none" viewBox="0 0 245 251" id="figure5" xmlns="http://www.w3.org/2000/svg"><path d="M163.539 104.957c-.169-2.651.329-5.544 1.993-7.42 1.655-1.886 4.478-2.756 7.395-3.112 2.917-.356 5.914-.17 7.701 1.383 1.775 1.56 2.324 4.515 2.963 7.28.627 2.775 1.352 5.371.751 7.739-.61 2.356-2.557 4.492-5.005 5.847-2.452 1.376-5.405 1.971-7.819 1.143-2.422-.838-4.304-3.097-5.647-5.433-1.352-2.349-2.163-4.776-2.332-7.427z" fill="#9093D1"/><path d="M47.27 142.503c-.337-5.302.657-11.088 3.985-14.838 3.312-3.774 8.956-5.513 14.79-6.225 5.834-.712 11.83-.341 15.402 2.764 3.55 3.121 4.648 9.031 5.925 14.563 1.254 5.547 2.705 10.74 1.503 15.476-1.22 4.713-5.113 8.984-10.01 11.696-4.903 2.75-10.81 3.939-15.637 2.286-4.844-1.676-8.61-6.194-11.296-10.868-2.702-4.697-4.326-9.551-4.663-14.854zM114.002 208.356c-.337-5.303.658-11.088 3.986-14.839 3.311-3.773 8.955-5.512 14.79-6.224 5.833-.712 11.829-.341 15.401 2.763 3.55 3.12 4.649 9.031 5.926 14.562 1.254 5.549 2.705 10.742 1.502 15.478-1.219 4.711-5.113 8.984-10.01 11.694-4.903 2.751-10.809 3.94-15.636 2.287-4.845-1.676-8.611-6.194-11.296-10.868-2.703-4.698-4.326-9.551-4.663-14.853z" fill="#F7859C"/><path d="M81.345 62.342c-.514-8.28 1.056-17.319 6.268-23.185 5.186-5.902 14.014-8.632 23.137-9.759 9.123-1.126 18.496-.561 24.073 4.278 5.542 4.866 7.245 14.094 9.227 22.73 1.947 8.662 4.202 16.768 2.31 24.167-1.917 7.363-8.015 14.046-15.678 18.291-7.672 4.308-16.909 6.181-24.452 3.611-7.57-2.606-13.445-9.653-17.632-16.947-4.214-7.329-6.74-14.905-7.253-23.186z" fill="#9FD8E5"/><path d="M111.141 142.504c-.337-5.302.658-11.088 3.986-14.839 3.311-3.773 8.956-5.512 14.79-6.224 5.833-.712 11.829-.341 15.401 2.763 3.55 3.122 4.649 9.032 5.926 14.564 1.254 5.547 2.705 10.74 1.503 15.476-1.22 4.712-5.114 8.984-10.011 11.695-4.903 2.75-10.809 3.939-15.636 2.286-4.845-1.676-8.611-6.194-11.296-10.868-2.703-4.696-4.326-9.55-4.663-14.853z" fill="#FFDBB4"/></svg><svg fill="none" viewBox="0 0 245 182" id="figure6" xmlns="http://www.w3.org/2000/svg"><path d="M74.171 115.684c3.198 4.601 5.453 10.363 4.485 15.559-.94 5.209-5.103 9.851-9.998 13.671-4.896 3.821-10.529 6.751-15.458 5.897-4.918-.883-9.136-5.617-13.31-9.913-4.163-4.323-8.31-8.218-9.804-13.145-1.467-4.916-.27-10.891 2.686-16.004 2.94-5.152 7.64-9.443 12.914-10.58 5.302-1.127 11.177.899 16.16 3.653 5.01 2.766 9.128 6.261 12.325 10.862z" fill="#9FD8E5"/><path d="M82.115 31.944c4.983 7.192 8.491 16.202 6.971 24.334-1.477 8.15-7.983 15.42-15.631 21.406-7.648 5.986-16.445 10.581-24.137 9.253-7.673-1.371-14.25-8.77-20.756-15.483-6.49-6.755-12.953-12.84-15.277-20.546-2.28-7.688-.402-17.039 4.222-25.043 4.598-8.066 11.943-14.786 20.176-16.576 8.277-1.772 17.443 1.386 25.214 5.686 7.815 4.318 14.236 9.778 19.218 16.97zM128.076 123.141c1.599 2.299 2.726 5.18 2.242 7.778-.47 2.605-2.552 4.926-4.999 6.837-2.448 1.909-5.265 3.375-7.729 2.947-2.459-.44-4.568-2.808-6.655-4.955-2.082-2.162-4.155-4.11-4.902-6.573-.733-2.458-.136-5.446 1.343-8.002 1.47-2.576 3.82-4.721 6.457-5.29 2.651-.563 5.588.449 8.079 1.827 2.506 1.382 4.564 3.13 6.164 5.431zM159.34 16.491c2.578 3.709 4.396 8.353 3.615 12.542-.758 4.198-4.113 7.94-8.06 11.02-3.945 3.079-8.486 5.441-12.458 4.752-3.965-.711-7.364-4.528-10.73-7.99-3.355-3.484-6.696-6.623-7.901-10.595-1.183-3.962-.218-8.779 2.164-12.9 2.371-4.153 6.16-7.611 10.41-8.528 4.273-.908 9.009.725 13.025 2.945 4.039 2.23 7.358 5.046 9.935 8.754z" fill="#9093D1"/><path d="M143.231 68.164c3.198 4.601 5.453 10.363 4.485 15.56-.94 5.208-5.103 9.85-9.999 13.671-4.895 3.82-10.528 6.751-15.457 5.896-4.918-.882-9.137-5.617-13.311-9.912-4.163-4.323-8.309-8.218-9.803-13.145-1.467-4.916-.271-10.892 2.685-16.005 2.94-5.152 7.642-9.442 12.915-10.58 5.302-1.126 11.177.9 16.16 3.654 5.01 2.766 9.127 6.26 12.325 10.861z" fill="#F7859C"/><path d="M225.765 116.821c4.983 7.191 8.491 16.202 6.971 24.334-1.477 8.148-7.983 15.42-15.631 21.406-7.648 5.985-16.445 10.58-24.137 9.252-7.673-1.371-14.249-8.77-20.756-15.482-6.489-6.755-12.953-12.841-15.277-20.547-2.279-7.687-.402-17.039 4.222-25.043 4.598-8.066 11.943-14.786 20.176-16.576 8.277-1.771 17.444 1.386 25.215 5.686 7.815 4.318 14.235 9.778 19.217 16.97z" fill="#FFDBB4"/></svg></svg>