<?xml version="1.0" encoding="utf-8"?><svg viewBox="0 0 1440 140" xmlns="http://www.w3.org/2000/svg" xmlns:xlink="http://www.w3.org/1999/xlink"><style>:root>svg{display:none}:root>svg:target{display:block}</style><svg fill="none" viewBox="0 0 1440 137" id="wave0" xmlns="http://www.w3.org/2000/svg"><path d="M-423.855-87l51.788 17.922c51.789 17.253 155.366 54.103 258.943 98.156C-9.546 73.8 94.031 127.4 197.608 127.4c103.578 0 207.155-53.6 310.732-71.523 103.578-17.252 207.155-.502 310.732 17.923 103.578 18.425 207.158 35.175 310.728 8.877 103.58-27.302 207.16-97.652 310.74-71.355 103.57 27.303 207.15 151.253 310.73 178.556 103.58 26.297 207.15-44.053 258.94-80.401L2062 73.8V449H-423.855V-87z" fill="#FBF1E6"/></svg><svg fill="none" viewBox="0 0 1440 140" id="wave1" xmlns="http://www.w3.org/2000/svg"><path d="M-512 227l51.789-17.922c51.788-17.253 155.366-54.103 258.943-98.155C-97.691 66.2 5.887 12.6 109.464 12.6c103.577 0 207.154 53.6 310.732 71.523 103.577 17.252 207.154.502 310.732-17.923 103.577-18.425 207.154-35.175 310.732-8.878 103.58 27.303 207.15 97.653 310.73 71.355 103.58-27.302 207.16-151.252 310.73-178.554 103.58-26.298 207.16 44.052 258.95 80.4l51.79 35.677V-309H-512v536z" fill="#FBF1E6"/></svg></svg>