<svg width="194" height="291" viewBox="0 0 194 291" fill="none" xmlns="http://www.w3.org/2000/svg">
<path fill-rule="evenodd" clip-rule="evenodd" d="M23.1713 171.842C26.5695 155.773 38.6211 143.303 54.8293 137.091C57.9449 135.332 60.965 127.785 65.1521 126.403C65.8233 126.181 64.7639 127.945 65.1521 128.05C66.5368 128.426 68.0884 128.465 69.6173 127.108C72.3498 124.684 73.207 117.602 74.8684 114.401C83.6303 97.5191 105.507 104.124 108.438 122.787C110.481 124.116 113.37 125.288 115.595 126.359C117.885 127.462 119.9 130.134 122.261 131.09C124.367 131.942 127.838 131.338 129.96 132.081C139.721 135.499 147.989 139.812 154.471 148.55C155.837 150.393 157.376 152.659 158.619 154.521C165.027 161.883 169.477 170.136 173.576 178.99C185.045 204.978 188.164 233.752 190.963 261.752C190.899 266.651 194.156 280.236 189.339 282.585C189.627 282.883 189.523 283.481 188.988 283.476C176.774 283.353 164.588 284.444 152.564 286.566C146.762 287.589 140.991 288.993 135.082 289.223C122.814 289.139 110.59 287.087 98.339 289.029C83.6108 289.029 65.7115 288.6 49.3265 287.972C34.0132 287.384 18.6178 288.711 3.49413 286.112C2.29701 285.923 1.7124 284.465 1.96333 283.421C3.7377 276.967 4.60875 270.325 5.60439 263.72C5.40608 259.483 5.7608 255.06 7.33101 251.114C11.4335 224.474 16.6942 198.009 23.1713 171.842Z" fill="#FFDBB4"/>
<path fill-rule="evenodd" clip-rule="evenodd" d="M65.1521 128.148C64.7639 128.042 65.8233 126.279 65.1521 126.501C60.965 127.883 57.9449 135.43 54.8293 137.189C38.621 143.401 26.5695 155.87 23.1713 171.94C16.6942 198.106 11.4335 224.572 7.33098 251.212C5.76079 255.158 5.40607 259.581 5.60435 263.817L5.44803 264.861C4.51453 271.121 3.6443 277.405 1.96332 283.518C1.7124 284.563 2.297 286.02 3.49411 286.209C18.4459 288.779 33.6633 287.511 48.8044 288.05L51.9603 288.168C67.6117 288.742 84.3963 289.126 98.339 289.126C110.59 287.185 122.814 289.236 135.082 289.321C140.991 289.09 146.762 287.687 152.564 286.663C164.588 284.542 176.774 283.451 188.988 283.574C189.523 283.579 189.627 282.981 189.339 282.683C194.156 280.334 190.899 266.749 190.963 261.85L190.71 259.328C187.969 232.126 184.701 204.296 173.576 179.088L173.243 178.371C169.235 169.788 164.854 161.782 158.619 154.618L158.238 154.049C157.07 152.308 155.7 150.307 154.471 148.648C147.989 139.91 139.721 135.597 129.96 132.179C127.837 131.436 124.367 132.04 122.261 131.187C120.053 130.294 118.148 127.899 116.036 126.69L116.036 135.707L85.4837 165.748L68.1553 139.226L66.3931 128.364C65.9685 128.337 65.5533 128.257 65.1521 128.148Z" fill="#8FA7DF"/>
<path fill-rule="evenodd" clip-rule="evenodd" d="M28.1133 206.858C28.4365 208.425 28.8894 209.991 29.4916 211.475C30.0718 212.906 30.9458 214.189 31.5478 215.604C31.6286 215.795 31.7608 215.939 31.9201 216.049L31.8705 216.434L31.8246 216.818C31.5244 219.416 31.1867 222.006 30.8942 224.602L30.7521 225.902C30.1771 231.324 29.2688 236.719 28.5638 242.127C27.8734 247.422 27.1706 252.717 26.4193 258.005C25.6432 263.457 24.8525 268.901 23.9296 274.331C23.5399 276.624 23.1333 278.915 22.7096 281.205L22.3824 282.957C19.0138 283.766 18.0933 288.452 21.5231 290.182C23.0798 290.964 25.0799 290.776 26.363 289.547C27.6963 288.267 27.7516 285.957 28.061 284.222L28.3591 282.61C30.5896 270.489 32.5255 258.229 33.4306 245.936C33.6631 242.762 33.859 239.586 33.9863 236.406C34.1073 233.416 34.0495 230.426 34.0957 227.435L34.1111 226.62C34.1819 223.431 34.1234 220.247 34.0402 217.058C34.0304 216.669 34.0132 216.281 33.9936 215.89C34.106 215.758 34.187 215.602 34.2211 215.45L34.2654 215.25C34.3755 214.734 34.2507 214.13 33.8539 213.761C33.6827 211.589 33.4575 209.419 33.3963 207.249C33.3914 207.071 33.1344 207.076 33.1194 207.249C32.975 209.097 32.6864 210.949 32.3975 212.799C30.5394 211.308 29.166 208.85 28.3557 206.792C28.297 206.643 28.0788 206.697 28.1133 206.858ZM72.0761 120.497C71.7676 121.904 71.1581 123.168 70.3404 124.343C69.9509 124.905 69.508 125.428 68.9768 125.865C68.5212 126.239 68.0022 126.483 67.5177 126.809C66.8127 126.698 66.0758 126.965 65.5813 127.483L65.6594 126.726C65.6841 126.481 65.2775 126.432 65.231 126.669C63.0892 137.451 61.1359 148.239 59.4451 159.099L58.704 163.894L58.0067 168.397C56.8488 175.899 55.7288 183.398 54.8854 190.955C53.7617 201.04 52.817 211.152 52.1266 221.278C51.4338 231.475 51.0076 241.679 50.7041 251.896C50.6284 254.472 50.5474 257.045 50.4693 259.62L49.9464 256.541C49.4245 253.461 48.9128 250.379 48.4741 247.285C46.9 236.213 45.6414 225.063 45.0272 213.896C44.4639 203.677 44.6524 193.255 47.2572 183.299C47.9135 180.795 48.7165 178.329 49.6857 175.927C50.626 173.591 51.9085 171.426 52.9198 169.124C54.0949 166.446 54.4474 163.92 53.8425 161.036C53.3137 158.524 52.3859 156.161 52.2197 153.576C51.9085 148.777 53.4731 144.129 55.6835 139.928C56.2664 138.821 56.8808 137.729 57.5222 136.646C59.4633 133.375 61.6521 130.222 63.9237 127.2C64.0461 127.038 63.7869 126.86 63.6544 126.992C61.5836 129.035 59.3191 131.043 57.4559 133.274C56.5503 134.359 55.6666 135.466 54.8293 136.603C45.6439 138.135 37.7513 143.845 32.3559 151.386C26.2333 159.944 23.1364 170.244 20.8448 180.387C18.2963 191.659 16.1469 203.034 13.858 214.362C11.4884 226.085 9.13095 237.807 6.74652 249.526C5.56165 255.344 4.37653 261.162 3.19434 266.983C2.59456 269.93 1.96516 272.87 1.30688 275.807C0.968796 277.312 0.606491 278.815 0.293137 280.325C-0.0591431 282.028 0.26889 283.118 1.42415 284.369C1.85036 284.834 2.52357 284.826 3.05237 284.579L3.21767 284.502L3.37743 284.425C4.03174 284.104 4.54472 283.771 4.95183 283.057C5.40007 282.273 5.47107 281.403 5.62505 280.53C5.90927 278.925 6.19057 277.32 6.47455 275.712C6.89885 273.307 7.3602 270.91 7.82979 268.512L10.1858 256.533C10.814 253.339 11.4432 250.145 12.076 246.953C14.3356 235.536 16.5976 224.122 18.8594 212.708C21.0311 201.749 22.9528 190.714 25.4252 179.817L25.5657 179.203L25.7087 178.59C27.9194 169.197 31.0083 160.111 36.6131 152.151C40.9267 146.03 46.9169 140.564 53.9725 137.797C53.4753 138.511 52.9979 139.239 52.5426 139.982C49.6832 144.644 47.5952 150.179 48.0849 155.731C48.3245 158.443 49.3576 161.109 49.2599 163.844C49.1694 166.273 47.6636 168.406 46.6231 170.519C44.261 175.309 42.552 180.399 41.4503 185.621C39.2397 196.106 39.247 206.895 40.0086 217.539C40.8361 229.11 42.4075 240.678 44.1971 252.136C45.1151 258.012 46.3367 263.841 47.2721 269.708C47.7345 272.601 48.3639 275.487 48.9148 278.365L49.1773 279.741C49.3242 280.504 49.4767 281.265 49.6529 282.017L49.7616 282.468V282.549C49.7664 283.104 49.9185 283.563 50.1633 283.929C50.4984 285.002 50.9146 286.048 51.4679 287.052C51.7518 287.565 52.1634 287.854 52.6114 287.959C53.0618 288.988 54.0827 289.779 55.3016 289.775L71.3343 289.713C80.6468 289.677 89.9593 289.615 99.2719 289.564C101.622 289.552 103.969 289.508 106.317 289.447C108.518 289.386 110.628 289.122 112.805 288.848C115.263 288.54 116.594 286.803 116.227 284.352C116.146 283.812 116.058 283.275 115.975 282.737C116.465 282.898 117.047 282.822 117.441 282.439L117.811 282.078C118.323 281.572 118.781 281.075 119.106 280.401C119.441 279.707 119.713 278.974 120.01 278.265C120.649 276.74 121.27 275.211 121.875 273.674C123.087 270.6 124.298 267.513 125.425 264.407C127.655 258.257 129.628 252.013 131.344 245.699C134.404 234.434 136.617 222.952 138.013 211.367L138.346 208.606L138.443 207.79C138.973 203.3 139.418 198.74 139.207 194.259C139.077 191.454 138.642 188.627 137.591 186.007C136.622 183.59 135.126 181.523 133.704 179.363L133.541 179.114L133.378 178.858C132.134 176.896 131.144 174.845 131.094 172.462C131.044 170.044 131.75 167.691 132.539 165.428L132.736 164.869L132.868 164.5C134.546 159.821 136.457 155.209 135.827 150.118C134.896 142.621 130.343 136.578 124.614 131.918C129.709 132.925 134.752 134.914 139.202 137.436C144.459 140.417 149.191 144.351 153.272 148.791C160.983 157.182 166.489 167.25 170.996 177.645C175.713 188.524 179.212 199.924 181.848 211.472C184.499 223.086 186.274 234.886 187.486 246.733C188.091 252.629 188.566 258.54 188.96 264.454C189.16 267.484 189.312 270.519 189.547 273.544C189.782 276.567 189.888 279.636 190.627 282.578C190.972 283.949 193.3 284.088 193.55 282.578C194.103 279.206 193.949 275.718 193.794 272.303L193.78 271.992C193.628 268.591 193.43 265.192 193.195 261.793C192.715 254.846 192.074 247.908 191.237 240.993C188.301 216.718 182.888 192.571 172.271 170.412C167.272 159.976 160.856 149.835 151.93 142.299C147.68 138.714 142.889 135.852 137.726 133.78C133.109 131.926 128.418 131.048 123.513 131.051C121.052 129.169 118.411 127.53 115.772 126.129C115.613 126.044 115.446 126.249 115.578 126.381C115.647 126.447 115.713 126.515 115.781 126.579C115.483 126.599 115.175 126.738 114.898 127.029C113.928 128.042 113.111 129.311 112.379 130.628C111.265 132.016 110.203 133.45 109.091 134.823C107.311 137.023 105.49 139.19 103.646 141.34C100.55 144.954 97.3531 148.5 94.0192 151.903L93.4623 152.469C91.7342 154.216 89.9836 156.308 87.9397 157.691L87.8305 157.763C86.9682 158.324 86.3567 158.426 85.6213 157.588C84.9528 156.826 84.3963 155.941 83.8243 155.101L83.692 154.908C80.7714 150.673 78.0639 146.282 75.6133 141.761C74.4963 139.704 73.4338 137.617 72.4256 135.506L72.1248 134.873C71.5764 133.709 70.9816 132.568 70.5289 131.371C70.4236 131.09 70.3208 130.809 70.2204 130.53C71.7627 129.521 72.9571 127.336 73.3905 125.626C73.8409 123.849 73.6132 122.026 72.8105 120.402C72.6587 120.096 72.1495 120.172 72.0761 120.497ZM148.16 192.688C148.373 199.442 148.503 206.204 148.821 212.953L148.931 215.257C148.434 215.809 148.143 216.447 148.375 217.322C148.466 217.657 148.733 217.96 149.066 218.072L149.17 220.214C149.642 229.853 150.196 239.472 151.208 249.086C152.474 261.118 153.938 273.131 155.399 285.141C155.607 286.842 156.792 288.191 158.635 287.942C160.501 287.69 161.257 286.07 161.012 284.381C160.05 277.757 159.125 271.127 158.314 264.481L157.392 256.908C156.234 247.443 155.05 237.978 153.685 228.543C153.115 224.599 152.522 220.657 151.928 216.716L152.136 216.447C152.985 215.345 153.864 214.267 154.733 213.182C156.403 211.091 158.05 209.016 159.58 206.826C159.656 206.716 159.502 206.555 159.392 206.639C157.247 208.22 155.218 209.91 153.176 211.628L151.389 213.138C150.361 206.328 149.342 199.515 148.434 192.688C148.412 192.517 148.155 192.505 148.16 192.688ZM117.312 128.05C118.602 129.264 119.921 130.452 121.221 131.659L121.698 132.103L122.172 132.55C124.457 134.713 126.646 136.964 128.47 139.55C131.819 144.297 133.814 150.086 132.421 155.883C131.266 160.684 128.614 165.036 127.902 169.958C127.545 172.423 127.718 174.901 128.649 177.23C129.599 179.605 131.117 181.641 132.48 183.784C135.442 188.441 135.846 193.553 135.552 198.949C135.244 204.583 134.595 210.221 133.794 215.804C132.174 227.118 129.731 238.315 126.497 249.279C124.879 254.77 122.967 260.143 121.064 265.539C120.117 268.224 119.013 270.846 117.875 273.456C117.275 274.829 116.66 276.195 116.036 277.559C116.266 275.633 116.266 273.657 116.379 271.743C116.541 269.001 116.746 266.265 116.935 263.525C117.319 257.966 117.662 252.402 117.968 246.838C119.052 226.996 119.85 207.137 119.792 187.263C119.762 177.325 119.559 167.387 119.13 157.458C118.93 152.783 118.541 148.112 118.189 143.443L118.115 142.443C117.804 138.252 117.431 134.051 116.793 129.897C116.982 129.471 117.146 129.04 117.268 128.598L117.312 128.431L117.28 128.436C117.309 128.306 117.319 128.177 117.312 128.05ZM106.153 110.974C106.126 110.859 105.962 110.869 105.933 110.974C105.206 113.418 105.463 116.106 106.089 118.564C106.427 119.896 106.907 121.188 107.487 122.435L107.69 122.871C108.187 123.932 108.747 125.026 109.715 125.687C110.119 125.963 110.841 125.98 111.245 125.687L111.451 125.531C111.485 125.505 111.519 125.478 111.551 125.45C111.928 125.135 112.114 124.438 111.941 123.979C111.493 122.794 110.476 121.924 109.774 120.868C109.152 119.93 108.601 118.94 108.144 117.911C107.157 115.685 106.714 113.322 106.153 110.974Z" fill="black"/>
<path fill-rule="evenodd" clip-rule="evenodd" d="M89.0307 22.3992C75.1596 22.3992 60.8124 33.1539 55.7278 40.0168C49.8485 47.9524 45.2106 86.0472 47.3863 98.9736C49.562 111.9 60.3693 125.989 79.1306 125.989C97.8918 125.989 109.309 123.678 109.767 120.32C110.072 118.082 114.197 110.733 122.142 98.2741C130.267 95.9882 134.345 92.115 134.377 86.6545C134.409 81.1941 132.232 77.4706 127.846 75.4839C129.41 53.9348 128.222 40.3551 124.284 34.7447C118.377 26.3292 102.902 22.3992 89.0307 22.3992Z" fill="#FFDBB4"/>
<path fill-rule="evenodd" clip-rule="evenodd" d="M98.3831 1.52731C96.5176 -0.668678 93.2271 1.40703 93.3017 3.8067C92.5569 4.00835 91.6785 4.70406 91.3396 5.61109C90.6064 5.56354 89.8673 5.70924 89.2014 6.09016L89.0611 5.91718C86.7538 3.09942 83.7004 0.681447 80.5496 2.75651C79.692 3.32123 79.3081 4.25452 79.4972 5.26612L79.5117 5.33774L79.4421 5.0254C79.371 4.72864 79.477 5.32243 79.5167 5.44808L79.5218 5.46233C79.605 5.6739 79.688 5.78044 79.7634 5.94039C76.5377 3.64803 71.6259 4.98988 74.2139 9.42737L73.1615 9.01678C69.5201 7.60917 64.9924 6.09762 61.6729 8.62841C60.1891 10.0562 61.8361 11.96 63.3481 12.4215L63.0882 12.3781C60.1868 11.8852 54.1338 10.6671 53.269 14.4451C52.958 15.8045 53.8649 16.798 55.0093 17.345C52.5881 17.3361 50.2002 17.7353 48.1051 18.9172C46.1123 20.3338 47.7229 22.678 49.807 22.5758C49.1609 23.375 48.9464 24.7276 49.5703 25.5908C48.3859 25.9018 47.2933 26.3018 46.2862 26.9253L46.0094 26.9609C43.9963 27.2121 41.6996 27.3617 40.5923 29.3392C38.9624 33.6303 44.766 33.4594 47.2572 31.9522C47.1093 32.1925 46.9997 32.455 46.9382 32.7352L46.1311 32.9618C43.0857 33.809 39.6392 34.745 37.6784 37.3087C36.7797 38.7841 38.0304 41.2913 39.9095 40.8432C34.8176 43.2688 36.7692 49.6587 41.7489 46.3347C41.9818 46.5504 42.2652 46.7106 42.5618 46.7812L41.5111 47.3511C38.8422 48.8126 35.6324 50.8135 36.1897 54.1318C36.7198 55.8879 39.1551 55.567 40.393 54.8949C38.2302 56.7551 36.1895 58.7693 34.3358 60.9469L33.8228 61.5573C32.3811 63.2857 29.873 66.4674 32.5898 68.1301C35.9392 69.8353 37.6085 64.8 39.5565 63.0027C37.9989 66.6687 43.0626 69.2253 44.8301 65.5328C45.127 65.585 45.4254 65.5903 45.718 65.5509C44.1942 67.1666 40.073 78.2215 45.1992 75.7975C46.0156 74.9334 46.7321 73.9892 47.3906 72.998C46.5677 79.3319 45.9658 85.6956 45.5764 92.0639L45.4379 94.3725C45.2963 96.767 45.1892 99.1717 45.4581 101.558C45.7686 104.337 46.5672 106.944 47.7765 109.461C48.8907 111.782 50.3271 113.933 51.9709 115.91C52.8504 116.968 53.7836 117.996 54.9318 118.771C55.8456 119.387 56.9132 119.792 57.9417 120.183C59.6148 121.855 61.7622 123.118 63.8606 124.127C67.3198 125.787 71.0697 126.703 74.8635 127.162C78.7429 127.629 82.6613 127.517 86.5089 126.85C90.1855 126.214 94.1262 124.589 96.3905 121.493C96.586 121.227 96.2222 120.975 95.9828 121.085C89.4111 124.127 82.0264 124.922 74.8635 123.961C71.5219 123.514 68.2337 122.59 65.1822 121.156C62.6074 119.946 60.4359 118.187 58.1249 116.594C57.6752 115.995 57.221 115.406 56.7029 114.859L55.8946 114.011C55.2904 113.374 54.6971 112.729 54.1576 112.032C52.4913 109.884 51.1113 107.447 50.1998 104.884C48.4273 99.8944 48.9067 94.4781 49.2199 89.2781L49.2471 88.8199C49.5695 83.2582 50.095 77.7161 50.8228 72.1936C51.1254 69.8954 51.4622 67.601 51.831 65.3117C52.4221 64.3498 53.0535 63.419 53.7601 62.547C53.185 64.7824 55.1763 67.8898 57.618 66.4144C60.414 64.0237 60.2787 60.1647 62.6221 57.2371C65.0512 53.4839 81.8116 46.1845 86.7946 45.1594C85.9917 46.3276 84.5253 47.1413 84.1833 48.52C78.0551 53.936 88.0445 56.8191 91.1638 49.1006C91.0949 51.6703 90.8344 54.2178 90.2631 56.726C89.4307 59.0293 88.7772 65.7045 92.951 63.69C94.9489 64.2673 96.4725 62.5651 96.723 60.6445C98.1664 64.9846 96.8014 71.9184 99.4478 75.117C100.259 75.9584 101.513 75.3982 101.935 74.4376C104.383 73.7962 104.174 70.9424 104.471 68.8995C106.703 77.0419 109.497 82.6936 109.881 91.1877C108.154 93.6471 111.943 95.4558 113.569 93.4849C115.851 90.1868 113.746 85.6781 113.21 82.0678C113.852 82.0348 114.487 81.7497 115.017 81.127C115.306 82.2601 115.14 83.7527 115.042 84.9816C116.49 90.641 121.991 87.0159 121.764 82.4253C122.001 83.7204 122.181 85.0288 122.295 86.3467C121.233 87.5694 120.445 89.0331 119.98 90.5866C119.644 91.7091 120.785 92.3821 121.656 92.2192C122.119 93.8003 124.129 94.9412 125.45 93.4299C126.756 92.1084 126.983 90.1988 127.088 88.2975C127.269 88.1042 127.38 87.851 127.362 87.5443C127.345 87.2562 127.275 87.0117 127.162 86.8061C127.184 86.4176 127.212 86.0361 127.255 85.6674C128.266 88.8138 127.608 92.1106 127.519 95.333C125.733 96.339 123.695 96.7689 121.647 97.1936L121.35 97.2551C120.717 97.3871 120.517 98.3303 120.993 98.7262C119.725 99.9675 118.631 101.448 117.563 102.814C116.146 104.626 114.79 106.51 113.471 108.399L112.697 109.508C110.436 112.729 107.31 117.093 108.71 121.061C108.901 121.606 109.697 121.801 110.008 121.229C111.026 119.348 111.595 117.276 112.563 115.372C113.513 113.505 114.695 111.775 115.868 110.045L116.545 109.042C117.671 107.368 118.787 105.675 119.821 103.951L120.541 102.756C121.218 101.629 121.887 100.463 122.386 99.2516C124.162 99.6797 126.02 99.3725 127.724 98.6318L127.745 98.7502L127.788 98.9631C128.032 99.9874 129.444 100.688 130.347 100.018C132.507 98.3886 133.386 95.9641 133.615 93.3716C134.051 92.6394 134.42 91.8661 134.721 91.0659C134.863 92.6625 135.479 94.2104 137.376 94.1623C140.669 93.892 140.992 90.7813 140.101 87.6875C144 88.8783 144.456 83.3642 143.226 80.4582C143.683 80.3217 144.106 80.0496 144.348 79.6829L144.55 80.0373C145.299 81.3347 146.148 82.5944 147.332 83.2678C148.986 84.2084 151.39 83.0433 151.28 80.9716C150.926 77.5957 147.968 75.0244 146.167 72.3189C146.487 72.3641 146.821 72.3527 147.148 72.2917C150.747 74.3002 152.465 69.5729 151.198 66.834C150.268 64.3733 148.587 62.2572 146.784 60.3917L147.313 60.7075C148.266 61.269 149.329 61.8112 150.377 61.5909C157.235 66.0981 159.486 58.5177 151.791 56.1485L151.793 56.1132C152.566 55.3681 152.901 54.189 152.3 53.0112C155.123 54.0029 159.153 51.7591 156.665 48.6924C155.042 47.1639 153.127 45.8491 151.005 45.161C151.11 44.5982 151.145 44.0256 151.101 43.4494L151.228 43.4666C152.568 43.6596 154.22 44.2068 155.046 42.7636C155.465 42.0368 155.416 40.8392 154.729 40.2742C152.363 38.3286 149.664 36.7104 146.733 36.0543C146.625 35.6973 146.513 35.3423 146.394 34.9891C148.895 34.9426 151.703 31.6199 148.83 29.7372C146.305 28.45 143.703 27.6221 140.851 27.6989C142.523 26.0498 141.536 23.0607 139.313 22.6012C140.769 19.5003 137.172 17.9003 134.489 18.3893C134.588 17.0116 133.85 15.476 132.431 15.1302C133.175 10.7705 128.56 11.1829 125.669 12.2163C126.637 10.5355 125.642 8.55823 123.934 7.9688C121.136 7.33538 118.46 10.0008 116.33 11.6353C117.056 9.93008 116.443 8.35785 114.713 7.67841C112.932 6.98091 111.012 8.32886 109.525 9.24479C108.716 8.22919 107.335 7.89811 106.097 7.96092C105.965 7.57949 105.771 7.26138 105.522 7.0099C105.529 4.65982 101.529 3.36781 100.133 5.55693C99.8951 4.03479 99.269 2.57012 98.3831 1.52731ZM48.3385 44.152L48.2924 44.405C48.2332 44.4574 48.1776 44.5125 48.1208 44.5662C47.9425 44.6084 47.7703 44.6529 47.6071 44.6984C47.8448 44.5059 48.0898 44.3277 48.3385 44.152ZM45.2507 37.9846L45.3051 38.0598C45.3143 38.0722 45.3238 38.0844 45.3337 38.0962C45.1829 38.1534 45.0326 38.2117 44.8827 38.2719L44.6584 38.3637L44.5793 38.3986C44.8021 38.2587 45.0258 38.1201 45.2507 37.9846ZM81.259 6.93692L81.3938 6.97039C81.4368 6.98085 81.4775 6.99057 81.5146 6.99947C81.5285 7.00303 81.5413 7.00456 81.5538 7.00964L81.5185 7.00202C81.5823 7.05058 81.666 7.1078 81.7357 7.15357C81.6673 7.14797 81.5992 7.14136 81.5305 7.13755C81.4409 7.07042 81.3502 7.00354 81.259 6.93692Z" fill="black"/>
<path fill-rule="evenodd" clip-rule="evenodd" d="M68.3656 103.549C67.9901 102.897 67.1254 102.294 66.3342 102.386C62.7896 102.801 62.7958 107.091 64.1645 109.595C65.378 111.815 67.8895 113.119 70.4032 112.928C73.0439 112.728 75.294 111.178 76.2842 108.713C76.9391 107.082 77.2416 104.07 75.4996 102.974C75.4673 102.954 75.4139 102.959 75.3882 102.989C74.5529 103.958 74.5201 105.415 73.7889 106.494C73.1088 107.499 72.0522 108.328 70.8145 108.456C69.8901 108.552 68.9549 108.219 68.5933 107.391C68.3977 106.943 68.42 106.699 68.4935 106.391L68.5603 106.123C68.7918 105.184 68.8958 104.469 68.3656 103.549ZM67.4181 84.7371C65.5695 85.8587 62.7527 88.4741 64.7414 91.2547C67.0823 93.7065 70.4527 90.8954 72.1136 89.624C73.6536 88.6387 75.3839 91.1729 73.955 92.3234C61.9536 101.192 57.0832 85.0304 66.4831 83.4183C67.5181 83.2407 67.9024 84.3901 67.4181 84.7371ZM86.9398 77.046C85.8051 75.3467 83.215 75.5969 82.59 77.6134C82.2515 78.7057 82.7191 79.6875 82.6948 80.7783C82.6745 81.6998 82.735 82.7266 83.018 83.619C83.6633 85.654 85.4969 87.0913 87.6661 87.0317C89.8283 86.9723 91.7326 85.6064 92.6382 83.6825C93.5469 81.7514 93.3545 79.7527 92.6911 77.7891C92.6592 77.6947 92.5354 77.649 92.4607 77.7285C91.6765 78.5603 91.1024 79.4385 90.5084 80.37L89.8997 81.3247C89.4344 82.0437 88.7583 82.962 87.8897 82.9044L87.7593 82.8915C87.5179 82.8708 87.5549 82.9187 87.3687 82.5902C87.2825 82.4382 87.2982 82.1558 87.2566 81.9764L87.2421 81.9158L87.25 81.8832C87.2684 81.7963 87.2866 81.6326 87.3014 81.3486L87.3046 81.2858C87.3675 79.9573 87.7437 78.2499 86.9398 77.046ZM58.1769 78.1772C58.3803 76.0039 55.3192 75.5213 54.3016 77.1294C53.7708 77.968 53.6163 79.0215 53.4989 80.0195L53.444 80.4933C53.3236 81.5184 53.2758 82.5847 53.7216 83.5409C54.4237 85.0469 55.9506 85.843 57.5977 85.7169C59.1705 85.5962 60.6056 84.686 61.3621 83.3041C62.0365 82.0711 62.707 79.6637 61.8879 78.3776C61.8385 78.2996 61.7396 78.2896 61.6717 78.3497C60.8977 79.0357 60.7716 80.2868 60.3114 81.1804C59.8367 82.1021 59.1167 83.0004 58.0256 83.1404C56.9817 83.2743 56.5829 82.7052 56.8493 81.7119C57.1927 80.4295 58.0476 79.5571 58.1769 78.1772ZM86.113 64.125L85.6124 63.9336C83.8972 63.2869 81.5424 62.5394 80.148 63.9315C79.2877 64.7899 79.124 66.0545 79.7379 67.1021C80.4819 68.371 81.8163 68.4023 83.105 68.5892C84.5707 68.8018 86.0613 69.206 87.4259 69.7822C88.963 70.4315 90.3895 71.2408 91.7871 72.1447C93.1155 73.0036 94.4391 74.4074 96.0292 74.6721C96.094 74.6828 96.1677 74.655 96.1846 74.5839C96.5457 73.0322 95.5423 71.5052 94.6467 70.2946C93.5632 68.829 92.2503 67.626 90.7829 66.5474C89.3667 65.5062 87.7485 64.7538 86.113 64.125ZM54.9569 69.6418L54.804 69.6151C53.7639 69.4423 52.8214 69.4821 52.0376 70.3043C51.4393 70.9316 51.2087 71.7446 51.4939 72.5739C51.757 73.339 52.3455 74.1163 53.1997 74.2766C56.0833 74.8181 59.2773 74.7287 62.1753 74.3186C63.5012 74.1309 64.8391 73.9013 66.1306 73.5391L66.7247 73.3672C67.8029 73.0598 69.0373 72.7386 69.8204 71.9471C70.102 71.6627 69.9397 71.2556 69.6028 71.1239C68.2363 70.5897 66.3633 70.8739 64.9062 70.8321C63.2111 70.7837 61.5134 70.6569 59.8264 70.4822C58.1778 70.3111 56.5827 69.9395 54.9569 69.6418Z" fill="black"/>
<path fill-rule="evenodd" clip-rule="evenodd" d="M45.5085 86.2254C48.4808 89.2909 53.4425 90.1706 57.3969 88.5266C67.5506 84.2921 62.5807 71.0844 54.7501 67.5375C53.7718 67.2942 52.4653 66.7167 51.2738 66.5858C51.1661 66.533 50.9315 66.6857 50.6473 66.5413C42.0127 67.5036 40.0464 80.8828 45.5085 86.2254ZM78.2585 87.0101C81.5921 91.4235 87.7896 92.785 92.8533 90.7334C102.857 86.8011 99.3086 75.0892 92.4645 70.4977C78.0069 65.0751 72.0367 78.8727 78.2585 87.0101ZM99.9437 77.2313C99.953 77.2269 99.9623 77.2247 99.9718 77.2203C99.9189 77.1971 99.866 77.1739 99.8134 77.1502C99.8306 77.1949 99.8492 77.2391 99.8658 77.2838C99.8918 77.266 99.9145 77.2452 99.9437 77.2313ZM38.6265 72.4607C39.4427 72.4624 40.6217 72.5963 41.2973 73.1615C42.9635 67.5527 49.1136 62.3618 54.4622 66.1469C58.6741 67.4989 61.7996 70.4975 63.5759 74.484C66.7787 72.5823 71.8149 73.3944 74.5923 75.9091C76.4112 69.9098 80.8878 67.809 86.216 67.4989C92.0317 66.5481 97.8283 72.1857 99.6369 76.7084C101.141 76.5375 103.388 76.0598 104.803 76.9862C113.985 74.5827 130.038 73.2575 131.905 74.5929C133.235 75.1024 133.965 78.2366 132.107 78.4057C130.488 78.1762 132.296 76.1092 130.664 75.8836C121.967 75.3456 113.525 77.0937 104.921 77.8273C104.153 78.8587 101.671 79.2038 100.346 78.7893C102.432 86.4612 97.9299 91.6808 91.1842 93.2442C80.7389 95.6391 71.6514 86.3124 74.3827 76.6113C71.2186 75.0401 67.579 75.1076 64.1321 75.9352C69.8919 97.0943 35.7517 96.145 41.0839 73.8865C37.5354 75.6483 36.7647 72.8162 38.6265 72.4607Z" fill="black"/>
</svg>
