<svg width="345" height="509" viewBox="0 0 345 509" fill="none" xmlns="http://www.w3.org/2000/svg">
<path fill-rule="evenodd" clip-rule="evenodd" d="M156.579 191.44L151.114 204.962L154.125 247.821L156.365 248.17C180.028 251.841 196.107 253.696 204.603 253.733L204.866 253.734C213.422 253.734 223.674 251.821 235.622 247.996L236.166 247.821L237.546 215.729H234.293L228.409 201.923L228.414 201.918C228.479 202.029 228.547 202.136 228.617 202.24C231.07 205.871 232.492 202.939 238.255 204.223C245.155 205.761 248.219 212.741 254.294 217.957C257.114 220.379 263.034 221.52 265.867 223.186L268.843 224.936C278.168 230.44 288.885 237.127 294.512 245.837C301.109 256.049 305.656 265.739 309.855 277.099C318.906 301.584 325.188 326.569 329.676 352.264C334.226 378.306 336.96 404.672 339.049 431.017C340.016 443.225 340.836 455.444 341.517 467.671L341.685 470.728C342.042 477.381 341.731 483.891 335.687 487.988C331.357 490.923 325.61 491.37 320.529 491.671L320.253 491.688C282.69 493.892 245.126 496.081 207.562 498.274L151.218 501.571C141.843 502.121 132.467 502.667 123.092 503.209L100.207 504.532C89.4217 505.146 78.6229 505.678 67.8227 505.615C54.2346 505.536 40.7042 504.531 27.2414 502.719L26.0537 502.557C17.5837 501.386 5.30272 498.425 3.78133 488.259C3.5629 486.799 4.84666 485.887 5.9245 486.097C5.56984 484.442 5.34962 482.785 5.13924 481.345C4.23649 475.194 3.66966 469.003 3.38959 462.793C2.82767 450.366 3.30115 437.881 4.54247 425.508C6.59606 405.038 9.47476 384.604 12.4493 364.241L13.1116 359.717C16.2754 338.143 20.0423 316.606 25.9367 295.591C31.3817 276.178 39.8761 255.983 51.5643 243.708C63.2525 231.432 79.9174 220.767 97.0408 214.235C98.5238 213.669 127.987 207.213 129.972 208.153L130.328 207.873C136.202 203.232 144.582 195.079 153.21 197.646L153.229 197.614C153.433 197.24 154.23 194.735 155.331 191.44H156.579Z" fill="#8FA7DF"/>
<path fill-rule="evenodd" clip-rule="evenodd" d="M162.81 173.443C169.946 164.389 177.468 161.51 188.583 162.185C196.121 161.915 203.639 163.874 210.021 168.199C215.869 171.258 221.055 175.467 224.757 180.887C227.923 185.52 225.517 196.969 228.409 201.923C228.381 202.462 228.366 202.953 228.366 203.397C228.366 207.684 231.347 212.467 237.309 217.748L237.546 217.957V249.107C227.523 252.192 215.114 253.734 200.319 253.734C185.744 253.734 170.585 251.285 154.841 246.387L154.125 246.162L151.114 212.307L154.125 202.939L154.124 195.092L155.288 191.582C157.348 185.411 160.502 176.372 162.81 173.443Z" fill="#694D3D"/>
<path fill-rule="evenodd" clip-rule="evenodd" d="M154.125 246.162C171.767 251.304 186.61 253.875 198.654 253.875C210.698 253.875 223.202 251.304 236.167 246.162L233.012 500.049L182.236 500.67L154.125 246.162Z" fill="#9FD8E5"/>
<path fill-rule="evenodd" clip-rule="evenodd" d="M67.0104 357.018C66.8147 356.651 67.2685 356.321 67.5696 356.586C74.4096 362.593 77.9907 372.241 78.7415 381.159C79.5371 390.615 78.4092 400.406 77.9781 409.859C77.4984 420.388 77.0674 430.921 76.4818 441.445C75.8872 452.122 75.2467 462.796 74.6977 473.476L73.4627 497.5C73.3313 500.06 73.6159 503.209 72.6341 505.598C71.1127 509.302 66.5935 508.729 65.6437 505.633L65.614 505.531L65.5274 505.598C64.6894 502.808 65.3166 499.494 65.4586 496.61L66.7526 470.362C67.6668 451.809 68.4822 433.256 69.4642 414.707L69.7981 408.524C70.2572 400.201 70.6092 391.898 70.8919 383.577L70.9836 380.803C71.252 372.448 71.039 364.561 67.0104 357.018ZM232.822 203.001C236.633 202.639 239.511 203.904 242.97 205.236C244.477 205.816 245.904 206.486 247.35 207.18C249.16 208.049 250.324 209.584 251.439 211.208L252.035 212.083C256.676 218.889 259.799 226.741 263.322 234.151C267.443 242.819 271.605 251.468 275.638 260.177L277.628 264.468C278.623 266.614 279.615 268.76 280.593 270.914L282.281 274.662C283.978 278.463 285.498 282.485 283.081 286.406C280.832 290.053 276.847 292.875 273.691 295.694C271.058 298.046 268.425 300.398 265.791 302.75C271.236 308.206 274.891 315.077 277.039 322.446C280.092 321.173 283.818 320.929 286.974 320.378C291.392 319.607 291.933 326.301 287.764 326.22C284.684 326.159 281.071 326.474 277.912 325.825C278.461 328.246 278.86 330.704 279.113 333.169C280.441 346.086 277.54 359.079 274.515 371.578L274.266 372.604C270.98 386.131 267.865 399.695 265.078 413.335C262.285 427.004 259.773 440.731 257.543 454.503C255.273 468.521 253.666 482.617 251.94 496.709C251.679 498.842 250.338 500.67 247.983 500.67C246.021 500.67 243.779 498.838 244.025 496.709C245.806 481.363 248.333 466.097 250.843 450.855C255.166 424.608 260.607 398.588 266.866 372.74L267.96 368.238C270.776 356.563 273.331 344.534 271.918 332.492C270.768 322.686 266.671 312.231 258.575 306.14L258.328 305.957C256.437 304.569 255.709 301.914 257.572 300.086C258.757 298.923 259.944 297.761 261.132 296.6L268.259 289.635L269.696 288.229C270.894 287.058 272.098 285.894 273.338 284.767C274.088 284.084 276.123 282.783 276.271 281.661C276.368 280.929 275.502 279.643 275.15 278.968L273.542 275.718C272.628 273.865 271.743 271.999 270.851 270.135C269.003 266.274 267.127 262.425 265.319 258.545L254.456 235.248C251.391 228.676 248.661 221.737 244.654 215.661L243.864 214.476C243.205 213.479 242.622 212.519 242.205 211.299C241.805 210.126 241.302 208.837 240.561 207.836C238.826 205.486 235.509 204.153 232.733 203.66C232.332 203.589 232.478 203.034 232.822 203.001ZM149.269 196.882C149.511 196.882 149.547 197.227 149.325 197.294C145.976 198.302 142.777 199.928 140.166 202.275C138.918 203.398 137.66 204.672 136.889 206.184C136.594 206.763 136.431 207.374 136.311 208.008L136.273 208.22C136.074 209.364 135.789 210.002 135.208 210.918L135.108 211.074C131.791 216.201 129.466 221.896 127.34 227.598L122.711 240.031L118.084 252.466C116.594 256.472 115.102 260.479 113.611 264.486C112.788 266.698 111.941 268.901 111.094 271.104C110.728 272.058 110.334 273.005 109.999 273.971C109.953 274.103 109.806 274.899 109.697 275.092L109.734 275.157C110.667 276.728 113.156 278.041 114.566 279.182L119.423 283.112C122.887 285.915 126.439 288.639 129.798 291.567C131.908 293.405 130.595 296.697 128.242 297.465C124.299 298.75 120.435 300.289 116.551 301.744C114.982 302.331 113.348 302.843 111.797 303.49L110.853 303.899C110.485 304.065 110.662 304.063 110.677 304.744C110.691 305.458 110.894 306.203 111.01 306.905C112.318 314.822 113.705 322.726 115.169 330.616C120.347 358.517 126.533 386.214 133.588 413.698C137.152 427.578 140.974 441.389 144.615 455.249C148.248 469.071 153.028 482.695 157.592 496.232C158.88 500.049 152.832 501.693 151.576 497.892C146.315 481.97 141.503 465.91 136.534 449.898C127.705 421.448 120.747 392.379 114.594 363.241C111.544 348.799 108.755 334.302 106.228 319.76C105.75 317.006 105.281 314.252 104.821 311.495L104.152 307.441C103.693 304.551 103.431 301.541 105.676 299.254C107.867 297.021 111.629 296.23 114.513 295.183L114.723 295.106C116.558 294.421 118.406 293.761 120.247 293.08C117.535 290.943 114.856 288.759 112.151 286.623C109.968 284.9 107.751 283.212 105.6 281.45C103.826 279.996 102.38 278.129 102.195 275.765C102.006 273.349 103.041 271.107 103.875 268.891L103.955 268.677C104.775 266.465 105.596 264.253 106.439 262.049L111.651 248.406C114.964 239.736 118.137 230.996 121.621 222.394C122.999 218.99 124.501 215.639 126.276 212.421C127.132 210.869 128.05 209.351 129.048 207.886C130.165 206.244 131.18 205.443 132.911 204.537C135.68 203.088 137.854 200.659 140.634 199.165C143.363 197.699 146.171 196.916 149.269 196.882ZM158.258 181.415C158.364 181.233 158.645 181.314 158.648 181.521C158.721 185.83 157.698 190.233 157.069 194.493C156.436 198.769 156.234 203.282 155.319 207.512C155.3 207.709 155.262 207.903 155.208 208.094L155.165 208.239C154.779 209.424 153.775 210.428 152.544 210.742C152.931 212.89 153.296 215.041 153.603 217.204C154.13 220.921 154.611 224.644 155.084 228.369L155.65 232.838C156.185 237.05 156.705 241.264 157.219 245.479C158.526 246.026 159.861 246.477 161.227 246.869C164.374 247.77 167.597 248.136 170.845 248.455C177.458 249.104 184.122 249.405 190.759 249.774L192.18 249.854C199.642 250.282 207.144 250.358 214.586 249.592C218.277 249.212 221.938 248.574 225.537 247.671C227.366 247.211 229.143 246.526 230.968 246.077C231.573 245.928 232.114 245.585 232.721 245.218C232.99 244.877 233.368 244.619 233.86 244.52L233.994 244.497L234.126 244.477L234.171 244.457L234.168 244.471C234.541 244.421 234.896 244.421 235.23 244.467C235.364 241.181 235.508 237.895 235.689 234.61C236.174 225.787 237.515 216.583 235.725 207.837C235.665 207.543 236.065 207.439 236.169 207.714C239.681 216.973 239.286 227.098 239.463 236.843C239.636 246.372 239.531 255.909 239.484 265.441C240.166 265.732 240.775 266.125 241.257 266.678C242.219 267.782 242.496 269.702 241.257 270.768C240.707 271.24 240.099 271.568 239.454 271.796C239.42 280.077 239.361 288.358 239.278 296.64C240.852 297.856 240.999 300.744 239.219 301.945C238.923 328.763 238.436 355.581 238.032 382.395L237.186 438.651C237.073 446.147 236.887 453.642 236.82 461.136L236.873 461.157L237.06 461.244C237.375 461.392 237.844 461.632 237.942 461.877C237.967 461.941 237.974 461.985 237.971 462.018C238.487 462.09 238.999 462.335 239.441 462.755C240.534 463.794 240.312 465.36 239.441 466.418L239.209 466.701C238.666 467.36 237.635 467.614 236.794 467.48C236.802 472.158 236.832 476.836 236.817 481.514C236.813 482.942 236.791 484.371 236.766 485.8L236.708 489.226C236.668 491.18 236.495 493.665 234.495 494.543C232.238 495.534 230.214 494.722 229.3 492.428C229.052 491.807 229.106 491.228 229.196 490.613C229.168 489.69 229.023 488.62 229.041 487.764L229.116 484.192C229.127 483.642 229.15 483.091 229.165 482.541L229.1 482.547C221.08 482.937 213.004 482.747 204.971 482.742L201.398 482.747C198.418 482.75 195.43 482.734 192.454 482.62L191.338 482.572C189.109 482.468 186.766 482.434 184.455 482.235C184.75 484.608 185.025 486.983 185.27 489.361C185.502 491.615 183.177 493.531 181.103 493.531C178.64 493.531 177.232 491.593 176.937 489.361C175.545 478.83 174.975 468.201 173.646 457.663C172.455 448.225 171.422 438.765 170.372 429.309L170.021 426.157C166.18 391.745 162.45 357.319 158.883 322.877L157.221 306.777C155.544 290.549 153.856 274.32 152.433 258.068C151.619 248.776 150.869 239.483 150.164 230.182C149.646 223.35 149.321 216.555 149.109 209.735C148.274 208.876 147.856 207.62 148.226 206.324C148.442 205.568 148.693 204.815 148.959 204.064C148.942 203.326 148.925 202.588 148.91 201.849C148.897 201.15 149.606 200.79 150.174 200.906C151.206 198.406 152.342 195.927 153.291 193.451C154.825 189.442 156.09 185.123 158.258 181.415ZM72.5428 224.735C88.5871 214.672 107.685 207.431 126.814 208.21C127.249 208.228 127.371 208.892 126.919 208.992C116.716 211.272 106.401 214.049 96.7417 218.091C87.0541 222.145 77.8426 227.603 69.6385 234.163C54.5014 246.266 42.7358 262.008 34.9886 279.753C30.4508 290.148 27.27 301.122 24.4925 312.1C21.5533 323.719 19.131 335.462 17.1169 347.277C13.1388 370.613 10.8227 394.207 9.59036 417.841C8.33653 441.883 8.85333 465.942 7.95908 489.987C7.80453 494.153 1.85475 494.071 1.55235 489.987C-0.473792 462.649 0.648715 434.875 2.52254 407.556C4.20742 382.998 7.1497 358.491 11.8876 334.328L12.3003 332.233C16.7296 309.878 22.072 286.981 32.7798 266.735C41.9215 249.45 56.0348 235.09 72.5428 224.735ZM295.342 331.58C295.426 331.34 295.742 331.343 295.826 331.58C297.655 336.704 297.721 342.486 298.207 347.887L298.245 348.302C298.712 353.229 299.063 358.162 299.389 363.098L299.51 364.95C300.821 385.09 302.458 405.207 304.926 425.241C307.385 445.199 310.71 465.018 314.305 484.798C314.706 487.001 313.731 489.244 311.423 489.878C309.389 490.437 306.778 489.184 306.348 486.994C304.116 475.641 302.311 464.272 300.7 452.821C297.866 432.655 295.75 412.397 294.39 392.079C293.708 381.874 293.287 371.673 293.12 361.446C293.043 356.701 293.166 351.945 293.419 347.205L293.479 346.111C293.758 341.266 293.729 336.2 295.342 331.58ZM121.973 459.858C122.188 459.742 122.453 459.981 122.317 460.203C119.211 465.256 115.008 469.613 110.946 473.907C106.699 478.396 102.558 483.02 98.2252 487.421C95.0949 490.6 90.0595 485.472 93.3631 482.555C98.0081 478.454 102.863 474.558 107.591 470.549L109.658 468.795C113.535 465.517 117.526 462.269 121.973 459.858ZM269.53 457.328C269.298 456.885 269.828 456.527 270.188 456.82C272.694 458.859 274.94 461.292 277.36 463.444C279.756 465.576 282.242 467.565 284.796 469.504C287.36 471.451 289.98 473.321 292.671 475.09C294.903 476.557 297.203 477.732 299.541 478.951C300.623 479.09 301.626 479.622 302.428 480.63C303.696 482.224 303.831 485.23 302.072 486.614L301.756 486.862C299.703 488.477 297.265 488.674 295.244 486.862C292.987 484.84 290.854 482.614 288.686 480.476L288.035 479.838C285.706 477.572 283.434 475.233 281.291 472.789L279.352 470.581C275.754 466.475 272.009 462.049 269.53 457.328ZM257.987 220.598C257.57 220.321 257.827 219.577 258.342 219.755L259.286 220.081C263.229 221.453 267.287 222.974 270.867 225.085C274.715 227.354 278.267 230.057 281.661 232.956C288.686 238.958 294.663 246.338 299.742 254.031C309.933 269.467 316.236 287.146 321.324 304.834C326.75 323.694 330.928 342.961 334.339 362.281C337.804 381.916 340.478 401.728 342.235 421.591C343.101 431.375 343.682 441.165 343.974 450.983C344.125 456.034 344.12 461.081 344.078 466.134C344.067 467.433 344.076 468.732 344.091 470.03L344.14 473.927C344.166 476.391 344.461 478.98 343.876 481.387C342.934 485.261 336.534 484.538 336.744 480.578C336.551 479.261 336.543 477.899 336.593 476.535C336.563 476.359 336.53 476.18 336.493 475.997C336.388 475.474 336.478 474.989 336.683 474.572C336.716 473.918 336.746 473.267 336.757 472.628C336.799 470.027 336.796 467.436 336.724 464.835C336.573 459.351 336.355 453.868 336.135 448.387C335.695 437.434 335.083 426.476 334.196 415.551C331.109 377.52 324.592 339.272 313.644 302.684C308.559 285.693 301.55 269.014 291.497 254.332C287.035 247.814 282 241.793 276.419 236.206C270.802 230.583 264.613 224.989 257.987 220.598ZM182.236 465.762L182.994 471.254C183.374 474 183.749 476.747 184.106 479.497C186.527 479.165 189.004 479.026 191.338 478.819C195.423 478.457 199.536 478.281 203.633 478.112C212.105 477.762 220.619 477.156 229.1 477.198C229.187 477.199 229.269 477.204 229.352 477.211L229.772 466.375L223.814 466.366C218.765 466.358 213.718 466.315 208.669 466.271C204.123 466.232 199.574 466.226 195.028 466.131L193.08 466.085C189.633 465.992 185.826 466.184 182.236 465.762ZM230.272 450.033C230.029 450.062 229.782 450.086 229.519 450.097C228.339 450.147 227.149 450.112 225.968 450.122C223.453 450.144 220.939 450.161 218.424 450.16C213.394 450.16 208.365 450.19 203.336 450.251C198.159 450.314 192.986 450.404 187.808 450.414C185.3 450.418 182.799 450.352 180.291 450.282C180.697 453.848 181.121 457.412 181.589 460.967C185.483 460.441 189.671 460.706 193.477 460.67L193.971 460.663C199.166 460.575 204.365 460.64 209.561 460.646C214.906 460.653 220.25 460.67 225.596 460.714L229.987 460.75L229.995 460.529C230.124 457.034 230.207 453.534 230.272 450.033ZM178.36 432.971C178.846 437.181 179.303 441.398 179.769 445.613C180.079 445.566 180.392 445.524 180.712 445.491C183.224 445.228 185.731 445.003 188.252 444.846C193.277 444.535 198.302 444.37 203.336 444.235C208.512 444.096 213.689 443.99 218.867 443.916C221.383 443.881 223.896 443.885 226.412 443.902C227.592 443.91 228.784 443.873 229.962 443.952C230.103 443.962 230.237 443.976 230.37 443.992L230.459 437.662C230.474 436.607 230.49 435.553 230.507 434.498C226.619 434.738 222.666 434.647 218.781 434.648L217.885 434.65C213.004 434.672 208.12 434.605 203.239 434.504C198.204 434.399 193.179 434.234 188.152 433.911C186.116 433.781 184.094 433.607 182.069 433.384L181.056 433.268C180.174 433.164 179.267 433.08 178.36 432.971ZM230.908 415.109C221.544 415.853 212.23 416.164 202.842 416.256L201.433 416.268C193.136 416.331 184.771 416.674 176.455 416.454C176.952 420.768 177.448 425.083 177.948 429.397C179.139 429.341 180.335 429.341 181.499 429.299C183.867 429.213 186.227 429.192 188.596 429.186C193.477 429.175 198.358 429.218 203.239 429.208C208.27 429.197 213.299 429.112 218.329 429.017C222.407 428.941 226.528 428.634 230.617 428.645L230.908 415.109ZM231.304 396.702C230.219 397.063 228.938 397.086 227.534 397.15L223.909 397.331C222.229 397.414 220.548 397.491 218.867 397.552C213.265 397.758 207.664 397.949 202.061 398.128C196.32 398.31 190.551 398.416 184.809 398.235C181.996 398.146 179.207 397.999 176.403 397.764C175.709 397.706 175.003 397.668 174.295 397.618C174.947 403.334 175.603 409.05 176.26 414.765C184.537 413.749 192.877 413.116 201.143 412.064L208.618 411.109C216.089 410.155 223.554 409.219 231.052 408.429L231.304 396.702ZM231.703 378.092C230.111 378.485 228.296 378.466 226.768 378.562L226.484 378.582C223.588 378.802 220.683 378.912 217.78 378.983C212.089 379.124 206.395 379.194 200.702 379.229L197.279 379.25C192.716 379.277 188.155 379.288 183.591 379.182C180.663 379.114 177.741 378.97 174.816 378.824C173.939 378.779 173.043 378.75 172.144 378.705C172.756 384.117 173.374 389.528 173.99 394.939C174.951 394.786 175.917 394.67 176.838 394.514C179.196 394.116 181.549 393.797 183.924 393.512C189.068 392.896 194.239 392.452 199.407 392.077C204.713 391.692 210.023 391.367 215.329 390.994L219.088 390.729C220.34 390.642 221.593 390.558 222.847 390.481C224.987 390.35 227.475 390.498 229.598 390.032C230.173 389.792 230.811 389.737 231.451 389.874L231.703 378.092ZM232.185 356.308C231.634 357.008 230.811 357.375 229.83 357.502C224.721 358.166 219.48 358.272 214.327 358.585L213.419 358.642C208.098 358.993 202.775 359.269 197.45 359.552C191.981 359.842 186.512 360.079 181.038 360.27C178.714 360.351 176.378 360.36 174.051 360.331L173.054 360.316C172.098 360.299 171.097 360.302 170.094 360.269C170.649 365.33 171.21 370.39 171.778 375.449C172.801 375.337 173.824 375.253 174.816 375.147C177.74 374.838 180.66 374.532 183.591 374.301C189.144 373.863 194.701 373.6 200.264 373.324C205.956 373.042 211.651 372.855 217.344 372.589C220.104 372.459 222.864 372.299 225.616 372.045C227.544 371.867 229.835 371.21 231.848 371.452C231.958 366.404 232.072 361.356 232.185 356.308ZM232.634 336.794C232.547 336.929 232.445 337.06 232.321 337.181C230.072 339.406 227.299 339.234 224.318 339.468L224.135 339.482C221.214 339.728 218.291 339.962 215.366 340.173C209.519 340.596 203.661 340.891 197.806 341.154C191.814 341.424 185.783 341.61 179.785 341.487C175.944 341.408 171.921 341.422 168.003 341.048C168.605 346.621 169.21 352.194 169.82 357.766C170.921 357.559 172.03 357.399 173.08 357.234C175.727 356.817 178.376 356.399 181.038 356.092C186.357 355.479 191.677 354.906 197.007 354.389C201.564 353.946 206.12 353.497 210.681 353.093L213.419 352.856C218.86 352.398 224.371 351.643 229.83 351.531C230.73 351.513 231.748 352.003 232.263 352.776C232.384 347.448 232.509 342.121 232.634 336.794ZM233.012 320.997C231.622 321.166 230.125 321.07 228.842 321.112C225.6 321.218 222.357 321.316 219.114 321.412L199.656 321.987C193.032 322.182 186.384 322.329 179.756 322.235C176.841 322.194 173.913 322.189 170.999 322.03L170.028 321.971C168.828 321.891 167.356 321.88 165.919 321.734L167.616 337.464C171.515 336.901 175.533 336.69 179.398 336.359L180.224 336.286C185.926 335.767 191.655 335.423 197.366 335.036C203.225 334.639 209.076 334.157 214.927 333.664C217.851 333.418 220.775 333.172 223.698 332.903L224.059 332.868C226.819 332.579 229.415 331.965 231.859 333.594C232.217 333.832 232.497 334.15 232.689 334.507C232.796 330.004 232.9 325.5 233.012 320.997ZM233.465 302.639C221.615 303.116 209.763 303.478 197.904 303.637C191.229 303.727 184.563 303.664 177.888 303.524C174.994 303.463 172.076 303.325 169.184 303.103L168.101 303.016C166.726 302.9 165.282 302.816 163.843 302.677C164.438 308.086 165.027 313.495 165.613 318.905C167.027 318.642 168.506 318.521 169.746 318.362L170.028 318.325C173.108 317.9 176.218 317.653 179.314 317.381C185.342 316.849 191.401 316.507 197.445 316.216C203.635 315.917 209.828 315.665 216.018 315.389L222.209 315.112C223.241 315.066 224.273 315.021 225.305 314.978C226.779 314.915 228.253 314.856 229.727 314.795C230.454 314.765 231.21 314.666 231.938 314.704L232.146 314.676C232.241 314.664 232.325 314.654 232.403 314.645C232.601 314.495 232.814 314.369 233.04 314.275L233.177 314.221L233.465 302.639ZM161.9 285.241C162.451 290.11 162.995 294.98 163.532 299.851C165.222 299.658 166.932 299.551 168.546 299.405C171.8 299.114 175.069 298.858 178.333 298.708L184.856 298.404C189.205 298.203 193.553 298.009 197.904 297.85C209.814 297.415 221.723 296.916 233.625 296.308C233.709 293.005 233.796 289.701 233.884 286.398C233.313 287.01 232.487 287.413 231.403 287.411C218.907 287.377 206.402 287.449 193.908 287.244C187.654 287.141 181.407 286.989 175.16 286.668C172.104 286.511 169.03 286.191 165.997 285.77C164.703 285.591 163.288 285.463 161.9 285.241ZM159.9 267.891C160.488 272.879 161.064 277.868 161.631 282.858C163.183 282.581 164.786 282.433 166.234 282.236C169.344 281.813 172.474 281.475 175.607 281.298C181.703 280.953 187.803 280.779 193.908 280.65C206.401 280.384 218.907 280.386 231.403 280.287C232.577 280.278 233.448 280.743 234.02 281.437C234.107 278.322 234.199 275.207 234.293 272.092C233.086 271.965 231.889 271.784 230.782 271.707C227.379 271.469 223.974 271.252 220.568 271.056C213.461 270.648 206.346 270.3 199.234 269.99C192.12 269.68 185.003 269.378 177.887 269.114L174.774 269C169.825 268.816 164.792 268.583 159.9 267.891ZM157.663 249.107C158.274 254.159 158.876 259.211 159.477 264.264L159.66 265.828C165.612 264.67 171.884 264.33 177.887 264.075C185.004 263.772 192.11 263.616 199.234 263.638C206.351 263.659 213.457 263.828 220.568 264.122C224.121 264.269 227.674 264.439 231.225 264.632C232.202 264.685 233.347 264.656 234.525 264.673C234.551 263.879 234.572 263.085 234.6 262.292C234.708 259.076 234.814 255.86 234.924 252.644C232.522 253.879 229.399 254.377 226.985 254.903L226.71 254.964C222.724 255.86 218.655 256.44 214.586 256.795C206.597 257.493 198.524 257.232 190.543 256.557L189.145 256.437C182.135 255.829 174.869 255.058 168.074 253.322C164.838 252.495 161.492 251.338 158.591 249.661C158.29 249.487 157.978 249.302 157.663 249.107ZM225.15 189.079C225.22 188.806 225.628 188.744 225.763 188.999C226.707 190.793 227.058 192.947 227.713 194.87C228.418 196.937 229.076 199.02 229.854 201.062C231.48 205.328 233.397 209.428 235.684 213.381C237.948 217.294 231.608 220.088 229.942 215.803C228.222 211.382 226.808 206.81 225.953 202.138C225.535 199.859 225.163 197.548 225.042 195.232C224.938 193.242 224.659 191.02 225.15 189.079Z" fill="black"/>
<path fill-rule="evenodd" clip-rule="evenodd" d="M262.234 61.5414C246.552 20.1635 218.285 -10.132 170.63 8.89639C169.263 7.96294 167.479 7.71259 165.77 8.80564C139.81 25.1539 121.117 51.3642 113.015 80.9194C108.085 81.8596 103.294 83.4994 99.0152 86.1884C89.7153 92.0327 83.4585 101.332 77.5935 110.39C75.8297 113.113 77.4629 117.621 80.7774 118.239C82.2171 118.508 83.6439 118.668 85.0627 118.71C84.7173 119.968 84.2626 121.183 83.6836 122.297C81.5873 126.332 85.5477 130.615 89.2593 129.512C89.6712 129.731 90.1027 129.91 90.5498 130.045C90.6006 132.331 91.7715 135.39 94.0889 135.852C97.8367 136.658 102.817 133.781 101.933 129.577C103.065 129.777 104.193 129.802 105.293 129.663C105.416 131.853 105.378 134.137 105.679 136.156C106.664 145.673 116.145 152.066 125.186 149.171C125.741 152.136 126.392 156.303 129.304 157.911C132.709 167.49 138.587 178.422 148.216 182.787C147.359 184.989 147.824 187.669 150.406 189.143C168.031 199.221 189.185 202.631 209.112 198.884C217.075 198.409 224.834 196.604 232.281 192.759C237.712 189.955 242.705 186.394 247.579 182.723C252.455 179.051 257.669 175.476 261.561 170.708C265.788 165.53 267.756 159.437 269.033 152.953C274.885 123.519 272.864 94.6185 262.234 66.5802C249.075 31.8732 275.388 96.2503 262.234 61.5414Z" fill="#694D3D"/>
<path fill-rule="evenodd" clip-rule="evenodd" d="M98.969 84.496C113.607 75.8363 132.274 78.0777 141.068 91.4917C142.586 93.8074 143.634 96.3549 144.375 99.3038L144.494 99.7941L144.614 100.31C144.997 102.015 145.248 103.619 145.589 106.347L145.967 109.442L146.075 110.286C146.441 113.087 146.762 114.857 147.263 116.661L147.362 117.011L147.941 119.009L145.757 119.818C141.574 121.333 140.698 121.469 138.284 120.203C136.399 119.215 135.415 117.884 134.105 115.188L133.916 114.793L133.498 113.914L133.271 113.45C132.418 111.742 131.735 109.92 130.769 109.258C129.458 108.359 125.326 108.002 122.452 108.356L122.302 108.375L122.178 108.401L121.965 108.449C117.132 109.595 112.727 113.508 109.821 117.643C107.482 120.972 106.138 125.166 105.973 129.525L105.963 129.815L105.906 132.04L101.221 131.94L101.267 131.074L101.197 131.228C99.7209 134.349 96.0125 136.427 92.9098 134.361L92.7992 134.286L92.6866 134.205C90.0673 132.271 89.7519 128.357 91.9017 125.979L92.0012 125.872L92.0978 125.774L92.078 125.765L92.0558 125.757L92.042 125.756C91.3096 125.891 90.6663 126.267 89.796 127.069L89.5721 127.279L89.1226 127.767L88.6575 128.265L88.4576 128.471C88.3299 128.6 88.2127 128.714 88.1027 128.814C87.954 128.95 87.8164 129.064 87.6666 129.168C87.5282 129.264 87.3852 129.348 87.2122 129.424C86.7854 129.61 86.3291 129.698 85.7452 129.554C84.9443 129.357 84.4929 128.871 84.2197 128.299C84.1136 128.077 84.0529 127.872 84.0099 127.657C83.965 127.431 83.9427 127.201 83.9312 126.936C83.9236 126.762 83.9209 126.572 83.9224 126.365L83.9277 126.041L83.9388 125.689L83.9506 125.408L84.0037 124.365C84.1933 120.942 85.0904 117.58 86.6262 114.406L86.7819 114.09L86.8399 113.975L86.6793 114.191C85.632 115.575 84.6205 116.535 83.3583 117.168L83.1846 117.253L83.0147 117.33C81.2634 118.102 79.4994 117.802 78.4338 116.372C77.6966 115.382 77.4791 114.079 77.6301 112.709C77.9233 110.05 78.9717 107.616 81.0244 104.064L81.312 103.57L82.4388 101.653C86.7808 94.3244 92.3621 88.404 98.969 84.496Z" fill="#E8E1E1"/>
<path fill-rule="evenodd" clip-rule="evenodd" d="M186.422 0.833239C194.447 0.265034 202.619 1.62184 210.262 4.0489C222.451 7.91859 233.645 14.7478 242.842 23.6383C252.32 32.8007 259.331 44.0973 263.593 56.5741C268.733 71.6211 269.503 87.6873 270.95 103.395C271.68 111.33 272.885 119.145 274.137 127.004L274.335 128.246C275.558 135.903 276.246 143.647 274.557 151.292C271.747 163.998 263.327 174.784 253.331 182.754C232.797 199.126 200.831 209.107 176.923 194.042C173.225 191.711 176.73 185.75 180.34 188.179C182.882 189.889 185.574 191.388 188.461 192.423C200.523 196.746 213.771 195.206 225.693 191.185C237.441 187.222 248.714 180.525 257.383 171.589C266.489 162.204 271.535 150.61 270.806 137.418C270.371 129.57 268.588 121.866 267.599 114.081C266.722 107.186 266.196 100.253 265.591 93.3304L265.369 90.8403C264.084 76.7355 262.24 62.2437 255.841 49.4405C250.459 38.6692 242.578 29.0866 233.101 21.6861C223.18 13.9382 211.33 8.51943 198.897 6.4983C184.275 4.12177 170.279 8.44344 158.083 16.4886C147.265 23.6236 137.966 33.1583 130.835 43.977C127.377 49.2228 124.431 54.8248 121.887 60.5699C119.49 65.9828 117.837 71.6559 115.909 77.2352C117.495 77.1878 119.108 77.249 120.746 77.4305C129.145 78.364 136.971 82.7299 141.953 89.6141C148.041 98.0263 146.396 108.352 148.774 117.919C148.958 118.662 148.645 119.389 148.011 119.8C144.405 122.137 139.58 122.215 136.09 119.583C133.061 117.299 131.639 113.169 132.865 109.561C133.025 109.091 133.708 109.174 133.727 109.678C133.958 115.819 139.638 120.547 145.206 117.625C142.817 109.376 144.074 100.162 139.19 92.7108C130.544 79.5227 112.652 78.9778 100.085 86.4123C93.4713 90.3243 88.2365 96.2067 84.3384 102.786L83.2154 104.696C81.7212 107.248 80.1389 110.135 79.8289 112.946C79.6501 114.568 80.247 116.092 82.1021 115.275C83.6029 114.614 84.765 113.072 85.6564 111.746C87.1768 109.486 90.6706 111.439 89.4148 113.846L89.3721 113.925C87.5444 117.172 86.4192 120.751 86.2125 124.48L86.16 125.512C86.1256 126.265 86.1008 127.335 86.2595 127.374C86.4499 127.421 87.7724 125.889 87.9926 125.677C89.0534 124.655 90.1459 123.82 91.6226 123.548C93.5639 123.191 95.5225 125.6 93.8374 127.179L93.7671 127.243C92.2632 128.554 92.33 131.169 93.9913 132.395C96.3359 134.126 99.2224 131.301 99.5627 128.975L99.5742 128.89C99.875 126.377 103.355 126.288 103.544 128.89C103.954 134.536 97.2519 139.268 92.1522 136.42C90.1357 135.294 88.8537 133.233 88.4521 131.023C87.8085 131.364 87.114 131.601 86.3799 131.666C83.9898 131.879 82.2907 130.193 81.9042 127.931C81.454 125.296 81.721 122.474 82.4133 119.737C81.1153 120.051 79.75 119.931 78.3775 119.137C74.2255 116.734 75.4178 111.389 76.9855 107.78C83.6783 92.3773 97.5443 78.4011 114.723 77.2915C114.817 74.5739 115.184 72.0046 115.785 69.2834C121.661 42.6663 140.696 18.0193 165.476 6.49964C172.098 3.42123 179.121 1.35048 186.422 0.833239ZM121.436 107.159L121.671 107.105C124.349 106.527 131.394 105.847 130.545 110.366C130.505 110.578 130.197 110.552 130.142 110.366C129.31 107.525 123.66 109.797 122.011 110.481C119.736 111.423 117.493 112.813 115.636 114.429C111.57 117.968 108.845 122.956 108.431 128.372C108.02 133.745 109.574 139.549 113.439 143.436C115.333 145.341 117.751 146.634 120.467 146.729C122.908 146.814 125.604 144.909 127.856 146.025C128.3 146.245 128.652 146.848 128.611 147.346C128.536 148.287 128.116 149.019 127.491 149.588C131.261 156.478 134.346 163.771 139.155 170.037C141.569 173.181 144.303 176.092 147.4 178.57C148.872 179.748 150.472 180.782 152.122 181.691C154.056 182.757 155.729 183.424 157.109 185.23C158.286 186.77 157.108 189.748 155.169 190.014C150.6 190.638 146.161 186.934 142.807 184.159C139.456 181.386 136.56 177.966 134.167 174.337C129.572 167.369 126.428 159.149 125.171 150.832C123.711 151.296 122.068 151.438 120.832 151.441C117.544 151.448 114.404 150.262 111.819 148.257C102.358 140.917 101.306 125.849 107.983 116.346C111.178 111.799 116.033 108.439 121.436 107.159ZM121.495 124.636C123.689 124.443 125.881 124.79 127.943 125.54L128.793 125.849C130.589 126.508 132.5 127.282 133.797 128.632C135.778 130.696 133.806 134.271 130.983 133.48C127.863 132.606 125.326 129.97 122.207 128.864C119.418 127.876 116.26 128.016 113.785 129.718C113.458 129.943 113.028 129.499 113.242 129.173C115.135 126.282 118.124 124.932 121.495 124.636Z" fill="black"/>
<path fill-rule="evenodd" clip-rule="evenodd" d="M230.043 157.778C230.729 156.586 232.306 155.481 233.75 155.65C240.217 156.409 240.206 164.257 237.709 168.838C235.495 172.901 230.912 175.285 226.326 174.937C221.507 174.571 217.402 171.736 215.595 167.225C214.4 164.24 213.848 158.731 217.027 156.726C217.086 156.689 217.183 156.698 217.23 156.752C218.754 158.527 218.814 161.191 220.148 163.166C221.389 165.004 223.317 166.521 225.575 166.755C227.262 166.93 228.968 166.322 229.628 164.806C229.985 163.986 229.944 163.541 229.81 162.977L229.688 162.487C229.266 160.769 229.076 159.462 230.043 157.778ZM231.772 123.362C235.145 125.414 240.285 130.198 236.656 135.286C232.385 139.771 226.235 134.628 223.205 132.302C220.395 130.5 217.238 135.136 219.845 137.241C241.743 153.467 250.629 123.898 233.478 120.949C231.59 120.624 230.888 122.727 231.772 123.362ZM196.153 109.291C198.223 106.182 202.949 106.64 204.089 110.329C204.707 112.327 203.854 114.123 203.898 116.119C203.935 117.805 203.825 119.683 203.308 121.316C202.131 125.039 198.785 127.669 194.827 127.56C190.882 127.451 187.408 124.952 185.755 121.432C184.097 117.899 184.448 114.243 185.659 110.65C185.717 110.478 185.943 110.394 186.079 110.539C187.51 112.061 188.557 113.668 189.641 115.372L190.752 117.119C191.601 118.434 192.835 120.114 194.42 120.009L194.657 119.985C195.098 119.947 195.03 120.035 195.37 119.434C195.527 119.156 195.499 118.639 195.575 118.311L195.601 118.2L195.587 118.14C195.553 117.981 195.52 117.682 195.493 117.162L195.487 117.048C195.372 114.617 194.686 111.493 196.153 109.291ZM248.634 111.36C248.263 107.384 253.848 106.501 255.705 109.443C256.673 110.978 256.955 112.905 257.169 114.731L257.27 115.598C257.489 117.473 257.576 119.424 256.763 121.173C255.482 123.928 252.696 125.385 249.691 125.154C246.821 124.933 244.202 123.268 242.822 120.74C241.592 118.484 240.368 114.08 241.863 111.727C241.953 111.584 242.133 111.566 242.257 111.676C243.669 112.931 243.9 115.22 244.739 116.855C245.605 118.541 246.919 120.184 248.91 120.44C250.815 120.685 251.542 119.644 251.056 117.827C250.43 115.481 248.87 113.885 248.634 111.36ZM197.661 85.652L198.575 85.3018C201.704 84.1187 206.001 82.751 208.545 85.2979C210.115 86.8684 210.414 89.1819 209.293 91.0984C207.936 93.42 205.501 93.4772 203.15 93.8192C200.475 94.2081 197.756 94.9476 195.266 96.0017C192.461 97.1895 189.858 98.6702 187.308 100.324C184.884 101.895 182.469 104.464 179.568 104.948C179.45 104.967 179.315 104.916 179.284 104.786C178.626 101.948 180.457 99.1539 182.09 96.9392C184.067 94.2578 186.463 92.0569 189.14 90.0836C191.724 88.1787 194.677 86.8022 197.661 85.652ZM254.509 95.7449L254.788 95.696C256.686 95.3798 258.406 95.4526 259.836 96.9569C260.927 98.1045 261.348 99.5918 260.828 101.109C260.348 102.509 259.274 103.931 257.715 104.224C252.454 105.215 246.626 105.051 241.338 104.301C238.919 103.958 236.478 103.538 234.121 102.875L233.037 102.56C231.07 101.998 228.818 101.41 227.389 99.9624C226.875 99.4421 227.171 98.6973 227.786 98.4563C230.279 97.479 233.697 97.999 236.356 97.9225C239.448 97.834 242.546 97.602 245.624 97.2823C248.632 96.9694 251.543 96.2894 254.509 95.7449Z" fill="black"/>
<path fill-rule="evenodd" clip-rule="evenodd" d="M283.641 89.3247C283.273 89.2635 282.905 89.2058 282.537 89.1517C282.25 88.9885 281.913 88.8629 281.52 88.7873C280.625 88.5598 279.735 88.4065 278.847 88.3238C266.103 85.4532 236.619 89.529 235.402 100.414C231.343 101.77 227.832 100.556 223.128 100.676C219.547 85.6978 157.645 87.8119 154.668 96.8424C154.657 96.8392 154.645 96.8365 154.634 96.833C151.773 95.9469 147.556 96.1606 144.282 96.0202C137.291 95.8736 130.292 96.4972 123.452 97.973C110.643 100.01 93.1626 102.395 102.071 118.403C102.072 118.406 102.074 118.409 102.076 118.412L102.077 118.41C103.613 119.985 106.218 118.717 106.315 116.585C103.32 109.001 110.085 108.091 115.289 105.911C128.24 101.255 141.425 100.609 154.819 102.05C155.827 103.237 157.356 104.272 158.972 104.814C167.927 106.302 163.208 112.951 168.869 113.918C167.829 137.094 195.943 149.744 212.233 134.509C218.737 128.145 220.288 118.717 221.796 110.219C222.593 110.04 223.1 109.604 223.396 109.026C225.314 107.11 226.518 105.34 230.31 104.814C234.102 104.288 237.021 105.344 237.416 105.667C237.516 105.868 237.622 106.069 237.747 106.27C237.92 106.57 238.156 106.809 238.424 106.998C234.679 130.076 252.581 144.672 270.653 132.702C278.506 125.309 280.165 113.99 280.493 103.888C281.557 103.245 282.231 101.999 281.863 100.433C281.355 98.2734 282.546 96.4038 284.443 95.465C286.907 94.2459 286.471 89.7937 283.641 89.3247ZM205.987 100.274C203.743 99.7797 202.785 103.241 205.036 103.736C206.629 104.087 207.98 104.891 208.892 106.254L208.988 106.402C210.213 108.352 213.309 106.552 212.076 104.589C210.689 102.381 208.533 100.834 205.987 100.274ZM271.687 98.1273C270.896 97.5698 269.699 97.9837 269.24 98.7715C268.735 99.639 269.066 100.605 269.807 101.172L269.882 101.228C270.562 101.707 271.223 102.566 271.306 103.446L271.314 103.556C271.403 105.86 274.979 105.871 274.89 103.556C274.803 101.292 273.493 99.3995 271.687 98.1273Z" fill="black"/>
</svg>
