<svg width="201" height="284" viewBox="0 0 201 284" fill="none" xmlns="http://www.w3.org/2000/svg">
<path fill-rule="evenodd" clip-rule="evenodd" d="M45.7521 154.548C47.9286 153.772 50.0265 152.877 51.9378 151.559C57.4476 147.46 61.0402 141.292 64.4349 135.448C69.2165 126.948 72.6229 117.891 74.9777 108.442C75.9895 104.383 76.3331 99.6762 78.6319 96.0771C83.8432 88.5412 99.1243 89.5176 107.239 90.8404C112.672 91.8013 113.796 97.8786 115.03 102.376C116.057 106.112 116.73 109.891 117.295 113.721C118.638 114.603 120.155 115.32 121.6 115.945C137.355 120.773 140.124 129.724 146.142 143.55C156.305 163.647 183.884 171.515 188.05 195.299C190.734 211.001 183.102 225.773 175.232 238.827C167.904 253.085 157.672 259.928 141.379 256.56C126.096 253.133 111.409 247.402 96.3951 242.973C89.1234 241.186 81.8632 236.539 74.214 238.159C58.4527 241.697 42.2587 243.36 26.1062 242.901C3.42752 243.817 3.43103 222.064 5.7587 205.218C7.38909 179.001 20.6202 162.167 45.7521 154.548Z" fill="#AE5D29"/>
<path fill-rule="evenodd" clip-rule="evenodd" d="M44.2359 192.483C42.3408 193.736 40.747 195.634 39.4675 197.633C44.8091 197.078 50.1414 196.437 55.4619 195.708C54.7654 195.264 54.0624 194.828 53.3433 194.418C50.7199 192.94 47.1654 190.547 44.2359 192.483ZM132.983 208.263C133.962 207.88 134.34 206.389 134.722 205.534C135.918 202.853 137.009 200.127 138.145 197.419C133.833 196.191 129.64 194.828 125.173 194.173C120.37 193.47 115.496 193.3 110.649 193.458C100.83 193.778 91.1031 195.382 81.45 197.101C71.8083 198.819 62.167 200.469 52.4578 201.764C42.9454 203.033 33.4029 203.961 23.8426 204.776C21.9851 204.935 18.888 205.602 17.3942 204.142C16.2114 202.985 16.1731 200.851 17.6531 199.91C18.5749 199.324 19.9106 199.315 20.9638 199.18C22.2901 199.009 23.6218 198.896 24.9562 198.807C25.4998 198.772 26.0434 198.739 26.5873 198.706C22.222 197.061 17.6626 196.164 12.9301 196.414C12.6624 198.038 11.4566 199.71 10.7967 201.05C9.64423 203.39 8.74594 205.758 8.15619 208.302C6.92356 213.619 6.86993 219.138 7.21806 224.561C7.53788 229.083 8.22487 234.085 11.7739 237.287C14.461 239.712 18.2521 240.61 21.7693 240.892C25.8572 241.22 30.0082 240.87 34.0618 240.322C39.7473 239.554 45.4593 238.538 51.033 237.176C61.8281 234.539 72.1754 230.343 81.722 224.654C86.3775 221.88 90.8198 218.759 95.5393 216.09C100.348 213.37 105.465 211.26 110.838 209.95C116.852 208.484 123.137 207.858 129.318 208.22C130.39 208.283 131.94 208.671 132.983 208.263ZM139.951 205.541C139.319 207.59 138.836 209.93 137.487 211.652C136.151 213.358 134.136 213.961 132.048 214.112C129.53 214.295 126.984 214.178 124.461 214.272C119.286 214.464 114.183 215.304 109.236 216.844C104.626 218.28 100.347 220.52 96.2253 223.005C92.4136 225.303 88.7137 227.77 84.9008 230.061C85.9156 230.526 86.9189 231.029 87.9277 231.467C90.0436 232.385 92.1725 233.271 94.311 234.135C98.5279 235.839 102.763 237.501 107.041 239.045C115.667 242.158 124.436 244.878 133.309 247.195C137.542 248.3 141.834 249.591 146.231 249.775C150.13 249.938 153.741 248.836 156.886 246.519C163.408 241.714 168.597 234.778 172.791 227.936C175.284 223.872 177.458 219.601 179.257 215.185C180.167 212.952 180.992 210.684 181.735 208.39C182.083 207.313 182.413 206.23 182.726 205.142C182.864 204.664 182.996 204.184 183.126 203.703C176.457 201.669 169.709 199.833 162.802 198.814C159.114 198.27 155.377 197.994 151.649 198.034C149.799 198.054 147.95 198.154 146.109 198.345C145.118 198.447 144.131 198.58 143.149 198.744C142.743 198.811 142.326 198.911 141.907 198.984C141.268 201.174 140.623 203.361 139.951 205.541ZM2.09002 196.836C1.73061 196.109 1.57898 195.394 1.45015 194.603C1.3519 194 1.09124 193.15 1.31957 192.367C1.57522 191.489 2.27174 190.704 2.77176 189.956C3.32392 189.129 3.87557 188.301 4.42647 187.473C5.52852 185.817 6.62806 184.16 7.72585 182.501C12.209 175.727 16.6616 168.934 21.1212 162.146C25.0787 156.121 28.9696 150.042 33.0477 144.099C36.5348 139.016 40.3357 134.018 45.1089 130.065C51.144 125.067 58.3302 122.713 65.8366 120.876C66.6564 120.026 67.7514 119.561 68.9219 119.655C70.5756 117.781 71.89 116.472 72.4857 114.088C72.7712 112.946 72.6817 109.738 73.7943 109.063C75.1159 108.26 75.8061 109.322 76.1706 110.52C77.3899 114.525 75.9904 119.91 72.7697 123.922C74.1266 128.609 75.9257 135.27 79.1351 139.025C82.5719 143.045 87.3247 144.297 92.4527 144.379C102.232 144.536 112.001 140.904 119.46 134.609C121.728 132.696 123.833 130.559 125.738 128.286C127.167 126.581 128.858 123.949 129.975 121.961C129.975 121.186 130.891 120.375 121.569 119.749C112.247 119.123 111.54 106.366 111.333 104.63C111.164 103.22 110.448 101.032 111.442 99.8822C111.864 99.394 112.73 99.3154 113.264 99.647C114.273 100.273 114.604 101.874 114.921 102.96C115.365 104.483 116.817 113.933 119.569 115.028C120.857 115.54 122.334 115.549 123.696 115.644C125.379 115.761 127.065 115.847 128.741 116.043C129.359 116.115 130.033 116.315 130.643 116.321C131.04 116.325 131.449 116.132 131.832 115.997C133.127 115.54 134.42 115.882 135.753 116.062C147.542 117.645 159.681 121.259 169.736 127.761C178.599 133.492 184.844 141.735 188.964 151.372C193.168 161.206 195.577 171.841 197.597 182.311C198.273 185.819 198.864 189.343 199.372 192.879C199.862 196.296 200.476 199.789 200.622 203.241C200.681 204.606 200.354 205.875 199.852 207.122C199.286 208.526 197.948 209.08 196.665 209.736C193.848 211.175 190.877 212.292 187.816 213.083C185.946 216.483 184.373 220.015 183.108 223.682C183.577 224.611 183.587 225.998 183.677 226.901C183.901 229.15 183.997 231.41 184.017 233.669C184.057 238.197 183.785 242.72 183.571 247.241C183.355 251.825 182.635 269.916 182.517 272.125C182.426 273.841 182.549 276.241 181.644 277.765C180.254 280.106 176.824 280.028 175.235 278.129C135.753 286.611 61.5395 284.056 31.6499 279.789C27.761 279.233 28.9821 279.849 27.9931 278.867C27.251 278.13 26.6194 276.867 26.4141 275.852C26.1399 274.498 26.5825 273.272 27.3585 272.176C28.1743 271.023 28.323 269.157 28.626 267.787C29.3426 264.548 29.6987 250.323 30.0336 248.746C30.1378 248.255 30.2388 247.736 30.3606 247.216C24.878 247.735 19.1652 247.736 13.9492 245.903C10.9914 244.864 8.2329 243.231 6.1095 240.9C3.53846 238.078 2.10807 234.525 1.37245 230.817C0.42329 226.035 0.221781 221.081 0.408255 216.22C0.667414 210.475 1.62083 204.649 3.98735 199.374C3.20862 198.651 2.55596 197.779 2.09002 196.836Z" fill="black"/>
<path fill-rule="evenodd" clip-rule="evenodd" d="M94.2261 3.8241C80.0247 3.8241 65.3359 14.8486 60.1303 21.8837C54.111 30.0183 49.3627 69.0687 51.5902 82.3194C53.8177 95.5701 64.8823 110.013 84.0903 110.013C103.298 110.013 114.988 107.643 115.456 104.201C115.769 101.907 119.992 94.3739 128.125 81.6024C136.444 79.259 140.62 75.2887 140.652 69.6913C140.685 64.0939 138.456 60.277 133.965 58.2405C135.566 36.1508 134.351 22.2304 130.319 16.4793C124.271 7.85267 108.427 3.8241 94.2261 3.8241Z" fill="#AE5D29"/>
<path fill-rule="evenodd" clip-rule="evenodd" d="M101.457 0.50288L101.203 0.503994C85.4904 0.605667 69.5096 7.84704 60.1614 20.4968L59.8802 20.8817C59.8649 20.9018 59.5853 21.3188 59.5191 21.4376C59.1316 22.1341 58.6752 22.7856 58.325 23.4939C58.0295 24.0951 57.8329 24.7666 57.6156 25.407L57.5497 25.598C56.9917 27.1961 56.5218 28.8093 56.1063 30.45C55.3012 33.6437 54.6735 36.8876 54.0629 40.1239C51.8819 51.7126 50.4558 63.4668 49.7372 75.2364L49.5953 77.6029C49.4504 80.0574 49.3407 82.5225 49.616 84.969C49.9339 87.817 50.7515 90.4898 51.9895 93.0698C53.1303 95.4494 54.6009 97.6537 56.2839 99.6802C57.1843 100.765 58.1397 101.819 59.3152 102.613C60.2509 103.245 61.3438 103.66 62.3968 104.061C64.1098 105.775 66.3082 107.07 68.4567 108.104C71.9982 109.805 75.8374 110.744 79.7216 111.215C83.6933 111.693 87.705 111.578 91.6442 110.895C95.4083 110.243 99.4428 108.578 101.761 105.404C101.961 105.131 101.589 104.873 101.344 104.986C94.6155 108.104 87.055 108.918 79.7216 107.934C76.3003 107.475 72.9339 106.529 69.8098 105.058C67.1736 103.818 64.9504 102.015 62.5844 100.382C62.1239 99.7679 61.659 99.1642 61.1285 98.6031L60.3009 97.7339C59.6824 97.0811 59.075 96.4194 58.5226 95.7049C56.8166 93.5031 55.4038 91.0058 54.4706 88.3781C52.6559 83.2633 53.1467 77.7111 53.4674 72.3807L53.4952 71.911C53.8253 66.2098 54.3633 60.5287 55.1084 54.8677C55.854 49.1991 56.8019 43.5531 57.9221 37.9471C58.4749 35.1842 59.0954 32.4389 59.6429 29.676C59.9257 28.2507 60.1231 26.8054 60.3382 25.3651C60.4685 24.4883 60.466 23.6442 60.4685 22.7875C60.4932 22.8276 60.5235 22.8652 60.5535 22.9027C60.4632 23.1157 60.5257 23.3887 60.7458 23.5139C61.5787 23.9899 62.5391 23.8296 63.477 23.8321C64.4727 23.8371 65.4681 23.8396 66.4636 23.8421C67.5003 23.8458 68.537 23.8458 69.5737 23.8443L72.6838 23.8371L85.1241 23.7995C93.2713 23.775 101.557 24.0995 109.677 23.3303L110.298 23.269C110.936 23.1954 118.137 22.3133 120.085 22.0855L120.144 22.0786C123.703 21.6678 127.212 21.0591 130.671 20.1474C129.541 20.6007 128.453 21.2119 127.332 21.6753C125.887 22.2715 124.404 22.7925 122.92 23.291C119.876 24.3155 116.828 25.3099 113.797 26.367C112.927 26.6696 110.953 34.1261 110.455 35.3057L110.44 35.3395C110.187 35.9081 109.84 36.5319 110.032 37.1781C110.457 38.6059 112.711 39.663 113.829 40.4696L114.978 41.3002L116.481 42.3893C117.098 42.8316 117.667 43.17 118.474 42.9168C118.476 42.9143 118.478 42.9143 118.481 42.9143C117.791 46.1231 117.455 56.5009 117.353 58.3219C117.263 59.9075 116.798 61.939 117.538 63.3843C117.713 63.7275 118.168 63.998 118.556 63.9705C120.247 63.8427 121.937 63.7175 123.628 63.5922C124.081 63.5572 124.494 63.2991 124.619 62.8382L124.624 62.8132C124.679 62.8282 124.741 62.8182 124.794 62.7631C124.886 62.6704 124.981 62.5802 125.079 62.4926C127.305 60.5037 130.786 60.0127 133.533 61.0473C134.973 61.5883 136.611 62.5001 137.627 63.6824C138.755 64.995 138.997 66.8285 139 68.5043C139.005 71.7356 137.839 75.007 135.461 77.2489C133.276 79.3068 130.456 79.9057 127.619 80.4947L127.315 80.5579C126.667 80.6931 126.462 81.66 126.95 82.0658C125.651 83.3383 124.531 84.8563 123.438 86.2565C121.987 88.1141 120.599 90.0453 119.249 91.9808L118.597 92.9171C116.274 96.2371 112.912 100.81 114.374 104.961C114.569 105.519 115.384 105.72 115.702 105.133C116.745 103.205 117.328 101.08 118.319 99.1291C119.291 97.2154 120.502 95.4419 121.702 93.6685L122.395 92.6407C123.548 90.9243 124.69 89.1893 125.749 87.4213L126.486 86.1971C127.179 85.0411 127.865 83.8465 128.375 82.6044C131.789 83.4285 135.501 81.5949 137.899 79.1526C140.916 76.0766 142.334 71.5453 141.944 67.2844C141.738 65.0551 141.081 62.8984 139.45 61.2952C139.285 61.1349 139.112 60.9821 138.935 60.8293C138.997 60.7968 139.05 60.7467 139.075 60.6865C140.168 58.0865 140.401 54.9879 140.493 52.1874C140.59 49.2918 140.528 46.3886 140.308 43.498C139.905 38.1976 138.95 32.9248 137.434 27.8299C135.191 20.3002 131.336 12.9283 125.179 7.87589C118.612 2.48719 109.815 0.48891 101.457 0.50288ZM134.143 66.3626C133.215 65.9412 131.769 66.6919 130.943 67.1703L130.889 67.2018C128.45 68.622 126.714 71.0418 125.912 73.722C125.397 75.4504 128.29 76.1392 128.535 74.4459C128.735 73.0657 129.196 71.7732 129.953 70.6184C130.134 70.6786 130.309 70.7562 130.466 70.8564C131.069 71.2472 131.419 71.9185 132.257 71.8183C132.877 71.7456 133.513 71.3148 133.47 70.6034C133.402 69.4286 132.457 68.9602 131.444 68.9001C131.589 68.7705 131.734 68.6422 131.884 68.5186L132.047 68.387C132.233 68.2529 134.215 66.8838 134.272 67.2359L134.273 67.2569C134.27 67.3971 134.458 67.4773 134.553 67.3721C134.936 66.9613 134.58 66.563 134.143 66.3626Z" fill="black"/>
<path fill-rule="evenodd" clip-rule="evenodd" d="M78.1712 91.9129C79.856 91.2259 81.3594 90.0801 82.4584 88.6164C82.8405 88.1075 82.9396 87.5702 82.8594 87.0787C82.7693 86.5261 82.4422 86.0252 81.996 85.6892C81.5485 85.3522 80.9887 85.186 80.4475 85.2708C79.9773 85.3444 79.5091 85.6017 79.1386 86.1354L79.0612 86.2421C78.4078 87.1256 77.5564 87.8505 76.5862 88.3177C75.6511 88.768 74.6053 88.9782 73.523 88.856C71.4618 88.6233 70.0412 87.5092 68.5311 85.9964C68.344 85.8053 68.1567 85.6084 67.9685 85.4082C67.8496 85.2267 67.6847 85.1101 67.5015 85.0489C67.2982 84.981 67.0682 84.9849 66.8575 85.0583C66.6543 85.1292 66.4727 85.2635 66.3509 85.4422C66.2351 85.6121 66.1695 85.822 66.1908 86.0633C66.329 87.6312 67.1492 89.0304 68.3142 90.1291C69.6081 91.3494 71.3233 92.1935 72.938 92.4896C74.717 92.8158 76.5298 92.5821 78.1712 91.9129ZM72.0988 67.7258C70.2062 68.8755 67.3223 71.5565 69.3584 74.4069C71.755 76.9202 75.2057 74.0386 76.9061 72.7353C78.4828 71.7253 80.2543 74.323 78.7914 75.5024C66.5042 84.594 61.5178 68.0264 71.1415 66.3739C72.2011 66.1918 72.5947 67.3701 72.0988 67.7258ZM94.1175 57.1499C93.9084 54.5558 89.9552 53.9667 89.562 56.5337C89.2098 58.8332 89.6244 60.9456 90.6608 63.0159C91.651 64.9938 94.14 64.071 94.3282 62.27C94.5805 59.8558 94.2476 58.7636 94.1175 57.1499ZM64.0251 56.0015C63.474 55.2801 62.6782 54.7876 61.7248 55.0659C58.7459 55.9358 59.6239 60.1623 60.6701 62.2196C61.2385 63.3368 63.076 63.6201 63.9063 62.6364C65.2598 61.0323 65.9079 57.8288 64.1873 56.2487C64.1407 56.167 64.0888 56.0846 64.0251 56.0015ZM90.7027 45.7988L90.2322 45.7165C88.7765 45.4649 86.9666 45.2231 85.9368 46.3927C85.3907 47.0129 85.2027 48.1657 85.9368 48.7593C87.2281 49.8039 88.6558 49.3991 90.2032 49.4875C91.4784 49.5606 92.704 49.7715 93.9324 50.1225C96.6273 50.8922 98.8231 52.2975 101.125 53.8405C101.427 54.0429 101.735 53.6569 101.591 53.3746C100.262 50.7738 97.6875 48.6373 95.1084 47.335C93.7319 46.6399 92.2256 46.0633 90.7027 45.7988ZM66.7406 44.6337L66.3804 44.7074C62.4611 45.5261 57.3691 47.1617 55.5131 51.009C55.4424 51.5531 55.5171 51.6697 55.5779 51.7459L55.5981 51.7712C55.6482 51.8363 55.6881 51.9259 55.9241 52C55.9896 51.9844 56.0557 51.9679 56.1225 51.9504C56.9733 51.7276 57.6464 51.4206 58.298 51.1021L59.0045 50.7542C59.8242 50.3525 60.6512 49.9654 61.5276 49.6797C63.3979 49.07 65.3216 48.6405 67.2752 48.4112C67.6986 48.3615 68.1063 48.2187 68.428 47.974C68.7333 47.7416 68.9666 47.4199 69.0729 46.9924C69.2107 46.439 69.1711 46.0201 68.8741 45.5209C68.6507 45.146 68.3311 44.8862 67.9641 44.7369C67.5899 44.5848 67.164 44.549 66.7406 44.6337Z" fill="black"/>
</svg>
