<svg width="194" height="282" viewBox="0 0 194 282" fill="none" xmlns="http://www.w3.org/2000/svg">
<path fill-rule="evenodd" clip-rule="evenodd" d="M23.1713 162.688C26.5695 146.598 38.6211 134.113 54.8293 127.893C57.9449 126.132 60.965 118.575 65.1521 117.191C65.8233 116.969 64.7639 118.735 65.1521 118.84C66.5368 119.216 68.0884 119.255 69.6173 117.897C72.3498 115.47 73.207 108.379 74.8684 105.173C83.6303 88.2701 105.507 94.8839 108.438 113.57C110.481 114.901 113.37 116.074 115.595 117.147C117.885 118.252 119.9 120.927 122.261 121.884C124.367 122.737 127.838 122.133 129.96 122.877C139.721 126.299 147.989 130.617 154.471 139.366C155.837 141.212 157.376 143.48 158.619 145.345C165.027 152.717 169.477 160.98 173.576 169.845C185.045 195.866 188.164 224.677 190.963 252.713C190.899 257.619 194.156 271.221 189.339 273.573C189.627 273.871 189.523 274.47 188.988 274.465C176.774 274.342 164.588 275.434 152.564 277.558C146.762 278.583 140.991 279.988 135.082 280.219C122.814 280.135 110.59 278.08 98.339 280.024C83.6108 280.024 65.7115 279.595 49.3265 278.966C34.0132 278.378 18.6178 279.706 3.49413 277.104C2.29701 276.914 1.7124 275.455 1.96333 274.409C3.7377 267.948 4.60875 261.297 5.60439 254.683C5.40608 250.441 5.7608 246.013 7.33101 242.061C11.4335 215.388 16.6942 188.888 23.1713 162.688Z" fill="#FFDBB4"/>
<path fill-rule="evenodd" clip-rule="evenodd" d="M65.1521 118.938C64.7639 118.832 65.8233 117.067 65.1521 117.289C60.965 118.673 57.9449 126.23 54.8293 127.991C38.621 134.21 26.5695 146.696 23.1713 162.786C16.6942 188.986 11.4335 215.486 7.33098 242.159C5.76079 246.11 5.40607 250.539 5.60435 254.781L5.44803 255.826C4.51453 262.094 3.6443 268.386 1.96332 274.507C1.7124 275.553 2.297 277.012 3.49411 277.202C18.4459 279.775 33.6633 278.505 48.8044 279.045L51.9603 279.163C67.6117 279.738 84.3963 280.122 98.339 280.122C110.59 278.178 122.814 280.233 135.082 280.317C140.991 280.086 146.762 278.681 152.564 277.656C164.588 275.532 176.774 274.44 188.988 274.563C189.523 274.568 189.627 273.969 189.339 273.671C194.156 271.319 190.899 257.716 190.963 252.811L190.71 250.286C187.969 223.049 184.701 195.183 173.576 169.943L173.243 169.225C169.235 160.632 164.854 152.615 158.619 145.442L158.238 144.872C157.07 143.129 155.7 141.125 154.471 139.464C147.989 130.715 139.721 126.397 129.96 122.974C127.837 122.23 124.367 122.835 122.261 121.981C120.053 121.087 118.148 118.688 116.036 117.478L116.036 126.506L85.4837 156.586L68.1553 130.03L66.3931 119.154C65.9685 119.127 65.5533 119.047 65.1521 118.938Z" fill="#8FA7DF"/>
<path fill-rule="evenodd" clip-rule="evenodd" d="M28.1133 197.749C28.4365 199.317 28.8894 200.886 29.4916 202.371C30.0718 203.805 30.9458 205.089 31.5478 206.506C31.6286 206.697 31.7608 206.841 31.9201 206.951L31.8705 207.336L31.8246 207.722C31.5244 210.322 31.1867 212.916 30.8942 215.516L30.7521 216.817C30.1771 222.246 29.2688 227.648 28.5638 233.062C27.8734 238.365 27.1706 243.667 26.4193 248.961C25.6432 254.42 24.8525 259.871 23.9296 265.308C23.5399 267.604 23.1333 269.898 22.7096 272.19L22.3824 273.945C19.0138 274.755 18.0933 279.447 21.5231 281.18C23.0798 281.963 25.0799 281.774 26.363 280.544C27.6963 279.261 27.7516 276.949 28.061 275.212L28.3591 273.598C30.5896 261.461 32.5255 249.185 33.4306 236.877C33.6631 233.699 33.859 230.518 33.9863 227.335C34.1073 224.341 34.0495 221.347 34.0957 218.352L34.1111 217.536C34.1819 214.343 34.1234 211.155 34.0402 207.962C34.0304 207.573 34.0132 207.184 33.9936 206.792C34.106 206.66 34.187 206.503 34.2211 206.352L34.2654 206.151C34.3755 205.635 34.2507 205.03 33.8539 204.661C33.6827 202.486 33.4575 200.313 33.3963 198.14C33.3914 197.962 33.1344 197.967 33.1194 198.14C32.975 199.99 32.6864 201.845 32.3975 203.697C30.5394 202.204 29.166 199.743 28.3557 197.683C28.297 197.534 28.0788 197.588 28.1133 197.749ZM72.0761 111.277C71.7676 112.686 71.1581 113.951 70.3404 115.128C69.9509 115.691 69.508 116.215 68.9768 116.653C68.5212 117.027 68.0022 117.271 67.5177 117.597C66.8127 117.487 66.0758 117.754 65.5813 118.272L65.6594 117.514C65.6841 117.269 65.2775 117.22 65.231 117.457C63.0892 128.253 61.1359 139.055 59.4451 149.928L58.704 154.73L58.0067 159.238C56.8488 166.75 55.7288 174.259 54.8854 181.826C53.7617 191.923 52.817 202.048 52.1266 212.187C51.4338 222.397 51.0076 232.615 50.7041 242.845C50.6284 245.423 50.5474 248 50.4693 250.578L49.9464 247.495C49.4245 244.412 48.9128 241.325 48.4741 238.228C46.9 227.142 45.6414 215.977 45.0272 204.796C44.4639 194.563 44.6524 184.128 47.2572 174.16C47.9135 171.652 48.7165 169.183 49.6857 166.778C50.626 164.439 51.9085 162.271 52.9198 159.967C54.0949 157.285 54.4474 154.755 53.8425 151.868C53.3137 149.353 52.3859 146.987 52.2197 144.398C51.9085 139.593 53.4731 134.939 55.6835 130.733C56.2664 129.625 56.8808 128.531 57.5222 127.447C59.4633 124.171 61.6521 121.015 63.9237 117.989C64.0461 117.827 63.7869 117.648 63.6544 117.781C61.5836 119.826 59.3191 121.837 57.4559 124.071C56.5503 125.157 55.6666 126.266 54.8293 127.404C45.6439 128.938 37.7513 134.655 32.3559 142.206C26.2333 150.775 23.1364 161.087 20.8448 171.244C18.2963 182.531 16.1469 193.92 13.858 205.263C11.4884 217 9.13095 228.737 6.74652 240.471C5.56165 246.297 4.37653 252.123 3.19434 257.951C2.59456 260.901 1.96516 263.845 1.30688 266.786C0.968796 268.293 0.606491 269.798 0.293137 271.31C-0.0591431 273.015 0.26889 274.106 1.42415 275.359C1.85036 275.824 2.52357 275.817 3.05237 275.569L3.21767 275.492L3.37743 275.415C4.03174 275.093 4.54472 274.76 4.95183 274.045C5.40007 273.26 5.47107 272.389 5.62505 271.515C5.90927 269.907 6.19057 268.3 6.47455 266.69C6.89885 264.283 7.3602 261.882 7.82979 259.482L10.1858 247.487C10.814 244.289 11.4432 241.091 12.076 237.895C14.3356 226.464 16.5976 215.035 18.8594 203.607C21.0311 192.633 22.9528 181.584 25.4252 170.673L25.5657 170.059L25.7087 169.445C27.9194 160.04 31.0083 150.942 36.6131 142.972C40.9267 136.843 46.9169 131.37 53.9725 128.6C53.4753 129.314 52.9979 130.044 52.5426 130.787C49.6832 135.456 47.5952 140.997 48.0849 146.556C48.3245 149.272 49.3576 151.942 49.2599 154.68C49.1694 157.112 47.6636 159.248 46.6231 161.364C44.261 166.16 42.552 171.256 41.4503 176.484C39.2397 186.983 39.247 197.786 40.0086 208.443C40.8361 220.029 42.4075 231.612 44.1971 243.084C45.1151 248.968 46.3367 254.804 47.2721 260.679C47.7345 263.575 48.3639 266.465 48.9148 269.347L49.1773 270.724C49.3242 271.489 49.4767 272.25 49.6529 273.004L49.7616 273.455V273.536C49.7664 274.092 49.9185 274.552 50.1633 274.919C50.4984 275.992 50.9146 277.04 51.4679 278.046C51.7518 278.559 52.1634 278.848 52.6114 278.953C53.0618 279.983 54.0827 280.776 55.3016 280.771L71.3343 280.71C80.6468 280.673 89.9593 280.612 99.2719 280.56C101.622 280.548 103.969 280.504 106.317 280.443C108.518 280.382 110.628 280.118 112.805 279.844C115.263 279.536 116.594 277.796 116.227 275.342C116.146 274.801 116.058 274.263 115.975 273.725C116.465 273.886 117.047 273.81 117.441 273.426L117.811 273.065C118.323 272.558 118.781 272.061 119.106 271.385C119.441 270.691 119.713 269.957 120.01 269.247C120.649 267.72 121.27 266.189 121.875 264.65C123.087 261.572 124.298 258.482 125.425 255.372C127.655 249.213 129.628 242.962 131.344 236.64C134.404 225.36 136.617 213.863 138.013 202.263L138.346 199.499L138.443 198.682C138.973 194.186 139.418 189.62 139.207 185.134C139.077 182.325 138.642 179.494 137.591 176.871C136.622 174.451 135.126 172.382 133.704 170.219L133.541 169.969L133.378 169.713C132.134 167.749 131.144 165.695 131.094 163.309C131.044 160.888 131.75 158.532 132.539 156.265L132.736 155.706L132.868 155.336C134.546 150.652 136.457 146.034 135.827 140.936C134.896 133.43 130.343 127.379 124.614 122.713C129.709 123.721 134.752 125.713 139.202 128.238C144.459 131.223 149.191 135.162 153.272 139.608C160.983 148.01 166.489 158.09 170.996 168.499C175.713 179.391 179.212 190.805 181.848 202.369C184.499 213.998 186.274 225.813 187.486 237.675C188.091 243.579 188.566 249.497 188.96 255.418C189.16 258.452 189.312 261.491 189.547 264.52C189.782 267.547 189.888 270.619 190.627 273.566C190.972 274.938 193.3 275.078 193.55 273.566C194.103 270.189 193.949 266.697 193.794 263.277L193.78 262.966C193.628 259.561 193.43 256.157 193.195 252.754C192.715 245.798 192.074 238.852 191.237 231.927C188.301 207.622 182.888 183.443 172.271 161.256C167.272 150.806 160.856 140.652 151.93 133.107C147.68 129.517 142.889 126.652 137.726 124.578C133.109 122.72 128.418 121.842 123.513 121.845C121.052 119.961 118.411 118.319 115.772 116.917C115.613 116.831 115.446 117.037 115.578 117.169C115.647 117.235 115.713 117.303 115.781 117.367C115.483 117.387 115.175 117.526 114.898 117.817C113.928 118.832 113.111 120.103 112.379 121.421C111.265 122.811 110.203 124.247 109.091 125.622C107.311 127.824 105.49 129.994 103.646 132.147C100.55 135.766 97.3531 139.316 94.0192 142.723L93.4623 143.29C91.7342 145.039 89.9836 147.134 87.9397 148.518L87.8305 148.591C86.9682 149.152 86.3567 149.254 85.6213 148.416C84.9528 147.653 84.3963 146.767 83.8243 145.925L83.692 145.732C80.7714 141.492 78.0639 137.095 75.6133 132.569C74.4963 130.509 73.4338 128.419 72.4256 126.306L72.1248 125.671C71.5764 124.507 70.9816 123.364 70.5289 122.165C70.4236 121.884 70.3208 121.602 70.2204 121.323C71.7627 120.313 72.9571 118.126 73.3905 116.413C73.8409 114.634 73.6132 112.809 72.8105 111.182C72.6587 110.876 72.1495 110.952 72.0761 111.277ZM148.16 183.56C148.373 190.323 148.503 197.093 148.821 203.851L148.931 206.158C148.434 206.711 148.143 207.35 148.375 208.226C148.466 208.561 148.733 208.865 149.066 208.977L149.17 211.122C149.642 220.773 150.196 230.404 151.208 240.031C152.474 252.079 153.938 264.106 155.399 276.132C155.607 277.835 156.792 279.185 158.635 278.936C160.501 278.684 161.257 277.062 161.012 275.371C160.05 268.738 159.125 262.1 158.314 255.445L157.392 247.863C156.234 238.385 155.05 228.909 153.685 219.461C153.115 215.512 152.522 211.566 151.928 207.619L152.136 207.35C152.985 206.247 153.864 205.168 154.733 204.081C156.403 201.987 158.05 199.909 159.58 197.717C159.656 197.607 159.502 197.446 159.392 197.529C157.247 199.112 155.218 200.805 153.176 202.525L151.389 204.037C150.361 197.218 149.342 190.397 148.434 183.56C148.412 183.389 148.155 183.377 148.16 183.56ZM117.312 118.84C118.602 120.056 119.921 121.245 121.221 122.454L121.698 122.899L122.172 123.346C124.457 125.511 126.646 127.765 128.47 130.354C131.819 135.108 133.814 140.904 132.421 146.708C131.266 151.516 128.614 155.874 127.902 160.801C127.545 163.27 127.718 165.751 128.649 168.082C129.599 170.461 131.117 172.499 132.48 174.645C135.442 179.308 135.846 184.427 135.552 189.829C135.244 195.471 134.595 201.116 133.794 206.707C132.174 218.035 129.731 229.246 126.497 240.224C124.879 245.722 122.967 251.102 121.064 256.505C120.117 259.194 119.013 261.819 117.875 264.432C117.275 265.807 116.66 267.174 116.036 268.54C116.266 266.612 116.266 264.633 116.379 262.717C116.541 259.972 116.746 257.231 116.935 254.489C117.319 248.922 117.662 243.351 117.968 237.78C119.052 217.913 119.85 198.028 119.792 178.129C119.762 168.178 119.559 158.227 119.13 148.286C118.93 143.605 118.541 138.928 118.189 134.253L118.115 133.251C117.804 129.055 117.431 124.849 116.793 120.69C116.982 120.263 117.146 119.831 117.268 119.388L117.312 119.222L117.28 119.227C117.309 119.097 117.319 118.967 117.312 118.84ZM106.153 101.742C106.126 101.627 105.962 101.637 105.933 101.742C105.206 104.189 105.463 106.88 106.089 109.342C106.427 110.675 106.907 111.97 107.487 113.217L107.69 113.654C108.187 114.717 108.747 115.812 109.715 116.474C110.119 116.75 110.841 116.768 111.245 116.474L111.451 116.318C111.485 116.291 111.519 116.264 111.551 116.237C111.928 115.921 112.114 115.224 111.941 114.764C111.493 113.577 110.476 112.706 109.774 111.649C109.152 110.71 108.601 109.719 108.144 108.689C107.157 106.46 106.714 104.094 106.153 101.742Z" fill="black"/>
<path fill-rule="evenodd" clip-rule="evenodd" d="M110.536 9.1582L108.426 11.6714C109.594 12.496 110.697 13.3245 111.734 14.1571L111.735 14.1546C106.93 11.0144 101.608 9.1582 95.8585 9.1582C84.7851 9.1582 62.2927 18.685 57.2081 25.5566C54.6848 28.9668 49.9957 39.4358 47.5634 50.8174C45.609 59.9623 42.7023 85.7981 45.609 95.5061C49.3292 107.931 61.5685 119.414 74.1887 119.414C86.8089 119.414 106.402 110.289 120.347 90.2912C120.984 89.3768 128.307 88.3168 133.53 84.8848L132.159 100.017L131.117 108.82L131.347 109.446C135.088 119.58 138.052 124.867 140.24 125.307C142.473 125.755 147.02 122.09 153.882 114.309L154.758 110.624C156.985 101.222 158.099 96.1756 158.099 95.4842L158.097 95.3582C158.064 93.7671 157.517 84.761 157.506 82.3374L157.506 46.0124C150.126 21.4429 143.085 9.1582 136.38 9.1582H110.536Z" fill="#FFDBB4"/>
<path fill-rule="evenodd" clip-rule="evenodd" d="M128.02 0.790763C125.851 -0.050908 123.337 0.108129 121.278 1.37553C117.234 1.20181 113.213 3.57024 111.105 7.02745C111.061 7.07638 111.015 7.12532 110.973 7.17425L110.527 7.69577C110.103 8.19379 109.657 8.7427 109.304 9.30951C111.035 9.34914 112.478 10.056 113.485 11.4837C114.203 12.5023 112.557 13.4704 111.823 12.5069L111.797 12.4716C111.193 11.6146 110.28 11.2825 109.264 11.2652C108.972 11.2603 108.751 11.1485 108.595 10.9836C108.532 11.2109 108.477 11.4406 108.426 11.6713C103.31 9.67847 97.7944 9.15071 92.3015 9.62342C92.5424 10.0139 92.7437 10.4323 92.8986 10.872C93.0742 11.3704 92.6995 11.9427 92.216 12.0758C91.6933 12.2196 91.2207 11.9128 91.0315 11.4386L91.0141 11.3922C90.8031 10.7932 90.4584 10.2791 89.9957 9.88057C87.4098 10.2317 84.8423 10.79 82.3376 11.5098C79.3272 12.3757 76.3451 13.4325 73.4288 14.6424C73.9227 14.8364 74.3495 15.1643 74.6483 15.7116C75.2447 16.8041 73.6049 17.7827 72.9827 16.7382L72.9607 16.6996C72.8997 16.5876 72.8456 16.5202 72.806 16.4819L72.7919 16.4689L72.7059 16.4292L72.5457 16.3832L72.4841 16.3681C72.4298 16.3558 72.4073 16.3566 72.2645 16.3487C72.0744 16.338 71.8841 16.3389 71.6938 16.3387C71.2463 16.3384 70.9607 16.0886 70.8314 15.7691C69.3923 16.4197 67.9715 17.1048 66.5759 17.8224L66.2441 17.9944C61.9362 20.2487 57.855 23.2092 55.4875 27.5652C55.3309 27.8564 55.2823 28.1744 55.3211 28.4778C54.8157 29.0846 54.3271 29.711 53.858 30.3471C52.4265 32.2947 51.3785 34.509 50.3867 36.7037C48.3908 41.1176 47.0472 45.6514 45.9992 50.3784C44.9851 54.9342 44.167 59.5389 43.407 64.1437C42.5644 69.2598 41.8633 74.4199 41.7165 79.6094C41.4575 88.8604 43.2631 98.1653 48.4494 105.953C53.0761 112.902 60.0433 118.419 68.3055 120.186C76.7091 121.982 85.6013 120.23 92.2239 114.622C93.2917 113.719 93.1448 111.896 92.2239 110.971C91.1807 109.929 89.6419 110.073 88.5793 110.971C82.3425 116.254 73.2646 117.069 65.7499 114.377C58.8023 111.886 53.3597 106.142 50.0202 99.6896C45.9454 91.8209 45.2587 82.7828 45.8844 74.0773C46.2261 69.2964 46.9372 64.5547 47.6701 59.8203L48.1125 56.9705C48.5951 53.8837 49.1021 50.8011 49.7635 47.7458L49.9183 47.0339C50.7265 43.3494 51.6732 39.5704 53.1371 36.1067C53.9045 34.2888 54.8276 32.5369 55.773 30.8071C55.9563 30.4719 56.1446 30.1318 56.3376 29.7893C56.5966 29.8798 56.8922 29.8945 57.2024 29.7966C59.8725 28.9647 62.6159 28.4069 65.4079 28.2209C66.68 28.1358 67.9539 28.1226 69.2265 28.1722C71.4048 28.0453 73.644 28.2371 75.719 28.906C75.922 28.7316 76.1277 28.5608 76.3336 28.39C76.3891 28.3856 76.4445 28.3797 76.5002 28.3687C77.0296 28.2645 77.4019 27.8877 77.6262 27.4118C77.6379 27.3866 77.6484 27.3614 77.6584 27.3362C77.924 27.1329 78.1917 26.9327 78.4619 26.7353C79.1205 26.9063 79.6975 26.3575 79.8529 25.7561C79.9995 25.657 80.1485 25.5611 80.2965 25.464C80.4126 25.4924 80.5279 25.5158 80.6403 25.5242C81.1252 25.5591 81.5935 25.4848 82.0232 25.2531C82.5672 24.9597 82.9149 24.4865 83.1474 23.949C83.9702 23.9996 84.8028 23.7322 85.5383 23.2487C86.1354 22.8565 86.5927 22.315 87.0473 21.7746C92.5874 19.2997 98.6097 17.8385 104.646 17.4642C105.241 17.5787 105.831 17.715 106.414 17.8735C106.552 17.9112 106.748 17.9851 106.974 18.0737C105.628 17.9107 104.265 17.8946 102.882 18.094C96.3221 19.044 91.2127 23.9634 86.8152 28.607C85.7692 28.3954 84.7119 29.7521 85.68 30.6505L93.2279 37.6557C93.0427 38.4392 93.9398 39.2113 94.7257 39.0232C96.0434 38.7061 97.3633 38.3978 98.6842 38.0947C100.062 38.7624 101.794 38.6481 103.044 37.6802C103.102 37.6352 103.228 37.5632 103.338 37.4918C103.441 37.5767 103.579 37.6618 103.634 37.6981C104.078 37.9926 104.619 38.0793 105.139 37.9966C105.673 37.9116 106.155 37.6403 106.57 37.3024C106.835 37.0872 107.451 36.1891 107.794 36.123L107.828 36.1192C107.599 36.1258 108.334 36.8106 108.532 36.9523C108.993 37.2819 109.503 37.4551 110.077 37.392C111.077 37.2818 111.937 36.3689 112.426 35.5259L112.463 35.4613L112.478 35.4211L112.491 35.4645C112.494 35.4722 112.497 35.4804 112.5 35.4896C112.573 35.6881 112.803 35.9137 112.96 36.0524C113.405 36.447 113.957 36.6205 114.546 36.5175C115.045 36.4306 115.464 36.1288 115.801 35.7636L115.854 35.7054C115.953 35.5927 116.61 34.7086 116.507 34.4968L116.495 34.4789L116.527 34.472C116.927 34.5704 117.263 34.4718 117.508 34.2655C118.88 33.9646 120.233 33.614 121.544 33.1682C121.646 33.4569 121.747 33.7456 121.844 34.0368C121.129 34.4796 120.467 35.1109 119.858 35.5611C118.705 36.4125 117.552 37.264 116.402 38.1179L111.843 41.4861L111.321 41.3459C110.655 41.1667 110.084 41.5552 109.839 42.1489L109.819 42.2003C109.722 42.4603 109.605 42.7009 109.468 42.9311C108.328 42.8856 107.363 43.5863 107.051 44.5914C106.77 44.5851 106.486 44.5958 106.195 44.6279C105.399 44.7155 104.862 45.3076 105.006 46.1206L105.017 46.1764L105.036 46.2669C104.575 46.4632 104.24 46.8422 104.166 47.4152C104.042 47.6014 103.943 47.804 103.879 48.0296C103.546 49.2001 104.194 50.6471 104.539 51.7684L104.565 51.8562C104.787 52.5932 105.016 53.3266 105.248 54.0597L105.826 55.8798C107.427 60.9523 108.989 66.3006 107.693 71.6184C107.416 72.7439 108.853 73.2528 109.476 72.372C110.986 70.2394 112.618 68.2299 114.331 66.3009L114.414 66.2877C115.614 66.0462 116.08 65.1975 116.63 64.3323C116.955 64.428 117.304 64.4505 117.641 64.3854C118.129 64.2912 118.566 64.012 118.911 63.6595C119.204 63.3605 119.472 62.5937 119.817 62.4035C120.25 62.166 121.119 62.5056 121.635 62.4292C122.055 62.3673 122.447 62.223 122.828 62.0417C123.527 62.9961 123.99 64.1182 124.104 65.3279C124.148 65.7878 124.285 66.1769 124.483 66.4998C123.755 66.4729 123.024 66.5243 122.304 66.6589C119.636 67.1556 117.723 68.8047 116.648 71.2612C116.602 71.3688 116.741 71.4569 116.805 71.3541C118.4 68.8952 121.871 68.7704 124.392 69.6365C127.07 70.5565 128.572 72.9176 129.107 75.6114C129.693 78.5646 128.941 81.7478 127.336 84.263C126.591 85.4326 125.575 86.4993 124.224 86.93C122.619 87.4413 121.136 86.5262 119.492 86.9985C118.373 87.319 117.879 88.4029 118.082 89.4868C118.163 89.9125 118.312 90.2844 118.512 90.6074C117.921 91.7818 117.374 92.9905 116.678 94.1013C115.603 95.8164 114.303 97.2355 112.886 98.6669C111.423 100.145 109.933 101.593 108.367 102.963C106.867 104.277 105.147 105.212 103.574 106.416C102.469 107.26 101.922 108.444 102.467 109.799C102.917 110.92 104.431 111.874 105.658 111.368C108.005 110.399 110.06 108.75 111.931 107.052C113.665 105.476 115.175 103.592 116.316 101.547C117.392 99.6182 118.185 97.4283 118.854 95.3188L118.937 95.0555C119.253 94.0524 119.585 92.9244 119.8 91.7867C121.087 92.4913 122.834 92.5941 124.211 92.4033C126.437 92.0974 128.467 90.9744 130.001 89.3375C130.716 88.5759 131.348 87.707 131.894 86.7653C131.845 87.3386 131.815 87.8932 131.783 88.398C130.508 89.797 129.996 91.816 130.449 93.6582C129.382 94.7582 129.083 96.4095 129.64 97.8154C128.472 98.9756 128.516 100.822 129.021 102.499C127.64 104.044 127.509 106.452 128.587 108.196L128.62 108.321C127.531 110.146 127.777 112.503 129.141 114.114C128.209 115.924 128.353 118.358 130.681 119.06C131.53 119.316 132.352 119.097 132.967 118.621C132.405 121.42 132.154 124.262 132.903 127.073C133.202 128.189 134.291 129.004 135.437 129.004C136.395 129.004 137.091 128.522 137.572 127.812C137.516 129.224 137.601 130.643 137.902 132.074C138.083 132.939 138.883 133.613 139.733 133.822C139.427 134.168 139.305 134.669 139.598 135.19C140.845 137.399 143.855 136.483 144.059 134.366C144.909 133.731 145.305 132.687 145.468 131.559C145.707 129.915 145.793 128.297 146.063 126.673L146.167 126.77L146.22 126.816L146.237 126.934C146.392 127.736 146.844 128.298 147.43 128.634C147.303 130.034 147.539 131.459 148.426 132.522C149.016 133.231 150.023 133.51 150.885 133.356C150.939 133.359 150.995 133.359 151.053 133.351C153.006 133.091 154.136 131.235 153.622 129.532C154.409 128.566 154.74 127.341 154.507 126.131C156.03 125.121 155.998 122.904 155.471 121.123C157.067 119.862 157.667 117.504 156.865 115.63C158.304 113.841 158.504 111.348 157.527 109.311C159.109 108.009 159.1 105.496 157.53 104.164C158.366 102.503 158.87 100.512 158.035 98.9913C158.624 98.34 158.948 97.4117 158.879 96.5147C158.779 95.1974 157.909 94.2872 156.83 93.6807L156.755 93.2687C156.501 93.3002 156.231 93.2293 155.993 93.0003C155.757 92.7735 155.515 92.5907 155.264 92.44C154.98 92.4363 154.735 92.3096 154.563 92.1146C154.093 91.9545 153.587 91.8838 153.025 91.8775C151.814 91.8643 151.771 90.049 152.899 89.9313C153.077 89.7515 153.322 89.6382 153.588 89.6382L153.796 89.6391C154.283 89.6437 154.775 89.6738 155.227 89.8677C155.521 89.9935 155.747 90.1831 155.913 90.4151C155.944 90.7659 156.135 91.1158 156.547 91.4048C157.024 91.7385 157.676 91.7774 158.186 91.4755C158.9 91.0527 158.907 90.3928 158.825 89.6754C158.644 88.1061 159.545 86.6293 159.331 85.0237C159.236 84.3139 159 83.701 158.615 83.206C159.426 81.9898 159.57 80.4197 158.945 79.0845C160.246 77.6823 160.471 75.5209 159.641 73.8334C159.629 73.7925 159.62 73.7507 159.607 73.7103C159.513 73.4236 159.384 73.165 159.242 72.9176C159.97 71.6536 159.965 70.1026 159.224 68.844C160.346 67.5346 160.382 65.4507 159.384 64.0399C159.378 63.923 159.366 63.806 159.356 63.6891C159.814 62.4987 159.704 61.1455 159.123 60.0386C159.33 59.5602 159.49 59.0452 159.592 58.4966C159.854 57.0824 159.719 55.7074 159.328 54.3274C159.265 54.1097 159.194 53.8919 159.119 53.6741C159.106 52.729 159.07 51.788 159.023 50.8487C159.208 50.0536 159.238 49.1798 159.242 48.3686L159.244 47.8426C159.253 46.5039 159.346 44.5439 158.501 43.406C159.043 42.1768 158.82 40.628 157.915 39.6537C158.55 38.5588 158.684 37.2143 158.045 35.9995C157.942 35.804 157.823 35.622 157.693 35.4498C157.746 34.3372 157.512 33.19 156.92 32.0843C156.535 31.3645 155.961 30.7413 155.278 30.2427C155.29 30.0951 155.297 29.9478 155.294 29.8027C155.282 29.1553 155.139 28.5052 154.898 27.8987C155.331 27.1583 155.532 26.3237 155.278 25.4243C154.995 24.4065 154.25 23.5306 153.319 23.0363C153.244 22.0767 153.094 21.1228 152.88 20.1815C153.452 18.906 152.997 17.2227 151.704 16.4713C151.873 15.452 151.721 14.395 150.98 13.5988C150.7 13.2972 150.369 13.0684 150.013 12.9167C150.184 11.8918 149.991 10.8255 149.283 9.99092C148.705 9.30951 147.849 8.89552 146.977 8.8346C146.641 7.05192 144.941 5.71895 143.147 5.82513C142.923 5.04023 142.387 4.35588 141.556 4.00893C141.343 3.92012 141.128 3.86164 140.914 3.8291C139.455 2.3552 137.283 1.3562 135.402 0.844591C133.516 0.33346 131.604 0.283985 129.985 0.878252L129.867 0.922886L129.735 0.905759C129.163 0.842145 128.592 0.805444 128.02 0.790763ZM142.353 121.594C142.857 121.437 143.418 121.78 143.555 122.277C143.699 122.803 143.378 123.324 142.872 123.481C142.242 123.678 141.581 123.727 140.924 123.728C140.396 123.728 139.947 123.278 139.947 122.749C139.947 122.218 140.394 121.771 140.924 121.771C141.458 121.77 141.852 121.75 142.353 121.594ZM146.834 111.201C147.587 111.201 148.233 111.381 148.791 111.91C149.164 112.263 149.173 112.943 148.791 113.294C148.406 113.648 147.847 113.669 147.451 113.332L147.375 113.263C147.366 113.255 147.359 113.248 147.353 113.243C147.321 113.222 147.289 113.201 147.256 113.184L147.319 113.225C147.368 113.261 147.255 113.203 147.192 113.176L147.172 113.168L147.166 113.167L147.115 113.163C147.022 113.158 146.928 113.158 146.834 113.158C146.323 113.158 145.833 112.708 145.857 112.179C145.881 111.649 146.286 111.2 146.834 111.201ZM132.621 104.991C131.564 104.342 132.508 102.68 133.569 103.279L133.608 103.301C134.151 103.635 134.82 103.59 135.436 103.59C136.694 103.591 136.696 105.549 135.436 105.548L135.228 105.547C134.325 105.54 133.412 105.477 132.621 104.991ZM140.946 97.8472C141.745 97.6965 142.64 97.5621 143.481 97.6539L143.62 97.6713H143.879C144.104 97.6713 144.322 97.7618 144.496 97.9042C144.773 98.0192 145.035 98.1734 145.274 98.3806C146.226 99.2074 144.838 100.587 143.892 99.765C143.839 99.7192 143.778 99.6815 143.71 99.6506L143.658 99.6287H142.613C142.518 99.6287 142.425 99.6089 142.335 99.5802C141.996 99.627 141.68 99.6942 141.465 99.7346C140.236 99.9663 139.709 98.0801 140.946 97.8472ZM141.838 79.0613C143.37 78.3498 145.066 78.3549 146.483 79.3429C147.496 80.0494 146.555 81.7156 145.533 81.0576L145.497 81.0331C145.37 80.9445 145.239 80.8704 145.107 80.8031C144.388 81.0113 143.664 81.0211 142.969 80.7651L142.878 80.7302L142.824 80.7513C141.691 81.2778 140.697 79.5913 141.838 79.0613ZM125.159 75.9944C126.706 75.8207 126.718 73.3725 125.159 73.5477C121.865 73.9176 118.877 75.384 116.688 77.9021C115.67 79.0733 117.347 80.7867 118.384 79.6677L118.416 79.6322C120.156 77.6298 122.505 76.2924 125.159 75.9944ZM142.493 63.4251C142.837 63.3874 143.18 63.3685 143.518 63.3849C144.33 63.4241 145.318 63.9663 144.962 64.9459C144.677 65.7309 143.74 65.7619 143.278 65.3433C143.086 65.3479 142.894 65.3607 142.703 65.3802C142.192 65.4328 141.687 65.5302 141.184 65.6295C139.955 65.8715 139.429 63.9854 140.664 63.7419L141.21 63.6337C141.395 63.5976 141.58 63.5623 141.767 63.53C141.878 63.4744 141.998 63.437 142.126 63.4275L142.191 63.4251H142.493ZM152.203 48.2395L152.317 48.2239C153.968 48.0125 156.617 48.207 156.817 50.3109C156.928 51.476 155.247 51.5492 154.915 50.5529C153.697 50.3329 152.468 50.2908 151.258 50.4244C150.796 49.9546 150.792 49.0516 151.561 48.8262C151.669 48.5341 151.896 48.2838 152.203 48.2395ZM114.483 44.6861C114.864 44.3355 115.489 44.289 115.865 44.6861C116.081 44.9146 116.261 45.1686 116.404 45.448L116.499 45.6367C116.516 45.668 116.532 45.6992 116.549 45.7299C116.581 45.7869 116.617 45.8412 116.652 45.8965L116.676 45.9196C116.685 45.9291 116.696 45.9406 116.709 45.9545C117.061 46.3267 117.105 46.9743 116.709 47.3386C116.328 47.6892 115.703 47.7357 115.327 47.3386C115.111 47.1101 114.931 46.8564 114.787 46.5767L114.692 46.3882C114.676 46.3569 114.66 46.3258 114.643 46.2951C114.611 46.2378 114.575 46.1835 114.54 46.1282L114.501 46.0893C114.495 46.0836 114.489 46.0772 114.483 46.0702C114.131 45.6983 114.087 45.0504 114.483 44.6861ZM134.521 42.1374C135.898 41.1602 137.535 41.1147 138.801 42.2903C139.714 43.1389 138.372 44.4985 137.451 43.7034L137.419 43.6744C137.385 43.6431 137.351 43.6157 137.318 43.5895C137.153 43.7304 136.943 43.8197 136.703 43.82C136.64 43.8202 136.578 43.82 136.515 43.8213L136.421 43.8246L136.371 43.8288L136.364 43.83L136.321 43.8487C136.24 43.885 136.129 43.9411 136.281 43.8457C136.247 43.8635 136.216 43.8846 136.183 43.9051L136.127 43.9563C135.759 44.3052 135.122 44.3512 134.756 43.9653C134.108 43.7461 133.764 42.6739 134.521 42.1374ZM121.06 38.931L121.035 38.9231C119.828 38.5779 120.341 36.6888 121.555 37.0355C122.842 37.4037 123.457 38.6038 123.715 39.8331C123.823 40.3501 123.563 40.891 123.032 41.0371C122.547 41.1704 121.939 40.8732 121.83 40.3535C121.753 39.988 121.665 39.678 121.526 39.3903L121.441 39.226C121.402 39.1511 121.388 39.1387 121.255 39.0222C121.233 39.0026 121.131 38.9552 121.06 38.931ZM141.509 29.0729L141.697 29.0297C142.874 28.7717 144.435 28.637 145.145 29.8047C145.792 30.8685 144.159 31.8369 143.487 30.8313C143.476 30.831 143.465 30.8311 143.451 30.8322L143.429 30.8348L143.127 30.8103C142.752 30.8076 142.392 30.8742 142.028 30.9605C140.805 31.2505 140.283 29.3635 141.509 29.0729ZM99.2861 21.5482C98.3956 20.6564 99.7771 19.2718 100.668 20.1644C101.372 20.8698 102.051 21.58 102.509 22.4763C102.749 22.9465 102.632 23.5382 102.159 23.8154C101.722 24.0711 101.063 23.9365 100.822 23.4643C100.425 22.6874 99.9242 22.1878 99.2861 21.5482ZM110.522 19.2072C111.402 19.7289 111.971 20.5881 112.317 21.5827C112.49 22.0819 112.119 22.6532 111.634 22.7865C111.113 22.9299 110.637 22.6242 110.45 22.1494L110.432 22.1029C110.34 21.837 110.192 21.5228 110.009 21.2857C109.852 21.0834 109.609 20.8808 109.426 20.8135C108.986 20.6515 108.674 20.2517 108.714 19.7849C109.439 20.0357 110.111 19.734 110.522 19.2072ZM136.856 14.9499C137.744 14.1249 138.934 14.0155 140.01 14.5149C140.489 14.7371 140.609 15.4288 140.361 15.854C140.073 16.346 139.504 16.4282 139.024 16.2051C139.147 16.2623 138.924 16.1867 138.828 16.1591C138.816 16.1648 138.655 16.1575 138.599 16.1583L138.532 16.1625C138.531 16.1629 138.548 16.1626 138.581 16.1615C138.534 16.1721 138.488 16.1848 138.442 16.1994L138.384 16.2196C138.413 16.2135 138.281 16.2997 138.245 16.3283L138.238 16.3338C137.317 17.1899 135.932 15.809 136.856 14.9499Z" fill="black"/>
<path fill-rule="evenodd" clip-rule="evenodd" d="M68.3656 94.3077C67.9901 93.6552 67.1254 93.0506 66.3342 93.1433C62.7896 93.5588 62.7958 97.8538 64.1645 100.361C65.378 102.584 67.8895 103.89 70.4032 103.699C73.0439 103.499 75.294 101.947 76.2842 99.4779C76.9391 97.8447 77.2416 94.8296 75.4996 93.7323C75.4673 93.7117 75.4139 93.7168 75.3882 93.7464C74.5529 94.7175 74.5201 96.1755 73.7889 97.2568C73.1088 98.2624 72.0522 99.0928 70.8145 99.221C69.8901 99.3169 68.9549 98.9836 68.5933 98.1542C68.3977 97.7056 68.42 97.462 68.4935 97.1532L68.5603 96.8849C68.7918 95.945 68.8958 95.2293 68.3656 94.3077ZM67.4181 75.4717C65.5695 76.5947 62.7527 79.2135 64.7414 81.9977C67.0823 84.4526 70.4527 81.6379 72.1136 80.3649C73.6536 79.3783 75.3839 81.9157 73.955 83.0677C61.9536 91.9481 57.0832 75.7654 66.4831 74.1513C67.5181 73.9734 67.9024 75.1243 67.4181 75.4717ZM86.9398 67.7708C85.8051 66.0693 83.215 66.3199 82.59 68.3389C82.2515 69.4326 82.7191 70.4157 82.6948 71.5079C82.6745 72.4305 82.735 73.4586 83.018 74.3522C83.6633 76.3898 85.4969 77.829 87.6661 77.7693C89.8283 77.7098 91.7326 76.3421 92.6382 74.4158C93.5469 72.4822 93.3545 70.481 92.6911 68.5148C92.6592 68.4204 92.5354 68.3746 92.4607 68.4541C91.6765 69.287 91.1024 70.1663 90.5084 71.0991L89.8997 72.055C89.4344 72.7748 88.7583 73.6944 87.8897 73.6366L87.7593 73.6238C87.5179 73.6031 87.5549 73.651 87.3687 73.3221C87.2825 73.1699 87.2982 72.8871 87.2566 72.7075L87.2421 72.6468L87.25 72.6141C87.2684 72.5272 87.2866 72.3633 87.3014 72.0789L87.3046 72.0161C87.3675 70.6858 87.7437 68.9763 86.9398 67.7708ZM58.1769 68.9035C58.3803 66.7274 55.3192 66.2441 54.3016 67.8543C53.7708 68.694 53.6163 69.7488 53.4989 70.7481L53.444 71.2225C53.3236 72.2489 53.2758 73.3166 53.7216 74.274C54.4237 75.7819 55.9506 76.5791 57.5977 76.4528C59.1705 76.3319 60.6056 75.4205 61.3621 74.0369C62.0365 72.8023 62.707 70.3918 61.8879 69.1041C61.8385 69.026 61.7396 69.016 61.6717 69.0762C60.8977 69.763 60.7716 71.0157 60.3114 71.9105C59.8367 72.8334 59.1167 73.7328 58.0256 73.873C56.9817 74.0071 56.5829 73.4372 56.8493 72.4426C57.1927 71.1586 58.0476 70.2851 58.1769 68.9035ZM86.113 54.8333L85.6124 54.6417C83.8972 53.9941 81.5424 53.2456 80.148 54.6395C79.2877 55.4991 79.124 56.7652 79.7379 57.8142C80.4819 59.0847 81.8163 59.1161 83.105 59.3032C84.5707 59.5161 86.0613 59.9208 87.4259 60.4977C88.963 61.1478 90.3895 61.9582 91.7871 62.8632C93.1155 63.7232 94.4391 65.1289 96.0292 65.3938C96.094 65.4046 96.1677 65.3767 96.1846 65.3055C96.5457 63.7518 95.5423 62.2229 94.6467 61.0108C93.5632 59.5432 92.2503 58.3387 90.7829 57.2587C89.3667 56.2162 87.7485 55.4629 86.113 54.8333ZM54.9569 60.3572L54.804 60.3304C53.7639 60.1573 52.8214 60.1972 52.0376 61.0205C51.4393 61.6486 51.2087 62.4626 51.4939 63.293C51.757 64.0591 52.3455 64.8374 53.1997 64.9979C56.0833 65.5401 59.2773 65.4505 62.1753 65.0399C63.5012 64.852 64.8391 64.6221 66.1306 64.2595L66.7247 64.0873C67.8029 63.7795 69.0373 63.4579 69.8204 62.6654C70.102 62.3806 69.9397 61.973 69.6028 61.8411C68.2363 61.3063 66.3633 61.5908 64.9062 61.549C63.2111 61.5005 61.5134 61.3735 59.8264 61.1986C58.1778 61.0273 56.5827 60.6552 54.9569 60.3572Z" fill="black"/>
</svg>
