<svg width="198" height="279" viewBox="0 0 198 279" fill="none" xmlns="http://www.w3.org/2000/svg">
<path d="M30.4067 172.508H87.8026V243.097H30.4067V172.508Z" fill="#FDEA6B"/>
<path fill-rule="evenodd" clip-rule="evenodd" d="M104.543 103.466C98.3564 98.7605 82.8237 96.6446 76.2204 101.175C69.6983 105.724 68.9873 113.081 65.9481 119.849C63.0805 118.499 58.3451 120.433 57.5137 123.09C56.4826 124.344 56.4363 127.865 55.7253 129.55C24.7861 134.468 20.089 158.558 16.365 185.906C11.4385 213.658 0.254793 241.35 5.10989 269.907C4.47728 270.821 3.97851 271.71 3.51734 272.765C2.41228 274.643 3.83564 277.301 6.06455 277.198C8.94964 276.945 11.8062 276.599 14.7048 276.491C22.7401 276.213 30.7828 276.246 38.8212 276.348L39.9174 276.362C80.4286 276.866 120.938 277.858 161.451 278.122C162.92 278.124 163.64 276.807 163.444 275.509C163.048 272.894 162.682 270.278 162.299 267.663C171.881 270.19 182.068 270.826 191.624 267.929C192.292 267.248 190.066 267.617 189.713 267.514C198.507 261.513 195.881 248.87 195.102 239.764C190.258 208.562 188.55 174.04 169.835 147.415C161.739 136.549 149.869 127.947 136.23 126.011L135.851 125.959C131.863 125.428 127.418 125.257 123.931 123.09C120.01 119.964 118.338 114.186 114.213 114.132C112.85 114.114 110.997 115.836 109.002 117.004C108.854 114.433 107.466 112.264 107.16 110.27L107.135 110.1C106.816 107.776 107.253 105.685 104.543 103.466ZM38.0523 186.731C46.7471 180.698 69.2074 183.729 69.7216 184.067C70.8537 184.811 71.3412 184.877 71.9536 185.842C72.5581 185.922 73.1621 186.006 73.7657 186.091C74.9765 186.486 74.0792 187.974 72.6807 187.443C73.5219 191.066 71.0463 193.643 70.0608 197.224C69.7408 198.387 70.0492 200.479 70.0608 201.667C69.9652 203.182 68.2879 204.972 68.5674 206.492C69.5613 211.896 74.9545 217.168 72.6807 222.409C71.1743 225.368 66.6438 226.878 63.6317 227.884C57.391 230.276 46.5173 227.794 42.8914 222.409C40.9573 219.536 38.7167 212.29 37.5635 210.042L37.3079 206.477C36.6776 197.614 36.1169 188.074 38.0523 186.731Z" fill="#D08B5B"/>
<path fill-rule="evenodd" clip-rule="evenodd" d="M114.534 114.148L112.046 115.673L97.5947 122.808C94.7931 123.591 93.3923 124.53 93.3923 125.624V136.768C93.3923 138.259 90.7633 141.639 85.5051 146.907L80.6474 142.071L80.756 141.438C81.2182 138.709 81.4494 136.884 81.4494 135.962C81.4494 134.971 76.6968 131.207 67.1918 124.672L63.0335 120.762L63.4769 119.415C60.9129 119.536 58.1324 121.113 57.5137 123.09C56.4826 124.344 56.4363 127.865 55.7253 129.55C24.7861 134.468 20.089 158.558 16.365 185.907C11.4385 213.658 0.254793 241.35 5.10989 269.907C4.47728 270.821 3.97851 271.71 3.51734 272.765C2.41228 274.643 3.83564 277.301 6.06455 277.198C8.94964 276.945 11.8062 276.599 14.7048 276.492C22.7401 276.213 30.7828 276.246 38.8212 276.348L39.9174 276.362C80.4286 276.866 120.938 277.858 161.451 278.122C162.92 278.124 163.64 276.807 163.444 275.509C163.048 272.894 162.682 270.279 162.299 267.663C171.881 270.19 182.068 270.826 191.624 267.929C192.292 267.249 190.066 267.617 189.713 267.514C198.507 261.513 195.881 248.87 195.102 239.764C190.258 208.563 188.55 174.04 169.835 147.415C161.739 136.549 149.869 127.947 136.23 126.011L135.851 125.959L135.47 125.91C131.582 125.415 127.308 125.188 123.931 123.09C120.113 120.046 118.428 114.489 114.534 114.148ZM79.907 179.556C81.3244 179.556 84.2272 181.755 88.6155 186.151L89.0021 186.33C94.3068 188.79 97.821 190.925 99.5447 192.733L99.6063 192.799C101.348 194.664 104.796 199.626 109.951 207.682L117.417 212.091H120.242L122.253 226.661L117.417 237.063L106.463 233.378L88.6155 228.68L78.374 218.303L72.5967 216.366C73.2976 218.389 73.5517 220.401 72.6807 222.409C71.1743 225.369 66.6438 226.878 63.6317 227.884C57.391 230.276 46.5173 227.794 42.8914 222.409C40.9573 219.536 38.7167 212.29 37.5635 210.043L37.2327 205.411C36.6367 196.864 36.1943 188.02 38.0523 186.731C46.7471 180.698 69.2074 183.729 69.7216 184.067C70.8537 184.811 71.3412 184.877 71.9536 185.842L72.2705 185.885L70.4881 183.471L71.1192 183.134C75.6226 180.749 78.5519 179.556 79.907 179.556ZM72.6807 187.443C73.486 190.912 71.2514 193.421 70.1946 196.772L72.8948 191.609L72.8949 187.51C72.825 187.493 72.7535 187.471 72.6807 187.443Z" fill="#9DDADB"/>
<path fill-rule="evenodd" clip-rule="evenodd" d="M115.727 113.61C115.127 113.079 114.239 113.746 114.62 114.463C115.478 116.075 116.357 117.602 117.507 119.027C118.205 119.89 118.952 120.707 119.709 121.515C117.766 123.194 116.099 125.279 114.526 127.232C112.513 129.73 110.611 132.335 108.352 134.621C106.124 136.875 103.66 138.451 100.682 139.502L100.08 139.711C97.0882 140.76 93.8902 142.177 92.2037 145.006C91.8711 145.564 92.5408 146.254 93.1037 145.905C96.0344 144.093 99.4779 143.729 102.668 142.531C105.75 141.374 108.436 139.594 110.809 137.322C113.179 135.054 115.169 132.473 117.244 129.947C119.296 127.449 121.506 125.316 123.933 123.202C127.679 125.719 131.955 126.814 136.303 127.89L136.777 128.007C141.13 129.083 145.46 130.333 149.544 132.208C153.145 133.86 156.686 135.833 159.619 138.522C162.732 141.376 165.156 145.02 167.374 148.584C172.335 156.558 175.822 165.294 178.893 174.136C182.087 183.333 184.758 192.714 186.914 202.207C188.011 207.036 188.902 211.898 189.634 216.795C189.987 219.154 190.3 221.517 190.574 223.886C190.868 226.415 190.935 229.018 191.712 231.45C192.045 232.492 192.832 232.924 193.619 232.888L193.779 234.885C193.991 237.548 194.189 240.211 194.256 242.891C194.366 247.346 194.316 251.788 193.995 256.233L193.95 256.84C193.698 260.084 193.134 263.73 190.691 266.106C188.161 268.566 184.271 269.34 180.861 269.384C172.919 269.488 165.274 265.74 158.246 262.452C151.008 259.066 143.968 255.308 137.097 251.231C133.597 249.156 130.136 247.011 126.718 244.803C125.041 243.72 123.376 242.618 121.723 241.498C120.777 240.857 119.88 240.154 118.916 239.585C119.388 239.146 119.599 238.455 119.203 237.853C121.989 235.438 123.149 231.128 123.284 227.641C123.394 224.826 122.979 222.019 122.652 219.231C122.486 217.825 122.282 216.422 122.071 215.022C121.987 214.469 121.923 213.877 121.825 213.294C129.348 217.422 137.081 221.099 145.019 224.365C149.088 226.039 153.209 227.545 157.386 228.924L158.233 229.202C162.192 230.496 166.245 231.719 170.337 232.459C170.556 232.498 170.734 232.176 170.5 232.073C166.512 230.315 162.386 228.833 158.338 227.215L157.673 226.944C157.749 226.94 157.828 226.929 157.911 226.909C160.285 226.337 162.64 225.455 164.969 224.713C167.13 224.024 169.558 223.591 171.578 222.551C171.733 222.471 171.646 222.255 171.495 222.245C169.224 222.087 166.76 222.748 164.534 223.137L163.698 223.283C162.297 223.53 160.865 223.795 159.471 224.141C159.421 223.675 159.16 223.206 158.789 222.932C154.704 219.911 155.119 213.809 154.682 209.31L154.358 205.969C153.788 200.123 153.185 194.278 152.27 188.475C152.221 188.166 151.741 188.254 151.739 188.547C151.692 195.74 152.235 202.899 152.508 210.081L152.55 211.259C152.701 215.69 152.819 220.291 155.613 223.701C155.222 223.473 154.694 223.473 154.377 223.849C153.988 224.311 153.764 224.83 153.771 225.34C151.246 224.282 148.732 223.198 146.23 222.091C138.186 218.532 130.311 214.549 122.644 210.24C121.819 209.776 121.035 210.14 120.627 210.752L120.568 210.743C120.558 210.742 120.548 210.741 120.538 210.741L120.48 210.738C120.477 210.738 120.475 210.738 120.473 210.738C119.394 210.146 117.924 210.568 116.997 211.432C116.97 211.458 116.947 211.486 116.923 211.513C115.75 210.988 114.655 210.278 113.662 209.379C111.629 207.538 109.906 205.263 108.405 202.981C105.64 198.778 103.292 194.105 99.5571 190.645C96.5226 187.834 92.7606 186.084 88.8138 184.986C88.8303 184.871 88.7862 184.748 88.7065 184.666C88.5038 184.459 88.3591 184.387 88.0972 184.513C88.0764 184.523 88.0639 184.537 88.0554 184.552L87.6702 183.895C87.46 183.539 87.2442 183.179 87.1694 183.085C86.7212 182.522 86.2601 181.962 85.7919 181.415C84.9981 180.488 84.0936 179.573 83.0461 178.931C80.7528 177.524 78.3419 178.32 75.9842 179.089C74.5596 179.554 73.1397 180.033 71.7176 180.505L71.5709 180.553C70.5105 180.893 69.2696 181.191 68.7954 182.313C68.6077 182.757 68.5786 183.218 68.6661 183.665C58.5945 181.107 47.408 182.282 37.5798 185.285C37.2026 185.4 36.8259 185.71 36.7464 186.117C35.6203 191.884 35.1188 197.799 35.6283 203.665C36.068 208.728 37.1913 213.69 39.3082 218.326L39.4285 218.587C41.418 222.883 44.5711 228.179 49.3866 229.526C52.2942 230.339 55.5101 229.859 58.4757 229.71C61.3578 229.565 64.3037 229.544 67.1585 229.092C69.701 228.689 71.9286 227.551 73.4999 225.486C74.8553 223.705 75.5691 221.552 76.1539 219.411C76.4215 219.496 76.6875 219.586 76.9491 219.689C78.0537 220.119 78.9896 220.815 79.8357 221.633C81.6225 223.361 83.0085 225.46 84.878 227.109C86.5703 228.602 88.4988 229.763 90.5673 230.656C94.8535 232.505 99.4516 233.244 103.985 234.225L104.302 234.293C107.715 235.041 111.199 235.96 114.211 237.734C114.27 238.257 114.509 238.748 114.891 239.07C114.359 239.569 114.134 240.358 114.601 241.098C115.905 243.166 118.152 244.342 120.169 245.664L120.3 245.75C122.284 247.064 124.285 248.351 126.303 249.613C130.405 252.177 134.592 254.601 138.839 256.918C145.669 260.644 152.646 264.159 159.749 267.348C159.322 269.443 159.478 271.603 159.158 273.711L159.109 274.012C158.972 274.795 159.157 275.449 159.696 275.961L159.753 276.013L159.752 276.006L159.803 276.052L159.82 276.067L159.814 276.062C159.877 276.119 159.941 276.172 160.006 276.217L160.089 276.271C160.609 276.586 161.279 276.583 161.811 276.304L161.872 276.271L161.974 276.212C162.677 275.808 163.162 274.807 162.871 274.012C162.153 272.058 161.883 269.972 161.22 268.004L161.746 268.239L162.438 268.54C169.927 271.774 178.245 274.498 186.404 272.293C190.009 271.319 193.379 269.257 195.183 265.898C196.958 262.592 197.209 258.754 197.303 255.077C197.419 250.539 197.176 245.931 196.576 241.432C196.174 238.411 195.687 235.334 194.937 232.345C195.323 232.005 195.607 231.517 195.682 230.913C196.036 228.058 195.416 225.09 195.037 222.25C194.666 219.477 194.256 216.709 193.793 213.95C192.858 208.379 191.772 202.819 190.507 197.312C188.255 187.512 185.283 177.887 181.703 168.491L181.39 167.673C178.083 159.085 174.253 150.68 168.921 143.135C166.37 139.526 163.674 136.253 160.07 133.652C156.693 131.215 152.885 129.461 148.954 128.119C145.019 126.777 140.975 125.878 136.859 125.318C132.68 124.75 128.268 124.402 124.368 122.69C124.862 121.807 124.438 120.614 123.608 120.067C120.815 118.223 118.231 115.825 115.727 113.61ZM26.2987 193.765C26.1817 193.587 25.9037 193.7 25.9551 193.91C27.3138 199.469 28.5893 205.039 29.4221 210.704C30.9256 220.93 30.649 231.288 30.5261 241.589L30.5199 242.122C30.4568 247.67 30.369 253.219 30.1853 258.765C30.0926 261.568 29.9091 264.399 30.0089 267.203C30.0633 268.725 30.4693 270.164 30.6132 271.667C30.7392 272.981 30.627 274.316 30.564 275.632C30.5219 276.507 31.8152 276.47 31.9032 275.632L32.0157 274.549C32.1618 273.177 32.3424 271.814 32.7925 270.502C33.3336 268.923 33.5932 267.372 33.781 265.715C34.0685 263.175 34.1964 260.609 34.3074 258.052L34.3833 256.282C34.8467 245.593 34.8304 234.853 34.0802 224.175L34.0253 223.413C33.2825 213.319 31.9934 202.413 26.2987 193.765ZM55.2611 130.149C55.616 130.003 55.4916 129.467 55.0986 129.561L54.3839 129.731C49.147 130.984 44.0051 132.341 39.117 134.672C34.2258 137.004 30.0848 140.486 26.7944 144.768C20.3982 153.091 17.7402 163.207 15.6418 173.312C13.3099 184.541 11.1868 195.812 8.83452 207.038L8.39773 209.129C6.22119 219.584 4.16622 230.045 2.65206 240.625L2.54329 241.392C1.01636 252.271 0.0979247 263.527 1.76406 274.434C2.09364 276.592 5.68928 276.054 5.54867 273.922C5.14264 267.759 4.8519 261.628 5.13287 255.451C5.41408 249.272 5.99431 243.121 6.85926 236.996C7.58714 231.842 8.6722 226.753 9.63243 221.639L9.78293 220.832C10.587 216.483 11.4159 212.139 12.243 207.794L13.4789 201.289C15.3314 191.548 17.2201 181.799 19.3543 172.12L19.4809 171.551C21.5694 162.238 24.6485 152.484 30.9132 145.089C37.2706 137.585 46.3715 133.805 55.2611 130.149ZM78.3615 228.921C78.2086 228.581 77.6738 228.619 77.5094 228.921C76.8651 230.109 76.7935 231.624 76.6718 232.964L76.659 233.102C76.5041 234.737 76.367 236.378 76.283 238.019C76.1238 241.132 76.0476 244.242 76.0574 247.359C76.0674 250.554 76.1319 253.746 76.3043 256.936L76.3511 257.791C76.5085 260.563 76.7725 263.655 78.0916 266.079C78.5711 266.96 79.8751 266.701 80.1528 265.81C81.0626 262.893 80.5955 259.433 80.3621 256.445L80.1809 254.113C80.0015 251.781 79.8304 249.449 79.6947 247.114C79.5087 243.92 79.3553 240.723 79.2077 237.527C79.1597 236.489 79.1079 235.451 79.0531 234.413L78.9688 232.856C78.8969 231.554 78.9029 230.125 78.3615 228.921ZM180.659 233.057L180.256 232.668C179.019 231.46 177.457 229.599 175.629 229.714C174.9 229.76 174.436 230.364 174.587 231.08C174.91 232.611 176.474 233.406 177.599 234.34C178.832 235.364 179.995 236.458 181.154 237.563C182.184 238.542 183.173 239.55 184.139 240.588L184.5 240.979C184.846 241.357 187.312 243.584 187.045 244.162L187.031 244.187C186.957 244.298 187.08 244.45 187.203 244.412C188.268 244.076 188.202 243.164 187.799 242.241C187.026 240.467 185.671 238.825 184.488 237.31C183.309 235.799 182.032 234.391 180.659 233.057ZM74.5034 188.563C75.3268 186.619 78.3597 186.66 80.0816 186.776C84.4176 187.069 89.109 188.165 92.9671 190.189C96.9669 192.287 99.6612 195.649 102.072 199.367L102.185 199.542C104.535 203.189 106.798 207.507 110.477 210.016C112.351 211.293 114.539 212.46 116.813 212.965C116.969 213.24 117.222 213.457 117.554 213.535L117.708 213.571C118.355 213.713 119.361 213.872 120.23 213.777C120.225 214.202 120.229 214.623 120.218 215.025C120.188 216.178 120.175 217.335 120.175 218.489C120.174 220.906 120.304 223.327 120.203 225.744C120.114 227.881 119.812 230.114 118.784 232.025C118.03 233.427 117.036 234.354 115.835 235.24C112.881 233.442 109.54 232.346 106.15 231.522C102.05 230.526 97.8525 229.861 93.8458 228.509C91.9174 227.859 90.0635 227.008 88.3837 225.851C86.6009 224.624 85.2392 222.962 83.8382 221.338L83.6192 221.085C82.1893 219.448 80.6291 217.88 78.6084 216.993C76.8682 216.228 74.5746 216.091 73.053 214.908C72.2575 214.289 72.1908 213.39 72.1071 212.47C73.0816 212.609 74.1132 212.386 75.0844 212.272L75.5876 212.213C76.506 212.104 77.4033 211.985 78.3073 211.751C78.4753 211.708 78.4753 211.455 78.3073 211.412C77.2389 211.136 76.1799 211.019 75.0844 210.891L74.8271 210.859C73.836 210.729 72.7943 210.533 71.8221 210.751C71.6477 210.088 71.3958 209.455 71.0424 208.821C70.5464 207.931 69.6077 206.921 69.4809 205.881C69.4431 205.571 69.5155 205.205 69.6621 204.93L69.7126 204.836C69.7743 204.726 69.8473 204.615 69.9541 204.546C69.9659 204.56 69.991 204.575 70.0453 204.592C70.7935 204.828 71.4462 204.462 71.7925 203.898C73.263 204.08 74.8678 204.019 76.2469 204.08L77.6411 204.147C79.131 204.215 80.6885 204.245 82.0885 203.945C82.2839 203.903 82.3431 203.578 82.1474 203.494C80.4262 202.759 78.3384 202.525 76.4957 202.242C75.4666 202.084 74.43 201.964 73.3979 201.825C72.7106 201.733 71.9813 201.58 71.2692 201.543C69.4839 199.323 70.4459 195.822 72.9304 194.866C73.8355 195.264 74.6493 195.033 75.6381 194.948C76.6251 194.863 77.6146 194.806 78.6056 194.81C80.5914 194.819 82.6957 195.341 84.6622 195.116C84.9821 195.079 85.2793 194.654 84.9613 194.395C83.4559 193.168 81.2986 192.768 79.3879 192.507L78.9918 192.454C78.3512 192.37 77.5722 192.247 76.7642 192.175C76.5815 191.819 76.2536 191.55 75.7611 191.483C75.6147 191.463 75.4676 191.451 75.3208 191.438L75.323 191.424C74.122 191.366 74.1741 189.34 74.5034 188.563ZM156.73 226.466C156.751 226.499 156.774 226.53 156.799 226.56L156.837 226.604L156.639 226.524L156.73 226.466ZM53.5446 184.22C58.6 183.678 63.6626 183.792 68.733 183.938C69.1385 185.262 70.5501 186.391 71.9179 186.434C70.8466 188.062 70.7361 190.266 71.4873 191.993C69.8924 192.627 68.5185 193.766 67.6843 195.388C66.5277 197.636 66.679 200.138 67.8222 202.217C66.8465 203.099 66.2707 204.531 66.3284 205.881C66.3928 207.387 67.2913 208.673 68.038 209.92C68.8448 211.268 68.8719 212.455 69.1197 213.965C69.4824 216.175 70.9747 217.515 72.8948 218.352L72.7928 218.753C72.2977 220.677 71.6818 222.708 70.2669 224.115C68.4468 225.925 65.6232 225.908 63.2185 226.023L63.1024 226.029C60.9004 226.139 58.6994 226.268 56.4982 226.392L54.8472 226.484C52.3128 226.624 49.8788 226.64 47.8098 224.967C44.432 222.236 42.1163 217.715 40.6506 213.713C37.5743 205.314 37.5374 196.096 38.9495 187.348C43.6853 185.824 48.5991 184.751 53.5446 184.22ZM95.5862 198.155L95.549 198.158C94.5082 198.277 93.7931 199.119 93.5384 200.117C93.1685 201.568 93.35 202.88 92.4599 204.191C91.5444 205.538 90.9814 206.616 90.8483 208.281C90.7937 208.966 90.8188 209.649 90.6661 210.319L90.5555 210.789C90.4379 211.289 90.3418 211.772 90.4002 212.309C90.4536 212.8 90.6927 213.182 91.1852 213.339C92.79 213.852 94.0292 212.671 94.4437 211.177C94.8019 209.887 94.3237 208.35 94.829 207.138C95.1089 206.466 95.6252 205.905 95.917 205.229C96.206 204.559 96.3511 203.858 96.3975 203.13C96.4854 201.752 95.2653 200.097 95.9461 198.849C96.091 198.582 95.9268 198.147 95.5862 198.155ZM116.904 183.938C115.817 183.718 114.584 183.212 113.512 183.632C112.961 183.848 112.689 184.519 113.155 184.986C113.963 185.795 115.137 185.84 116.226 186.031L116.321 186.048C117.608 186.286 118.898 186.511 120.189 186.725C122.618 187.127 125.052 187.482 127.496 187.784C130.005 188.094 132.521 188.37 135.041 188.578L136.017 188.658C138.145 188.828 140.36 188.956 142.449 188.63C142.752 188.583 142.703 188.142 142.449 188.064C140.161 187.373 137.651 187.187 135.285 186.895C132.77 186.583 130.26 186.254 127.756 185.863C125.256 185.473 122.759 185.055 120.271 184.592C119.147 184.383 118.024 184.165 116.904 183.938ZM77.6903 181.718C78.6439 181.38 79.6931 180.881 80.7265 181.048C82.5085 181.336 84.0946 183.07 85.5051 184.212L84.7969 184.075C81.1728 183.379 76.3736 182.63 73.3314 184.931C73.3237 184.918 73.3177 184.904 73.3089 184.891C73.0633 184.519 72.7788 184.228 72.4682 183.909C72.4386 183.881 72.4099 183.852 72.3816 183.823L72.2141 183.645L72.5973 183.512C73.4181 183.223 74.3904 182.848 74.5442 182.794L74.5548 182.79C75.6012 182.436 76.6489 182.086 77.6903 181.718ZM107.466 105.854C107.616 103.939 104.63 103.954 104.482 105.854C104.16 110.002 105.094 114.11 107.106 117.747C107.121 117.773 107.137 117.797 107.153 117.822C105.894 118.476 104.622 119.103 103.321 119.664C101.657 120.381 99.9618 121.034 98.2362 121.588C96.6752 122.09 94.7521 122.288 93.4397 123.332C90.6725 125.533 91.7121 130.1 92.2444 133.06L92.3275 133.528C92.5926 135.051 92.7843 136.614 92.1412 138.076C91.4544 139.638 90.0657 140.796 88.8268 141.914L88.5765 142.14C87.479 143.139 86.2249 144.352 85.4199 145.706C84.685 144.188 83.6832 142.948 82.624 141.552C81.8683 140.556 82.4062 140.228 82.9491 139.254C83.4716 138.318 83.7268 137.319 83.5634 136.251C83.2619 134.277 81.6826 132.852 80.1106 131.781C78.2541 130.516 76.1821 129.58 74.263 128.403C70.3195 125.987 66.4789 123.224 63.0189 120.155C62.9234 120.071 62.758 120.182 62.8344 120.298C65.5676 124.449 68.7725 128.037 72.7113 131.083C74.3084 132.317 75.9861 133.342 77.6751 134.418L78.1607 134.73C78.8388 135.168 79.6847 135.755 79.9913 136.502C80.2998 137.253 79.6419 137.82 79.2878 138.442C78.1632 140.418 78.7057 142.262 80.039 143.938L80.1011 144.015C81.4259 145.646 82.43 147.162 82.9102 149.245C83.9421 153.72 82.5048 158.381 81.0004 162.582L80.941 162.748C80.1271 165.012 79.2622 167.26 78.5551 169.56L78.3606 170.196C77.72 172.313 77.1954 174.401 77.914 176.577C78.1584 177.317 79.1692 177.492 79.589 176.796C81.07 174.339 81.4392 171.383 82.3676 168.682C83.2724 166.05 84.3113 163.465 85.1853 160.822C86.3106 157.419 87.0638 153.756 86.655 150.186C86.667 150.166 86.6803 150.146 86.6903 150.124L86.9768 149.498C87.758 147.804 88.5125 146.324 89.9331 144.973C91.4148 143.564 93.0232 142.317 94.1891 140.611C96.7217 136.906 95.1554 132.785 94.8495 128.734L94.8145 128.237C94.759 127.396 94.7285 126.253 95.2787 125.671C95.8975 125.015 97.3487 124.848 98.1698 124.558C100.292 123.808 102.383 122.934 104.374 121.885C106.27 120.886 108.107 119.783 109.816 118.49L110.683 117.839C112.05 116.809 113.468 115.684 114.385 114.281C114.491 114.12 114.311 113.859 114.119 113.936C112.589 114.556 111.192 115.543 109.76 116.401C109.738 116.348 109.712 116.296 109.683 116.242C107.912 113.042 107.183 109.495 107.466 105.854ZM58.5963 127.785C57.9868 126.116 55.2087 126.245 55.3195 128.228C55.4044 129.752 56.0522 131.128 56.6445 132.511L56.7078 132.66C57.3193 134.101 58.0256 135.455 58.8708 136.776C60.4856 139.301 62.3772 141.645 64.3976 143.857C66.2292 145.863 68.6333 147.089 71.4036 146.885C72.5708 146.799 73.7491 146.503 74.7719 145.921C75.9868 145.229 77.3061 143.151 78.8561 143.654C79.0059 143.703 79.1458 143.484 79.0162 143.38C77.2269 141.941 75.196 144.172 73.4829 144.71C70.9016 145.52 68.2526 144.624 66.5911 142.54C64.8565 140.364 63.2599 137.928 61.802 135.559C61.0616 134.356 60.3861 133.107 59.8026 131.82C59.2139 130.521 59.08 129.11 58.5963 127.785ZM62.7572 117.512C62.8324 117.281 62.5457 117.062 62.3429 117.194C61.1672 117.958 60.1483 118.968 59.0638 119.854C57.8605 120.836 56.6484 121.798 55.4175 122.746C53.6232 124.127 55.7043 126.67 57.2838 125.161C59.4453 123.097 61.8126 120.397 62.7572 117.512ZM69.2124 109.432C68.7347 107.593 65.9097 108.351 66.3214 110.169L66.3348 110.225C67.1146 113.227 66.004 116.285 63.6333 118.231L63.546 118.302C62.0462 119.501 64.1711 121.596 65.6561 120.409C68.8981 117.818 70.2468 113.416 69.2124 109.432Z" fill="black"/>
<path fill-rule="evenodd" clip-rule="evenodd" d="M44.9418 23.9388C45.4973 22.5358 46.4797 20.7724 48.1217 20.702C49.3917 16.8159 52.5496 12.8582 56.942 12.9634C69.8346 -0.23159 86.0656 0.390435 103.035 3.18367C111.988 4.84549 121.079 8.09956 127.756 14.5211C135.754 22.081 138.868 35.2722 132.605 44.8319C138.018 47.7348 138.123 54.6234 135.808 59.5943C138.591 61.52 138.76 66.1938 135.627 67.6626C135.793 68.3455 135.675 69.0514 135.358 69.6581C136.911 70.9522 138.933 71.9082 140.605 72.73C141.343 73.0932 141.77 73.6864 141.947 74.355C147.435 77.9585 161.12 86.765 160.957 93.774C161.038 97.4305 158.328 99.837 155.034 100.795C156.994 104.716 158.481 109.295 156.605 113.525C156.087 114.802 152.202 118.558 152.007 118.627C151.665 118.921 146.092 116.36 143.383 115.054C142.858 118.473 139.204 120.265 136.055 119.093C133.069 118.192 131.234 115.662 129.35 113.361C126.851 118.818 119.496 118.881 114.742 116.528C110.473 114.554 107.228 110.937 105.42 106.578C95.8204 111.281 84.589 112.652 74.1595 110.773C73.4902 111.959 72.0085 112.755 70.6887 112.296C65.1428 110.628 59.0109 110.534 54.3099 106.711C44.5109 99.6721 43.6858 86.6949 44.3691 75.6328C44.9751 64.6033 44.4446 53.4819 46.448 42.5716C45.5786 39.3593 44.1325 36.5195 42.7944 33.5018C41.3407 30.3373 41.3713 25.6332 44.9418 23.9388Z" fill="#D08B5B"/>
<path fill-rule="evenodd" clip-rule="evenodd" d="M89.4281 2.04565L89.0472 2.04715C88.4175 2.05131 87.7888 2.06376 87.1617 2.08444C83.8478 2.1936 80.3918 2.62385 76.5004 3.36033L75.9089 3.47408C74.941 3.66371 74.074 3.854 72.6911 4.1773L69.9467 4.82459C68.5492 5.15045 67.5208 5.37592 66.5718 5.55732L66.4476 5.58082C61.5719 7.9197 58.3466 9.85852 56.772 11.3973L56.5363 11.6294L56.436 11.7297L55.4091 11.7622L55.3991 11.8919L55.3903 11.8933C54.3707 12.052 53.4484 12.5806 52.5906 13.4034L52.4989 13.4927L52.4108 13.5811C51.7422 14.2614 51.2095 14.9863 50.4753 16.1353L50.3086 16.3977L50.0102 16.8717L49.7684 17.2523C49.6114 17.5012 49.4605 17.7475 49.3156 17.9915L49.1727 18.2347L49.0698 18.4136L46.4183 19.9615C46.0363 20.1845 45.6886 20.4732 45.3706 20.8189L45.2845 20.9145L45.2 21.013L44.4775 21.8734L44.6231 22.0251L44.5528 22.1178L44.4265 22.2907L44.3035 22.4659L44.1837 22.6435L44.1322 22.7215L44.0543 22.89L44.0164 22.9741L43.9861 23.0434L43.8956 23.09L43.7114 23.4226C42.7555 25.1486 42.2407 27.1089 42.2058 29.1232C42.1818 30.5126 42.3531 31.7744 42.7597 32.9917C43.041 33.8334 43.4181 34.4948 44.0699 35.4053L44.585 36.1124L44.6902 36.2583L44.8159 36.4358C44.8358 36.4643 44.8553 36.4923 44.8745 36.5201C45.7122 37.7342 52.8708 40.0323 57.2707 40.1434L57.4031 40.1461L57.5724 40.1478C57.9922 40.1496 58.398 40.1345 58.789 40.1018C60.4816 39.9601 62.064 39.6037 63.9024 39.0208L64.2838 38.8975L66.3092 38.2165C66.3738 38.1951 66.4258 38.1781 66.4618 38.1666L66.6467 38.1087C67.0928 37.9718 67.417 37.8931 67.6379 37.8645L67.6829 37.8591L67.6875 37.9429L67.6891 38.022L67.6888 38.0862C67.6759 39.0192 68.242 39.6993 69.1202 40.1327C69.6795 40.4087 70.3999 40.6058 71.3045 40.7538L71.4489 40.7767C72.9272 41.0053 74.6903 41.1029 77.6396 41.1698C77.752 41.1724 77.8652 41.1709 77.9793 41.1657C78.6127 41.1367 79.1103 41.0287 80.0354 40.7628L80.4729 40.6372L80.7099 40.5717C81.1499 40.4527 81.395 40.4052 81.6265 40.3922L81.6938 40.3894L81.7607 40.3883C82.0386 40.3879 82.2394 40.4498 82.4372 40.6008L82.5383 40.6818L83.8981 41.8218C84.0751 41.9693 84.2339 42.1002 84.3502 42.1929L84.3974 42.2303C86.2637 43.6947 88.0431 44.5313 90.1394 44.6108L90.2796 44.615L90.4257 44.6167C90.5322 44.6169 90.6391 44.6149 90.7462 44.6109C91.6289 44.5772 92.5453 44.2498 93.7965 43.6183L94.0559 43.4855L94.2374 43.3908C94.3301 43.342 94.4267 43.2907 94.5315 43.2346L95.4649 42.7347L95.942 42.4852C96.512 42.1919 96.8298 42.0503 97.0437 41.992L97.0786 41.9827L97.0986 42.0021C97.5937 42.4859 98.0185 43.0946 98.4757 43.9351L98.5445 44.063L98.6446 44.2534L99.2939 45.5471L99.4167 45.7877C99.8987 46.7215 100.28 47.3184 100.779 47.842C101.503 48.6019 102.38 49.0428 103.455 49.1136L103.563 49.1194L103.691 49.1226C104.197 49.1275 104.733 49.0498 105.315 48.8881L105.45 48.8494L105.582 48.809C106.448 48.5352 107.817 48.7056 108.905 49.2833C110.086 49.9108 110.737 50.8681 110.708 52.0915C110.693 52.6992 110.623 53.3507 110.501 54.0568L110.466 54.2508C110.305 55.1237 110.086 55.9995 109.749 57.1678L109.026 59.6115L108.944 59.8967L108.862 60.1901C108.745 60.6174 108.651 60.9897 108.574 61.3403C108.278 62.6808 108.229 63.6873 108.525 64.5449C109.831 68.3262 112.096 70.3348 114.676 70.4196L114.765 70.4218L114.875 70.4219C116.857 70.4005 118.652 69.1084 118.63 67.4343C118.628 67.259 118.595 67.0957 118.537 66.9478L118.51 66.8854L118.498 66.8588L118.518 66.8087C119.127 65.3497 120.536 64.2847 122.189 64.0758L122.283 64.0649L122.376 64.056C122.467 64.0481 122.557 64.0427 122.643 64.0397L122.727 64.0375L122.828 64.0367C125.032 64.0401 127.213 65.5086 128.929 67.9107C129.286 68.4116 129.618 68.9585 129.917 69.5364L130.015 69.7301L130.492 70.7068L130.814 71.6514C132.59 76.8526 131.691 82.2952 128.226 85.1091L128.12 85.1936C126.871 86.1733 125.403 86.7688 123.836 86.9291C123.655 86.9476 123.474 86.9593 123.299 86.9639L123.169 86.9661L123.021 86.9657C122.51 86.959 122.021 86.8955 121.582 86.7769C121.225 86.6802 120.975 86.5629 120.802 86.4132C120.757 86.3739 120.72 86.3383 120.688 86.3028L120.662 86.271L120.652 86.2575L118.283 86.6089C117.88 89.1681 116.717 91.8199 114.824 94.861L114.704 95.0515L114.496 95.3795L114.285 95.7077C112.057 99.1365 109.573 102.024 106.842 104.239L106.651 104.393L106.395 104.596L106.161 104.78C105.704 105.134 105.324 105.41 104.944 105.657L104.848 105.718L103.95 106.287L104.367 107.266C105.34 109.549 106.682 111.625 108.337 113.392L108.493 113.557L109.643 114.744L110.527 113.617C110.534 113.609 110.554 113.598 110.577 113.593L110.593 113.592H110.602L110.614 113.593L110.628 113.597L110.643 113.603C111.305 113.962 111.669 114.237 112.191 114.774L112.267 114.853L112.355 114.946L112.477 115.073C113.019 115.629 113.599 116.103 114.232 116.498C115.692 117.409 117.313 117.915 118.991 117.96L119.149 117.963L119.307 117.963C119.364 117.963 119.421 117.962 119.478 117.96C122.98 117.863 126.118 115.618 127.66 112.327C127.722 112.196 127.778 112.154 127.882 112.145L127.911 112.144L127.948 112.143C128.206 112.145 128.521 112.298 128.697 112.504L128.728 112.543L129.318 113.337L129.545 113.637C131.65 116.404 133.379 117.917 135.702 118.377C135.885 118.413 136.078 118.435 136.283 118.444L136.408 118.449H136.481C137.48 118.452 138.631 118.162 139.528 117.652C140.714 116.978 141.448 115.94 141.355 114.655L141.348 114.573L141.332 114.435C141.254 113.749 141.803 113.376 142.223 113.713L142.251 113.737L142.286 113.768C144.016 115.392 146.006 116.638 148.15 117.407L148.339 117.474L148.621 117.57C149.973 118.026 150.926 118.253 151.93 118.271C152.798 118.286 153.52 117.972 154.043 117.369C154.391 116.967 154.604 116.52 154.817 115.868L154.852 115.758L154.93 115.504L154.978 115.339C155.6 113.149 155.613 110.808 155.125 108.224C154.76 106.294 154.18 104.43 153.203 101.817L153.014 101.313L152.623 100.285C152.584 100.182 152.818 99.8223 152.964 99.7817L152.981 99.7786L153.114 99.7928C153.207 99.8015 153.3 99.8078 153.396 99.8114L153.543 99.815H153.638C156.81 99.7826 159.232 96.6702 159.21 93.3732C159.185 90.2848 157.633 87.6292 154.67 84.477L154.412 84.2056L154.134 83.9168L153.859 83.6349C151.226 80.9519 148.534 78.6098 145.731 76.6011L145.499 76.4354L145.24 76.253C144.296 75.5903 143.379 74.9893 142.109 74.1994L141.361 73.7374L138.331 70.1589C138.258 70.1177 138.187 70.0765 138.116 70.0354L138.078 68.794L135.158 68.8542C135.899 68.4739 136.513 68.0123 137.011 67.4209C138.668 65.4545 138.46 62.7226 136.446 61.3803L136.375 61.334L135.525 60.8092L134.83 61.4194C134.225 61.9509 133.583 62.3033 132.913 62.466L132.807 62.4901L132.283 62.6012L132.181 62.7664L132.122 62.6808C132.123 62.6723 132.124 62.6638 132.127 62.6556L132.132 62.6434L132.143 62.6263L132.209 62.5451L132.282 62.458C132.515 62.1838 132.777 61.9175 133.252 61.4597L133.585 61.1391L133.845 60.8865C134.526 60.2172 134.888 59.8028 135.274 59.227C136.233 57.7945 136.775 56.1795 136.797 54.539C136.845 51.1278 134.725 47.9028 131.583 46.4308C131.473 46.3793 131.392 46.0129 131.524 45.7707C134.566 40.1852 135.41 33.4897 133.882 27.2614C132.456 21.4503 128.909 16.3211 123.831 12.392C115.114 5.64651 103.021 2.16805 90.1905 2.04826L89.8015 2.04565H89.4281Z" fill="#ECDCBF"/>
<path fill-rule="evenodd" clip-rule="evenodd" d="M136.046 70.7554C135.468 70.6102 135.158 71.3869 135.649 71.699C138.761 73.6803 141.976 75.4497 144.983 77.6054C147.842 79.6547 150.483 81.989 152.946 84.4988L153.219 84.7784C155.446 87.071 157.912 89.9876 157.937 93.3696C157.956 95.9984 155.931 98.8677 153.106 98.5223C152.041 98.3921 151.063 99.7438 151.434 100.718L151.825 101.745C153.397 105.902 154.997 110.611 153.755 114.984L153.709 115.14C153.409 116.141 153.092 117.026 151.931 117.006C150.853 116.987 149.732 116.623 148.723 116.276C146.629 115.556 144.732 114.354 143.121 112.842C141.697 111.506 139.877 112.864 140.069 114.563L140.076 114.617C140.338 116.523 137.303 117.408 135.924 117.136C133.2 116.597 131.258 113.865 129.711 111.783C128.967 110.782 127.161 110.388 126.508 111.783C125.213 114.545 122.545 116.61 119.423 116.696C117.802 116.741 116.246 116.279 114.873 115.423C114.312 115.073 113.811 114.657 113.351 114.185L113.237 114.066C112.557 113.345 112.088 112.961 111.219 112.49C110.363 112.025 109.255 112.601 109.26 113.614C109.267 114.926 109.651 115.799 110.556 116.75C111.304 117.538 112.193 118.23 113.127 118.783C115.005 119.894 117.237 120.518 119.423 120.446C122.869 120.332 126.159 118.613 128.291 115.94C130.468 118.545 133.168 120.938 136.677 120.874C139.305 120.826 141.753 119.457 142.926 117.336C144.582 118.479 146.399 119.373 148.344 119.956L148.517 120.007C151.269 120.809 154.436 121.127 156.208 118.393C157.871 115.826 157.995 112.271 157.614 109.336C157.274 106.715 156.468 104.226 155.542 101.77C158.177 100.983 160.221 98.5067 160.923 95.8374C161.986 91.8009 159.925 87.8862 157.377 84.887C154.609 81.6289 151.125 78.8732 147.615 76.4612C144.115 74.056 140.193 71.7957 136.046 70.7554ZM46.0394 39.1829C46.0329 39.0708 45.8494 39.0315 45.8324 39.1546C44.6233 47.9351 43.9233 56.6978 43.3438 65.5385C43.0499 70.0174 42.7163 74.4917 42.3511 78.965C42.0007 83.2546 41.4174 87.6584 41.5492 91.9655C41.7556 98.7099 45.028 104.194 50.3938 108.14C55.5353 111.922 61.9136 113.792 68.1715 114.582C71.8059 115.041 75.4907 115.063 79.129 114.632C81.0187 114.408 82.9059 114.11 84.7567 113.662L85.557 113.462C87.0145 113.09 88.6419 112.584 88.8498 110.856C88.9506 110.019 88.5064 109.402 87.789 108.982C86.8539 108.434 85.7817 108.757 84.818 109.006C83.1941 109.427 81.5528 109.788 79.8931 110.037C76.3283 110.574 72.6637 110.606 69.0807 110.234C63.0536 109.609 56.6958 107.653 52.0488 103.612C50.0292 101.856 48.2732 99.7169 47.3495 97.1753C46.162 93.9077 46.3378 90.343 46.3776 86.9212C46.4699 78.965 46.3886 71.0089 46.4991 63.0519C46.6102 55.0707 46.5134 47.1523 46.0394 39.1829ZM106.649 2.00035C99.6066 0.18258 92.4593 -0.28976 85.2252 0.257423C78.403 0.773066 70.6313 2.30072 65.0594 6.50021C64.789 6.70397 64.9509 7.0897 65.2855 7.03638C69.0106 6.44214 72.6417 5.36129 76.3508 4.64615C79.9184 3.95829 83.5502 3.4419 87.1828 3.32225C99.4686 2.91699 113.139 5.70322 123.046 13.369C127.691 16.9633 131.236 21.7963 132.647 27.5467C134.094 33.4448 133.311 39.8233 130.406 45.1587C129.987 45.9269 130.16 47.1422 131.033 47.5512C133.681 48.7922 135.568 51.5417 135.527 54.5086C135.507 55.9477 135.011 57.3276 134.215 58.5171C133.373 59.7749 132.09 60.655 131.148 61.8297C130.777 62.2923 130.763 62.9294 131.057 63.3554C130.506 63.597 129.912 63.7266 129.369 64.012C128.91 64.254 128.897 65.0097 129.369 65.248C130.565 65.8505 131.857 65.211 132.664 64.2395C132.808 64.066 132.933 63.8856 133.046 63.7013C134.013 63.4963 134.879 63.011 135.635 62.3471C137.075 63.2105 137.273 65.1324 136.035 66.601C135.403 67.3507 134.505 67.8135 133.598 68.1461L133.489 68.1854C132.606 68.4993 131.797 68.6745 131.223 69.3817C130.845 68.5922 130.41 67.848 129.926 67.1699C128.166 64.7051 125.459 62.5184 122.248 62.796C119.733 63.013 117.554 64.8152 117.038 67.3018C117 67.4858 117.277 67.6295 117.36 67.4375C118.567 64.6212 122.385 64.5179 124.66 65.9854C127.334 67.7116 128.796 70.9644 129.383 73.9939C129.96 76.9782 129.626 80.6077 127.395 82.8775C126.482 83.8064 125.239 84.4487 123.943 84.6179C123.309 84.701 122.75 84.6193 122.144 84.4972L121.742 84.4132C121.463 84.3555 121.186 84.3089 120.894 84.3348L120.459 84.3934L120.211 84.5092C119.997 84.6057 120.016 84.5793 120.269 84.4297C119.53 84.3691 119.147 84.9163 119.107 85.5163C119.083 85.5313 119.06 85.5476 119.041 85.5709C116.234 89.0097 114.149 92.9623 111.169 96.2885L110.297 97.2629C108.055 99.7592 105.495 102.466 102.449 103.761L102.086 103.911C101.2 104.285 100.31 104.798 100.197 105.867C100.096 106.825 100.85 107.546 101.72 107.769C103.7 108.277 105.958 106.516 107.408 105.36C110.527 102.876 113.148 99.709 115.313 96.3769L115.527 96.045C117.306 93.2637 118.979 90.0916 119.499 86.7906L119.592 86.9427C119.599 86.9536 119.605 86.9617 119.608 86.9666C119.714 87.1108 119.831 87.2324 119.967 87.3491C120.331 87.6637 120.775 87.8475 121.237 87.9721C122.103 88.2062 123.052 88.2522 123.943 88.1611C125.751 87.9761 127.442 87.2873 128.871 86.1654C133.224 82.7489 133.738 76.3914 131.978 71.2337C133.422 71.5789 135.068 70.606 136.196 69.7722C137.489 68.8155 138.556 67.4345 138.811 65.81C139.064 64.198 138.037 62.0633 136.514 61.4413C138.094 59.5421 139.014 56.847 139.11 54.6891C139.275 50.9354 137.282 47.3875 134.223 45.3394C137.1 39.169 137.654 32.0103 135.717 25.4586C131.873 12.4576 118.996 5.18732 106.649 2.00035ZM117.609 100.779L117.573 100.665C117.267 99.6598 116.871 97.6599 115.37 98.4213C113.936 99.1484 114.852 101.301 115.353 102.349C115.953 103.602 116.989 104.608 118.381 104.877C119.513 105.096 120.756 104.815 121.548 103.939C121.779 103.684 121.909 103.405 122.046 103.096C122.099 102.975 122.123 102.893 122.133 102.84C122.146 102.898 122.183 102.986 122.278 103.089C122.909 103.78 123.506 104.584 123.965 105.401C124.073 105.595 124.415 105.459 124.329 105.248C123.795 103.941 123.885 101.919 122.694 100.974C121.645 100.141 120.659 100.796 120.105 101.767L120.076 101.818C119.265 103.291 117.973 101.892 117.609 100.779ZM129.021 96.0566L128.912 95.9043C127.79 94.3699 125.898 92.5242 124.005 93.9512C123.403 94.405 123.381 95.1624 124.005 95.6128L124.241 95.7816C125.068 96.3683 125.892 96.9224 126.499 97.7639C127.159 98.6788 127.752 99.6475 128.639 100.365C130.209 101.634 132.745 101.885 134.107 100.174L134.241 100.004C134.355 99.8571 134.486 99.6803 134.592 99.5039L134.674 99.6184C134.683 99.6299 134.69 99.6409 134.697 99.6512L134.716 99.6803C135.276 100.575 135.983 101.313 136.864 101.894C138.537 102.999 140.423 103.153 142.317 102.568C142.502 102.511 142.452 102.262 142.273 102.246C140.029 102.036 137.843 100.441 136.931 98.3862L136.827 98.1557C136.458 97.3385 136.044 96.5619 135.132 96.241C134.244 95.9287 133.311 96.2586 132.702 96.9309C132.193 97.4928 132.062 98.61 131.144 98.3637C130.138 98.0938 129.571 96.833 129.021 96.0566ZM135.448 82.4087C134.951 82.0307 134.173 82.4362 134.036 82.9839C133.416 85.4635 135.991 88.3854 138.465 88.4623C139.102 88.4818 139.715 88.3276 140.28 88.0325C140.717 87.8037 141.235 87.219 141.716 87.1221C142.336 86.9972 142.886 87.8242 143.323 88.2487C143.865 88.7756 144.401 89.2648 145.008 89.7138C145.251 89.8933 145.627 89.5919 145.525 89.3163L145.319 88.7684C144.576 86.818 143.295 83.9708 140.899 84.7802C139.724 85.1767 138.84 86.5138 137.604 85.455C136.614 84.6072 136.521 83.225 135.448 82.4087ZM124.874 72.4265C122.639 69.8597 117.387 71.2154 116.391 74.3381C116.171 75.0277 116.401 75.9241 116.939 76.4122C117.648 77.0552 118.66 77.25 119.521 76.7456C120.261 76.3118 120.566 75.6019 121.11 74.9929C121.909 74.1005 122.995 73.6052 124.114 73.2502C124.394 73.3974 124.654 73.5909 124.888 73.8242C125.007 73.9436 125.233 73.7799 125.127 73.6392C124.983 73.448 124.807 73.268 124.607 73.102L124.703 73.0738C124.998 72.9917 125.061 72.6427 124.874 72.4265ZM110.353 44.0875C109.852 44.0883 109.269 44.5589 109.333 45.1083L109.352 45.2608C109.497 46.3069 109.832 46.8991 110.879 47.3851C111.766 47.7969 112.699 48.0244 113.671 48.1145C114.04 48.1486 114.429 48.1506 114.824 48.1213L114.907 48.6015C115.073 49.5618 115.225 50.5227 115.254 51.5015C115.308 53.316 114.631 54.8114 113.906 56.4314C112.513 59.5433 112.356 62.6497 113.873 65.7571C114.094 66.2114 114.722 66.5818 115.229 66.5358C115.886 66.4762 116.204 66.286 116.586 65.7571C116.907 65.3129 116.833 64.6852 116.611 64.2207L116.586 64.1698C115.822 62.6882 115.581 61.0144 115.971 59.3859C116.338 57.8552 117.168 56.4795 117.539 54.9536C118.143 52.468 117.5 50.0024 116.242 47.87C117.191 47.5964 118.069 47.1088 118.655 46.3651L118.653 46.3641C118.876 46.1251 118.754 45.6257 118.362 45.6557L117.918 45.6916C116.648 45.7978 115.48 45.9082 114.196 45.5541C113.538 45.3723 112.97 45.0693 112.405 44.7025L112.284 44.6229C111.577 44.1528 111.185 44.0865 110.353 44.0875ZM107.315 25.7164C104.132 25.5354 101.416 27.6373 100.095 30.4353C98.66 33.4729 99.262 36.9584 100.528 39.9471L100.888 40.7835C101.518 42.2328 102.345 43.9563 103.634 44.7339C105.083 45.6075 106.335 44.5944 105.908 42.9842C105.653 42.0252 104.964 41.2856 104.407 40.4941C103.887 39.7549 103.401 38.99 102.975 38.192C102.142 36.627 101.519 34.8833 101.526 33.0903C101.538 29.8178 103.698 26.0673 107.315 26.1154C107.573 26.1184 107.569 25.7307 107.315 25.7164ZM91.2197 20.4359C91.418 20.2852 91.2407 19.95 91.0188 20.0915C87.3285 22.4404 84.573 26.8527 84.0183 31.1873C83.7104 33.5923 83.9455 36.1625 84.9689 38.382C85.556 39.6556 86.5634 40.8714 87.972 41.2206C89.2671 41.5412 90.6019 40.8011 91.0038 39.536C91.1596 39.0451 90.8915 38.5317 90.4866 38.2636C89.1735 37.3948 88.1163 36.2984 87.4978 34.8236C86.8543 33.2902 86.5977 31.6629 86.5899 30.0088C86.5709 26.1353 88.1156 22.7968 91.2197 20.4359ZM46.14 22.1148C46.3108 21.9253 46.096 21.6459 45.8699 21.7646C43.202 23.1688 41.5068 25.8587 41.021 28.8046C40.5451 31.6887 41.1854 35.6151 43.4161 37.701C44.6749 38.8784 46.9299 37.3125 45.8834 35.7958C45.1456 34.7263 44.348 33.8454 43.9256 32.5816C43.5489 31.4539 43.4156 30.3168 43.4361 29.1318C43.4809 26.5465 44.4038 24.0422 46.14 22.1148ZM78.7585 18.5032C74.2003 18.2859 71.4379 23.4937 70.8051 27.3753C70.4144 29.7735 70.708 32.2436 72.0311 34.3237L72.1094 34.4448C73.2011 36.1065 75.1859 38.0197 77.3244 37.2328C78.2296 36.9002 78.4704 35.9297 77.8624 35.1935C76.932 34.0666 75.4939 33.6073 74.619 32.4041C73.6376 31.0546 73.3159 29.364 73.3727 27.723L73.3804 27.5417C73.5325 24.5231 74.9711 18.7293 78.7585 18.8319C78.9709 18.8374 78.9684 18.513 78.7585 18.5032ZM64.5006 17.6379C60.0917 17.074 57.4068 22.265 56.5787 25.8409C56.0615 28.0765 55.9484 30.5703 56.61 32.7891L56.6593 32.9471C57.1978 34.6031 58.7865 37.4403 60.8606 36.5941C61.4288 36.3623 62.0088 35.7308 61.7367 35.0499C61.3893 34.1796 60.8878 33.9538 60.2195 33.3968C59.7048 32.9681 59.3454 32.3525 59.0808 31.7463C58.376 30.1305 58.2189 28.2429 58.3152 26.5017L58.3285 26.2957C58.5776 22.8947 60.4201 17.8263 64.5006 17.9195C64.687 17.9238 64.6742 17.66 64.5006 17.6379ZM56.4289 12.7578C53.9751 11.8226 51.9647 14.1708 50.5541 15.8466C48.7871 17.9465 47.1841 20.2086 46.278 22.8226C45.4709 25.1518 45.3288 27.7415 46.0559 30.1124C46.4158 31.2864 46.9766 32.375 47.7419 33.3332L47.8396 33.4541C48.6361 34.4261 49.4051 35.0234 50.7099 34.6754C51.2409 34.5335 51.4652 34.0081 51.3735 33.5059C51.1769 32.4331 50.6244 32.1545 49.9088 31.4056C49.2778 30.745 48.8096 29.9315 48.4947 29.0762C47.8454 27.3117 47.8117 25.4001 48.2476 23.5823C48.7353 21.5473 49.6952 19.6682 50.8058 17.9072L51.0454 17.5301C52.2221 15.6684 53.8999 12.8014 56.3821 13.1035C56.5947 13.1295 56.5975 12.8219 56.4289 12.7578Z" fill="black"/>
<path fill-rule="evenodd" clip-rule="evenodd" d="M65.2593 89.7431C64.8748 89.0755 63.9896 88.457 63.1795 88.5518C59.5505 88.9769 59.5568 93.3708 60.9581 95.936C62.2005 98.2106 64.7718 99.5458 67.3453 99.3508C70.049 99.1458 72.3526 97.5583 73.3664 95.0324C74.0369 93.3616 74.3467 90.277 72.5631 89.1543C72.53 89.1333 72.4754 89.1386 72.4491 89.1689C71.5939 90.1623 71.5603 91.654 70.8117 92.7601C70.1154 93.7889 69.0336 94.6384 67.7664 94.7696C66.82 94.8677 65.8626 94.5268 65.4924 93.6782C65.2921 93.2192 65.3149 92.97 65.3902 92.6541L65.4586 92.3796C65.6957 91.418 65.8021 90.6859 65.2593 89.7431ZM64.2892 70.4728C62.3965 71.6218 59.5127 74.3009 61.5488 77.1492C63.9454 79.6607 67.396 76.7811 69.0965 75.4788C70.6731 74.4695 72.4447 77.0654 70.9818 78.2439C58.6946 87.3291 53.7082 70.7732 63.3319 69.1219C64.3915 68.94 64.7851 70.1174 64.2892 70.4728ZM84.2757 62.5943C83.114 60.8537 80.4623 61.11 79.8224 63.1756C79.4758 64.2945 79.9545 65.3002 79.9297 66.4176C79.9089 67.3615 79.9708 68.4134 80.2605 69.3275C80.9212 71.4121 82.7985 72.8844 85.0194 72.8234C87.233 72.7625 89.1827 71.3633 90.1098 69.3926C91.0402 67.4144 90.8432 65.3671 90.1639 63.3555C90.1314 63.2589 90.0045 63.2121 89.9281 63.2935C89.1252 64.1456 88.5375 65.0451 87.9293 65.9994L87.3061 66.9774C86.8298 67.7138 86.1376 68.6545 85.2482 68.5954L85.1148 68.5823C84.8676 68.5611 84.9055 68.6101 84.7148 68.2737C84.6266 68.118 84.6427 67.8286 84.6 67.6449L84.5853 67.5828L84.5933 67.5494C84.6121 67.4604 84.6308 67.2927 84.646 67.0018L84.6492 66.9375C84.7136 65.5766 85.0988 63.8276 84.2757 62.5943ZM54.8279 63.7532C55.0362 61.5269 51.9022 61.0325 50.8603 62.6798C50.3169 63.5389 50.1587 64.618 50.0385 65.6404L49.9823 66.1256C49.859 67.1757 49.8102 68.268 50.2666 69.2475C50.9854 70.7902 52.5486 71.6057 54.2349 71.4766C55.8453 71.3529 57.3145 70.4205 58.089 69.005C58.7795 67.7419 59.466 65.2758 58.6273 63.9584C58.5767 63.8786 58.4754 63.8683 58.406 63.9299C57.6135 64.6325 57.4844 65.9141 57.0132 66.8295C56.5272 67.7737 55.7901 68.6938 54.673 68.8373C53.6043 68.9744 53.196 68.3915 53.4687 67.3739C53.8204 66.0603 54.6956 65.1667 54.8279 63.7532ZM83.4292 49.3587L82.9167 49.1626C81.1607 48.5001 78.7499 47.7344 77.3222 49.1604C76.4415 50.0398 76.2738 51.3351 76.9024 52.4082C77.6641 53.7081 79.0303 53.7401 80.3496 53.9316C81.8502 54.1494 83.3763 54.5634 84.7734 55.1536C86.3471 55.8187 87.8076 56.6477 89.2385 57.5737C90.5985 58.4535 91.9536 59.8915 93.5815 60.1626C93.648 60.1736 93.7234 60.1451 93.7407 60.0723C94.1104 58.4828 93.083 56.9186 92.1662 55.6785C91.0569 54.1772 89.7127 52.9449 88.2104 51.84C86.7604 50.7734 85.1037 50.0027 83.4292 49.3587ZM51.5313 55.0099L51.3747 54.9825C50.3099 54.8054 49.3449 54.8462 48.5424 55.6884C47.9299 56.331 47.6938 57.1638 47.9858 58.0134C48.2552 58.7971 48.8577 59.5933 49.7322 59.7575C52.6845 60.3122 55.9545 60.2206 58.9216 59.8006C60.2791 59.6083 61.6488 59.3731 62.971 59.0021L63.5793 58.826C64.6832 58.5111 65.9469 58.1821 66.7487 57.3713C67.037 57.0799 66.8708 56.6629 66.5259 56.528C65.1269 55.9808 63.2092 56.2719 61.7174 56.2291C59.982 56.1796 58.2439 56.0497 56.5167 55.8707C54.8289 55.6955 53.1958 55.3147 51.5313 55.0099Z" fill="black"/>
<path fill-rule="evenodd" clip-rule="evenodd" d="M42.3702 71.6529C44.671 74.5237 53.678 77.7103 58.4718 74.251C63.2656 70.7918 65.1601 68.381 65.8008 64.0585C65.8692 63.5976 66.7036 63.2911 67.0564 63.6183C69.0316 65.4506 70.3103 67.7844 71.5771 70.1241C73.0058 72.763 74.4131 75.418 77.0095 77.2044C81.6083 79.6663 89.9279 80.0169 92.3858 78.931C97.0943 76.8507 100.819 72.4016 101.666 66.279C102.24 64.4685 102.779 63.3727 103.282 62.9917C103.998 62.45 107.946 61.9674 108.378 61.8873C116.173 60.4429 126.031 59.5222 132.973 64.6038C133.913 65.1709 137.129 67.3018 137.178 66.7778C137.21 64.7255 134.882 60.0803 129.585 57.87C123.036 55.1367 113.3 54.9768 107.659 55.58C107.376 55.6104 106.409 55.3731 106.34 55.3435C97.7952 51.6487 87.963 52.63 78.8198 54.1829C77.5096 54.4369 65.7806 57.3373 61.1152 55.58C53.4015 52.4351 45.1773 50.1567 36.8475 51.0531C36.7778 51.0606 35.7263 57.4351 36.5454 57.87C37.1973 58.2161 38.3066 59.1029 38.7007 59.5882C39.0529 60.022 39.2749 60.5614 39.2553 61.3087C39.0968 65.6314 40.3318 69.1095 42.3702 71.6529ZM74.0855 67.7958C73.1074 66.3827 72.7988 63.2085 73.2083 60.8928C73.4156 59.7203 73.8182 58.787 74.3235 58.3225C74.6593 58.0137 75.0425 57.8683 75.4603 57.8899C75.6895 57.9017 75.9377 57.9668 76.2004 58.1083C79.7577 56.1865 84.0673 55.4945 88.1524 55.6935C91.4043 55.6929 93.7245 56.4595 95.298 57.6528C97.1912 59.0887 98.0442 61.1528 98.0935 63.3913C98.1521 66.0475 97.0595 68.9534 95.2672 71.2528C93.5518 73.4536 91.2051 75.0851 88.6594 75.4616C85.7694 76.0345 82.8243 75.4802 80.2637 74.1243C77.6374 72.7337 75.419 70.5002 74.0855 67.7958ZM45.5683 69.2942C43.9199 67.3489 42.8239 64.8182 42.657 62.3107C42.5052 60.0288 43.1171 57.7683 44.8088 55.9003C46.3425 54.5856 49.0526 54.5638 51.9034 55.296C55.5898 56.2426 59.4034 58.3582 60.6747 59.7246C60.9742 59.8814 61.2522 60.1544 61.4943 60.7402L61.496 60.949C61.8811 62.7228 61.6526 64.5229 60.9864 66.1835C60.2628 67.9873 59.0217 69.6248 57.5084 70.8742C55.4978 72.5283 53.399 73.0346 51.4346 72.7675C49.2095 72.465 47.1404 71.1497 45.5683 69.2942Z" fill="white"/>
<path fill-rule="evenodd" clip-rule="evenodd" d="M61.3805 54.8775C53.5694 51.6925 45.2199 49.3969 36.7669 50.3065C36.0679 50.0409 35.2002 50.2647 34.8904 51.2519C31.8795 60.4121 38.5938 57.8647 38.5036 61.289C37.7998 80.4887 63.6392 83.7675 66.5446 64.1686L66.598 64.2001C70.7781 68.0957 71.6586 74.4349 76.5829 77.8229C86.5164 85.0782 100.598 79.3297 102.406 66.4136L102.446 66.2389C103.053 63.6029 103.779 62.9493 106.773 62.9623L107.246 62.8684C115.025 61.3377 125.385 59.9621 132.55 65.2264C134.109 66.1315 134.182 68.4584 135.499 69.4694C136.942 69.7493 137.83 68.0164 137.928 66.8171C138.157 54.8614 116.735 54.0014 107.141 55.0274C106.958 54.8379 106.566 54.8614 106.435 55.0975C97.758 51.3458 87.9829 51.865 78.6928 53.4427C72.9379 54.5553 67.2539 57.0897 61.3805 54.8775ZM37.5446 52.5138C42.2318 52.2797 46.5673 52.5358 51.168 53.6609C53.5927 54.2452 55.4534 54.9838 57.7743 55.8722C72.2506 62.2775 73.9204 50.892 106.37 55.3551C105.95 57.1508 105.873 58.9288 105.85 60.6159C99.2247 60.3492 100.785 66.6675 98.3024 71.1055L98.2259 71.2394C94.6082 77.7145 86.0715 80.7347 79.1853 76.4399C73.4401 73.0957 72.8797 64.6139 67.1597 61.2477C62.2013 61.0529 64.1819 67.7363 61.4835 70.4832C57.6853 75.5448 49.6121 76.2524 44.8495 71.4915C42.615 69.2006 41.4275 66.292 41.3618 63.1671C41.2373 61.1706 41.5802 59.1418 40.0688 57.7375C39.0094 56.6627 37.1271 57.0214 36.911 55.3966C36.7737 54.4359 37.1737 53.3939 37.5446 52.5138ZM88.4843 55.1306C83.8282 54.9016 78.9017 55.7091 74.9038 57.9897C71.9445 55.6377 71.2194 64.9849 73.1837 67.6885C76.0136 73.4712 82.6021 77.2732 88.946 76.0107C98.8426 74.5784 105.738 55.1133 88.4843 55.1306ZM75.188 58.6165L75.4412 58.5795C79.7302 57.9259 91.4087 54.898 95.9129 59.677C100.284 67.6042 89.1944 80.9193 77.6538 70.3136C74.4418 67.0477 73.1969 63.0875 75.188 58.6165ZM61.5961 59.6296C59.3749 57.0031 48.0549 51.6829 44.1091 55.0969C36.9075 63.1572 48.3283 79.4608 57.8942 71.5177C61.0803 68.8626 63.1763 64.6323 62.259 60.536L62.2576 60.3643C62.2556 60.302 62.244 60.3162 62.1773 60.2386C62.0592 59.929 61.8467 59.7312 61.5961 59.6296ZM44.2096 64.5149C41.7809 51.3593 51.9315 56.3605 60.2677 59.8719C59.8203 60.2802 59.8223 60.8376 59.9509 61.2957C60.8301 71.0569 48.9507 76.5883 44.2096 64.5149ZM107.309 55.6667C110.786 56.8427 133.785 54.7395 135.91 65.5065C133.667 61.8777 129.022 60.4377 124.847 59.6562C119.167 58.5931 113.518 59.2086 107.918 60.3273L107.803 59.1698C107.678 57.9421 107.548 56.7936 107.309 55.6667Z" fill="black"/>
</svg>
