<svg width="200" height="297" viewBox="0 0 200 297" fill="none" xmlns="http://www.w3.org/2000/svg">
<path fill-rule="evenodd" clip-rule="evenodd" d="M190.931 281.115C191.281 281.126 191.171 281.024 191.042 281C191.005 281.038 190.968 281.077 190.931 281.115ZM180.614 288.782C170.85 289.939 161.075 288.88 151.36 287.819C131.677 286.36 112.133 290.609 92.4117 289.314C67.7657 288.276 43.0528 286.326 18.4887 289.611C11.6943 289.767 0.857422 291.6 3.32146 281.087C6.55804 254.057 10.8853 227.163 15.5207 200.341C19.4492 185.304 19.7332 159.296 30.4905 148.839C32.0634 147.404 37.7044 142.76 39.1959 142.137C46.6105 139.377 59.9775 137.224 65.4922 131.375C69.9592 123.819 67.8813 113.51 74.8271 107.427C80.9147 102.459 94.2015 103.509 100.71 107.24C105.845 110.568 106.649 117.032 109.849 121.813C110.638 122.958 112.513 125.72 113.572 126.61C116.148 129.09 125.199 131.696 127.813 132.174C142.562 135.196 149.917 137.062 161.518 146.86C191.829 177.792 187.532 232.502 195.92 272.952C196.263 277.398 198.967 283.433 194.142 286.295C189.987 288.285 185.101 288.069 180.614 288.782Z" fill="#AE5D29"/>
<path fill-rule="evenodd" clip-rule="evenodd" d="M68.8736 121.091C68.8374 120.986 68.6682 120.968 68.6426 121.091C68.2289 122.983 67.4538 125.057 66.6682 126.83C65.8697 128.627 64.7785 130.277 63.3997 131.678C60.5113 134.614 56.7961 135.954 52.7215 135.956L52.6239 135.959C52.6051 135.822 52.584 135.685 52.5644 135.548L52.5366 135.343C52.1643 132.53 48.824 132.612 48.1719 134.735C47.8407 134.84 47.5095 134.945 47.1808 135.056L47.1151 135.079C46.5619 135.29 44.6879 136.223 44.3437 135.974C43.5863 135.43 42.7211 136.054 42.4335 136.749C41.9635 137.888 41.885 139.296 41.7324 140.531L41.712 140.691L41.6889 140.884C30.9696 143.669 24.9539 154.389 21.8832 164.265C20.2195 169.618 19.1308 175.142 18.0371 180.634C16.8663 186.509 15.7877 192.399 14.6454 198.276C12.3937 209.858 10.2627 221.467 8.41153 233.119L7.87477 236.502C6.17888 247.217 4.52702 257.925 3.13788 268.687C2.38817 274.49 1.68468 280.298 1.00685 286.111C0.88533 287.148 0.764938 288.185 0.645615 289.223L0.467422 290.78C0.308487 292.176 0.0389099 293.557 0.729568 294.863C2.22641 297.696 6.76062 297.676 7.01738 294.047C7.06847 293.326 6.82481 292.774 6.42171 292.389L6.42729 292.328C6.43126 292.292 6.43532 292.265 6.43686 292.253C6.57063 291.532 6.60657 290.77 6.68872 290.04C6.86845 288.485 7.04305 286.93 7.2202 285.372C7.56168 282.405 7.90572 279.438 8.2626 276.474C8.98381 270.461 9.74663 264.455 10.5551 258.455L11.3566 252.522C14.0371 232.745 16.8308 212.973 20.507 193.353C21.5083 188.012 22.5377 182.679 23.5932 177.349C24.5945 172.3 25.7191 167.275 27.3982 162.402C30.1403 154.44 34.9338 146.985 41.5888 141.759C41.4861 142.758 41.4116 143.761 41.3167 144.759C41.0727 147.323 40.8134 149.885 40.5515 152.446C39.599 161.727 38.3075 170.992 36.1046 180.066C35.0134 184.563 33.6835 189.001 32.0634 193.335C31.2649 195.471 30.3945 197.578 29.4394 199.646C28.4945 201.692 26.8382 203.879 26.7384 206.158C26.6921 207.212 27.7962 208.149 28.8178 208.036C28.3405 212.235 28.0709 216.477 27.7859 220.666C27.37 226.733 27.0388 232.811 26.5535 238.873C25.6857 249.731 24.5971 260.575 23.4571 271.408C23.2311 273.556 22.9855 275.702 22.7425 277.847L22.539 279.649C22.402 280.817 22.1949 282.217 22.8152 283.252C22.2606 284.589 21.8806 285.963 21.6596 287.395C21.38 289.176 22.399 291.172 24.479 291.095C24.7152 291.088 24.9514 291.067 25.1876 291.042C27.1158 291.488 29.0388 291.881 31.0415 291.894C33.5987 291.912 36.1611 291.86 38.7183 291.842C43.6656 291.809 48.6135 291.776 53.5611 291.735C71.472 291.591 89.3906 291.599 107.299 291.311L114.464 291.197C121.033 291.092 127.602 290.97 134.168 290.731C138.689 290.567 143.21 290.4 147.729 290.218L148.649 290.183C152.637 290.037 156.629 289.963 160.572 289.353C160.671 289.336 160.714 289.234 160.698 289.143L160.693 289.119L160.865 289.081C160.965 289.512 163.045 287.7 163.029 286.496C163.892 285.375 163.489 283.583 163.396 282.285C163.306 281.019 163.193 279.752 163.093 278.486C162.88 275.784 162.698 273.079 162.48 270.376C161.599 259.479 160.839 248.553 160.346 237.633C160.097 232.128 159.897 226.62 159.686 221.115C159.591 218.609 159.459 216.1 159.213 213.605L159.15 212.982C158.88 210.451 158.906 207.731 157.974 205.346C157.961 205.313 157.917 205.313 157.904 205.346C156.962 207.667 156.872 210.364 156.682 212.91C156.649 212.9 156.615 212.895 156.58 212.887C155.278 212.268 153.963 211.711 152.731 210.947C152.564 210.844 152.402 210.736 152.238 210.631C150.299 204.702 148.053 198.871 145.986 192.981C139.308 173.935 135.621 153.652 134.805 133.485C139.898 136.768 145.446 139.321 150.839 142.064L151.344 142.321C156.657 145.037 161.743 148.119 165.525 152.829C168.821 156.93 170.976 161.927 172.991 166.744C175.155 171.921 177.107 177.19 178.891 182.507C182.511 193.297 185.315 204.351 187.503 215.518C189.662 226.538 191.205 237.64 192.237 248.82C192.763 254.523 193.243 260.231 193.647 265.946C193.852 268.839 194.034 271.734 194.204 274.631C194.286 276.038 194.347 277.447 194.44 278.853C194.496 279.664 194.507 280.501 194.774 281.271C194.997 281.912 195.392 282.449 195.762 283.016C196.437 284.05 198.142 284.238 198.776 283.016L199.051 282.487C199.415 281.782 199.746 281.073 199.796 280.26C199.842 279.49 199.747 278.687 199.703 277.914C199.619 276.351 199.521 274.785 199.423 273.222C199.218 269.935 198.99 266.647 198.733 263.362C198.222 256.782 197.565 250.219 196.738 243.669C193.829 220.666 189.628 197.783 181.613 175.953C179.631 170.555 177.42 165.201 174.924 160.02C172.511 155.01 169.458 150.28 165.027 146.831C160.947 143.655 156.206 141.529 151.494 139.466L150.905 139.208C145.624 136.901 140.353 134.417 134.838 132.702C134.961 132.718 135.082 132.733 135.187 132.769C135.308 132.807 135.379 132.651 135.305 132.566C134.992 132.22 134.861 131.863 134.501 131.522C134.253 131.285 133.995 131.062 133.729 130.847L133.346 130.543C132.647 129.988 131.911 129.421 131.03 129.227C129.785 128.955 129.174 130.087 129.523 130.972C129.343 130.739 128.861 130.808 128.735 131.129C124.637 141.693 121.946 152.875 116.431 162.856C112.359 170.229 106.896 177.038 99.6452 181.491C95.7503 183.883 91.2928 185.721 86.6895 186.011C82.5559 186.27 78.5788 185.22 75.0636 183.051C68.2495 178.85 63.8 171.474 60.6268 164.326C57.1376 156.458 54.6471 148.073 53.1836 139.573C57.8205 139.637 62.7142 137.522 65.7978 134.075C67.4204 132.261 68.6297 130.051 69.2434 127.695C69.8621 125.318 69.6644 123.365 68.8736 121.091ZM107.774 114.919C107.209 113.91 105.956 113.577 104.931 113.987C103.794 114.444 103.453 115.548 103.614 116.669C103.802 117.983 104.647 119.403 105.304 120.55C105.992 121.751 106.878 122.857 107.794 123.891C109.52 125.842 111.366 127.6 113.556 129.037C115.736 130.467 118.201 131.537 120.734 132.135L121.337 132.275C123.308 132.726 126.112 133.242 127.754 132.171C127.834 132.119 127.831 132.014 127.754 131.963C126.866 131.344 125.677 131.234 124.655 130.942C123.541 130.621 122.424 130.256 121.359 129.799C119.256 128.896 117.243 127.705 115.451 126.283C113.651 124.857 111.91 123.155 110.706 121.191C110.1 120.206 109.584 119.172 109.089 118.13C108.588 117.085 108.336 115.925 107.774 114.919Z" fill="black"/>
<path fill-rule="evenodd" clip-rule="evenodd" d="M40.3656 68.2346C40.4677 62.479 40.5805 56.6084 41.4344 50.9088C42.2693 45.3367 44.566 40.3 48.5128 36.2537C56.8959 27.6589 69.0476 25.5596 80.3587 23.6358L99.6975 20.3464C105.597 19.3431 111.892 17.7394 117.853 19.1623C120.79 19.8634 123.284 21.4923 125.564 23.4195C127.762 25.277 130.124 27.2717 131.613 29.7708C133.105 32.2735 133.618 35.1991 134.103 38.0296C134.65 41.2208 135.075 44.437 135.377 47.6608C135.982 54.1198 136.064 60.6274 135.625 67.0998C135.413 70.2391 135.075 73.3695 134.643 76.4859C134.429 78.0313 134.187 79.5728 133.913 81.109C133.833 81.5619 133.771 82.0634 133.689 82.5701C134.299 84.3084 134.646 86.1087 134.618 87.9012C134.535 93.1815 130.087 96.5058 125.603 98.2906C123.003 99.3255 120.285 100.029 117.73 101.185C115.042 102.401 113.213 104.372 111.376 106.621C107.871 110.91 103.916 114.765 99.4006 117.981C89.8265 124.8 77.6999 128.025 66.0831 125.577C63.2959 124.99 60.484 124.078 57.9785 122.704C55.3333 121.253 53.3443 119.15 51.674 116.665C48.5726 112.05 46.3484 106.854 44.6658 101.566C42.9496 96.1723 41.7313 90.7687 41.0669 85.1444C40.4049 79.5384 40.2654 73.8753 40.3656 68.2346Z" fill="#AE5D29"/>
<path fill-rule="evenodd" clip-rule="evenodd" d="M102.136 0.316633C94.1435 -0.785106 83.1123 2.79574 79.132 10.0159C60.1292 5.52635 36.1618 5.3793 20.4995 20.325C4.15666 38.054 24.6842 61.4297 38.2957 66.6999C37.3047 71.5265 38.8499 102.447 49.7833 116.24C58.4603 127.926 78.667 133.319 88.0173 119.361L88.0902 119.246C89.092 117.634 88.2292 117.686 87.2009 118.885C78.045 126.954 65.5961 127.092 56.003 118.576C38.024 103.011 39.8778 64.8465 48.433 42.7678C72.794 40.0865 98.877 47.4861 115.703 65.8636L114.565 72.7281C114.371 73.8976 114.151 75.066 113.983 76.2396C113.875 76.9916 113.863 77.7394 114.383 78.3481C116.1 80.3576 118.993 77.338 121.373 76.137C122.076 76.0379 122.78 75.9997 123.47 76.0484C134.906 77.5246 132.653 99.757 120.084 95.86C119.028 95.2007 118.12 95.4019 117.711 96.3586C114.715 99.1087 112.739 104.014 107.762 108.738C106.006 110.51 104.408 111.992 102.432 113.414C101.272 114.59 97.7707 115.789 98.8805 117.801C100.979 122.38 113.356 107.997 115.544 104.019C122.4 106.732 129.998 105.811 137.103 105.148C174.586 103.195 169.582 63.5982 138.858 38.599C133.075 34.3322 126.694 30.8515 120.062 28.1729C119.156 27.8072 119.552 26.3172 120.47 26.6881C124.859 28.4606 129.137 30.5704 133.215 33.0123L133.222 31.5524C133.228 29.0935 133.189 26.5336 132.763 24.287C132.55 22.7302 132.192 21.0675 131.64 19.8166C130.958 15.9817 120.276 2.81832 102.136 0.316633ZM123.97 81.1526C123.392 80.6016 122.311 81.2586 121.796 81.2421C120.478 81.4228 119.227 81.9805 118.25 82.6688C117.606 83.0306 117.154 83.3704 116.777 83.683L116.766 83.6802C116.769 83.6802 116.773 83.683 116.776 83.6838L116.74 83.7078C116.191 84.0992 114.179 86.3035 115.45 85.7107C115.545 85.5872 115.642 85.4687 115.74 85.3524C115.75 85.3683 115.765 85.384 115.782 85.3991L115.711 85.5053C114.63 87.134 116.496 85.4181 116.783 84.9623C116.796 84.9734 116.811 84.9808 116.827 84.9888L116.453 85.4446C116.401 85.5093 116.36 85.561 116.325 85.6047L116.247 85.6809C114.997 86.9114 114.958 88.0188 116.41 86.1996C116.353 86.2853 116.307 86.3761 116.3 86.4567L116.214 86.5666C115.075 88.0381 116.002 87.5155 116.568 86.887L116.615 86.833L116.606 86.8476C116.079 87.6609 117.124 87.0903 117.309 86.6553L117.316 86.6356C117.518 86.471 117.642 86.2864 117.684 86.2397L117.692 86.2319C118.672 85.2259 120.092 84.3746 121.298 83.9879C121.473 83.9545 121.65 83.9278 121.829 83.9088C122.554 83.7466 123.288 83.6355 124.029 83.5755C124.12 83.5647 124.211 83.498 124.28 83.4117C125.401 83.3739 125.055 82.9135 124.59 82.828L124.582 82.8266L124.674 82.8188C125.393 82.7485 125.884 82.4899 125.157 82.3312L125.065 82.3128C125.076 82.2951 125.086 82.2774 125.096 82.2597C125.719 82.1912 125.312 81.5845 124.967 81.7313C125.112 81.2547 124.447 81.4926 124.364 81.4218C124.301 81.3515 124.222 81.2894 124.177 81.286C123.977 81.1443 124.074 81.1572 123.97 81.1526ZM120.16 73.4366L120.306 73.5221C120.424 73.5911 120.545 73.6371 120.667 73.664C120.495 73.7374 120.325 73.8167 120.157 73.9014C120.159 73.7979 120.161 73.6945 120.161 73.5913L120.16 73.4366Z" fill="black"/>
<path fill-rule="evenodd" clip-rule="evenodd" d="M74.4755 93.6157C73.0392 91.254 69.9778 97.0394 69.6525 98.0341C69.3644 98.9154 69.1742 99.8181 69.0776 100.731C67.9641 100.981 66.8078 100.981 65.6668 100.763C63.9711 100.437 62.9345 99.5261 61.4607 98.7436C60.4427 98.2029 59.1598 98.8369 58.6304 99.7337C58.0077 100.789 58.4044 101.885 59.2234 102.672C60.7765 104.164 63.8322 104.506 65.8595 104.11C67.0211 103.883 68.0856 103.448 69.0257 102.815C69.0319 102.933 69.0361 103.051 69.0454 103.169L69.0634 103.374C69.2191 105.029 69.6742 107.109 70.96 108.186C73.0691 109.953 75.6719 106.556 73.6226 104.791L73.5591 104.738C72.2853 103.709 72.0074 100.949 72.076 99.4288C72.121 98.4365 72.3018 97.4315 72.6152 96.4864L72.6797 96.2982C72.774 96.0313 73.8027 93.4988 74.1745 93.8213L74.1922 93.8395C74.3455 94.0225 74.5932 93.8093 74.4755 93.6157ZM63.0079 80.2892C61.0691 81.4672 58.1149 84.2141 60.2006 87.1346C62.6557 89.7097 66.1905 86.7572 67.9324 85.4219C69.5475 84.387 71.3623 87.0486 69.8637 88.257C57.2769 97.5722 52.1688 80.5972 62.0273 78.9041C63.1127 78.7175 63.5159 79.9247 63.0079 80.2892ZM83.7111 69.4004C81.8163 69.0644 79.8753 69.5354 78.3073 70.6436L78.1885 70.729C76.6779 71.8333 74.9877 73.7724 75.8546 75.676C76.2025 76.4403 77.2443 76.5601 77.9055 76.2136C79.0062 75.6367 79.2057 74.2172 80.1877 73.4316C80.9932 72.7876 82.0777 72.397 83.1149 72.4912C85.5518 72.7124 87.0507 75.1149 87.8076 77.1853C87.9044 77.4502 88.2933 77.5531 88.4453 77.2687C90.23 73.9343 87.0709 69.9963 83.7111 69.4004ZM53.3605 68.142C49.7308 67.843 45.4824 71.6045 46.438 75.4342C46.8963 77.2718 49.6232 77.2192 50.108 75.4342C50.3748 74.452 50.3481 73.583 51.0554 72.7673C51.6393 72.0939 52.4688 71.7028 53.3605 71.7628C54.3433 71.829 55.2499 72.32 55.9388 73.0101C56.5609 73.6333 56.9329 74.5452 57.5774 75.0967C57.736 75.2322 57.9484 75.2409 58.105 75.0967C59.2142 74.0745 58.5484 71.9463 57.8452 70.8792C56.8387 69.3521 55.1999 68.2937 53.3605 68.142ZM90.6231 62.6081C88.2946 60.5477 84.0636 58.5579 80.9238 59.5719C79.1186 60.1548 78.3317 63.0624 80.3469 63.984C82.6805 65.0511 85.371 64.6169 87.7462 65.7231C88.7437 66.1878 89.6818 66.7686 90.3763 67.6205C90.9235 68.2919 91.4801 69.1752 92.2714 69.5623C92.4794 69.6642 92.761 69.6667 92.9277 69.4778C94.6623 67.5165 92.1376 63.9481 90.6231 62.6081ZM57.3626 59.4697C55.9236 59.066 54.3271 59.0742 52.8652 59.3277C51.4037 59.5813 49.92 60.1868 48.7269 61.0699L48.5883 61.1733C47.2858 62.1544 45.7315 63.5819 45.8148 65.32C45.8844 66.7713 47.4118 67.753 48.7304 66.9923C49.8055 66.372 50.3113 65.1293 51.2214 64.3019C51.9724 63.6189 52.8546 63.0805 53.7959 62.7032C54.8414 62.2841 55.8886 62.0878 57.0106 62.069C57.8746 62.0546 58.7437 62.338 59.5915 62.4286C59.5217 62.5718 60.1918 62.5051 60.5759 62.378C60.8604 62.2569 60.8619 61.8973 60.7633 61.664C60.2742 60.5083 58.4947 59.7869 57.3626 59.4697Z" fill="black"/>
</svg>
