<svg width="192" height="285" viewBox="0 0 192 285" fill="none" xmlns="http://www.w3.org/2000/svg">
<path fill-rule="evenodd" clip-rule="evenodd" d="M6.99315 247.351C7.97998 241.795 8.88454 236.223 9.7066 230.64C10.0968 227.989 10.4775 225.336 10.8197 222.678C11.0594 220.816 11.4244 218.687 10.1539 217.308C8.36604 215.367 6.74199 213.706 6.52313 210.925C6.31725 208.309 7.20444 205.458 7.75917 202.918C8.9225 197.593 10.3708 192.334 11.9711 187.125C13.5969 181.832 15.3795 176.589 17.188 171.356C18.8786 166.464 20.5039 161.527 22.7059 156.833C26.8851 147.925 33.9551 141.328 42.6928 136.923C44.866 135.827 49.2984 131.916 51.5687 131.041C53.6559 130.236 53.6485 132.587 55.7027 131.701C57.3448 130.993 58.8739 130.049 59.7934 128.468C60.7917 126.752 63.2953 124.351 63.6765 122.353C64.4841 118.117 63.6092 114.512 66.6409 111.325C69.3324 108.494 72.9499 106.555 76.693 105.514C84.9274 103.224 95.909 104.825 100.877 112.454C103.25 116.097 104.079 120.501 107.281 123.474C110.077 126.071 109.451 127.846 113.073 129.184C113.278 129.26 118.837 128.071 119.042 128.147C123.003 127.302 126.79 129.668 130.424 131.041C135.842 133.087 141.001 135.751 145.847 138.917C155.62 145.302 163.99 153.592 170.89 162.973C177.848 172.431 183.246 183.033 187.09 194.113C188.023 196.805 188.862 199.529 189.601 202.279C190.015 203.819 190.458 205.416 189.954 206.992C189.541 208.281 188.624 209.241 187.547 210.015C186.088 211.063 183.159 211.745 183.216 213.855C183.26 215.458 183.806 217.146 184.072 218.731C184.389 220.618 184.65 222.517 184.91 224.413C186.095 233.041 187.017 241.719 187.425 250.421C187.826 258.989 188.16 267.732 187.564 276.297C187.524 276.862 187.355 277.381 187.083 277.819C187.337 277.916 187.357 278.389 187.04 278.456C186.818 278.503 186.597 278.549 186.375 278.596C185.915 278.944 185.34 279.157 184.679 279.178C184.23 279.192 183.782 279.212 183.335 279.235C178.61 280.22 173.885 281.15 169.099 281.854C163.28 282.711 157.444 283.409 151.59 283.976C139.562 285.142 127.628 284.755 115.583 284.127C103.557 283.499 91.5384 283.353 79.5 283.665C67.451 283.977 55.4064 284.5 43.3548 284.714C29.8906 284.952 16.4469 284.586 3.02164 283.519C1.18092 283.372 0.0420685 281.912 0.405121 280.089C2.58023 269.168 5.04521 258.32 6.99315 247.351Z" fill="#FFDBB4"/>
<path fill-rule="evenodd" clip-rule="evenodd" d="M130.424 131.041L130.161 130.94C126.607 129.555 122.908 127.322 119.042 128.147C118.905 128.096 116.389 128.607 114.666 128.931L116.302 130.634L119.188 131.187C109.231 147.573 97.4544 155.765 83.8587 155.765C70.2629 155.765 59.9463 147.573 52.9089 131.187L51.9486 130.922C51.8299 130.95 51.7037 130.989 51.5686 131.041C49.2982 131.916 44.8659 135.827 42.6927 136.922C33.955 141.327 26.8849 147.924 22.7058 156.833C20.5772 161.37 18.9875 166.135 17.3567 170.867L17.1879 171.356C15.3795 176.589 13.5967 181.832 11.971 187.125C10.4402 192.108 9.0486 197.136 7.91238 202.224L7.75906 202.918C7.20432 205.458 6.31714 208.309 6.52301 210.925C6.60098 211.916 6.8573 212.764 7.23584 213.534L26.9298 220.6L17.5473 284.404C26.1417 284.771 34.744 284.866 43.3547 284.714C55.4063 284.5 67.4509 283.977 79.4999 283.665C91.1735 283.362 102.829 283.491 114.49 284.071L117.451 284.222C128.863 284.791 140.184 285.082 151.59 283.976L152.368 283.9L152.368 274.567L148.361 222.597L168.666 218.786L188.599 209.133C189.201 208.533 189.685 207.832 189.953 206.992C190.42 205.532 190.075 204.054 189.693 202.621L189.601 202.279C188.862 199.529 188.023 196.805 187.09 194.113C183.246 183.033 177.848 172.431 170.89 162.973C163.99 153.592 155.62 145.302 145.847 138.917C141.001 135.751 135.842 133.087 130.424 131.041Z" fill="#EC7495"/>
<path fill-rule="evenodd" clip-rule="evenodd" d="M122.799 127.878C121.554 127.824 120.284 128.025 119.042 128.147C118.934 128.157 118.892 128.324 119.014 128.349C121.237 128.812 123.436 129.446 125.619 130.089L126.554 130.365C129.016 131.091 131.406 131.84 133.79 132.809C138.54 134.739 143.051 137.344 147.204 140.338C163.193 151.864 174.765 169.315 182.067 187.383C184.05 192.29 185.731 197.319 187.092 202.432C187.423 203.676 187.734 204.925 188.03 206.178C188.116 206.546 188.494 207.486 188.287 207.862C188.104 208.194 187.392 208.4 187.061 208.573L185.944 209.15C183.766 210.269 180.138 212.109 179.775 212.288L179.207 212.567C169.926 217.103 160.01 220.95 149.566 221.216L149.484 220.327C149.019 215.411 148.408 210.468 147.074 205.703C147.002 205.447 146.675 205.534 146.645 205.761C145.902 211.402 146.14 217.087 146.399 222.755C146.858 232.792 147.468 242.824 148.009 252.858C148.281 257.877 148.631 262.893 148.948 267.91C149.265 272.936 149.367 278.084 150.091 283.069C150.253 284.18 151.558 284.784 152.547 284.667C153.64 284.537 154.482 283.577 154.487 282.476C154.5 279.571 154.134 276.633 153.931 273.736C153.738 270.984 153.53 268.233 153.318 265.482C152.541 255.442 151.648 245.414 150.822 235.379C150.529 231.819 150.213 228.263 149.887 224.707C160.951 224.352 171.287 220.266 181.147 215.492C181.29 218.723 181.634 221.948 181.968 225.166C182.9 234.145 183.721 243.121 184.336 252.128C184.646 256.677 184.872 261.232 185.069 265.787C185.166 268.026 185.244 270.265 185.305 272.505C185.325 273.252 185.343 273.998 185.36 274.745L185.393 276.456C185.421 277.54 185.531 278.544 186.446 279.333C187.375 280.134 188.63 280.177 189.549 279.333C190.78 278.203 190.563 276.663 190.526 275.145C190.496 273.865 190.459 272.585 190.417 271.305C190.332 268.745 190.224 266.186 190.092 263.628C189.63 254.686 188.707 245.779 187.502 236.908L187.031 233.484C186.152 227.118 185.187 220.607 183.222 214.474C183.987 214.095 184.75 213.713 185.51 213.329C186.858 212.649 188.252 212.01 189.562 211.259C190.601 210.663 191.498 209.846 191.787 208.64C192.11 207.296 191.616 205.827 191.289 204.516L191.26 204.401C190.939 203.081 190.592 201.766 190.227 200.458C188.746 195.152 186.915 189.949 184.771 184.873C180.48 174.711 174.941 165.057 168.174 156.328C162.084 148.47 154.889 141.345 146.456 136.001C142.334 133.388 137.94 131.243 133.294 129.726C131.122 129.017 128.759 128.4 126.486 128.147C125.259 128.01 124.031 127.931 122.799 127.878ZM100.738 111.775C99.2584 110.191 96.3188 111.83 97.0292 113.928C98.7003 118.864 101.361 123.365 105.514 126.608C109.418 129.657 114.073 131.637 119.086 131.214C119.125 131.211 119.158 131.201 119.188 131.187L118.756 131.772C115.364 136.346 111.786 140.857 107.473 144.596C98.6866 152.215 86.7228 156.324 75.1703 153.401C66.081 151.101 58.0733 143.935 55.7183 134.802C56.0559 134.953 56.4571 135.004 56.8975 134.909C58.7818 134.501 60.6473 132.525 61.8625 131.108C63.1771 129.576 64.2038 127.921 64.9564 126.05C66.3337 122.626 66.7753 118.218 64.8947 114.902C64.6626 114.493 64.1274 114.722 64.0819 115.121L64.0103 115.744C63.6478 118.852 63.1961 121.859 61.7264 124.692C61.0071 126.079 60.1449 127.432 59.0954 128.593C58.5338 129.215 57.925 129.808 57.2677 130.329C56.6272 130.837 55.8519 131.203 55.2778 131.786L55.1726 131.898L55.1697 131.878C55.0245 130.647 54.1591 130.105 53.3123 130.139C52.4928 130.172 51.5303 130.531 51.1575 130.704L51.1223 130.72C45.4055 133.456 40.1403 137.023 35.1855 140.98C24.9388 149.163 17.2613 159.86 13.5415 172.457C11.7157 178.64 10.6681 185.01 9.56219 191.351L8.88138 195.236C7.84917 201.09 6.69615 207.059 4.36604 212.504C3.76332 213.913 4.22797 215.234 5.70587 215.788C7.55124 216.479 9.40347 217.149 11.2586 217.811C10.3477 221.707 9.79222 225.739 9.1097 229.654C7.65895 237.978 5.88141 246.248 4.35724 254.56C3.57802 258.81 2.87491 263.075 2.09642 267.325C1.72162 269.372 1.33041 271.416 0.949982 273.462C0.745087 274.565 0.559265 275.672 0.363663 276.777L0.32962 276.96C0.217575 277.543 0.0767975 278.146 0.237595 278.729C0.420959 279.394 0.941666 279.864 1.40656 280.341C1.78918 280.734 2.34221 280.736 2.81102 280.522L2.96521 280.451C3.80254 280.06 4.45847 279.671 4.75552 278.729C4.94354 278.133 5.01135 277.461 5.13425 276.847C5.37 275.669 5.59352 274.49 5.80453 273.307C6.22659 270.941 6.63885 268.573 7.04131 266.204L7.41722 263.985C8.70744 256.338 9.93271 248.644 10.5521 240.916C10.8269 237.488 11.1181 234.062 11.412 230.636L11.6327 228.066C11.9118 224.814 12.2528 221.479 12.301 218.182L13.4103 218.575L18.8232 220.483C20.1653 220.956 21.874 221.925 23.3184 221.749C24.0254 221.662 24.5645 221.44 24.9806 221.037C24.4822 228.051 23.8075 235.052 22.9083 242.018C22.0902 248.356 21.1832 254.685 20.1119 260.986C19.5814 264.106 19.0362 267.223 18.444 270.332C18.148 271.886 17.8425 273.439 17.5277 274.99C17.3708 275.764 17.184 276.538 17.0616 277.318C16.9215 278.212 17.1683 278.761 17.6689 279.496C18.08 280.1 18.9023 280.41 19.5689 279.993C20.4517 279.441 20.9122 278.962 21.1719 277.957C21.4079 277.043 21.5513 276.089 21.734 275.164C22.0711 273.456 22.3969 271.745 22.7115 270.033C23.3693 266.452 23.9757 262.861 24.5172 259.261C26.4255 246.575 27.6363 233.784 28.2478 220.972C28.5497 214.65 28.643 208.324 28.5894 201.996C28.5619 198.752 28.4557 195.499 28.2256 192.264C27.9925 188.989 27.5078 185.779 27.075 182.536C27.0598 182.422 26.8982 182.415 26.8914 182.536C26.6864 186.172 26.3653 189.805 26.2079 193.451C26.0575 196.93 25.9917 200.414 25.8722 203.895C25.7153 208.469 25.4977 213.047 25.2095 217.621C24.6878 217.052 23.9015 216.724 23.1147 216.852C21.9749 216.614 20.7479 216.017 19.6612 215.655L15.5646 214.291C13.411 213.574 11.2574 212.862 9.09624 212.171C11.0285 205.689 12.3521 199.111 13.4823 192.437L13.9864 189.436C14.9842 183.528 16.06 177.617 17.8672 171.896C19.7672 165.881 22.6104 160.289 26.3822 155.224C30.1001 150.234 34.6234 145.839 39.2806 141.728C43.2678 138.21 47.5331 135.032 51.5999 131.61C51.5573 131.837 51.5482 132.087 51.5857 132.361C52.4503 138.671 55.7516 144.547 60.3523 148.917C69.595 157.698 83.2766 159.519 95.1062 155.402C106.549 151.419 116.667 141.987 120.241 130.315C120.302 130.116 120.034 130.036 119.926 130.183C119.728 130.454 119.529 130.725 119.329 130.996C119.343 130.888 119.286 130.771 119.153 130.72C114.983 129.114 110.887 126.837 107.761 123.616C106.237 122.046 104.908 120.267 103.858 118.348C103.355 117.429 102.903 116.477 102.543 115.494L102.451 115.239C102.015 114.007 101.65 112.751 100.738 111.775Z" fill="black"/>
<path fill-rule="evenodd" clip-rule="evenodd" d="M47.308 42.6063C48.2512 36.9046 45.1556 35.7215 47.308 30.3015C52.0917 20.2587 65.1284 20.6914 74.6949 19.9192C85.365 19.5106 96.1647 20.9181 106.001 25.1912C108.351 26.2118 110.611 27.412 112.777 28.7757C114.651 29.955 114.393 32.1972 113.212 33.4204C121.729 45.4717 116.858 61.6481 123.654 74.3335C124.909 76.601 126.57 78.6343 127.661 80.9937C129.32 84.5801 129.426 89.7189 125.664 92.1007C120.366 94.9419 117.41 89.3164 114.807 97.4713C101.806 125.906 75.6669 127.507 50.8527 112.682C48.7058 111.489 46.5148 110.141 44.8937 108.266C41.2139 104.128 41.6473 98.3097 41.5659 93.1427C41.5205 90.1146 41.5129 87.0861 41.5425 84.0575C41.6583 71.79 45.7274 54.7728 47.308 42.6063Z" fill="#FFDBB4"/>
<path fill-rule="evenodd" clip-rule="evenodd" d="M100.16 8.50323C85.1777 1.71258 68.1845 -0.862594 51.8414 0.826525C43.7747 1.65893 35.8142 3.44479 28.2385 6.34575L27.5745 6.60216C25.7044 7.32134 23.6885 8.0352 22.2674 9.49913C20.6133 11.2004 20.1494 13.7732 21.3318 15.8748C22.2503 17.5078 23.9017 18.6792 25.6631 19.3043C25.0425 19.812 24.4538 20.3783 23.9017 21.0105C22.971 22.0699 22.9001 23.5806 23.9017 24.6255C25.8316 26.6393 28.3356 28.0963 31.0326 28.7946C30.7297 30.2567 30.8933 31.8751 31.5432 33.3323C33.4078 37.5153 38.6604 38.0138 42.7025 37.7654L42.8246 37.7577L43.0493 40.328C43.169 41.6973 43.9898 42.7591 45.3823 42.9691C45.4312 42.9764 45.4803 42.9813 45.5289 42.9859C43.3254 50.9484 41.994 59.157 40.7652 67.3173C40.1232 71.5769 39.5485 75.8465 38.9983 80.1188L38.8157 81.543C38.2294 86.149 37.4966 90.8014 37.2425 95.4416C37.0153 99.6522 37.819 103.672 40.4158 107.07C42.7464 110.116 45.9246 112.399 49.3423 114.093C57.0643 117.922 65.1919 120.773 73.7324 122.096L74.3019 122.184C77.5986 122.687 80.9952 123.111 84.2565 122.199C87.1218 121.398 90.1268 119.333 89.4794 116.016C89.262 114.896 87.6937 114.847 87.1562 115.713L87.0322 115.912C86.3877 116.934 85.6814 117.883 84.5567 118.41C83.2402 119.031 81.7134 119.204 80.2745 119.221C76.2559 119.267 72.0712 118.267 68.2016 117.263C60.9754 115.389 53.5539 112.333 47.6347 107.702C45.116 105.735 43.0933 103.275 42.38 100.109C41.4981 96.2056 42.3091 91.9389 42.7097 88.0163C43.5342 79.9224 44.5154 71.8434 45.5508 63.7735L45.7585 62.1596C46.6304 55.4129 47.5465 48.6637 47.9816 41.878C48.1623 41.6314 48.2845 41.3507 48.3333 41.0432L48.4015 40.6014C48.4604 40.223 48.4701 39.8764 48.4286 39.5567C48.4262 38.3313 48.392 37.1133 48.3211 35.8877C48.3092 35.6683 48.2991 35.4486 48.2918 35.2313C49.567 35.512 50.852 35.739 52.1419 35.9319C61.21 37.2964 70.4198 37.6381 79.5612 36.9595C84.1221 36.62 88.6486 36.0368 93.1609 35.307C95.4575 34.936 97.7463 34.5259 100.028 34.067C101.677 33.7375 103.292 33.2908 104.914 32.871C106.587 35.3046 107.491 38.2996 107.315 41.2409C107.117 44.5972 104.88 47.641 105.507 51.0705C106.097 54.2801 108.849 55.2752 111.566 56.0701L112.721 56.4037C113.61 56.6631 114.256 56.9133 114.417 57.9807C114.693 59.8139 114.353 61.8765 114.282 63.7194C114.197 65.8991 114.085 68.0788 114.033 70.2586C114.006 71.3863 113.963 72.5189 113.965 73.6466C113.967 74.4472 114.087 74.994 114.397 75.5112C114.158 75.8117 113.943 76.1363 113.752 76.4805C113.691 76.5928 113.843 76.7121 113.933 76.6196C114.175 76.3682 114.432 76.1412 114.703 75.9384C114.839 76.107 114.998 76.2779 115.184 76.461L115.198 76.4414C115.78 77.0199 116.703 77.0761 117.424 76.461L117.613 76.2972C118.141 75.8351 118.504 75.4502 118.65 74.6864C118.658 74.6474 118.665 74.6083 118.67 74.5693C120.011 74.5229 121.374 74.84 122.581 75.5066C124.494 76.5635 125.84 78.0695 126.636 79.9295C126.319 80.3005 125.947 80.6325 125.515 80.9108C125.454 80.9523 125.508 81.0426 125.574 81.0109C126.016 80.8034 126.411 80.5471 126.766 80.2468C127.052 80.9791 127.252 81.7651 127.374 82.5975C127.804 85.5363 127.037 89.1269 124.379 90.8014C123.228 91.5264 121.914 91.9193 120.551 91.9242C119.887 91.9264 119.312 91.8144 118.667 91.6557C118.23 91.5483 117.795 91.3921 117.338 91.3921C116.948 91.3921 116.586 91.4897 116.251 91.685L116.344 91.6931C116.57 91.7143 116.526 91.7238 116.212 91.7238C115.235 91.7656 114.676 92.7566 115.125 93.6182L115.184 93.7513C115.197 93.7782 115.207 93.8005 115.215 93.8181L115.251 94.0467C115.254 94.0684 115.258 94.0908 115.262 94.1137L115.276 94.16C115.278 94.1674 115.281 94.1748 115.284 94.1821L113.818 96.4151C112.022 99.1468 110.185 101.868 108.094 104.363C106.629 106.113 105.075 107.829 103.433 109.418C101.958 110.846 100.189 111.535 98.5182 112.657C97.6263 113.253 97.3652 114.5 98.176 115.303C100.556 117.664 103.924 115.789 105.876 113.871C107.723 112.052 109.318 109.865 110.694 107.675C113.134 103.782 115.076 99.6424 115.926 95.1487C116.281 95.4733 116.733 95.6759 117.189 95.8346C118.106 96.1519 119.114 96.2837 120.082 96.3179C121.936 96.3789 123.793 95.9298 125.461 95.134C132.25 91.8998 133.247 82.2142 129.096 76.5025C129.656 74.8808 129.968 73.1213 130.308 71.6208L130.463 70.9501C132.179 63.4582 133.331 55.5704 130.288 48.2293C129.898 47.2822 129.458 46.3595 128.937 45.4759C128.52 44.7656 127.802 44.0089 127.604 43.201C127.164 41.4264 129.878 39.5615 130.669 38.1531C131.6 36.5006 131.732 34.5503 130.464 33.0391C130.303 32.849 130.127 32.673 129.937 32.5195C131.139 30.3422 131.195 27.6035 129.612 25.4554C128.571 24.0397 126.983 23.0487 125.249 22.7485C124.188 22.5654 122.913 22.6337 121.748 22.9608C115.367 17.0416 108.087 12.0963 100.16 8.50323ZM124.662 82.5682C122.96 81.067 121.078 80.281 118.758 80.4788C116.425 80.6787 113.615 81.6431 112.245 83.6422C111.163 85.2215 113.369 87.5379 114.957 86.3516C116.403 85.2703 117.368 84.0498 119.163 83.4689C120.776 82.949 122.772 82.6146 124.46 82.9124C124.645 82.9441 124.831 82.7146 124.662 82.5682Z" fill="black"/>
<path fill-rule="evenodd" clip-rule="evenodd" d="M61.668 99.7557C61.2924 99.1047 60.4278 98.5016 59.6366 98.5941C56.092 99.0085 56.0981 103.293 57.4668 105.795C58.6803 108.013 61.1918 109.315 63.7055 109.125C66.3463 108.925 68.5963 107.377 69.5866 104.914C70.2414 103.284 70.544 100.276 68.8019 99.1816C68.7696 99.1611 68.7163 99.1662 68.6906 99.1957C67.8553 100.165 67.8225 101.619 67.0912 102.698C66.4111 103.701 65.3545 104.529 64.1168 104.657C63.1924 104.753 62.2572 104.421 61.8957 103.593C61.7 103.145 61.7223 102.902 61.7958 102.594L61.8627 102.327C62.0942 101.389 62.1982 100.675 61.668 99.7557ZM60.7204 80.9643C58.8718 82.0847 56.055 84.6972 58.0438 87.4748C60.3847 89.9239 63.755 87.1159 65.4159 85.8459C66.9559 84.8617 68.6862 87.393 67.2574 88.5423C55.256 97.4017 50.3855 81.2573 59.7854 79.647C60.8204 79.4695 61.2048 80.6177 60.7204 80.9643ZM80.2422 73.2816C79.1075 71.5842 76.5174 71.8341 75.8924 73.8484C75.5538 74.9395 76.0214 75.9202 75.9972 77.0099C75.9769 77.9303 76.0373 78.956 76.3203 79.8474C76.9656 81.8802 78.7993 83.316 80.9685 83.2564C83.1306 83.1971 85.035 81.8326 85.9406 79.9109C86.8493 77.9818 86.6569 75.9854 85.9934 74.0239C85.9616 73.9297 85.8377 73.884 85.7631 73.9633C84.9789 74.7943 84.4048 75.6715 83.8108 76.602L83.202 77.5557C82.7368 78.2738 82.0607 79.1912 81.192 79.1336L81.0617 79.1208C80.8203 79.1001 80.8573 79.1479 80.6711 78.8198C80.5849 78.668 80.6006 78.3858 80.5589 78.2066L80.5445 78.1461L80.5524 78.1135C80.5707 78.0267 80.589 77.8632 80.6038 77.5795L80.6069 77.5168C80.6698 76.1897 81.0461 74.4842 80.2422 73.2816ZM51.4792 74.4116C51.6826 72.2407 48.6216 71.7586 47.6039 73.365C47.0731 74.2027 46.9186 75.255 46.8012 76.2519L46.7463 76.7251C46.6259 77.7491 46.5781 78.8143 47.0239 79.7695C47.726 81.2738 49.2529 82.069 50.9 81.9431C52.4729 81.8225 53.9079 80.9133 54.6644 79.5329C55.3388 78.3012 56.0094 75.8964 55.1903 74.6118C55.1408 74.5339 55.0419 74.5239 54.9741 74.584C54.2 75.2691 54.0739 76.5189 53.6137 77.4115C53.139 78.3322 52.419 79.2295 51.3279 79.3694C50.284 79.5031 49.8853 78.9347 50.1516 77.9424C50.4951 76.6614 51.3499 75.79 51.4792 74.4116ZM79.4153 60.3748L78.9147 60.1836C77.1996 59.5376 74.8448 58.7909 73.4503 60.1815C72.5901 61.039 72.4263 62.3022 73.0403 63.3486C73.7843 64.6162 75.1187 64.6474 76.4074 64.8341C77.873 65.0465 79.3637 65.4502 80.7282 66.0258C82.2654 66.6743 83.6919 67.4828 85.0895 68.3857C86.4178 69.2437 87.7415 70.646 89.3315 70.9103C89.3964 70.9211 89.4701 70.8932 89.487 70.8222C89.8481 69.2722 88.8446 67.7469 87.9491 66.5377C86.8656 65.0736 85.5527 63.8719 84.0853 62.7945C82.6691 61.7544 81.0509 61.0029 79.4153 60.3748ZM48.2592 65.8856L48.1063 65.8589C47.0662 65.6862 46.1237 65.726 45.3399 66.5473C44.7416 67.1739 44.511 67.986 44.7962 68.8144C45.0593 69.5787 45.6479 70.3552 46.502 70.5153C49.3856 71.0562 52.5796 70.9668 55.4777 70.5573C56.8036 70.3698 58.1414 70.1404 59.4329 69.7786L60.0271 69.6069C61.1053 69.2998 62.3396 68.979 63.1228 68.1883C63.4043 67.9042 63.242 67.4976 62.9051 67.366C61.5386 66.8324 59.6656 67.1163 58.2085 67.0746C56.5134 67.0262 54.8157 66.8995 53.1287 66.725C51.4802 66.5542 49.885 66.1829 48.2592 65.8856Z" fill="black"/>
</svg>
