<svg width="198" height="286" viewBox="0 0 198 286" fill="none" xmlns="http://www.w3.org/2000/svg">
<path d="M30.4067 179.433H87.8026V250.071H30.4067V179.433Z" fill="#FDEA6B"/>
<path fill-rule="evenodd" clip-rule="evenodd" d="M104.543 110.342C98.3564 105.633 82.8237 103.516 76.2204 108.05C69.6983 112.602 68.9873 119.965 65.9481 126.737C63.0805 125.386 58.3451 127.321 57.5137 129.981C56.4826 131.235 56.4363 134.758 55.7253 136.444C24.7861 141.366 20.089 165.473 16.365 192.841C11.4385 220.613 0.254791 248.323 5.10988 276.901C4.47728 277.816 3.97852 278.705 3.51733 279.761C2.41228 281.64 3.83563 284.3 6.06456 284.197C8.94963 283.944 11.8062 283.598 14.7048 283.49C22.7401 283.211 30.7828 283.244 38.8212 283.347L39.9174 283.361C80.4286 283.865 120.938 284.858 161.451 285.121C162.92 285.124 163.64 283.806 163.444 282.507C163.048 279.89 162.682 277.273 162.299 274.655C171.881 277.185 182.068 277.821 191.624 274.921C192.292 274.241 190.066 274.609 189.713 274.506C198.507 268.501 195.881 255.849 195.102 246.737C190.258 215.513 188.55 180.966 169.835 154.322C161.739 143.449 149.869 134.84 136.23 132.903L135.851 132.851C131.863 132.32 127.418 132.149 123.931 129.981C120.01 126.852 118.338 121.07 114.213 121.016C112.85 120.998 110.997 122.721 109.002 123.89C108.854 121.317 107.466 119.146 107.16 117.152L107.135 116.981C106.816 114.655 107.253 112.563 104.543 110.342ZM38.0523 193.666C46.7471 187.629 69.2074 190.662 69.7216 191.001C70.8537 191.745 71.3412 191.811 71.9536 192.777C72.5581 192.857 73.1621 192.94 73.7657 193.026C74.9765 193.421 74.0792 194.91 72.6806 194.379C73.5219 198.004 71.0463 200.583 70.0608 204.167C69.7408 205.331 70.0492 207.424 70.0608 208.613C69.9652 210.129 68.2879 211.92 68.5674 213.441C69.5613 218.849 74.9545 224.124 72.6806 229.369C71.1743 232.331 66.6438 233.841 63.6317 234.848C57.3911 237.242 46.5173 234.758 42.8914 229.369C40.9573 226.494 38.7167 219.243 37.5635 216.994L37.3079 213.426C36.6776 204.557 36.1169 195.01 38.0523 193.666Z" fill="#EDB98A"/>
<path fill-rule="evenodd" clip-rule="evenodd" d="M114.534 121.032L112.046 122.558L97.5947 129.698C94.7931 130.482 93.3923 131.421 93.3923 132.516V143.668C93.3923 145.16 90.7633 148.542 85.5051 153.814L80.6474 148.974L80.756 148.341C81.2182 145.61 81.4494 143.784 81.4494 142.861C81.4494 141.869 76.6968 138.103 67.1918 131.563L63.0335 127.65L63.4769 126.303C60.9129 126.424 58.1324 128.002 57.5137 129.981C56.4826 131.235 56.4363 134.758 55.7253 136.444C24.7861 141.366 20.089 165.473 16.365 192.841C11.4385 220.613 0.254791 248.323 5.10988 276.901C4.47728 277.816 3.97852 278.705 3.51733 279.761C2.41228 281.64 3.83563 284.3 6.06456 284.197C8.94963 283.944 11.8062 283.598 14.7048 283.49C22.7401 283.211 30.7828 283.244 38.8212 283.347L39.9174 283.361C80.4286 283.865 120.938 284.858 161.451 285.121C162.92 285.124 163.64 283.806 163.444 282.507C163.048 279.89 162.682 277.273 162.299 274.655C171.881 277.185 182.068 277.821 191.624 274.921C192.292 274.241 190.066 274.61 189.713 274.506C198.507 268.501 195.881 255.849 195.102 246.737C190.258 215.513 188.55 180.966 169.835 154.322C161.739 143.449 149.869 134.84 136.23 132.903L135.851 132.851L135.47 132.802C131.582 132.307 127.308 132.08 123.931 129.981C120.113 126.934 118.428 121.373 114.534 121.032ZM79.907 186.486C81.3244 186.486 84.2272 188.686 88.6155 193.086L89.0021 193.264C94.3068 195.727 97.821 197.863 99.5447 199.673L99.6063 199.738C101.348 201.605 104.796 206.57 109.951 214.632L117.417 219.044H120.242L122.253 233.624L117.417 244.034L106.463 240.346L88.6155 235.645L78.374 225.261L72.5967 223.323C73.2976 225.346 73.5517 227.36 72.6806 229.369C71.1743 232.331 66.6438 233.841 63.6317 234.848C57.3911 237.242 46.5173 234.758 42.8914 229.369C40.9573 226.494 38.7167 219.243 37.5635 216.994L37.2327 212.359C36.6367 203.807 36.1943 194.956 38.0523 193.666C46.7471 187.629 69.2074 190.662 69.7216 191.001C70.8537 191.745 71.3412 191.811 71.9536 192.777L72.2705 192.819L70.4881 190.403L71.1192 190.067C75.6226 187.68 78.5519 186.486 79.907 186.486ZM72.6806 194.379C73.486 197.85 71.2514 200.361 70.1946 203.714L72.8948 198.548L72.8949 194.446C72.825 194.428 72.7535 194.406 72.6806 194.379Z" fill="#9DDADB"/>
<path fill-rule="evenodd" clip-rule="evenodd" d="M115.727 120.493C115.127 119.962 114.239 120.629 114.62 121.347C115.478 122.96 116.357 124.488 117.507 125.914C118.205 126.778 118.952 127.596 119.709 128.404C117.766 130.084 116.099 132.17 114.526 134.125C112.513 136.625 110.611 139.231 108.352 141.519C106.124 143.775 103.66 145.352 100.682 146.404L100.08 146.613C97.0882 147.663 93.8902 149.081 92.2037 151.912C91.8711 152.47 92.5408 153.16 93.1037 152.812C96.0344 150.998 99.4779 150.633 102.668 149.435C105.75 148.278 108.436 146.496 110.809 144.222C113.179 141.952 115.169 139.37 117.244 136.842C119.296 134.342 121.506 132.207 123.933 130.092C127.679 132.611 131.955 133.707 136.303 134.783L136.777 134.901C141.13 135.978 145.46 137.229 149.544 139.104C153.145 140.758 156.686 142.732 159.619 145.423C162.732 148.279 165.156 151.926 167.374 155.493C172.335 163.472 175.822 172.214 178.893 181.063C182.087 190.266 184.758 199.654 186.914 209.153C188.011 213.985 188.902 218.851 189.634 223.752C189.987 226.112 190.3 228.477 190.574 230.847C190.868 233.379 190.935 235.983 191.712 238.416C192.045 239.459 192.832 239.892 193.619 239.855L193.779 241.854C193.991 244.519 194.189 247.184 194.256 249.865C194.366 254.324 194.316 258.769 193.995 263.218L193.95 263.824C193.698 267.071 193.134 270.719 190.691 273.097C188.161 275.559 184.271 276.333 180.861 276.378C172.919 276.481 165.274 272.731 158.246 269.441C151.008 266.052 143.968 262.291 137.097 258.212C133.597 256.135 130.136 253.989 126.718 251.779C125.041 250.695 123.376 249.592 121.723 248.472C120.777 247.83 119.88 247.127 118.916 246.557C119.388 246.118 119.599 245.427 119.203 244.824C121.989 242.407 123.149 238.094 123.284 234.605C123.394 231.788 122.979 228.979 122.652 226.189C122.486 224.782 122.282 223.378 122.071 221.977C121.987 221.424 121.923 220.832 121.825 220.248C129.348 224.379 137.081 228.058 145.019 231.327C149.088 233.002 153.209 234.509 157.386 235.889L158.233 236.168C162.192 237.463 166.245 238.686 170.337 239.426C170.556 239.466 170.734 239.143 170.5 239.04C166.512 237.281 162.386 235.798 158.338 234.178L157.673 233.908C157.749 233.903 157.828 233.893 157.911 233.873C160.285 233.3 162.64 232.418 164.969 231.675C167.13 230.985 169.558 230.552 171.578 229.511C171.733 229.431 171.646 229.215 171.495 229.205C169.224 229.048 166.76 229.709 164.534 230.098L163.698 230.244C162.297 230.491 160.865 230.756 159.471 231.103C159.421 230.636 159.16 230.167 158.789 229.892C154.704 226.869 155.119 220.763 154.682 216.261L154.358 212.918C153.788 207.068 153.185 201.218 152.27 195.412C152.221 195.102 151.741 195.191 151.739 195.483C151.692 202.681 152.235 209.846 152.508 217.032L152.55 218.211C152.701 222.646 152.819 227.25 155.613 230.662C155.222 230.434 154.694 230.434 154.377 230.81C153.988 231.273 153.764 231.792 153.771 232.302C151.246 231.244 148.732 230.158 146.23 229.051C138.186 225.489 130.311 221.504 122.644 217.191C121.819 216.727 121.035 217.092 120.627 217.704L120.568 217.695C120.558 217.694 120.548 217.693 120.538 217.693L120.48 217.69C120.477 217.69 120.475 217.691 120.473 217.691C119.394 217.098 117.924 217.52 116.997 218.384C116.97 218.411 116.947 218.439 116.923 218.466C115.75 217.94 114.655 217.23 113.662 216.33C111.629 214.488 109.906 212.211 108.405 209.928C105.64 205.722 103.292 201.045 99.5571 197.583C96.5226 194.77 92.7606 193.019 88.8138 191.92C88.8303 191.805 88.7862 191.682 88.7065 191.6C88.5038 191.392 88.3591 191.321 88.0972 191.447C88.0764 191.457 88.0639 191.471 88.0554 191.486L87.6702 190.828C87.46 190.471 87.2442 190.112 87.1694 190.018C86.7212 189.454 86.2601 188.894 85.7919 188.346C84.9981 187.419 84.0936 186.503 83.0461 185.86C80.7528 184.452 78.3419 185.249 75.9842 186.018C74.5596 186.484 73.1397 186.964 71.7176 187.436L71.5709 187.484C70.5105 187.824 69.2696 188.122 68.7954 189.245C68.6077 189.689 68.5786 190.151 68.6661 190.598C58.5945 188.038 47.4081 189.214 37.5798 192.219C37.2026 192.334 36.8259 192.644 36.7464 193.052C35.6203 198.823 35.1188 204.742 35.6283 210.612C36.068 215.679 37.1913 220.644 39.3082 225.283L39.4285 225.545C41.418 229.844 44.5711 235.144 49.3866 236.491C52.2942 237.305 55.5101 236.825 58.4757 236.676C61.3578 236.531 64.3037 236.51 67.1585 236.057C69.701 235.654 71.9286 234.515 73.4999 232.449C74.8553 230.666 75.5691 228.512 76.1539 226.369C76.4215 226.454 76.6875 226.545 76.9491 226.647C78.0537 227.078 78.9896 227.774 79.8357 228.593C81.6225 230.322 83.0085 232.423 84.878 234.073C86.5704 235.567 88.4987 236.729 90.5673 237.622C94.8535 239.473 99.4516 240.212 103.985 241.193L104.302 241.262C107.715 242.011 111.199 242.93 114.211 244.706C114.27 245.228 114.509 245.72 114.891 246.042C114.359 246.541 114.134 247.331 114.601 248.072C115.905 250.141 118.152 251.318 120.169 252.641L120.3 252.727C122.284 254.042 124.285 255.33 126.303 256.592C130.405 259.159 134.592 261.584 138.839 263.903C145.669 267.632 152.646 271.149 159.749 274.34C159.322 276.436 159.478 278.598 159.158 280.708L159.109 281.009C158.972 281.792 159.157 282.447 159.696 282.959L159.753 283.011L159.752 283.004L159.803 283.051L159.82 283.065L159.814 283.061C159.877 283.117 159.941 283.17 160.006 283.216L160.089 283.269C160.609 283.585 161.279 283.582 161.811 283.303L161.872 283.269L161.974 283.211C162.677 282.807 163.162 281.805 162.871 281.009C162.153 279.053 161.883 276.966 161.22 274.997L161.746 275.232L162.438 275.533C169.927 278.77 178.245 281.495 186.404 279.289C190.009 278.314 193.379 276.251 195.183 272.889C196.958 269.581 197.209 265.74 197.303 262.061C197.419 257.519 197.176 252.908 196.576 248.405C196.174 245.383 195.687 242.303 194.937 239.312C195.323 238.972 195.607 238.484 195.682 237.879C196.036 235.022 195.416 232.052 195.037 229.21C194.666 226.435 194.256 223.666 193.793 220.905C192.858 215.329 191.772 209.765 190.507 204.255C188.255 194.448 185.283 184.816 181.703 175.413L181.39 174.594C178.083 166 174.253 157.589 168.921 150.04C166.37 146.428 163.674 143.153 160.07 140.55C156.693 138.111 152.885 136.355 148.954 135.013C145.019 133.67 140.975 132.77 136.859 132.21C132.68 131.642 128.268 131.293 124.368 129.579C124.862 128.696 124.438 127.503 123.608 126.955C120.815 125.11 118.231 122.71 115.727 120.493ZM26.2987 200.705C26.1817 200.527 25.9037 200.64 25.9551 200.85C27.3138 206.413 28.5893 211.987 29.4221 217.657C30.9256 227.889 30.649 238.255 30.5261 248.563L30.5199 249.096C30.4568 254.649 30.369 260.201 30.1853 265.752C30.0926 268.557 29.9091 271.389 30.0089 274.196C30.0633 275.718 30.4693 277.158 30.6132 278.662C30.7392 279.978 30.627 281.313 30.5641 282.63C30.5219 283.506 31.8152 283.469 31.9032 282.63L32.0157 281.546C32.1618 280.174 32.3424 278.81 32.7925 277.496C33.3336 275.916 33.5932 274.365 33.781 272.706C34.0685 270.164 34.1964 267.597 34.3074 265.037L34.3833 263.267C34.8467 252.57 34.8304 241.823 34.0802 231.137L34.0253 230.374C33.2825 220.273 31.9934 209.359 26.2987 200.705ZM55.261 137.044C55.616 136.898 55.4916 136.362 55.0986 136.455L54.3839 136.626C49.147 137.879 44.0051 139.238 39.117 141.57C34.2258 143.904 30.0848 147.389 26.7944 151.674C20.3982 160.003 17.7402 170.125 15.6418 180.238C13.3099 191.475 11.1868 202.753 8.83452 213.987L8.39772 216.08C6.22119 226.542 4.16621 237.011 2.65205 247.598L2.54329 248.366C1.01636 259.252 0.0979309 270.516 1.76405 281.431C2.09364 283.59 5.68929 283.053 5.54868 280.919C5.14264 274.751 4.8519 268.616 5.13287 262.434C5.41408 256.252 5.99431 250.096 6.85925 243.967C7.58714 238.809 8.67221 233.716 9.63243 228.599L9.78293 227.791C10.587 223.439 11.4159 219.092 12.243 214.744L13.4789 208.234C15.3314 198.487 17.2201 188.731 19.3543 179.045L19.4809 178.475C21.5694 169.156 24.6485 159.395 30.9132 151.995C37.2706 144.485 46.3714 140.703 55.261 137.044ZM78.3615 235.886C78.2086 235.546 77.6738 235.583 77.5094 235.886C76.8651 237.074 76.7935 238.591 76.6718 239.932L76.659 240.07C76.5041 241.706 76.367 243.348 76.283 244.99C76.1238 248.106 76.0476 251.218 76.0574 254.338C76.0674 257.535 76.1319 260.728 76.3043 263.921L76.3511 264.776C76.5085 267.551 76.7725 270.645 78.0916 273.07C78.5711 273.952 79.8751 273.693 80.1528 272.801C81.0626 269.882 80.5955 266.42 80.3621 263.43L80.1809 261.096C80.0015 258.763 79.8304 256.428 79.6947 254.092C79.5087 250.895 79.3553 247.696 79.2077 244.498C79.1597 243.459 79.1079 242.42 79.0531 241.382L78.9688 239.824C78.8969 238.521 78.9029 237.091 78.3615 235.886ZM180.659 240.024L180.256 239.636C179.019 238.426 177.457 236.564 175.629 236.68C174.9 236.726 174.436 237.33 174.587 238.047C174.91 239.579 176.474 240.374 177.599 241.309C178.832 242.334 179.995 243.428 181.154 244.534C182.184 245.514 183.173 246.522 184.139 247.561L184.5 247.953C184.846 248.33 187.312 250.559 187.045 251.137L187.031 251.163C186.957 251.274 187.08 251.426 187.203 251.387C188.268 251.051 188.202 250.139 187.799 249.215C187.026 247.44 185.671 245.797 184.488 244.281C183.309 242.769 182.032 241.36 180.659 240.024ZM74.5034 195.499C75.3268 193.554 78.3597 193.595 80.0816 193.712C84.4176 194.004 89.109 195.101 92.9671 197.126C96.9669 199.226 99.6612 202.591 102.072 206.311L102.185 206.486C104.535 210.136 106.798 214.457 110.477 216.967C112.351 218.246 114.539 219.413 116.813 219.919C116.969 220.194 117.222 220.411 117.554 220.49L117.708 220.525C118.355 220.668 119.361 220.826 120.23 220.731C120.225 221.156 120.229 221.578 120.218 221.98C120.188 223.134 120.175 224.292 120.175 225.447C120.174 227.865 120.304 230.288 120.203 232.706C120.114 234.845 119.812 237.08 118.784 238.992C118.03 240.395 117.036 241.323 115.835 242.209C112.881 240.41 109.54 239.314 106.15 238.489C102.05 237.492 97.8525 236.826 93.8458 235.474C91.9174 234.823 90.0635 233.971 88.3837 232.814C86.6009 231.586 85.2392 229.923 83.8382 228.297L83.6192 228.045C82.1893 226.406 80.6291 224.838 78.6084 223.949C76.8682 223.184 74.5746 223.047 73.053 221.863C72.2575 221.243 72.1908 220.344 72.1071 219.423C73.0816 219.563 74.1132 219.339 75.0844 219.226L75.5876 219.167C76.506 219.058 77.4033 218.938 78.3073 218.704C78.4753 218.661 78.4753 218.408 78.3073 218.364C77.2389 218.089 76.1799 217.971 75.0844 217.843L74.8271 217.811C73.836 217.681 72.7943 217.485 71.8221 217.703C71.6477 217.04 71.3958 216.406 71.0424 215.772C70.5464 214.881 69.6077 213.871 69.4809 212.83C69.4431 212.519 69.5155 212.153 69.6621 211.878L69.7126 211.784C69.7743 211.674 69.8473 211.562 69.9541 211.494C69.9659 211.507 69.991 211.523 70.0453 211.54C70.7935 211.776 71.4462 211.41 71.7925 210.845C73.263 211.028 74.8678 210.966 76.2468 211.027L77.6411 211.095C79.131 211.163 80.6885 211.193 82.0885 210.892C82.284 210.85 82.3431 210.525 82.1474 210.441C80.4262 209.706 78.3384 209.471 76.4957 209.188C75.4666 209.03 74.43 208.91 73.3979 208.771C72.7106 208.679 71.9813 208.525 71.2692 208.489C69.4839 206.268 70.4459 202.764 72.9304 201.807C73.8355 202.205 74.6493 201.974 75.6381 201.889C76.6251 201.804 77.6146 201.747 78.6056 201.751C80.5914 201.76 82.6957 202.282 84.6622 202.057C84.9821 202.02 85.2793 201.595 84.9613 201.335C83.4559 200.108 81.2986 199.707 79.3879 199.446L78.9918 199.393C78.3512 199.309 77.5722 199.186 76.7642 199.114C76.5815 198.757 76.2536 198.488 75.7611 198.421C75.6147 198.401 75.4676 198.389 75.3208 198.377L75.323 198.362C74.122 198.305 74.1741 196.277 74.5034 195.499ZM156.73 233.43C156.751 233.462 156.774 233.494 156.799 233.523L156.837 233.568L156.639 233.487L156.73 233.43ZM53.5446 191.154C58.6 190.611 63.6626 190.725 68.733 190.871C69.1385 192.197 70.5501 193.326 71.9179 193.369C70.8466 194.998 70.7361 197.204 71.4873 198.932C69.8924 199.566 68.5185 200.706 67.6843 202.329C66.5276 204.579 66.679 207.083 67.8222 209.163C66.8465 210.045 66.2707 211.479 66.3284 212.83C66.3928 214.337 67.2913 215.624 68.038 216.871C68.8448 218.22 68.8719 219.408 69.1197 220.919C69.4824 223.13 70.9747 224.472 72.8948 225.309L72.7928 225.711C72.2977 227.636 71.6818 229.668 70.2669 231.077C68.4468 232.888 65.6232 232.871 63.2185 232.986L63.1024 232.992C60.9004 233.102 58.6994 233.231 56.4982 233.355L54.8472 233.448C52.3128 233.587 49.8788 233.604 47.8098 231.929C44.432 229.196 42.1163 224.672 40.6506 220.668C37.5743 212.262 37.5374 203.038 38.9495 194.284C43.6853 192.758 48.5991 191.685 53.5446 191.154ZM95.5862 205.099L95.549 205.101C94.5082 205.22 93.7931 206.062 93.5384 207.062C93.1685 208.514 93.35 209.827 92.4599 211.138C91.5444 212.486 90.9814 213.566 90.8484 215.231C90.7937 215.916 90.8188 216.6 90.6661 217.271L90.5555 217.741C90.4379 218.242 90.3418 218.725 90.4002 219.263C90.4536 219.753 90.6927 220.136 91.1852 220.293C92.79 220.806 94.0292 219.624 94.4437 218.13C94.8019 216.838 94.3237 215.3 94.829 214.088C95.1089 213.416 95.6252 212.853 95.917 212.177C96.206 211.506 96.3511 210.806 96.3975 210.077C96.4854 208.698 95.2653 207.042 95.9461 205.792C96.091 205.526 95.9268 205.091 95.5862 205.099ZM116.904 190.871C115.817 190.651 114.584 190.145 113.512 190.565C112.961 190.782 112.689 191.453 113.155 191.92C113.963 192.729 115.137 192.774 116.226 192.965L116.321 192.982C117.608 193.22 118.898 193.446 120.189 193.66C122.618 194.062 125.052 194.417 127.496 194.72C130.005 195.03 132.521 195.306 135.041 195.514L136.017 195.594C138.145 195.764 140.36 195.893 142.449 195.567C142.752 195.519 142.703 195.078 142.449 195C140.161 194.308 137.651 194.123 135.285 193.83C132.77 193.518 130.26 193.189 127.756 192.798C125.256 192.408 122.759 191.989 120.271 191.526C119.147 191.317 118.024 191.099 116.904 190.871ZM77.6903 188.649C78.6439 188.312 79.6931 187.812 80.7265 187.979C82.5085 188.268 84.0946 190.003 85.5051 191.146L84.7969 191.008C81.1728 190.312 76.3736 189.562 73.3315 191.865C73.3237 191.851 73.3177 191.838 73.3089 191.825C73.0633 191.452 72.7788 191.161 72.4682 190.842C72.4386 190.814 72.4099 190.786 72.3816 190.756L72.2141 190.578L72.5973 190.445C73.4181 190.155 74.3904 189.781 74.5442 189.726L74.5548 189.722C75.6012 189.368 76.6489 189.018 77.6903 188.649ZM107.466 112.732C107.616 110.815 104.63 110.831 104.482 112.732C104.16 116.883 105.094 120.994 107.106 124.633C107.121 124.66 107.137 124.683 107.153 124.708C105.894 125.362 104.622 125.99 103.321 126.551C101.657 127.269 99.9618 127.923 98.2362 128.478C96.6752 128.979 94.7521 129.178 93.4397 130.222C90.6724 132.424 91.7121 136.995 92.2444 139.957L92.3275 140.425C92.5926 141.95 92.7843 143.514 92.1412 144.977C91.4544 146.54 90.0657 147.699 88.8268 148.817L88.5765 149.044C87.479 150.043 86.2249 151.257 85.4199 152.612C84.685 151.093 83.6832 149.853 82.624 148.456C81.8683 147.459 82.4062 147.13 82.9491 146.156C83.4716 145.219 83.7268 144.22 83.5634 143.15C83.2619 141.175 81.6826 139.749 80.1106 138.677C78.2541 137.412 76.1821 136.474 74.263 135.297C70.3195 132.879 66.4789 130.114 63.0189 127.043C62.9234 126.959 62.758 127.07 62.8344 127.186C65.5676 131.341 68.7725 134.931 72.7113 137.978C74.3084 139.214 75.9861 140.239 77.6751 141.316L78.1607 141.628C78.8388 142.067 79.6847 142.654 79.9913 143.401C80.2998 144.153 79.6419 144.72 79.2878 145.343C78.1632 147.321 78.7057 149.166 80.039 150.843L80.1011 150.92C81.4259 152.552 82.43 154.069 82.9102 156.154C83.9421 160.632 82.5048 165.296 81.0004 169.5L80.941 169.666C80.1271 171.932 79.2622 174.181 78.5551 176.483L78.3606 177.12C77.72 179.238 77.1954 181.327 77.914 183.505C78.1584 184.246 79.1692 184.421 79.589 183.724C81.07 181.265 81.4392 178.307 82.3676 175.604C83.2724 172.97 84.3113 170.384 85.1853 167.739C86.3106 164.333 87.0638 160.668 86.655 157.096C86.667 157.075 86.6803 157.055 86.6903 157.033L86.9768 156.407C87.758 154.711 88.5125 153.23 89.9331 151.879C91.4148 150.469 93.0232 149.221 94.1891 147.514C96.7217 143.806 95.1554 139.682 94.8495 135.628L94.8145 135.131C94.759 134.289 94.7285 133.145 95.2787 132.563C95.8975 131.907 97.3487 131.74 98.1698 131.449C100.292 130.699 102.383 129.824 104.374 128.774C106.27 127.775 108.107 126.671 109.816 125.377L110.683 124.726C112.05 123.695 113.468 122.569 114.385 121.165C114.491 121.003 114.311 120.743 114.119 120.82C112.589 121.441 111.192 122.427 109.76 123.286C109.738 123.234 109.712 123.181 109.683 123.128C107.912 119.925 107.183 116.376 107.466 112.732ZM58.5963 134.679C57.9868 133.008 55.2087 133.137 55.3195 135.122C55.4044 136.647 56.0522 138.024 56.6445 139.408L56.7077 139.556C57.3193 140.999 58.0256 142.353 58.8708 143.675C60.4856 146.203 62.3772 148.549 64.3976 150.762C66.2292 152.769 68.6333 153.996 71.4036 153.792C72.5708 153.706 73.7491 153.41 74.7719 152.827C75.9868 152.135 77.3061 150.056 78.8561 150.559C79.0059 150.608 79.1458 150.388 79.0162 150.284C77.2269 148.844 75.196 151.077 73.4829 151.615C70.9016 152.426 68.2526 151.53 66.5911 149.444C64.8565 147.267 63.2599 144.828 61.802 142.458C61.0616 141.254 60.3861 140.004 59.8026 138.717C59.2139 137.417 59.08 136.004 58.5963 134.679ZM62.7572 124.398C62.8324 124.168 62.5457 123.948 62.3429 124.08C61.1672 124.845 60.1483 125.856 59.0638 126.742C57.8605 127.724 56.6484 128.687 55.4175 129.635C53.6232 131.018 55.7043 133.563 57.2838 132.053C59.4453 129.987 61.8125 127.286 62.7572 124.398ZM69.2124 116.313C68.7347 114.472 65.9097 115.231 66.3214 117.05L66.3348 117.106C67.1146 120.111 66.004 123.17 63.6333 125.118L63.546 125.189C62.0462 126.389 64.1711 128.486 65.6561 127.298C68.8981 124.704 70.2468 120.3 69.2124 116.313Z" fill="black"/>
<path fill-rule="evenodd" clip-rule="evenodd" d="M108.433 9.43567L106.273 12.0086C107.469 12.8528 108.598 13.7011 109.66 14.5534L109.661 14.5508C104.742 11.336 99.2929 9.43567 93.4067 9.43567C82.0697 9.43567 59.0418 19.189 53.8361 26.224C51.2527 29.7153 46.452 40.4331 43.9618 52.0853C41.9609 61.4477 38.9849 87.8978 41.9609 97.8366C45.7696 110.556 58.3003 122.313 71.221 122.313C84.1416 122.313 104.201 112.971 118.478 92.4977C119.131 91.5615 126.628 90.4764 131.976 86.9627L130.571 102.455L129.504 111.467L129.74 112.108C133.57 122.483 136.605 127.895 138.845 128.346C141.131 128.805 145.787 125.052 152.811 117.087L153.709 113.314C155.989 103.689 157.129 98.522 157.129 97.8142L157.127 97.6852C157.094 96.0562 156.533 86.836 156.522 84.3548L156.522 47.1661C148.967 22.0125 141.757 9.43567 134.893 9.43567H108.433Z" fill="#EDB98A"/>
<path fill-rule="evenodd" clip-rule="evenodd" d="M126.334 0.869365C124.113 0.0076817 121.54 0.1705 119.431 1.46803C115.292 1.29019 111.175 3.71492 109.017 7.25434C108.972 7.30443 108.924 7.35453 108.881 7.40463L108.424 7.93855C107.991 8.4484 107.534 9.01037 107.172 9.59065C108.945 9.63123 110.422 10.3549 111.453 11.8165C112.188 12.8594 110.503 13.8504 109.751 12.864L109.725 12.828C109.106 11.9505 108.172 11.6106 107.131 11.5928C106.833 11.5878 106.606 11.4733 106.446 11.3045C106.382 11.5372 106.325 11.7724 106.273 12.0086C101.035 9.96839 95.3888 9.42808 89.7651 9.91203C90.0117 10.3118 90.2178 10.7401 90.3764 11.1903C90.5562 11.7005 90.1726 12.2864 89.6776 12.4227C89.1424 12.57 88.6585 12.2558 88.4649 11.7703L88.4471 11.7228C88.231 11.1096 87.8781 10.5833 87.4044 10.1753C84.757 10.5347 82.1283 11.1064 79.5639 11.8433C76.4819 12.7298 73.4288 13.8116 70.443 15.0503C70.9487 15.249 71.3857 15.5846 71.6915 16.145C72.3022 17.2634 70.6233 18.2653 69.9864 17.196L69.9638 17.1564C69.9013 17.0418 69.846 16.9728 69.8054 16.9336L69.791 16.9202L69.7029 16.8796L69.5389 16.8325L69.4759 16.8171C69.4203 16.8045 69.3972 16.8053 69.251 16.7972C69.0564 16.7862 68.8616 16.7872 68.6667 16.787C68.2085 16.7867 67.9161 16.531 67.7838 16.2038C66.3104 16.8699 64.8558 17.5712 63.427 18.3059L63.0872 18.482C58.6768 20.79 54.4985 23.8208 52.0745 28.2804C51.9142 28.5785 51.8644 28.9041 51.9042 29.2147C51.3867 29.8359 50.8865 30.4772 50.4063 31.1285C48.9407 33.1224 47.8677 35.3893 46.8523 37.6362C44.8089 42.155 43.4333 46.7966 42.3603 51.636C41.3221 56.3001 40.4845 61.0143 39.7064 65.7286C38.8438 70.9663 38.126 76.2491 37.9757 81.562C37.7105 91.033 39.5591 100.559 44.8689 108.532C49.6057 115.646 56.7388 121.295 65.1977 123.103C73.8015 124.942 82.9054 123.148 89.6856 117.407C90.7788 116.483 90.6285 114.617 89.6856 113.67C88.6176 112.603 87.0422 112.75 85.9542 113.67C79.569 119.078 70.2749 119.912 62.5813 117.157C55.4682 114.607 49.8961 108.725 46.4771 102.12C42.3053 94.0639 41.6022 84.8108 42.2428 75.8984C42.5927 71.0039 43.3207 66.1494 44.0711 61.3024L44.524 58.3848C45.0181 55.2246 45.5372 52.0688 46.2142 48.9408L46.3727 48.212C47.2002 44.4399 48.1695 40.5711 49.6682 37.025C50.4538 35.1639 51.399 33.3704 52.3669 31.5994C52.5545 31.2562 52.7473 30.908 52.9449 30.5574C53.21 30.65 53.5127 30.6651 53.8303 30.5649C56.564 29.7132 59.3727 29.1421 62.2312 28.9517C63.5335 28.8645 64.8378 28.851 66.1406 28.9019C68.3708 28.7719 70.6633 28.9683 72.7878 29.6531C72.9956 29.4745 73.2062 29.2997 73.417 29.1248C73.4738 29.1203 73.5306 29.1143 73.5876 29.103C74.1296 28.9963 74.5108 28.6106 74.7404 28.1234C74.7524 28.0976 74.7631 28.0718 74.7734 28.046C75.0452 27.8378 75.3194 27.6329 75.596 27.4308C76.2703 27.6058 76.861 27.044 77.0201 26.4283C77.1702 26.3268 77.3227 26.2287 77.4743 26.1292C77.5931 26.1583 77.7112 26.1823 77.8262 26.1908C78.3227 26.2266 78.8021 26.1505 79.2421 25.9133C79.7991 25.6129 80.155 25.1285 80.3931 24.5782C81.2354 24.63 82.0878 24.3562 82.8409 23.8613C83.4521 23.4597 83.9203 22.9054 84.3858 22.3521C90.0578 19.8184 96.2234 18.3225 102.404 17.9392C103.012 18.0564 103.617 18.196 104.214 18.3583C104.355 18.3969 104.556 18.4725 104.787 18.5632C103.409 18.3964 102.013 18.3798 100.598 18.584C93.8814 19.5566 88.6504 24.593 84.1482 29.347C83.0772 29.1303 81.9948 30.5193 82.9859 31.4391L90.7135 38.6108C90.524 39.4129 91.4424 40.2034 92.247 40.0108C93.596 39.6862 94.9474 39.3706 96.2997 39.0602C97.7103 39.7438 99.4838 39.6268 100.763 38.6359C100.823 38.5898 100.952 38.5162 101.065 38.443C101.17 38.5299 101.311 38.6171 101.367 38.6542C101.822 38.9558 102.376 39.0444 102.908 38.9598C103.455 38.8728 103.948 38.5951 104.373 38.2491C104.644 38.0288 105.275 37.1094 105.627 37.0416L105.661 37.0378C105.426 37.0445 106.18 37.7456 106.382 37.8907C106.854 38.2281 107.376 38.4054 107.964 38.3408C108.988 38.228 109.868 37.2934 110.369 36.4304L110.407 36.3642L110.422 36.3231L110.436 36.3676C110.438 36.3754 110.441 36.3838 110.444 36.3933C110.519 36.5964 110.755 36.8274 110.915 36.9694C111.371 37.3734 111.936 37.551 112.539 37.4456C113.05 37.3566 113.479 37.0476 113.824 36.6737L113.878 36.6142C113.98 36.4988 114.653 35.5937 114.547 35.3768L114.534 35.3585L114.568 35.3515C114.977 35.4522 115.32 35.3512 115.572 35.1401C116.976 34.832 118.362 34.473 119.704 34.0166C119.809 34.3122 119.911 34.6078 120.011 34.9058C119.279 35.3592 118.601 36.0055 117.978 36.4664C116.797 37.3381 115.617 38.2098 114.439 39.084L109.772 42.5322L109.238 42.3887C108.556 42.2053 107.971 42.603 107.72 43.2108L107.7 43.2634C107.6 43.5297 107.481 43.7759 107.34 44.0116C106.173 43.965 105.186 44.6824 104.866 45.7115C104.578 45.7049 104.287 45.716 103.989 45.7488C103.174 45.8384 102.625 46.4446 102.772 47.277L102.784 47.3341L102.803 47.4268C102.331 47.6277 101.988 48.0157 101.912 48.6024C101.786 48.793 101.684 49.0004 101.618 49.2313C101.277 50.4297 101.941 51.9111 102.294 53.0591L102.321 53.149C102.548 53.9035 102.782 54.6543 103.02 55.4048L103.611 57.2682C105.251 62.4614 106.85 67.9367 105.523 73.381C105.24 74.5333 106.711 75.0543 107.349 74.1525C108.895 71.9692 110.565 69.912 112.319 67.9371L112.404 67.9236C113.632 67.6764 114.109 66.8074 114.673 65.9217C115.005 66.0196 115.362 66.0427 115.708 65.976C116.207 65.8796 116.655 65.5938 117.008 65.2328C117.308 64.9267 117.582 64.1417 117.936 63.9471C118.379 63.7038 119.269 64.0515 119.797 63.9734C120.227 63.91 120.629 63.7622 121.018 63.5766C121.734 64.5538 122.208 65.7025 122.325 66.9409C122.37 67.4118 122.51 67.8101 122.713 68.1408C121.967 68.1132 121.22 68.1658 120.481 68.3036C117.75 68.8121 115.792 70.5004 114.691 73.0153C114.644 73.1255 114.787 73.2157 114.852 73.1105C116.485 70.5931 120.039 70.4653 122.62 71.352C125.361 72.2939 126.899 74.7111 127.447 77.469C128.047 80.4924 127.277 83.7513 125.634 86.3263C124.871 87.5236 123.83 88.6158 122.448 89.0566C120.804 89.5801 119.286 88.6433 117.603 89.1268C116.457 89.4549 115.952 90.5646 116.16 91.6742C116.242 92.1101 116.395 92.4908 116.6 92.8215C115.995 94.0238 115.435 95.2612 114.722 96.3985C113.621 98.1544 112.29 99.6072 110.84 101.073C109.342 102.586 107.816 104.068 106.213 105.471C104.677 106.816 102.916 107.773 101.306 109.006C100.175 109.87 99.6152 111.082 100.173 112.47C100.633 113.617 102.184 114.594 103.439 114.075C105.843 113.084 107.946 111.395 109.862 109.657C111.638 108.044 113.184 106.115 114.352 104.021C115.453 102.047 116.265 99.8046 116.95 97.6449L117.035 97.3754C117.358 96.3484 117.698 95.1936 117.918 94.0288C119.236 94.7502 121.024 94.8554 122.435 94.6601C124.714 94.347 126.792 93.1972 128.363 91.5214C129.095 90.7417 129.742 89.8522 130.3 88.888C130.25 89.4749 130.219 90.0428 130.187 90.5596C128.881 91.9919 128.357 94.0589 128.821 95.9448C127.728 97.071 127.422 98.7616 127.992 100.201C126.797 101.389 126.842 103.279 127.359 104.996C125.945 106.578 125.811 109.043 126.915 110.828L126.948 110.957C125.834 112.824 126.085 115.238 127.481 116.887C126.528 118.74 126.675 121.232 129.059 121.951C129.927 122.212 130.769 121.989 131.399 121.502C130.824 124.367 130.567 127.276 131.334 130.154C131.639 131.297 132.755 132.131 133.928 132.131C134.908 132.131 135.621 131.637 136.113 130.911C136.056 132.356 136.143 133.809 136.451 135.274C136.636 136.159 137.456 136.85 138.326 137.063C138.012 137.418 137.887 137.93 138.188 138.464C139.464 140.726 142.547 139.788 142.755 137.621C143.625 136.97 144.03 135.902 144.198 134.747C144.442 133.063 144.53 131.407 144.807 129.745L144.913 129.844L144.967 129.891L144.985 130.012C145.143 130.833 145.606 131.409 146.207 131.752C146.076 133.185 146.318 134.645 147.226 135.733C147.83 136.458 148.861 136.744 149.744 136.587C149.799 136.589 149.856 136.589 149.915 136.581C151.915 136.315 153.072 134.415 152.546 132.671C153.351 131.683 153.69 130.429 153.452 129.189C155.01 128.156 154.979 125.886 154.439 124.063C156.073 122.771 156.687 120.357 155.866 118.439C157.339 116.607 157.544 114.055 156.543 111.97C158.163 110.637 158.154 108.064 156.547 106.701C157.403 105 157.919 102.962 157.064 101.405C157.667 100.738 157.998 99.7876 157.928 98.8693C157.826 97.5207 156.935 96.5888 155.83 95.9679L155.753 95.5461C155.493 95.5784 155.217 95.5057 154.973 95.2713C154.732 95.0391 154.483 94.852 154.226 94.6976C153.935 94.6939 153.685 94.5641 153.509 94.3645C153.027 94.2007 152.509 94.1283 151.935 94.1218C150.694 94.1082 150.65 92.2499 151.805 92.1294C151.987 91.9453 152.238 91.8293 152.511 91.8293L152.724 91.8302C153.223 91.8349 153.726 91.8657 154.189 92.0643C154.489 92.193 154.721 92.3871 154.891 92.6246C154.923 92.9838 155.118 93.342 155.54 93.6378C156.028 93.9795 156.696 94.0193 157.218 93.7102C157.949 93.2774 157.956 92.6018 157.872 91.8674C157.688 90.2607 158.61 88.7488 158.39 87.1051C158.293 86.3784 158.051 85.7509 157.658 85.2442C158.488 83.999 158.635 82.3916 157.995 81.0247C159.328 79.5891 159.558 77.3763 158.708 75.6487C158.696 75.6068 158.687 75.564 158.673 75.5227C158.577 75.2291 158.445 74.9643 158.299 74.7111C159.045 73.4171 159.039 71.8292 158.281 70.5407C159.43 69.2001 159.466 67.0667 158.445 65.6224C158.439 65.5026 158.426 65.3829 158.416 65.2631C158.885 64.0445 158.772 62.6591 158.178 61.5258C158.39 61.0361 158.553 60.5089 158.658 59.9473C158.926 58.4994 158.788 57.0917 158.388 55.6789C158.323 55.456 158.251 55.2331 158.173 55.0101C158.16 54.0425 158.123 53.0791 158.075 52.1175C158.265 51.3034 158.296 50.4089 158.3 49.5784L158.301 49.0399C158.31 47.6694 158.406 45.6628 157.541 44.4978C158.096 43.2394 157.868 41.6538 156.941 40.6563C157.591 39.5354 157.728 38.159 157.074 36.9153C156.969 36.7151 156.847 36.5288 156.713 36.3524C156.767 35.2134 156.528 34.0389 155.922 32.9069C155.528 32.17 154.94 31.532 154.241 31.0215C154.253 30.8705 154.26 30.7197 154.258 30.5711C154.246 29.9083 154.099 29.2428 153.852 28.6218C154.295 27.8638 154.501 27.0094 154.241 26.0886C153.951 25.0466 153.188 24.1498 152.235 23.6439C152.159 22.6614 152.005 21.6848 151.786 20.7211C152.372 19.4153 151.906 17.692 150.582 16.9227C150.755 15.8792 150.599 14.7971 149.841 13.982C149.554 13.6731 149.215 13.4389 148.851 13.2836C149.026 12.2343 148.828 11.1427 148.103 10.2883C147.512 9.59065 146.635 9.16682 145.742 9.10445C145.399 7.27939 143.658 5.91472 141.821 6.02343C141.591 5.21986 141.043 4.51924 140.192 4.16405C139.974 4.07312 139.754 4.01326 139.535 3.97994C138.041 2.47099 135.817 1.44825 133.892 0.924473C131.961 0.401189 130.004 0.350537 128.346 0.958933L128.225 1.00463L128.09 0.987095C127.504 0.921968 126.919 0.884394 126.334 0.869365ZM141.008 124.545C141.524 124.384 142.099 124.736 142.239 125.245C142.386 125.783 142.058 126.316 141.54 126.477C140.895 126.679 140.218 126.729 139.545 126.729C139.005 126.73 138.545 126.269 138.545 125.728C138.545 125.184 139.003 124.726 139.545 124.726C140.092 124.725 140.496 124.705 141.008 124.545ZM145.596 113.904C146.367 113.905 147.028 114.09 147.6 114.631C147.981 114.992 147.991 115.689 147.6 116.048C147.205 116.41 146.633 116.432 146.228 116.086L146.15 116.016C146.14 116.008 146.133 116.001 146.127 115.995C146.095 115.974 146.062 115.953 146.028 115.935L146.093 115.977C146.142 116.013 146.027 115.955 145.963 115.927L145.942 115.919L145.936 115.917L145.884 115.913C145.788 115.908 145.692 115.908 145.596 115.908C145.073 115.908 144.571 115.448 144.595 114.906C144.62 114.364 145.035 113.904 145.596 113.904ZM131.045 107.547C129.962 106.882 130.929 105.181 132.015 105.794L132.055 105.817C132.611 106.159 133.296 106.113 133.927 106.113C135.214 106.114 135.217 108.118 133.927 108.117L133.714 108.116C132.789 108.109 131.854 108.045 131.045 107.547ZM139.567 100.233C140.386 100.079 141.302 99.9416 142.163 100.036L142.306 100.053H142.571C142.801 100.053 143.024 100.146 143.203 100.292C143.486 100.41 143.754 100.567 143.998 100.78C144.973 101.626 143.553 103.038 142.584 102.197C142.53 102.15 142.467 102.111 142.398 102.08L142.344 102.057H141.274C141.177 102.057 141.082 102.037 140.99 102.008C140.642 102.056 140.319 102.124 140.099 102.166C138.841 102.403 138.302 100.472 139.567 100.233ZM140.481 81.0009C142.049 80.2725 143.786 80.2777 145.236 81.2892C146.274 82.0125 145.31 83.7183 144.264 83.0447L144.227 83.0196C144.097 82.9289 143.963 82.853 143.828 82.7841C143.092 82.9973 142.351 83.0073 141.639 82.7452L141.546 82.7095L141.491 82.731C140.33 83.2701 139.313 81.5434 140.481 81.0009ZM123.404 77.8611C124.989 77.6832 125.001 75.1768 123.404 75.3562C120.033 75.7349 116.973 77.2361 114.733 79.8141C113.69 81.0131 115.407 82.7673 116.469 81.6217L116.501 81.5854C118.283 79.5354 120.688 78.1662 123.404 77.8611ZM141.152 64.9929C141.504 64.9543 141.855 64.935 142.201 64.9518C143.032 64.9919 144.044 65.547 143.68 66.5499C143.387 67.3535 142.429 67.3853 141.956 66.9567C141.759 66.9615 141.562 66.9745 141.366 66.9945C140.844 67.0484 140.326 67.1481 139.811 67.2498C138.554 67.4975 138.015 65.5665 139.279 65.3173L139.839 65.2064C140.027 65.1695 140.217 65.1334 140.408 65.1003C140.522 65.0434 140.645 65.0051 140.776 64.9953L140.842 64.9929H141.152ZM151.092 49.4463L151.21 49.4303C152.899 49.2138 155.612 49.413 155.817 51.5669C155.93 52.7597 154.209 52.8346 153.869 51.8146C152.622 51.5894 151.364 51.5464 150.125 51.6831C149.652 51.2022 149.649 50.2776 150.435 50.0469C150.546 49.7478 150.778 49.4916 151.092 49.4463ZM112.474 45.8084C112.865 45.4494 113.505 45.4019 113.889 45.8084C114.111 46.0424 114.296 46.3024 114.442 46.5884L114.539 46.7816C114.556 46.8136 114.573 46.8455 114.59 46.877C114.623 46.9353 114.66 46.991 114.695 47.0476L114.72 47.0712C114.729 47.0809 114.74 47.0927 114.754 47.1069C115.114 47.4879 115.159 48.151 114.754 48.5239C114.363 48.8829 113.723 48.9305 113.339 48.5239C113.118 48.29 112.933 48.0302 112.786 47.7439L112.689 47.551C112.673 47.5189 112.656 47.4871 112.638 47.4556C112.606 47.397 112.569 47.3414 112.533 47.2848L112.493 47.245C112.487 47.239 112.481 47.2326 112.474 47.2254C112.115 46.8447 112.069 46.1814 112.474 45.8084ZM132.99 43.1991C134.399 42.1986 136.076 42.152 137.372 43.3556C138.307 44.2243 136.933 45.6163 135.99 44.8023L135.957 44.7726C135.922 44.7406 135.888 44.7125 135.853 44.6857C135.684 44.83 135.469 44.9214 135.224 44.9217C135.159 44.9218 135.095 44.9217 135.031 44.923L134.935 44.9264L134.884 44.9307L134.877 44.9319L134.832 44.9511C134.75 44.9883 134.636 45.0456 134.792 44.948C134.757 44.9663 134.725 44.9878 134.692 45.0088L134.634 45.0612C134.257 45.4184 133.605 45.4655 133.23 45.0705C132.567 44.846 132.215 43.7484 132.99 43.1991ZM119.208 39.9165L119.183 39.9084C117.947 39.5549 118.472 37.6209 119.715 37.9758C121.033 38.3528 121.662 39.5815 121.926 40.8399C122.037 41.3692 121.771 41.9231 121.227 42.0726C120.731 42.2091 120.108 41.9048 119.996 41.3727C119.918 40.9986 119.828 40.6812 119.685 40.3866L119.599 40.2185C119.558 40.1418 119.544 40.1291 119.408 40.0098C119.385 39.9898 119.281 39.9412 119.208 39.9165ZM140.144 29.8239L140.337 29.7798C141.541 29.5156 143.139 29.3776 143.867 30.5731C144.529 31.6623 142.857 32.6537 142.169 31.6242C142.158 31.6239 142.146 31.624 142.132 31.6251L142.11 31.6277L141.801 31.6026C141.417 31.5999 141.049 31.668 140.676 31.7565C139.424 32.0533 138.889 30.1215 140.144 29.8239ZM96.916 22.1204C96.0043 21.2073 97.4187 19.7898 98.3306 20.7036C99.0517 21.4258 99.7472 22.1529 100.216 23.0705C100.462 23.5519 100.341 24.1576 99.857 24.4414C99.4101 24.7032 98.7353 24.5654 98.4882 24.082C98.082 23.2867 97.5693 22.7752 96.916 22.1204ZM108.419 19.7237C109.32 20.2577 109.903 21.1375 110.257 22.1557C110.435 22.6667 110.055 23.2516 109.558 23.3881C109.025 23.5349 108.537 23.2219 108.345 22.7358L108.328 22.6882C108.233 22.416 108.081 22.0943 107.894 21.8516C107.734 21.6444 107.485 21.437 107.297 21.3682C106.847 21.2023 106.527 20.793 106.569 20.3151C107.31 20.5719 107.999 20.263 108.419 19.7237ZM135.38 15.3652C136.289 14.5205 137.508 14.4086 138.61 14.9198C139.1 15.1473 139.223 15.8554 138.968 16.2907C138.674 16.7945 138.092 16.8786 137.6 16.6502C137.726 16.7088 137.498 16.6314 137.4 16.6031C137.387 16.609 137.222 16.6014 137.165 16.6022L137.096 16.6066C137.096 16.607 137.113 16.6067 137.147 16.6056C137.099 16.6165 137.051 16.6294 137.004 16.6444L136.945 16.665C136.975 16.6588 136.84 16.747 136.802 16.7763L136.795 16.7819C135.852 17.6584 134.434 16.2446 135.38 15.3652Z" fill="black"/>
<path fill-rule="evenodd" clip-rule="evenodd" d="M75.4839 90.3326C74.0818 88.0276 71.0932 93.6741 70.7757 94.645C70.4944 95.505 70.3088 96.3861 70.2144 97.2773C69.1274 97.5208 67.9987 97.5213 66.8849 97.3079C65.2295 96.9905 64.2176 96.1011 62.7789 95.3374C61.7852 94.8097 60.5328 95.4285 60.016 96.3037C59.4082 97.3339 59.7954 98.4031 60.5949 99.1711C62.111 100.627 65.094 100.962 67.073 100.575C68.2069 100.354 69.2461 99.9287 70.1638 99.3111C70.1699 99.4263 70.174 99.5416 70.1831 99.6567L70.2006 99.8563C70.3526 101.471 70.7968 103.502 72.0521 104.553C74.1109 106.277 76.6518 102.962 74.6513 101.24L74.5892 101.188C73.3458 100.184 73.0745 97.49 73.1415 96.0062C73.1854 95.0377 73.3619 94.0568 73.6679 93.1344L73.7308 92.9507C73.8229 92.6902 74.8271 90.2185 75.19 90.5333L75.2073 90.551C75.3569 90.7296 75.5988 90.5216 75.4839 90.3326ZM64.2893 77.3259C62.3966 78.4756 59.5128 81.1567 61.5489 84.007C63.9455 86.5203 67.3961 83.6387 69.0965 82.3354C70.6732 81.3254 72.4447 83.9231 70.9819 85.1025C58.6947 94.1941 53.7083 77.6265 63.332 75.9741C64.3916 75.792 64.7852 76.9702 64.2893 77.3259ZM84.4996 66.6984C82.6499 66.3705 80.755 66.8302 79.2244 67.9118L79.1084 67.9952C77.6338 69.073 75.9839 70.9655 76.8301 72.8234C77.1697 73.5693 78.1868 73.6863 78.8322 73.3482C79.9066 72.7851 80.1014 71.3996 81.0601 70.6329C81.8463 70.0044 82.905 69.6231 83.9176 69.7151C86.2964 69.931 87.7596 72.2758 88.4985 74.2965C88.593 74.555 88.9727 74.6555 89.1211 74.3779C90.8632 71.1236 87.7794 67.2801 84.4996 66.6984ZM54.8716 65.4703C51.3284 65.1784 47.1811 68.8496 48.1139 72.5874C48.5613 74.3809 51.2233 74.3296 51.6965 72.5874C51.9569 71.6288 51.9309 70.7806 52.6214 69.9846C53.1913 69.3273 54.0011 68.9456 54.8716 69.0042C55.831 69.0688 56.716 69.548 57.3885 70.2215C57.9958 70.8297 58.359 71.7197 58.9881 72.258C59.143 72.3903 59.3502 72.3988 59.5031 72.258C60.5859 71.2603 59.936 69.1833 59.2495 68.1417C58.267 66.6513 56.6672 65.6183 54.8716 65.4703ZM91.2469 60.0692C88.9739 58.0582 84.8437 56.1162 81.7786 57.1059C80.0164 57.6747 79.2482 60.5125 81.2154 61.412C83.4935 62.4536 86.1199 62.0297 88.4385 63.1094C89.4123 63.563 90.3281 64.1298 91.0061 64.9612C91.5402 65.6165 92.0836 66.4787 92.856 66.8564C93.059 66.9559 93.334 66.9584 93.4967 66.774C95.19 64.8598 92.7254 61.377 91.2469 60.0692ZM58.7785 57.0061C57.3736 56.612 55.8152 56.6201 54.3881 56.8675C52.9614 57.115 51.513 57.7059 50.3483 58.5679L50.2131 58.6688C48.9416 59.6264 47.4242 61.0196 47.5056 62.716C47.5735 64.1325 49.0645 65.0906 50.3518 64.3482C51.4012 63.7427 51.895 62.5299 52.7835 61.7223C53.5166 61.0557 54.3778 60.5302 55.2966 60.162C56.3172 59.7529 57.3396 59.5613 58.4348 59.543C59.2782 59.529 60.1266 59.8055 60.9542 59.894C60.8861 60.0337 61.5402 59.9686 61.9152 59.8446C62.1929 59.7264 62.1944 59.3754 62.0982 59.1477C61.6207 58.0198 59.8835 57.3157 58.7785 57.0061Z" fill="black"/>
</svg>
