<svg width="197" height="308" viewBox="0 0 197 308" fill="none" xmlns="http://www.w3.org/2000/svg">
<path fill-rule="evenodd" clip-rule="evenodd" d="M13.8986 198.453C14.7255 196.187 13.5181 193.928 12.8483 191.736C10.469 184.136 16.9769 164.966 21.5284 164.686C23.1929 160.389 27.6355 158.606 31.132 156.131C35.0998 153.66 38.9594 150.822 43.0859 148.655C43.3154 146.608 45.8029 146.101 47.324 147.565C51.5018 144.972 56.5117 145.454 60.9901 143.755C64.393 138.266 64.6483 132.494 65.5493 127.199C65.942 124.891 65.5248 122.664 67.1053 120.606C72.4148 113.155 93.3936 109.924 101.128 114.34C105.292 111.748 105.392 116.441 106.054 119.338C106.789 120.787 107.186 122.428 107.063 124.157C109.035 128.265 110.706 133.404 114.848 136.472C120.104 140.365 128.191 141.845 133.316 143.755C134.082 143.019 134.583 142.119 134.817 141.055C142.759 142.778 150.468 145.807 157.122 150.536C164.683 152.742 170.007 158.878 173.857 165.457C174.281 166.151 174.381 166.858 174.258 167.507C186.097 184.826 191.748 205.558 192.542 226.498C200.155 231.058 188.923 272.02 186.308 280.523C186.305 280.522 186.303 280.521 186.3 280.52C184.604 283.517 182.678 292.068 178.432 291.407C175.52 294.693 170.879 294.047 166.927 294.299C167.571 296.763 167.254 299.582 166.488 302.017C165.582 304.915 161.136 305.013 160.505 301.853C121.15 309.483 80.7693 303.395 40.9716 304.541C29.4648 304.622 17.959 304.977 6.47987 305.795C4.86349 305.91 3.22472 304.262 3.33473 302.656C5.80272 276.455 8.12045 241.987 10.8803 216.043C11.5348 210.126 12.0525 204.144 13.8986 198.453Z" fill="#EDB98A"/>
<path fill-rule="evenodd" clip-rule="evenodd" d="M134.817 141.055C134.804 141.113 134.79 141.171 134.776 141.229L134.926 141.57C135.88 143.764 136.356 145.581 136.356 147.021C136.356 150.303 121.718 182.78 89.2428 179.795C67.5927 177.806 54.3962 167.991 49.6533 150.351L49.3756 146.54C48.6743 146.818 47.9886 147.153 47.324 147.565C45.8029 146.101 43.3154 146.608 43.0859 148.655C38.9594 150.822 35.0998 153.66 31.132 156.131L30.8894 156.301C27.4327 158.689 23.1547 160.488 21.5284 164.686L20.8773 164.728C16.531 165.012 10.469 184.136 12.8483 191.736C13.5181 193.928 14.7255 196.187 13.8986 198.452C12.0525 204.144 11.5349 210.126 10.8804 216.043C8.1205 241.987 5.80276 276.455 3.33476 302.656C3.22476 304.262 4.86713 305.648 6.4799 305.795C39.8764 308.851 165.582 306.49 166.488 303.592C167.254 301.158 167.571 296.763 166.927 294.299C170.879 294.047 175.52 294.693 178.432 291.407C182.678 292.068 184.604 283.517 186.3 280.52L186.308 280.523C188.923 272.019 200.155 231.058 192.542 226.498C191.748 205.558 186.097 184.826 174.257 167.507C174.376 166.885 174.289 166.21 173.909 165.544L173.857 165.457C170.007 158.878 164.683 152.742 157.122 150.536C150.468 145.807 142.759 142.778 134.817 141.055ZM38.6384 195.881C40.3379 194.566 53.6918 197.197 63.3961 199.561C69.8656 201.137 74.3723 203.268 76.9161 205.954L88.3041 218.426L91.1858 220.285C91.1858 224.168 90.9636 228.251 90.5191 232.535C90.0745 236.819 88.1155 241.352 84.6421 246.134C74.4071 243.328 68.2871 241.736 66.2821 241.357C63.2745 240.789 60.8921 235.862 59.4786 234.168C58.065 232.475 52.6436 232.286 48.5129 230.982C45.7591 230.112 43.8438 227.89 42.7671 224.316C36.748 223.019 32.7691 222.155 30.8302 221.722C28.8913 221.289 28.8913 220.191 30.8302 218.426L53.3718 217.639C44.3748 215.721 38.9128 214.629 36.9857 214.365C34.095 213.969 26.3299 211.563 26.3299 209.699C26.3299 207.872 38.1509 207.905 44.452 207.908L44.9592 207.908C49.096 207.916 55.6909 208.302 64.7439 209.068L59.4786 206.552C47.5994 204.257 40.8678 203.109 39.2838 203.109C37.6999 203.109 36.5777 201.926 35.9174 199.561C36.5983 197.985 37.5053 196.758 38.6384 195.881Z" fill="#FFCF77"/>
<path fill-rule="evenodd" clip-rule="evenodd" d="M53.2218 196.318L41.6545 170.172C40.4893 167.211 38.9174 165.73 36.9388 165.73C34.9602 165.73 25.0002 166.01 7.05881 166.571C3.38706 167.038 2.14398 168.239 3.32956 170.172C4.51514 172.106 13.9226 191.062 31.5518 227.042H42.7671V224.316L30.2811 220.832C28.766 219.228 29.1896 218.426 31.5518 218.426C33.914 218.426 41.9666 218.164 55.7095 217.639L36.0532 214.761L26.33 211.03L27.7602 209.068L36.0532 207.886L63.0601 209.068L55.7095 206.588L39.2839 203.109C37.1301 201.596 36.0532 200.097 36.0532 198.612C36.0532 197.128 38.938 196.101 44.7075 195.53L53.2218 196.318Z" fill="white"/>
<path fill-rule="evenodd" clip-rule="evenodd" d="M105.405 115.957C105.292 115.65 104.832 115.69 104.823 116.035C104.642 123.402 106.48 132.405 112.387 137.381C115.42 139.935 119.429 141.104 123.111 142.448L123.526 142.601L130.031 145.019C131.757 145.66 133.618 146.647 135.142 145.741C133.909 148.792 132.873 151.928 131.371 154.869C129.502 158.53 127.241 161.879 124.475 164.926C113.515 176.995 96.1696 180.677 80.604 177.14C72.5886 175.319 64.7891 171.868 59.3207 165.573C55.1647 160.788 52.777 154.367 52.2143 148.032C52.3788 148.058 52.5512 148.057 52.7283 148.019C54.6978 147.59 56.686 146.536 58.419 145.503L58.5859 145.403C60.2534 144.402 61.9913 143.254 63.188 141.698C63.9803 140.668 64.7921 138.472 65.6236 135.111C65.9634 133.216 66.2821 129.442 66.2276 127.527C66.2226 127.346 65.4191 127.239 65.3333 127.427C64.5909 129.053 64.3509 132.625 63.7778 134.318L63.6622 134.655C63.0503 136.422 62.5256 138.574 61.2568 140.003C58.8749 142.685 55.2811 143.821 52.0733 145.166C51.843 142.134 46.9902 142.205 47.0518 145.367C47.0552 145.538 47.0628 145.709 47.0689 145.88C46.6862 146.09 46.3181 146.33 45.974 146.562L45.6383 146.789C44.3677 147.652 43.0874 148.471 41.7344 149.203C39.1151 150.62 36.3421 151.743 33.6583 153.029C30.9432 154.33 28.4039 155.88 26.033 157.736C24.9194 158.607 23.8516 159.535 22.839 160.521L22.5641 160.791C21.6002 161.749 20.3459 162.82 19.7967 164.079C19.6756 164.357 19.0692 165.002 18.7401 165.024C13.6409 165.358 8.5526 165.829 3.48544 166.535C2.17354 166.718 1.65498 167.392 2.13989 168.483C3.80629 172.233 10.3299 187.207 12.0647 191.226C11.8621 194.178 12.1358 197.654 11.9532 200.607C11.6861 204.916 11.3363 209.224 10.9171 213.522C9.41701 228.894 7.14296 244.191 5.08813 259.497C4.05966 267.156 3.12201 274.828 2.19644 282.5C1.72905 286.378 1.33246 290.259 1.02718 294.153C0.900024 295.775 0.784637 297.399 0.682938 299.023L0.595306 300.464C0.47464 302.277 0.196198 304.009 1.32062 305.565C1.83037 306.271 2.99463 306.669 3.66493 305.867C4.5076 304.859 4.82077 304.105 4.90129 302.781C4.96288 301.767 4.97762 300.749 5.02393 299.734C5.12393 297.535 5.24973 295.336 5.39709 293.139C5.69106 288.746 6.0266 284.355 6.4153 279.97C7.77773 264.593 10.3671 249.332 12.09 233.994C12.9585 226.261 13.5753 218.513 13.9019 210.738C14.0654 206.855 14.1246 202.972 14.0862 199.086C14.0717 197.634 14.0027 196.189 13.903 194.748C16.4841 200.599 19.1977 206.394 22.0347 212.111L22.7071 213.465C24.5049 217.079 26.3512 220.707 28.5119 224.114L28.8832 224.695C29.7587 226.079 30.9546 228.261 32.5509 228.698C33.6628 229.002 35.0215 228.788 36.1616 228.766C37.2929 228.744 38.4256 228.74 39.5562 228.694C40.8244 228.643 42.0344 228.477 43.26 228.147C43.4637 228.092 43.6564 228.033 43.8319 227.957C45.0667 229.974 47.1647 231.509 49.3098 232.404C51.028 233.121 52.8287 233.612 54.6326 234.067L55.2692 234.226C57.203 234.707 59.4152 234.935 60.5058 236.799L60.7591 237.231C61.5699 238.605 62.3478 239.813 63.6898 240.798C65.1344 241.859 66.8458 242.527 68.5506 243.046C70.2962 243.577 72.0825 243.985 73.8549 244.421L74.3379 244.54C75.508 244.833 76.6885 245.101 77.8518 245.419C78.3478 245.554 78.8528 245.694 79.3397 245.861C79.9097 246.056 80.324 246.361 80.7737 246.693C81.1779 248.103 82.9056 248.868 84.3262 248.77C85.0723 248.718 85.7416 248.465 86.3505 248.095C87.4135 248.998 88.5838 249.807 89.6673 250.643C91.1844 251.815 92.7076 252.978 94.2393 254.13C97.3973 256.505 100.579 258.849 103.794 261.147C109.501 265.225 115.331 269.117 121.261 272.864C123.734 274.427 126.223 275.986 128.737 277.509L128.468 277.608L127.936 277.809C126.679 278.277 125.277 279.035 125.033 280.499C124.84 281.66 125.49 282.46 126.639 282.602C128.005 282.77 129.068 281.808 129.918 280.889C130.293 280.483 130.713 280.107 131.073 279.689C131.219 279.519 131.332 279.323 131.431 279.117C133.912 280.575 136.419 281.985 138.965 283.303L139.603 283.63C145.918 286.853 152.065 290.383 158.434 293.514C160.095 294.331 162.121 295.214 164.232 295.817C163.672 297.984 163.681 300.364 163.666 302.563C163.653 304.706 167.067 304.696 166.994 302.563L166.96 301.533C166.898 299.801 166.796 298.002 166.384 296.317C172.605 297.346 178.82 295.109 179.977 294.437C181.254 293.696 182.413 292.51 183.378 291.41C185.443 289.055 186.875 286.233 188.146 283.393C190.869 277.312 192.798 270.812 194.209 264.311C199.408 240.344 197.172 214.692 188.728 191.717C186.618 185.977 184.128 180.363 181.274 174.952L180.919 174.283C178.071 168.933 174.906 163.603 170.885 159.049C166.697 154.307 161.531 150.619 155.906 147.756C153.16 146.359 150.336 145.148 147.449 144.075C146.985 143.902 146.518 143.747 146.05 143.6C143.042 141.686 139.391 139.855 135.738 139.927C135.49 139.932 135.289 140.026 135.139 140.167C134.963 140.198 134.787 140.235 134.61 140.287C134.221 140.399 133.81 140.825 133.866 141.262L133.885 141.408C133.895 141.479 133.908 141.547 133.93 141.614C133.8 141.634 133.672 141.665 133.546 141.708C130.052 140.723 126.613 139.217 123.203 138.002L122.427 137.728C119.57 136.729 116.64 135.75 114.297 133.774C111.966 131.807 110.214 129.26 108.946 126.507C107.385 123.114 106.686 119.44 105.405 115.957ZM35.4386 294.878C34.7467 294.365 33.9285 294.961 33.6696 295.596C32.8195 297.683 33.2395 300.925 34.4377 302.77C35.6794 304.681 38.6514 303.927 38.7232 301.611C38.7982 299.197 37.3918 296.329 35.4386 294.878ZM28.2914 237.265C28.2293 236.994 27.8072 236.996 27.744 237.265C27.1679 239.713 27.1814 242.35 27.0122 244.86L26.9926 245.138C26.7897 247.906 26.6192 250.682 26.4976 253.455C26.2589 258.911 25.9736 264.367 25.6539 269.818C25.4952 272.522 25.3252 275.225 25.1439 277.927C24.576 277.611 23.9909 277.334 23.3846 277.089C22.4761 276.723 21.5916 276.681 20.6155 276.691C19.4268 276.703 18.5318 277.746 18.6891 278.908C18.8607 280.174 19.9773 280.716 21.1369 280.535C22.4211 280.335 23.7109 280.024 25.0076 279.895C24.8631 281.985 24.7139 284.073 24.5557 286.161C24.346 288.925 24.0725 291.685 23.8804 294.45C23.862 294.714 23.8422 294.978 23.822 295.243C23.0488 294.842 22.2277 294.637 21.2971 294.384L21.055 294.316C19.704 293.929 18.2586 293.393 17.008 294.3C16.1674 294.909 15.9995 295.913 16.6959 296.716C17.7517 297.936 19.3139 297.7 20.7723 297.637L21.5569 297.609C22.2964 297.58 22.9785 297.533 23.662 297.346C23.5365 299.148 23.4704 300.956 23.6917 302.731C23.8115 303.69 25.077 303.942 25.412 302.963C26.2871 300.405 26.4679 297.647 26.7882 294.968C27.0872 292.466 27.269 289.946 27.4649 287.433L27.5242 286.679C27.9648 281.15 28.3172 275.618 28.5746 270.078C28.8322 264.539 28.9869 259 29.0485 253.455C29.0765 250.937 29.0347 248.411 28.9359 245.893L28.9046 245.138C28.7909 242.549 28.8704 239.802 28.2914 237.265ZM143.934 295.286C143.9 294.933 143.616 294.493 143.194 294.548C142.805 294.598 142.404 294.574 142.019 294.638C141.511 294.722 141.102 295.022 140.629 295.21C139.861 295.517 139.023 295.675 138.235 295.926C136.756 296.397 135.951 297.95 136.563 299.401C137.207 300.926 138.825 301.272 140.223 300.632C141.326 300.128 142.147 299.322 142.888 298.389L143.098 298.123C143.417 297.722 143.78 297.274 143.914 296.789C144.044 296.316 143.98 295.768 143.934 295.286ZM72.0896 288.117C70.2478 287.858 68.6746 288.487 66.9703 289.079L66.8318 289.127C65.0972 289.724 62.5663 290.138 61.6774 291.91C61.141 292.978 61.5576 294.396 62.8198 294.713C64.8187 295.213 66.6111 293.755 68.2639 292.774L68.3508 292.722C69.9461 291.79 71.5928 291.006 72.6115 289.397C72.8834 288.968 72.6476 288.196 72.0896 288.117ZM136.387 141.95C137.125 142.115 137.863 142.261 138.6 142.401C141.404 143.901 144.126 145.457 147.021 146.793C150.092 148.211 153.153 149.676 156.071 151.391C161.965 154.856 166.825 159.361 170.84 164.884C177.776 174.423 182.936 185.424 186.628 196.586C187.577 199.454 188.426 202.354 189.177 205.278C187.849 204.053 186.277 203.299 184.514 202.654C183.767 202.381 182.837 202.843 182.458 203.489C182.288 203.779 182.192 204.066 182.209 204.406C182.249 205.156 182.738 206.009 183.546 206.157C185.429 206.504 187.261 207.178 189.077 207.772C189.352 207.862 189.589 207.828 189.778 207.722C191.581 215.342 192.709 223.12 193.108 230.944C193.446 237.568 193.238 244.244 192.502 250.859C191.937 250.606 191.385 250.368 190.765 250.224C189.962 250.038 189.171 249.811 188.388 249.554C186.126 248.814 185.094 252.54 187.406 253.108C188.266 253.319 189.132 253.495 190.009 253.623C190.773 253.735 191.448 253.686 192.169 253.568C191.618 257.695 190.867 261.792 189.909 265.831L189.698 266.715C188.454 271.873 187.005 277.08 184.909 281.954C183.881 284.346 182.519 286.617 180.838 288.61C180.013 289.591 179.096 290.431 178.097 291.227C177.264 291.89 174.436 293.328 171.086 293.328C167.736 293.328 166.829 293.012 165.139 292.431C161.796 291.283 158.623 289.451 155.488 287.818L155.164 287.65C153.778 286.934 152.397 286.209 151.02 285.476C151.194 284.075 150.889 282.898 150.157 281.604C149.367 280.204 147.407 280.901 147.261 282.333L147.257 282.388C147.235 282.711 147.18 283.04 147.113 283.368C137.905 278.334 128.891 272.948 120.021 267.336C114.307 263.72 108.654 259.997 103.084 256.164C100.3 254.249 97.5392 252.299 94.8062 250.31C93.3745 249.268 91.9495 248.218 90.531 247.159C89.9402 246.718 89.3607 246.255 88.7685 245.811C88.9125 245.632 89.0527 245.452 89.1885 245.275C91.3997 242.386 92.8342 238.943 93.549 235.39C93.9806 233.247 94.189 231.022 94.2524 228.836L94.2803 227.886C94.324 226.285 94.3354 224.61 94.0398 223.058C94.4422 223.279 94.8533 223.495 95.263 223.727C96.7333 224.558 98.205 225.388 99.679 226.213C102.631 227.865 105.591 229.498 108.589 231.065C113.944 233.865 119.352 236.528 124.905 238.915L127.608 240.077C132.298 242.09 137.026 244.067 141.902 245.563C144.652 246.407 148.776 247.451 151.566 248.095C149.325 250.203 149.015 251.619 150.637 252.344C153.071 253.431 155.086 249.26 155.167 248.882C156.023 249.061 157.675 249.367 160.122 249.799C163.609 250.471 166.991 251.801 170.108 253.503C171.192 254.095 171.494 252.945 170.346 252.144C166.988 249.802 163.072 248.477 159.031 247.364L158.833 247.31C157.35 246.905 155.871 246.482 154.394 246.045C154.556 245.459 154.65 244.851 154.631 244.18C154.59 242.686 154.457 241.187 154.378 239.694C154.211 236.56 153.998 233.437 153.749 230.309C153.653 229.104 153.545 227.896 153.423 226.689C154.214 226.265 154.897 225.703 155.78 225.426L155.929 225.383C156.874 225.129 156.555 223.915 155.716 223.811C154.956 223.717 154.2 223.76 153.451 223.921C153.335 223.946 153.225 223.974 153.121 224.006C152.983 222.888 152.83 221.772 152.657 220.663C152.198 217.733 151.874 214.646 150.919 211.83C150.848 211.622 150.538 211.547 150.423 211.766C149.034 214.402 148.986 217.637 148.829 220.573L148.81 220.924C148.625 224.127 148.615 227.362 148.674 230.57C148.735 233.875 148.849 237.173 148.997 240.476C149.057 241.805 149.055 243.185 149.282 244.457C141.016 241.776 132.897 238.566 125.114 234.766C119.624 232.086 114.181 229.298 108.801 226.405C106.105 224.956 103.397 223.53 100.704 222.076C99.76 221.566 98.8171 221.055 97.8747 220.542L96.4612 219.773C95.1385 219.053 94.0345 218.336 92.4939 218.286C92.0347 218.271 91.6229 218.485 91.3305 218.81C90.5026 218.224 89.5457 217.865 88.5414 217.873C87.0298 215.789 85.495 213.723 83.8991 211.701L82.7201 210.205C80.6795 207.622 78.518 205.001 75.9159 203.036C74.7545 202.159 73.4771 201.501 72.1449 200.957C72.4584 200.881 72.7652 200.727 73.0387 200.474C74.3111 199.297 74.4863 197.11 74.7448 195.467C75.0129 193.764 74.9093 192.239 74.6445 190.541C74.5416 189.881 73.4463 189.744 73.1789 190.35C72.6155 191.628 72.0188 192.852 71.5061 194.145L71.3549 194.535C70.8046 195.989 69.6324 197.52 69.7098 199.098C69.7309 199.531 69.8761 199.908 70.1004 200.211C68.9822 199.84 67.8479 199.51 66.731 199.165C63.2159 198.081 59.6873 197.028 56.1045 196.187C55.1508 195.963 54.1923 195.756 53.2299 195.565C52.7257 193.176 51.9909 190.832 51.1246 188.53C51.9449 188.11 52.4759 187.407 53.1823 186.782C53.8434 186.196 54.2976 185.483 54.8616 184.811C55.375 184.199 55.0866 183.094 54.1639 183.13L53.9025 183.141C52.9466 183.185 52.0208 183.284 51.154 183.729L50.8453 183.888C50.4217 184.107 49.9581 184.359 49.5453 184.656C49.0056 183.416 48.4443 182.189 47.877 180.974L47.1409 179.403C45.2323 175.314 43.329 171.069 40.9328 167.261C39.8675 165.568 38.4498 164.511 36.415 164.347C34.3197 164.179 32.1411 164.396 30.0429 164.471C27.6104 164.558 25.1787 164.661 22.7486 164.789C23.3715 164.138 23.94 163.413 24.5656 162.788C25.604 161.752 26.7012 160.77 27.8544 159.862C30.1368 158.065 32.6464 156.585 35.2531 155.31C37.8603 154.035 40.5441 152.924 42.9916 151.349C44.5403 150.352 45.9246 149.098 47.1875 147.741C47.9826 156.299 52.1241 164.25 58.3459 170.224C64.8083 176.428 73.7387 179.837 82.4748 181.287C91.3857 182.766 100.686 182.223 109.21 179.133C113.605 177.539 117.821 175.262 121.58 172.406C121.622 172.654 121.671 172.9 121.769 173.131C121.9 173.441 122.06 173.705 122.244 173.978L122.572 174.456C122.778 174.756 122.989 175.054 123.224 175.333C123.792 176.009 124.597 176.304 125.464 176.301C127.124 176.296 128.382 174.671 127.935 173.064C127.654 172.055 127.053 171.447 126.115 171.052C125.819 170.927 125.517 170.822 125.213 170.719L124.985 170.642C124.678 170.537 124.373 170.437 124.057 170.379C125.837 168.811 127.489 167.106 128.968 165.266C133.606 159.497 138.182 151.416 136.631 143.753C136.604 143.622 136.486 143.539 136.358 143.518C136.268 142.98 135.981 142.46 135.588 142.11C135.852 142.041 136.119 141.987 136.387 141.95ZM88.2167 274.436C87.298 273.926 86.349 275.137 87.0956 275.886L88.2103 276.998C89.2449 278.036 90.2518 279.084 91.1374 280.267L91.3518 280.556C92.5471 282.178 93.8218 284.059 95.7805 284.665C98.1495 285.399 100.426 282.519 99.0543 280.416C97.8558 278.577 95.5481 277.884 93.5585 277.124C91.6763 276.405 89.9763 275.412 88.2167 274.436ZM164.641 265.953C164.101 265.248 162.694 265.619 163.063 266.617C164.26 269.857 164.749 274.275 167.773 276.428C168.749 277.122 170.282 276.803 171.086 276.001C171.999 275.09 172.035 273.807 171.513 272.696C170.876 271.34 169.31 270.357 168.212 269.325L168.114 269.231C166.933 268.086 165.655 267.277 164.641 265.953ZM38.2182 269.682C37.2548 269.267 34.7438 268.462 33.9997 269.415C33.9649 269.45 33.9352 269.488 33.9112 269.53C33.7289 269.847 33.7018 270.293 33.9112 270.607C34.7784 271.908 35.6815 272.878 36.9143 273.804L37.0527 273.906C38.3949 274.891 39.6557 276.048 41.291 276.492C43.5577 277.107 45.1409 274.275 43.549 272.622C42.2665 271.289 40.3086 270.598 38.6092 269.855L38.2182 269.682ZM129.244 251.168C129.623 250.484 128.849 249.645 128.147 250.073C126.146 251.294 123.814 252.209 121.566 252.867C120.656 253.134 119.836 254.054 119.903 255.047L119.914 255.197C119.941 255.548 119.989 255.896 120.212 256.188C120.995 257.21 122.115 257.603 123.312 256.998C125.977 255.651 127.802 253.769 129.244 251.168ZM70.7476 249.097C70.7963 248.81 70.5855 248.588 70.2926 248.643C68.6012 248.963 67.0391 249.778 65.5866 250.715C64.8076 251.218 64.0563 251.77 63.2792 252.277C62.3191 252.904 61.9596 253.422 61.8178 254.572C61.7241 255.331 62.4344 256.024 63.0857 256.234C64.861 256.805 66.895 254.93 68.0976 253.712L68.1517 253.658C69.4107 252.377 70.4492 250.863 70.7476 249.097ZM19.9478 247.108C20.3334 246.069 19.0046 245.208 18.1356 245.718C17.3174 246.198 16.4298 246.596 15.6579 247.147C14.9486 247.653 14.3019 248.252 13.6217 248.801L13.2856 249.067C12.0382 250.067 9.97917 252.542 11.7627 253.978C13.4603 255.344 15.711 253.599 16.8503 252.323L16.9298 252.233C17.5853 251.477 18.3935 250.656 18.8691 249.774C19.3167 248.943 19.6204 247.99 19.9478 247.108ZM36.6882 166.684C38.8143 167.096 39.6809 169.715 40.5762 171.422C42.6892 175.45 44.6324 179.552 46.5841 183.66C47.1849 184.923 47.7699 186.196 48.3602 187.467C48.3963 187.567 48.4426 187.665 48.4971 187.762C49.7063 190.36 50.9517 192.941 52.4072 195.407C51.0751 195.158 49.7361 194.946 48.3921 194.779C48.4599 193.516 47.5934 191.826 47.1648 190.763L47.1291 190.673C46.5946 189.311 46.0343 187.165 44.6585 186.458C44.2001 186.222 43.7098 186.517 43.6745 187.021C43.5703 188.521 45.0401 190.237 45.7585 191.509C46.193 192.279 46.6165 193.053 47.0291 193.834C47.1839 194.127 47.3131 194.415 47.4718 194.672C46.7786 194.598 46.0846 194.531 45.3888 194.482L44.9353 194.451C42.3557 194.282 39.6159 194.233 37.2853 195.503C35.1228 196.68 34.0175 199.193 35.2055 201.482C36.6855 204.333 39.9446 204.711 42.8105 204.942C46.3902 205.23 49.9779 205.75 53.5323 206.258C57.2088 206.782 60.6708 208.135 64.2925 208.83C64.6293 208.895 64.8391 208.455 64.5301 208.267C61.6733 206.532 58.2001 205.577 55.0062 204.605L54.7479 204.526C53.0154 203.995 51.3222 203.388 49.53 203.087C47.7902 202.794 46.0396 202.558 44.2848 202.377L44.1144 202.362C42.1823 202.2 37.2533 202.255 37.4616 199.401C37.5995 197.512 40.677 197.185 42.0818 197.163C48.5226 197.06 55.0097 198.766 61.1308 200.594L62.4973 201.002C65.0037 201.755 67.5137 202.529 69.973 203.411C72.7599 204.411 74.9556 205.969 76.9854 208.103C79.236 210.468 81.4158 212.887 83.7507 215.172C85.2226 216.613 86.7134 218.028 88.2164 219.432C88.5559 219.87 88.8275 220.348 89.0156 220.967C89.3335 222.012 89.2604 222.984 89.1404 224.058C88.8377 226.771 88.7709 229.511 88.3917 232.215C88.0401 234.72 87.5485 237.317 86.5061 239.641C86.0933 240.562 85.5561 241.465 84.9443 242.274L84.4505 242.914C84.2353 243.193 83.9945 243.497 83.7417 243.783C83.3707 243.332 82.8338 243.038 82.2098 243.111C80.8837 243.267 79.8413 243.23 78.5405 242.926C77.5336 242.691 76.5346 242.415 75.5322 242.16C73.5639 241.659 71.5773 241.203 69.629 240.628L69.2941 240.527C67.8422 240.083 66.3899 239.526 65.1815 238.591C63.7775 237.504 63.3456 235.936 62.3056 234.58C60.0849 231.685 55.2863 231.745 52.0372 230.952C49.276 230.278 46.6188 229.215 44.7079 227.216L44.5964 227.097C44.6811 226.74 44.5438 226.338 44.2116 226.153L44.1393 226.113C44.0098 226.04 43.8703 226.01 43.7335 226.013C43.5561 225.753 43.385 225.485 43.2295 225.199C43.1016 224.964 42.7818 225.137 42.8237 225.37C42.8487 225.509 42.8834 225.644 42.9163 225.78C41.0653 225.305 39.0325 225.396 37.1532 225.397L34.7143 225.388C34.2923 225.383 33.6632 225.362 33.6073 225.337L33.5499 225.311C33.3978 225.245 33.6137 225.354 33.5075 225.213C33.3904 225.058 33.2757 224.901 33.1625 224.743C32.7583 224.179 32.3759 223.597 32.0011 223.01C36.0852 224.049 40.3159 224.695 44.4861 225.233C48.96 225.812 53.4928 226.213 58.0067 226.217C59.251 226.218 59.2397 224.344 58.0067 224.297C53.227 224.115 48.4724 223.862 43.7248 223.251C41.2697 222.935 38.8248 222.538 36.3937 222.074C35.4551 221.895 34.5187 221.705 33.5847 221.504L32.8846 221.352C32.4453 221.255 31.2042 221.115 30.599 220.71C30.48 220.506 30.3611 220.302 30.2431 220.099C30.3011 219.383 32.1243 219.479 32.5517 219.478C33.7636 219.475 34.9757 219.485 36.1879 219.488C38.6119 219.495 41.0357 219.474 43.46 219.455C48.3034 219.416 53.1652 219.247 58.0046 219.453C59.1794 219.503 59.7965 217.623 58.6354 217.129C53.5094 214.945 47.8192 214.47 42.3458 213.799C39.4675 213.446 36.5876 213.039 33.7738 212.324L33.0781 212.148C31.3105 211.696 29.3586 211.144 27.8701 210.067C30.1074 209.164 32.8882 209.267 35.2072 209.139L35.3847 209.129C38.6319 208.93 41.885 208.828 45.1383 208.823C51.7949 208.814 58.4536 209.049 65.1028 209.364C65.2696 209.372 65.3041 209.109 65.142 209.074C58.3078 207.586 51.3619 206.869 44.368 206.759C41.1107 206.707 37.8519 206.753 34.5974 206.897L33.4033 206.952C30.6285 207.071 27.5495 207.104 25.2279 208.776C24.874 209.03 24.6874 209.356 24.6582 209.7C21.5446 203.507 18.669 197.184 15.7818 190.904C13.5372 186.02 11.3763 181.096 9.04988 176.25L8.29675 174.683C7.28827 172.591 6.25508 170.499 5.10788 168.483C9.3978 167.911 13.7117 167.514 18.0282 167.21C21.9613 166.932 34.7947 166.318 36.6882 166.684ZM38.5878 233.806C38.0986 233.535 37.3491 233.756 37.2285 234.358C37.1388 234.806 36.9856 235.304 36.9856 235.762C36.9856 236.312 37.1825 236.908 37.2875 237.446C37.5288 238.682 37.8259 239.686 38.4557 240.787C38.8497 241.476 39.6452 241.943 40.4447 241.925C41.0779 241.91 41.639 241.741 42.0735 241.252C42.594 240.666 42.9514 239.804 42.6659 239.015C41.9179 236.949 40.5432 234.89 38.5878 233.806ZM142.355 231.744C141.21 229.743 138.496 227.955 136.128 228.132C132.573 228.398 131.847 233.175 135.29 234.315C137.347 234.997 140.178 234.297 141.978 233.176C142.464 232.874 142.641 232.245 142.355 231.744ZM178.898 224.909C179.158 224.532 178.728 224.101 178.341 224.185C177.482 224.374 176.555 224.456 175.714 224.712C174.852 224.973 174.018 225.407 173.164 225.706C171.375 226.331 169.465 226.644 167.734 227.399C167.042 227.701 166.498 228.701 166.562 229.438L166.578 229.61C166.617 229.976 166.68 230.295 166.885 230.63C167.436 231.527 168.527 231.991 169.557 231.715C171.468 231.203 173.335 229.887 174.965 228.793L175.266 228.594C175.978 228.126 176.743 227.636 177.317 227.034C177.915 226.405 178.407 225.621 178.898 224.909ZM113.212 217.632C113.432 216.841 112.446 216.319 111.872 216.853C110.724 217.92 109.523 218.91 108.399 220.004L108.324 220.079C107.518 220.886 106.347 222.442 107.394 223.486C108.736 224.825 110.604 222.839 111.324 221.804C112.237 220.491 112.785 219.167 113.212 217.632ZM25.3645 211.096C27.0675 212.896 29.6913 213.724 32.0014 214.409C34.7405 215.222 37.5627 215.707 40.3878 216.106C43.1176 216.492 45.8264 216.836 48.5129 217.279C46.4807 217.304 44.4488 217.319 42.4213 217.355C40.0831 217.398 37.7461 217.448 35.4086 217.516C33.7062 217.565 31.7087 217.332 30.091 217.964C29.7995 218.077 29.5271 218.235 29.2892 218.426C27.9291 216.013 26.6256 213.567 25.3645 211.096ZM130.406 194.265C128.629 193.701 126.957 192.954 125.073 193.148C124.572 193.199 124.213 193.686 124.487 194.166C125.38 195.734 126.832 196.619 128.261 197.668L128.387 197.761C129.952 198.923 131.632 199.981 133.333 200.934C136.262 202.574 138.887 197.879 135.929 196.502C134.149 195.673 132.279 194.859 130.406 194.265ZM98.4048 190.189C95.6854 190.367 92.9677 190.489 90.2449 190.598C87.0911 190.726 88.1514 195.569 90.786 194.589C93.3887 193.62 95.9918 192.664 98.6179 191.761C99.4174 191.486 99.353 190.175 98.4555 190.187L98.4048 190.189ZM168.152 181.573C167.447 181.524 166.736 181.678 166.03 181.746L165.279 181.818C163.731 181.972 162.279 182.162 160.803 182.79C158.078 183.951 159.542 188.321 162.277 188.22C164.298 188.146 166.026 187.28 167.733 186.272C169.226 185.39 170.14 184.287 171.148 182.903C171.482 182.444 171.017 181.93 170.562 181.884C169.762 181.803 168.952 181.629 168.152 181.573ZM31.5885 172.649C32.0393 175.456 33.1583 178.087 34.8444 180.377C35.6918 181.528 37.1795 181.572 38.0193 180.377C39.2073 178.687 38.4748 176.751 37.5798 175.128L37.315 174.653C36.9143 173.94 36.2988 172.901 35.5955 172.183L35.5837 172.109C35.2068 169.17 31.124 169.757 31.5885 172.649ZM141.576 154.634C140.898 154.025 139.65 154.208 139.43 155.2C139.122 156.588 138.934 158.153 139.136 159.563C139.245 160.327 139.286 161.185 139.587 161.897C139.911 162.662 140.534 163.251 141.12 163.826C142.291 164.976 144.76 164.596 145.074 162.785L145.114 162.563C145.271 161.706 145.473 160.79 145.24 159.941C145.063 159.3 144.669 158.647 144.343 158.053L144.274 157.926C143.621 156.712 142.603 155.557 141.576 154.634ZM46.2847 157.589L46.0395 157.591C44.1472 157.629 40.6879 158.088 40.6694 160.422C40.665 160.971 41.0732 161.541 41.6203 161.668C42.7514 161.929 43.4825 161.263 44.2886 160.589C44.9478 160.038 45.7163 159.598 46.5145 159.281C47.3766 158.939 47.3203 157.587 46.2847 157.589Z" fill="black"/>
<path fill-rule="evenodd" clip-rule="evenodd" d="M49.194 45.9534C50.208 39.8191 46.8801 38.5463 49.194 32.7151C54.3365 21.9104 68.3509 22.3759 78.6349 21.5452C90.1053 21.1056 101.715 22.6198 112.289 27.2171C114.815 28.3151 117.245 29.6064 119.573 31.0735C121.587 32.3423 121.31 34.7546 120.041 36.0706C129.197 49.0361 123.96 66.4397 131.266 80.0874C132.615 82.527 134.4 84.7146 135.573 87.2529C137.356 91.1114 137.471 96.64 133.427 99.2025C127.732 102.259 124.553 96.207 121.755 104.981C107.779 135.572 79.6798 137.295 53.0045 121.346C50.6967 120.062 48.3413 118.611 46.5986 116.594C42.6428 112.143 43.1087 105.883 43.0213 100.324C42.9724 97.0657 42.9643 93.8075 42.9961 90.5492C43.1205 77.351 47.4949 59.0429 49.194 45.9534Z" fill="#EDB98A"/>
<path fill-rule="evenodd" clip-rule="evenodd" d="M106.01 9.26322C89.9039 1.95742 71.6363 -0.813111 54.0674 1.00415C45.3957 1.8997 36.8382 3.82104 28.6943 6.94207L27.9805 7.21794C25.9701 7.99167 23.8031 8.75968 22.2754 10.3347C20.4972 12.1651 19.9985 14.933 21.2696 17.194C22.257 18.9509 24.0323 20.2112 25.9257 20.8837C25.2587 21.4299 24.6258 22.0392 24.0323 22.7193C23.0317 23.8591 22.9555 25.4844 24.0323 26.6086C26.1069 28.7751 28.7987 30.3426 31.698 31.094C31.3723 32.667 31.5483 34.4081 32.2468 35.9759C34.2513 40.4762 39.8979 41.0125 44.243 40.7453L44.3743 40.737L44.6159 43.5023C44.7446 44.9755 45.627 46.1179 47.1239 46.3437C47.1764 46.3516 47.2292 46.3568 47.2814 46.3618C44.9127 54.9284 43.4814 63.7597 42.1605 72.539C41.4703 77.1218 40.8525 81.7153 40.2611 86.3117L40.0648 87.8439C39.4345 92.7994 38.6467 97.8047 38.3736 102.797C38.1294 107.327 38.9934 111.652 41.785 115.308C44.2903 118.585 47.7069 121.04 51.3809 122.863C59.6821 126.983 68.4192 130.051 77.6002 131.474L78.2125 131.568C81.7564 132.109 85.4078 132.565 88.9136 131.584C91.9938 130.723 95.2242 128.501 94.5283 124.932C94.2946 123.727 92.6086 123.674 92.0308 124.607L91.8975 124.82C91.2047 125.919 90.4454 126.941 89.2364 127.508C87.8211 128.176 86.1798 128.362 84.633 128.38C80.313 128.43 75.8144 127.354 71.6546 126.274C63.8865 124.258 55.9083 120.97 49.5452 115.988C46.8376 113.871 44.6632 111.224 43.8964 107.818C42.9483 103.619 43.8202 99.0285 44.2509 94.8083C45.1372 86.1004 46.192 77.4085 47.305 68.7264L47.5283 66.9901C48.4656 59.7316 49.4504 52.4704 49.9181 45.1698C50.1124 44.9046 50.2437 44.6026 50.2963 44.2717L50.3695 43.7964C50.4328 43.3894 50.4433 43.0164 50.3987 42.6724C50.396 41.3541 50.3593 40.0437 50.2831 38.7251C50.2703 38.4891 50.2595 38.2527 50.2516 38.019C51.6225 38.321 53.0038 38.5652 54.3904 38.7727C64.1386 40.2407 74.0392 40.6083 83.8662 39.8783C88.7692 39.513 93.6351 38.8856 98.4859 38.1004C100.955 37.7012 103.415 37.26 105.868 36.7663C107.641 36.4118 109.376 35.9312 111.12 35.4795C112.919 38.0978 113.891 41.32 113.702 44.4844C113.489 48.0953 111.083 51.3701 111.758 55.0597C112.392 58.5128 115.35 59.5834 118.271 60.4386L119.513 60.7975C120.469 61.0766 121.163 61.3458 121.336 62.4942C121.633 64.4664 121.268 66.6855 121.191 68.6682C121.1 71.0133 120.979 73.3584 120.924 75.7035C120.895 76.9167 120.848 78.1352 120.85 79.3485C120.853 80.2099 120.981 80.7981 121.315 81.3546C121.058 81.6778 120.827 82.0271 120.622 82.3974C120.556 82.5182 120.719 82.6466 120.816 82.5471C121.076 82.2766 121.352 82.0324 121.643 81.8141C121.79 81.9956 121.961 82.1794 122.161 82.3764L122.176 82.3554C122.801 82.9778 123.794 83.0382 124.569 82.3764L124.772 82.2002C125.34 81.703 125.729 81.2889 125.887 80.4672C125.895 80.4252 125.903 80.3832 125.908 80.3412C127.35 80.2913 128.815 80.6324 130.112 81.3496C132.169 82.4867 133.616 84.107 134.472 86.1081C134.13 86.5072 133.731 86.8644 133.266 87.1638C133.201 87.2084 133.259 87.3056 133.329 87.2714C133.805 87.0482 134.23 86.7725 134.611 86.4495C134.918 87.2373 135.134 88.0829 135.265 88.9784C135.727 92.1402 134.903 96.0032 132.045 97.8047C130.808 98.5847 129.396 99.0075 127.93 99.0127C127.216 99.0151 126.599 98.8945 125.905 98.7238C125.435 98.6083 124.968 98.4402 124.477 98.4402C124.057 98.4402 123.668 98.5453 123.308 98.7554L123.408 98.7641C123.65 98.7869 123.604 98.7971 123.266 98.7971C122.216 98.842 121.615 99.9082 122.097 100.835L122.161 100.978C122.174 101.007 122.185 101.031 122.194 101.05L122.233 101.296C122.236 101.32 122.24 101.344 122.245 101.368L122.259 101.418C122.262 101.426 122.265 101.434 122.268 101.442L120.693 103.844C118.761 106.783 116.786 109.711 114.539 112.395C112.964 114.278 111.294 116.124 109.529 117.834C107.943 119.37 106.041 120.111 104.245 121.319C103.286 121.96 103.005 123.301 103.877 124.165C106.435 126.705 110.057 124.688 112.155 122.624C114.14 120.668 115.855 118.315 117.334 115.959C119.957 111.77 122.045 107.316 122.959 102.482C123.34 102.831 123.825 103.049 124.317 103.22C125.301 103.561 126.386 103.703 127.426 103.74C129.419 103.805 131.415 103.322 133.209 102.466C140.507 98.9865 141.578 88.5661 137.116 82.421C137.718 80.6764 138.054 78.7833 138.419 77.169L138.585 76.4474C140.43 68.3872 141.669 59.901 138.398 52.0029C137.978 50.984 137.505 49.9914 136.946 49.0407C136.497 48.2765 135.725 47.4624 135.512 46.5932C135.039 44.684 137.957 42.6777 138.808 41.1624C139.808 39.3846 139.95 37.2863 138.587 35.6605C138.414 35.4559 138.225 35.2666 138.02 35.1014C139.312 32.7589 139.372 29.8124 137.67 27.5015C136.552 25.9783 134.845 24.9121 132.98 24.5891C131.84 24.3922 130.47 24.4657 129.217 24.8176C122.358 18.4493 114.532 13.1288 106.01 9.26322ZM132.35 88.9469C130.519 87.3319 128.497 86.4863 126.002 86.699C123.494 86.914 120.474 87.9516 119.001 90.1024C117.838 91.8015 120.209 94.2936 121.916 93.0174C123.471 91.854 124.508 90.541 126.438 89.9159C128.172 89.3566 130.317 88.9968 132.132 89.3172C132.332 89.3513 132.531 89.1045 132.35 88.9469Z" fill="black"/>
<path fill-rule="evenodd" clip-rule="evenodd" d="M75.3666 100.857C73.8944 98.4409 70.7565 104.361 70.423 105.379C70.1278 106.28 69.9328 107.204 69.8337 108.138C68.6924 108.394 67.5072 108.394 66.3377 108.17C64.5996 107.838 63.5371 106.905 62.0264 106.104C60.983 105.551 59.668 106.2 59.1254 107.118C58.4872 108.198 58.8938 109.318 59.7332 110.124C61.3251 111.65 64.4573 112.001 66.5353 111.596C67.7258 111.363 68.817 110.918 69.7806 110.27C69.787 110.391 69.7912 110.512 69.8008 110.633L69.8192 110.842C69.9788 112.535 70.4452 114.665 71.7633 115.766C73.925 117.574 76.5929 114.098 74.4924 112.292L74.4273 112.238C73.1217 111.186 72.8368 108.361 72.9071 106.806C72.9532 105.79 73.1386 104.762 73.4598 103.795L73.5259 103.602C73.6226 103.329 74.677 100.738 75.0581 101.068L75.0763 101.086C75.2334 101.274 75.4873 101.056 75.3666 100.857ZM63.6123 87.2214C61.625 88.4268 58.597 91.2376 60.7349 94.2259C63.2514 96.8608 66.8745 93.8397 68.6599 92.4734C70.3155 91.4144 72.1756 94.1379 70.6396 95.3743C57.738 104.906 52.5023 87.5366 62.6072 85.8042C63.7198 85.6133 64.133 86.8485 63.6123 87.2214ZM84.8331 76.0797C82.8909 75.736 80.9014 76.2179 79.2942 77.3518L79.1724 77.4392C77.624 78.5692 75.8917 80.5533 76.7802 82.5011C77.1367 83.2831 78.2047 83.4058 78.8823 83.0512C80.0106 82.4609 80.215 81.0084 81.2217 80.2045C82.0472 79.5457 83.1588 79.146 84.222 79.2423C86.7198 79.4687 88.2562 81.927 89.032 84.0455C89.1312 84.3165 89.5299 84.4218 89.6857 84.1308C91.515 80.719 88.277 76.6895 84.8331 76.0797ZM53.7238 74.7922C50.0033 74.4862 45.6487 78.335 46.6282 82.2537C47.098 84.134 49.8931 84.0801 50.3899 82.2537C50.6634 81.2487 50.636 80.3595 51.361 79.5249C51.9595 78.8358 52.8098 78.4356 53.7238 78.4971C54.7312 78.5648 55.6604 79.0672 56.3665 79.7733C57.0042 80.4109 57.3855 81.344 58.0461 81.9083C58.2087 82.047 58.4263 82.0559 58.5869 81.9083C59.7238 80.8624 59.0414 78.6848 58.3205 77.5929C57.2889 76.0304 55.6091 74.9474 53.7238 74.7922ZM91.9179 69.1297C89.5312 67.0215 85.1944 64.9855 81.9761 66.023C80.1258 66.6194 79.3192 69.5945 81.3848 70.5376C83.7767 71.6295 86.5345 71.1852 88.9691 72.317C89.9915 72.7926 90.9531 73.3869 91.665 74.2585C92.2258 74.9455 92.7963 75.8494 93.6074 76.2454C93.8206 76.3496 94.1093 76.3523 94.2801 76.159C96.058 74.1521 93.4703 70.5008 91.9179 69.1297ZM57.826 65.9184C56.3509 65.5053 54.7145 65.5137 53.216 65.7732C51.7181 66.0326 50.1972 66.6521 48.9743 67.5558L48.8323 67.6616C47.4972 68.6655 45.904 70.1261 45.9894 71.9046C46.0607 73.3896 47.6263 74.3941 48.978 73.6157C50.0798 72.981 50.5983 71.7095 51.5312 70.8628C52.301 70.164 53.2052 69.613 54.17 69.227C55.2416 68.7982 56.3151 68.5973 57.4652 68.5781C58.3507 68.5634 59.2415 68.8533 60.1105 68.946C60.0389 69.0926 60.7258 69.0243 61.1195 68.8943C61.4111 68.7703 61.4127 68.4024 61.3116 68.1637C60.8103 66.9812 58.9863 66.243 57.826 65.9184Z" fill="black"/>
</svg>
