<svg width="198" height="289" viewBox="0 0 198 289" fill="none" xmlns="http://www.w3.org/2000/svg">
<path d="M30.4067 182.433H87.8026V253.071H30.4067V182.433Z" fill="#FDEA6B"/>
<path fill-rule="evenodd" clip-rule="evenodd" d="M104.543 113.342C98.3564 108.633 82.8237 106.516 76.2204 111.05C69.6983 115.602 68.9873 122.965 65.9481 129.737C63.0805 128.386 58.3451 130.321 57.5137 132.981C56.4826 134.235 56.4363 137.758 55.7253 139.444C24.7861 144.366 20.089 168.473 16.365 195.841C11.4385 223.613 0.254791 251.323 5.10988 279.901C4.47728 280.816 3.97852 281.705 3.51733 282.761C2.41228 284.64 3.83563 287.3 6.06456 287.197C8.94963 286.944 11.8062 286.598 14.7048 286.49C22.7401 286.211 30.7828 286.244 38.8212 286.347L39.9174 286.361C80.4286 286.865 120.938 287.858 161.451 288.121C162.92 288.124 163.64 286.806 163.444 285.507C163.048 282.89 162.682 280.273 162.299 277.655C171.881 280.185 182.068 280.821 191.624 277.921C192.292 277.241 190.066 277.609 189.713 277.506C198.507 271.501 195.881 258.849 195.102 249.737C190.258 218.513 188.55 183.966 169.835 157.322C161.739 146.449 149.869 137.84 136.23 135.903L135.851 135.851C131.863 135.32 127.418 135.149 123.931 132.981C120.01 129.852 118.338 124.07 114.213 124.016C112.85 123.998 110.997 125.721 109.002 126.89C108.854 124.317 107.466 122.146 107.16 120.152L107.135 119.981C106.816 117.655 107.253 115.563 104.543 113.342ZM38.0523 196.666C46.7471 190.629 69.2074 193.662 69.7216 194.001C70.8537 194.745 71.3412 194.811 71.9536 195.777C72.5581 195.857 73.1621 195.94 73.7657 196.026C74.9765 196.421 74.0792 197.91 72.6806 197.379C73.5219 201.004 71.0463 203.583 70.0608 207.167C69.7408 208.331 70.0492 210.424 70.0608 211.613C69.9652 213.129 68.2879 214.92 68.5674 216.441C69.5613 221.849 74.9545 227.124 72.6806 232.369C71.1743 235.331 66.6438 236.841 63.6317 237.848C57.3911 240.242 46.5173 237.758 42.8914 232.369C40.9573 229.494 38.7167 222.243 37.5635 219.994L37.3079 216.426C36.6776 207.557 36.1169 198.01 38.0523 196.666Z" fill="#EDB98A"/>
<path fill-rule="evenodd" clip-rule="evenodd" d="M114.534 124.032L112.046 125.558L97.5947 132.698C94.7931 133.482 93.3923 134.421 93.3923 135.516V146.668C93.3923 148.16 90.7633 151.542 85.5051 156.814L80.6474 151.974L80.756 151.341C81.2182 148.61 81.4494 146.784 81.4494 145.861C81.4494 144.869 76.6968 141.103 67.1918 134.563L63.0335 130.65L63.4769 129.303C60.9129 129.424 58.1324 131.002 57.5137 132.981C56.4826 134.235 56.4363 137.758 55.7253 139.444C24.7861 144.366 20.089 168.473 16.365 195.841C11.4385 223.613 0.254791 251.323 5.10988 279.901C4.47728 280.816 3.97852 281.705 3.51733 282.761C2.41228 284.64 3.83563 287.3 6.06456 287.197C8.94963 286.944 11.8062 286.598 14.7048 286.49C22.7401 286.211 30.7828 286.244 38.8212 286.347L39.9174 286.361C80.4286 286.865 120.938 287.858 161.451 288.121C162.92 288.124 163.64 286.806 163.444 285.507C163.048 282.89 162.682 280.273 162.299 277.655C171.881 280.185 182.068 280.821 191.624 277.921C192.292 277.241 190.066 277.61 189.713 277.506C198.507 271.501 195.881 258.849 195.102 249.737C190.258 218.513 188.55 183.966 169.835 157.322C161.739 146.449 149.869 137.84 136.23 135.903L135.851 135.851L135.47 135.802C131.582 135.307 127.308 135.08 123.931 132.981C120.113 129.934 118.428 124.373 114.534 124.032ZM79.907 189.486C81.3244 189.486 84.2272 191.686 88.6155 196.086L89.0021 196.264C94.3068 198.727 97.821 200.863 99.5447 202.673L99.6063 202.738C101.348 204.605 104.796 209.57 109.951 217.632L117.417 222.044H120.242L122.253 236.624L117.417 247.034L106.463 243.346L88.6155 238.645L78.374 228.261L72.5967 226.322C73.2976 228.346 73.5517 230.36 72.6806 232.369C71.1743 235.331 66.6438 236.841 63.6317 237.848C57.3911 240.242 46.5173 237.758 42.8914 232.369C40.9573 229.494 38.7167 222.243 37.5635 219.994L37.2327 215.359C36.6367 206.807 36.1943 197.956 38.0523 196.666C46.7471 190.629 69.2074 193.662 69.7216 194.001C70.8537 194.745 71.3412 194.811 71.9536 195.777L72.2705 195.819L70.4881 193.403L71.1192 193.067C75.6226 190.68 78.5519 189.486 79.907 189.486ZM72.6806 197.379C73.486 200.85 71.2514 203.361 70.1946 206.714L72.8948 201.548L72.8949 197.446C72.825 197.428 72.7535 197.406 72.6806 197.379Z" fill="#9DDADB"/>
<path fill-rule="evenodd" clip-rule="evenodd" d="M115.727 123.493C115.127 122.962 114.239 123.629 114.62 124.347C115.478 125.96 116.357 127.488 117.507 128.914C118.205 129.778 118.952 130.596 119.709 131.404C117.766 133.084 116.099 135.17 114.526 137.125C112.513 139.625 110.611 142.231 108.352 144.519C106.124 146.775 103.66 148.352 100.682 149.404L100.08 149.613C97.0882 150.663 93.8902 152.081 92.2037 154.912C91.8711 155.47 92.5408 156.16 93.1037 155.812C96.0344 153.998 99.4779 153.633 102.668 152.435C105.75 151.278 108.436 149.496 110.809 147.222C113.179 144.952 115.169 142.37 117.244 139.842C119.296 137.342 121.506 135.207 123.933 133.092C127.679 135.611 131.955 136.707 136.303 137.783L136.777 137.901C141.13 138.978 145.46 140.229 149.544 142.104C153.145 143.758 156.686 145.732 159.619 148.423C162.732 151.279 165.156 154.926 167.374 158.493C172.335 166.472 175.822 175.214 178.893 184.063C182.087 193.266 184.758 202.654 186.914 212.153C188.011 216.985 188.902 221.851 189.634 226.752C189.987 229.112 190.3 231.477 190.574 233.847C190.868 236.379 190.935 238.983 191.712 241.416C192.045 242.459 192.832 242.892 193.619 242.855L193.779 244.854C193.991 247.519 194.189 250.184 194.256 252.865C194.366 257.324 194.316 261.769 193.995 266.218L193.95 266.824C193.698 270.071 193.134 273.719 190.691 276.097C188.161 278.559 184.271 279.333 180.861 279.378C172.919 279.481 165.274 275.731 158.246 272.441C151.008 269.052 143.968 265.291 137.097 261.212C133.597 259.135 130.136 256.989 126.718 254.779C125.041 253.695 123.376 252.592 121.723 251.472C120.777 250.83 119.88 250.127 118.916 249.557C119.388 249.118 119.599 248.427 119.203 247.824C121.989 245.407 123.149 241.094 123.284 237.605C123.394 234.788 122.979 231.979 122.652 229.189C122.486 227.782 122.282 226.378 122.071 224.977C121.987 224.424 121.923 223.832 121.825 223.248C129.348 227.379 137.081 231.058 145.019 234.327C149.088 236.002 153.209 237.509 157.386 238.889L158.233 239.168C162.192 240.463 166.245 241.686 170.337 242.426C170.556 242.466 170.734 242.143 170.5 242.04C166.512 240.281 162.386 238.798 158.338 237.178L157.673 236.908C157.749 236.903 157.828 236.893 157.911 236.873C160.285 236.3 162.64 235.418 164.969 234.675C167.13 233.985 169.558 233.552 171.578 232.511C171.733 232.431 171.646 232.215 171.495 232.205C169.224 232.048 166.76 232.709 164.534 233.098L163.698 233.244C162.297 233.491 160.865 233.756 159.471 234.103C159.421 233.636 159.16 233.167 158.789 232.892C154.704 229.869 155.119 223.763 154.682 219.261L154.358 215.918C153.788 210.068 153.185 204.218 152.27 198.412C152.221 198.102 151.741 198.191 151.739 198.483C151.692 205.681 152.235 212.846 152.508 220.032L152.55 221.211C152.701 225.646 152.819 230.25 155.613 233.662C155.222 233.434 154.694 233.434 154.377 233.81C153.988 234.273 153.764 234.792 153.771 235.302C151.246 234.244 148.732 233.158 146.23 232.051C138.186 228.489 130.311 224.504 122.644 220.191C121.819 219.727 121.035 220.092 120.627 220.704L120.568 220.695C120.558 220.694 120.548 220.693 120.538 220.693L120.48 220.69C120.477 220.69 120.475 220.691 120.473 220.691C119.394 220.098 117.924 220.52 116.997 221.384C116.97 221.411 116.947 221.439 116.923 221.466C115.75 220.94 114.655 220.23 113.662 219.33C111.629 217.488 109.906 215.211 108.405 212.928C105.64 208.722 103.292 204.045 99.5571 200.583C96.5226 197.77 92.7606 196.019 88.8138 194.92C88.8303 194.805 88.7862 194.682 88.7065 194.6C88.5038 194.393 88.3591 194.321 88.0972 194.447C88.0764 194.457 88.0639 194.471 88.0554 194.486L87.6702 193.828C87.46 193.471 87.2442 193.112 87.1694 193.018C86.7212 192.454 86.2601 191.894 85.7919 191.346C84.9981 190.419 84.0936 189.503 83.0461 188.86C80.7528 187.452 78.3419 188.249 75.9842 189.018C74.5596 189.484 73.1397 189.964 71.7176 190.436L71.5709 190.484C70.5105 190.824 69.2696 191.122 68.7954 192.245C68.6077 192.689 68.5786 193.151 68.6661 193.598C58.5945 191.038 47.4081 192.214 37.5798 195.219C37.2026 195.334 36.8259 195.644 36.7464 196.052C35.6203 201.823 35.1188 207.742 35.6283 213.612C36.068 218.679 37.1913 223.644 39.3082 228.283L39.4285 228.545C41.418 232.844 44.5711 238.144 49.3866 239.491C52.2942 240.305 55.5101 239.825 58.4757 239.676C61.3578 239.531 64.3037 239.51 67.1585 239.057C69.701 238.654 71.9286 237.515 73.4999 235.449C74.8553 233.666 75.5691 231.512 76.1539 229.369C76.4215 229.454 76.6875 229.545 76.9491 229.647C78.0537 230.078 78.9896 230.774 79.8357 231.593C81.6225 233.322 83.0085 235.423 84.878 237.073C86.5704 238.567 88.4987 239.729 90.5673 240.622C94.8535 242.473 99.4516 243.212 103.985 244.193L104.302 244.262C107.715 245.011 111.199 245.93 114.211 247.706C114.27 248.228 114.509 248.72 114.891 249.042C114.359 249.541 114.134 250.331 114.601 251.072C115.905 253.141 118.152 254.318 120.169 255.641L120.3 255.727C122.284 257.042 124.285 258.33 126.303 259.592C130.405 262.159 134.592 264.584 138.839 266.903C145.669 270.632 152.646 274.149 159.749 277.34C159.322 279.436 159.478 281.598 159.158 283.708L159.109 284.009C158.972 284.792 159.157 285.447 159.696 285.959L159.753 286.011L159.752 286.004L159.803 286.051L159.82 286.065L159.814 286.061C159.877 286.117 159.941 286.17 160.006 286.216L160.089 286.269C160.609 286.585 161.279 286.582 161.811 286.303L161.872 286.269L161.974 286.211C162.677 285.807 163.162 284.805 162.871 284.009C162.153 282.053 161.883 279.966 161.22 277.997L161.746 278.232L162.438 278.533C169.927 281.77 178.245 284.495 186.404 282.289C190.009 281.314 193.379 279.251 195.183 275.889C196.958 272.581 197.209 268.74 197.303 265.061C197.419 260.519 197.176 255.908 196.576 251.405C196.174 248.383 195.687 245.303 194.937 242.312C195.323 241.972 195.607 241.484 195.682 240.879C196.036 238.022 195.416 235.052 195.037 232.21C194.666 229.435 194.256 226.666 193.793 223.905C192.858 218.329 191.772 212.765 190.507 207.255C188.255 197.448 185.283 187.816 181.703 178.413L181.39 177.594C178.083 169 174.253 160.59 168.921 153.04C166.37 149.428 163.674 146.153 160.07 143.55C156.693 141.111 152.885 139.355 148.954 138.013C145.019 136.67 140.975 135.77 136.859 135.21C132.68 134.642 128.268 134.293 124.368 132.579C124.862 131.696 124.438 130.503 123.608 129.955C120.815 128.11 118.231 125.71 115.727 123.493ZM26.2987 203.705C26.1817 203.527 25.9037 203.64 25.9551 203.85C27.3138 209.413 28.5893 214.987 29.4221 220.657C30.9256 230.889 30.649 241.255 30.5261 251.563L30.5199 252.096C30.4568 257.649 30.369 263.201 30.1853 268.752C30.0926 271.557 29.9091 274.389 30.0089 277.196C30.0633 278.718 30.4693 280.158 30.6132 281.662C30.7392 282.978 30.627 284.313 30.5641 285.63C30.5219 286.506 31.8152 286.469 31.9032 285.63L32.0157 284.546C32.1618 283.174 32.3424 281.81 32.7925 280.496C33.3336 278.916 33.5932 277.365 33.781 275.706C34.0685 273.164 34.1964 270.597 34.3074 268.037L34.3833 266.267C34.8467 255.57 34.8304 244.823 34.0802 234.137L34.0253 233.374C33.2825 223.273 31.9934 212.359 26.2987 203.705ZM55.261 140.044C55.616 139.898 55.4916 139.362 55.0986 139.455L54.3839 139.626C49.147 140.879 44.0051 142.238 39.117 144.57C34.2258 146.904 30.0848 150.389 26.7944 154.674C20.3982 163.003 17.7402 173.125 15.6418 183.238C13.3099 194.475 11.1868 205.753 8.83452 216.987L8.39772 219.08C6.22119 229.542 4.16621 240.011 2.65205 250.598L2.54329 251.366C1.01636 262.252 0.0979309 273.516 1.76405 284.431C2.09364 286.591 5.68929 286.053 5.54868 283.919C5.14264 277.751 4.8519 271.616 5.13287 265.434C5.41408 259.252 5.99431 253.096 6.85925 246.967C7.58714 241.809 8.67221 236.716 9.63243 231.599L9.78293 230.791C10.587 226.439 11.4159 222.092 12.243 217.744L13.4789 211.234C15.3314 201.487 17.2201 191.731 19.3543 182.045L19.4809 181.475C21.5694 172.156 24.6485 162.395 30.9132 154.995C37.2706 147.485 46.3714 143.703 55.261 140.044ZM78.3615 238.886C78.2086 238.546 77.6738 238.583 77.5094 238.886C76.8651 240.074 76.7935 241.591 76.6718 242.932L76.659 243.07C76.5041 244.706 76.367 246.348 76.283 247.99C76.1238 251.106 76.0476 254.218 76.0574 257.338C76.0674 260.535 76.1319 263.728 76.3043 266.921L76.3511 267.776C76.5085 270.551 76.7725 273.645 78.0916 276.07C78.5711 276.952 79.8751 276.693 80.1528 275.801C81.0626 272.882 80.5955 269.42 80.3621 266.43L80.1809 264.096C80.0015 261.763 79.8304 259.428 79.6947 257.092C79.5087 253.895 79.3553 250.696 79.2077 247.498C79.1597 246.459 79.1079 245.42 79.0531 244.382L78.9688 242.824C78.8969 241.521 78.9029 240.091 78.3615 238.886ZM180.659 243.024L180.256 242.636C179.019 241.426 177.457 239.564 175.629 239.68C174.9 239.726 174.436 240.33 174.587 241.047C174.91 242.579 176.474 243.374 177.599 244.309C178.832 245.334 179.995 246.428 181.154 247.534C182.184 248.514 183.173 249.522 184.139 250.562L184.5 250.953C184.846 251.33 187.312 253.559 187.045 254.137L187.031 254.163C186.957 254.274 187.08 254.426 187.203 254.387C188.268 254.051 188.202 253.139 187.799 252.215C187.026 250.44 185.671 248.797 184.488 247.281C183.309 245.769 182.032 244.36 180.659 243.024ZM74.5034 198.499C75.3268 196.554 78.3597 196.595 80.0816 196.712C84.4176 197.004 89.109 198.101 92.9671 200.126C96.9669 202.226 99.6612 205.591 102.072 209.311L102.185 209.486C104.535 213.136 106.798 217.457 110.477 219.967C112.351 221.246 114.539 222.413 116.813 222.919C116.969 223.194 117.222 223.411 117.554 223.49L117.708 223.525C118.355 223.668 119.361 223.826 120.23 223.731C120.225 224.156 120.229 224.578 120.218 224.98C120.188 226.134 120.175 227.292 120.175 228.447C120.174 230.865 120.304 233.288 120.203 235.706C120.114 237.845 119.812 240.08 118.784 241.992C118.03 243.395 117.036 244.323 115.835 245.21C112.881 243.41 109.54 242.314 106.15 241.489C102.05 240.492 97.8525 239.826 93.8458 238.474C91.9174 237.823 90.0635 236.971 88.3837 235.814C86.6009 234.586 85.2392 232.923 83.8382 231.297L83.6192 231.045C82.1893 229.406 80.6291 227.838 78.6084 226.949C76.8682 226.184 74.5746 226.047 73.053 224.863C72.2575 224.243 72.1908 223.344 72.1071 222.423C73.0816 222.563 74.1132 222.339 75.0844 222.226L75.5876 222.167C76.506 222.058 77.4033 221.938 78.3073 221.704C78.4753 221.661 78.4753 221.408 78.3073 221.364C77.2389 221.089 76.1799 220.971 75.0844 220.843L74.8271 220.811C73.836 220.681 72.7943 220.485 71.8221 220.703C71.6477 220.04 71.3958 219.406 71.0424 218.772C70.5464 217.881 69.6077 216.871 69.4809 215.83C69.4431 215.519 69.5155 215.153 69.6621 214.878L69.7126 214.784C69.7743 214.674 69.8473 214.562 69.9541 214.494C69.9659 214.507 69.991 214.523 70.0453 214.54C70.7935 214.776 71.4462 214.41 71.7925 213.846C73.263 214.028 74.8678 213.966 76.2468 214.027L77.6411 214.095C79.131 214.163 80.6885 214.193 82.0885 213.892C82.284 213.85 82.3431 213.525 82.1474 213.441C80.4262 212.706 78.3384 212.471 76.4957 212.189C75.4666 212.03 74.43 211.91 73.3979 211.771C72.7106 211.679 71.9813 211.525 71.2692 211.489C69.4839 209.268 70.4459 205.764 72.9304 204.807C73.8355 205.205 74.6493 204.974 75.6381 204.889C76.6251 204.804 77.6146 204.747 78.6056 204.751C80.5914 204.76 82.6957 205.282 84.6622 205.057C84.9821 205.02 85.2793 204.595 84.9613 204.335C83.4559 203.108 81.2986 202.707 79.3879 202.446L78.9918 202.393C78.3512 202.309 77.5722 202.186 76.7642 202.114C76.5815 201.757 76.2536 201.488 75.7611 201.421C75.6147 201.401 75.4676 201.389 75.3208 201.377L75.323 201.362C74.122 201.305 74.1741 199.277 74.5034 198.499ZM156.73 236.43C156.751 236.462 156.774 236.494 156.799 236.524L156.837 236.568L156.639 236.487L156.73 236.43ZM53.5446 194.154C58.6 193.611 63.6626 193.725 68.733 193.871C69.1385 195.197 70.5501 196.326 71.9179 196.369C70.8466 197.998 70.7361 200.204 71.4873 201.932C69.8924 202.566 68.5185 203.706 67.6843 205.329C66.5276 207.579 66.679 210.083 67.8222 212.163C66.8465 213.045 66.2707 214.479 66.3284 215.83C66.3928 217.337 67.2913 218.624 68.038 219.871C68.8448 221.22 68.8719 222.408 69.1197 223.919C69.4824 226.131 70.9747 227.472 72.8948 228.309L72.7928 228.711C72.2977 230.636 71.6818 232.668 70.2669 234.077C68.4468 235.888 65.6232 235.871 63.2185 235.986L63.1024 235.992C60.9004 236.102 58.6994 236.231 56.4982 236.355L54.8472 236.448C52.3128 236.587 49.8788 236.604 47.8098 234.929C44.432 232.196 42.1163 227.672 40.6506 223.668C37.5743 215.262 37.5374 206.038 38.9495 197.284C43.6853 195.758 48.5991 194.685 53.5446 194.154ZM95.5862 208.099L95.549 208.101C94.5082 208.22 93.7931 209.062 93.5384 210.062C93.1685 211.514 93.35 212.827 92.4599 214.138C91.5444 215.486 90.9814 216.566 90.8484 218.231C90.7937 218.916 90.8188 219.6 90.6661 220.271L90.5555 220.741C90.4379 221.242 90.3418 221.725 90.4002 222.263C90.4536 222.753 90.6927 223.136 91.1852 223.293C92.79 223.806 94.0292 222.624 94.4437 221.13C94.8019 219.839 94.3237 218.3 94.829 217.088C95.1089 216.416 95.6252 215.853 95.917 215.177C96.206 214.506 96.3511 213.806 96.3975 213.077C96.4854 211.698 95.2653 210.042 95.9461 208.792C96.091 208.526 95.9268 208.091 95.5862 208.099ZM116.904 193.871C115.817 193.651 114.584 193.145 113.512 193.565C112.961 193.782 112.689 194.453 113.155 194.92C113.963 195.729 115.137 195.774 116.226 195.965L116.321 195.982C117.608 196.22 118.898 196.446 120.189 196.66C122.618 197.062 125.052 197.417 127.496 197.72C130.005 198.03 132.521 198.306 135.041 198.514L136.017 198.594C138.145 198.764 140.36 198.893 142.449 198.567C142.752 198.519 142.703 198.078 142.449 198C140.161 197.308 137.651 197.123 135.285 196.83C132.77 196.518 130.26 196.189 127.756 195.798C125.256 195.408 122.759 194.989 120.271 194.526C119.147 194.317 118.024 194.099 116.904 193.871ZM77.6903 191.649C78.6439 191.312 79.6931 190.812 80.7265 190.979C82.5085 191.268 84.0946 193.003 85.5051 194.146L84.7969 194.008C81.1728 193.312 76.3736 192.562 73.3315 194.865C73.3237 194.851 73.3177 194.838 73.3089 194.825C73.0633 194.452 72.7788 194.161 72.4682 193.842C72.4386 193.814 72.4099 193.786 72.3816 193.756L72.2141 193.578L72.5973 193.445C73.4181 193.155 74.3904 192.781 74.5442 192.726L74.5548 192.722C75.6012 192.368 76.6489 192.018 77.6903 191.649ZM107.466 115.732C107.616 113.815 104.63 113.831 104.482 115.732C104.16 119.883 105.094 123.994 107.106 127.633C107.121 127.66 107.137 127.683 107.153 127.708C105.894 128.362 104.622 128.99 103.321 129.551C101.657 130.269 99.9618 130.923 98.2362 131.478C96.6752 131.979 94.7521 132.178 93.4397 133.222C90.6724 135.424 91.7121 139.995 92.2444 142.957L92.3275 143.425C92.5926 144.95 92.7843 146.514 92.1412 147.977C91.4544 149.54 90.0657 150.699 88.8268 151.817L88.5765 152.044C87.479 153.043 86.2249 154.257 85.4199 155.612C84.685 154.093 83.6832 152.853 82.624 151.456C81.8683 150.459 82.4062 150.13 82.9491 149.156C83.4716 148.219 83.7268 147.22 83.5634 146.15C83.2619 144.175 81.6826 142.749 80.1106 141.677C78.2541 140.412 76.1821 139.474 74.263 138.297C70.3195 135.879 66.4789 133.114 63.0189 130.043C62.9234 129.959 62.758 130.07 62.8344 130.186C65.5676 134.341 68.7725 137.931 72.7113 140.978C74.3084 142.214 75.9861 143.239 77.6751 144.316L78.1607 144.628C78.8388 145.067 79.6847 145.654 79.9913 146.401C80.2998 147.153 79.6419 147.72 79.2878 148.343C78.1632 150.321 78.7057 152.166 80.039 153.843L80.1011 153.92C81.4259 155.552 82.43 157.069 82.9102 159.154C83.9421 163.632 82.5048 168.296 81.0004 172.5L80.941 172.666C80.1271 174.932 79.2622 177.181 78.5551 179.483L78.3606 180.12C77.72 182.238 77.1954 184.327 77.914 186.505C78.1584 187.246 79.1692 187.421 79.589 186.724C81.07 184.265 81.4392 181.307 82.3676 178.604C83.2724 175.97 84.3113 173.384 85.1853 170.739C86.3106 167.333 87.0638 163.668 86.655 160.096C86.667 160.075 86.6803 160.055 86.6903 160.033L86.9768 159.407C87.758 157.711 88.5125 156.23 89.9331 154.879C91.4148 153.469 93.0232 152.221 94.1891 150.514C96.7217 146.806 95.1554 142.682 94.8495 138.628L94.8145 138.131C94.759 137.289 94.7285 136.145 95.2787 135.563C95.8975 134.907 97.3487 134.74 98.1698 134.449C100.292 133.699 102.383 132.824 104.374 131.774C106.27 130.775 108.107 129.671 109.816 128.377L110.683 127.726C112.05 126.695 113.468 125.569 114.385 124.165C114.491 124.003 114.311 123.743 114.119 123.82C112.589 124.441 111.192 125.427 109.76 126.286C109.738 126.234 109.712 126.181 109.683 126.128C107.912 122.925 107.183 119.376 107.466 115.732ZM58.5963 137.679C57.9868 136.008 55.2087 136.137 55.3195 138.122C55.4044 139.647 56.0522 141.024 56.6445 142.408L56.7077 142.556C57.3193 143.999 58.0256 145.353 58.8708 146.676C60.4856 149.203 62.3772 151.549 64.3976 153.762C66.2292 155.769 68.6333 156.996 71.4036 156.792C72.5708 156.706 73.7491 156.41 74.7719 155.827C75.9868 155.135 77.3061 153.056 78.8561 153.559C79.0059 153.608 79.1458 153.388 79.0162 153.284C77.2269 151.844 75.196 154.077 73.4829 154.615C70.9016 155.426 68.2526 154.53 66.5911 152.444C64.8565 150.267 63.2599 147.829 61.802 145.458C61.0616 144.254 60.3861 143.004 59.8026 141.717C59.2139 140.417 59.08 139.004 58.5963 137.679ZM62.7572 127.398C62.8324 127.168 62.5457 126.948 62.3429 127.08C61.1672 127.845 60.1483 128.856 59.0638 129.742C57.8605 130.724 56.6484 131.687 55.4175 132.635C53.6232 134.018 55.7043 136.563 57.2838 135.053C59.4453 132.987 61.8125 130.286 62.7572 127.398ZM69.2124 119.313C68.7347 117.472 65.9097 118.231 66.3214 120.05L66.3348 120.106C67.1146 123.111 66.004 126.17 63.6333 128.118L63.546 128.189C62.0462 129.389 64.1711 131.486 65.6561 130.298C68.8981 127.704 70.2468 123.3 69.2124 119.313Z" fill="black"/>
<path fill-rule="evenodd" clip-rule="evenodd" d="M44.8902 60.7121C45.8186 53.2924 48.7349 45.4146 51.802 38.4974C58.6985 23.8723 74.4871 21.8587 88.6409 18.8433C102.608 16.8069 117.398 14.968 131.155 19.0312C138.888 20.9287 141.909 30.1532 140.688 37.4326C139.992 41.9687 137.93 46.2619 136.172 50.4658C132.678 59.0992 130.461 68.342 130.457 77.6893C130.697 83.7977 131.558 90.7698 124.549 93.3571C117.879 96.6788 117.316 105.683 108.964 110.792C105.587 117.643 96.3886 118.246 89.7679 119.835C85.5834 120.637 81.3515 121.228 77.1082 121.609C64.8214 123.186 54.9921 119.62 48.5603 108.658C44.2562 101.987 41.0511 94.2837 41.8429 86.1984C42.6315 77.6842 43.9453 69.2147 44.8902 60.7121Z" fill="#EDB98A"/>
<path fill-rule="evenodd" clip-rule="evenodd" d="M88.535 1.06899C87.8337 0.272932 86.7532 0.545965 86.0974 1.17544C85.6705 1.30144 85.2568 1.48881 84.8661 1.73679C83.9833 1.62332 83.0576 1.62332 82.1917 1.65513C81.9816 1.53715 81.7565 1.4322 81.5114 1.34202C79.7607 0.701018 78.2103 1.02665 76.9314 1.88483C76.3154 1.30119 75.5383 0.934975 74.5449 0.990333C73.6583 1.03993 73.0265 1.45775 72.485 2.00807C71.945 1.2283 71.0722 0.671961 69.9847 0.59456C68.4648 0.486348 67.0036 1.09679 65.7926 2.04189C65.0871 1.2313 64.1251 0.765393 63.0532 0.760885C62.3479 0.632634 61.6035 0.683233 60.931 0.88663C59.9546 1.18196 59.0972 1.73529 58.4144 2.45344C57.3342 1.41742 56.0119 0.671961 54.4872 0.780673C52.5139 0.923452 50.8782 2.37654 50.1178 4.16503C48.7822 4.70083 47.5492 5.46507 46.5188 6.5547C46.4637 6.61206 46.4112 6.67218 46.3562 6.73255C45.8009 6.9377 45.2782 7.22852 44.818 7.61152C43.3599 8.82664 43.0348 10.5851 43.5175 12.3082C43.4499 12.584 43.3924 12.8645 43.3399 13.1448C41.9743 13.3527 40.7337 14.142 40.0284 15.427C39.063 17.1905 39.2531 19.5148 40.2986 21.1983C40.748 21.9225 41.3185 22.5327 41.9593 23.0662C41.2347 24.7144 41.5824 26.6813 42.7506 28.0144C43.0352 28.474 43.3847 28.8888 43.7778 29.2643C43.3439 30.9684 44.1157 32.7266 45.6564 33.6371L45.7882 33.9674C45.8103 34.0223 45.8328 34.077 45.856 34.1311C45.873 34.2012 45.894 34.2691 45.9147 34.3375C45.9515 34.9422 46.1503 35.5356 46.545 36.0947C47.353 37.2405 48.3545 37.9876 48.8856 39.3252L48.9388 39.4657C49.1672 40.0987 49.9045 40.5453 50.5327 40.35C47.0445 47.5242 45.2157 55.5071 43.9602 63.3304C43.3341 67.2333 42.8509 71.1496 42.4591 75.0811L42.0748 78.9961C41.7369 82.476 41.436 85.9674 41.4341 89.4589C41.4291 97.3571 43.685 104.954 48.5271 111.239C53.1066 117.181 59.5869 121.486 66.9076 123.182C74.4659 124.931 83.3322 124.242 90.1102 120.239C92.1085 119.062 90.3578 116.231 88.3244 117.178C84.4752 118.972 80.5635 120.304 76.2967 120.602C72.1374 120.895 67.9681 120.374 64.0238 119.012C57.4985 116.755 51.9461 112.028 48.3771 106.142C46.6188 103.241 45.3458 100.092 44.668 96.7656C43.8243 92.6194 43.9514 88.3337 44.2614 84.1344L44.2828 83.8482C44.8956 75.7571 45.7034 67.6162 47.009 59.6058C48.163 52.5222 49.9375 45.5822 52.2412 38.7957C53.1436 38.0001 54.1531 37.3418 55.2333 36.8419C63.1435 36.511 71.0679 36.6077 78.9678 37.1542C85.7052 37.6234 92.41 38.4172 99.0641 39.5741L99.7768 39.6994C101.25 39.9622 102.886 40.1125 104.274 40.7064C105.464 41.2174 105.947 42.1993 106.247 43.4064C107.002 46.4599 107.118 49.8017 107.245 52.9328C107.37 55.9935 107.088 59.0798 107.333 62.1305C107.54 64.683 108.193 67.2956 110.081 69.1419C111.069 70.1086 112.285 70.6371 113.425 71.371C114.163 71.8447 114.476 72.3329 114.381 73.2096C114.176 75.1284 112.632 77.5456 114.366 79.1888C114.671 79.4769 115.199 79.5145 115.499 79.1888C116.214 78.41 117.202 77.8161 118.05 77.1874C118.405 76.9271 118.11 76.4212 117.707 76.6013C117.177 76.8395 116.637 77.12 116.084 77.3655C117.304 76.3585 119.04 75.8648 120.486 75.5718C121.214 75.4265 121.979 75.3839 122.737 75.4518C123.297 75.7195 123.87 75.9678 124.443 76.2105C125.17 76.5163 125.906 76.7941 126.646 77.0574C129.215 79.1538 130.44 82.5632 129.905 85.8972C129.612 87.738 128.764 89.7397 127.166 90.8143C125.273 92.0868 122.737 91.5404 120.691 92.485C118.775 93.369 117.61 95.1553 116.737 97.0039L116.373 97.7735C115.563 99.4775 114.73 101.136 113.623 102.687C112.342 104.483 110.774 106.096 109.063 107.482C108.233 108.152 107.349 108.755 106.435 109.305L106.185 109.453C105.259 109.997 104.596 110.515 104.534 111.665C104.514 112.066 104.767 112.431 105.092 112.639C106.492 113.528 107.885 112.416 109.051 111.64C110.309 110.803 111.512 109.861 112.625 108.834C114.741 106.886 116.572 104.571 117.98 102.058C119.053 100.145 119.663 97.4522 121.359 95.9693C122.394 95.0648 123.857 95.0576 125.15 94.892C126.353 94.7369 127.491 94.4865 128.562 93.8928C132.916 91.4706 134.147 85.6066 133.114 81.0752C132.939 80.311 132.694 79.5671 132.391 78.8507C134.012 79.1212 135.832 77.4432 135.175 75.7496C135.125 75.6219 135.067 75.5019 135.012 75.3789C136.08 74.675 136.923 73.6082 137.323 72.2127C137.528 71.4913 137.558 70.7624 137.451 70.0585C137.968 69.7106 138.396 69.2319 138.671 68.6432C139.532 68.2449 140.294 67.649 140.75 66.7974C141.38 65.6223 141.3 64.5402 140.82 63.5658C140.887 63.4433 140.952 63.3181 141.015 63.1901C142.778 62.0706 144.009 60.1416 143.868 58.0024C143.823 57.2936 143.648 56.6548 143.378 56.0789C143.401 56.0063 143.423 55.9309 143.443 55.8583C144.919 55.1068 146.139 53.8721 146.575 52.2239C147.01 50.5654 146.497 48.9122 145.472 47.6397C146.972 46.5403 147.875 45.0048 147.327 42.6825C147.105 41.7384 146.657 40.879 146.052 40.1551C146.054 40.1328 146.059 40.1102 146.064 40.0875L146.205 39.9784C148.057 38.5143 149.122 36.6485 147.985 34.3538C147.475 33.322 146.747 32.6028 145.892 32.1294L145.849 31.9941C146.462 30.6791 146.67 29.2187 146.247 27.6832C145.902 26.4185 145.084 25.4113 144.039 24.7427C144.109 24.1764 144.099 23.5729 143.986 22.9189C143.798 21.8145 143.251 20.8501 142.45 20.1663C142.42 20.0208 142.383 19.8782 142.34 19.7352C142.07 18.8612 141.565 17.9119 140.98 17.2078C140.497 16.6241 139.957 16.4112 139.296 16.3887C139.336 15.8504 139.309 15.304 139.199 14.7505C138.861 13.0424 137.776 11.4365 136.168 10.7076C135.507 10.4095 134.812 10.3221 134.142 10.3945C133.571 9.1921 132.459 8.32065 131.09 8.13278C130.558 8.05764 130.062 8.0624 129.607 8.13028C129.35 8.00979 129.082 7.90233 128.802 7.80439C128.617 7.73926 128.429 7.67915 128.242 7.61928C127.609 6.83274 126.776 6.20376 125.803 5.82578C124.68 5.38742 123.537 5.43226 122.524 5.80048L122.202 5.73285C121.696 4.85613 120.891 4.17731 119.653 3.86921C118.247 3.52103 116.804 4.00697 115.699 4.89145C115.694 4.89145 115.689 4.89145 115.681 4.8887C115.103 3.59367 114.116 2.69191 112.457 2.75453C111.424 2.79461 110.491 3.30836 109.771 4.03979C109.371 3.98944 108.971 3.94435 108.568 3.89951C108.143 3.40079 107.67 2.93513 107.148 2.51681C106.292 1.83022 105.179 1.88558 104.549 2.85222C104.411 3.06263 104.284 3.27555 104.156 3.48846L103.578 3.44838C102.898 2.52909 101.97 1.90787 100.7 1.85803C99.5342 1.81018 98.7039 2.38155 98.0711 3.18036C97.5559 3.16784 97.0382 3.15807 96.5204 3.1503C95.9177 2.45144 95.2074 1.83523 94.397 1.32423C93.7767 0.933472 92.8614 1.06648 92.3586 1.5875C92.019 1.94169 91.7028 2.31141 91.409 2.69416C90.6514 1.8435 89.6282 1.28315 88.535 1.06899ZM125.345 80.6118C124.177 79.9454 122.607 80.6669 121.476 81.233C120.098 81.9218 118.73 82.9613 117.887 84.2639C116.739 86.0373 119.438 87.4701 120.646 85.8795C121.389 84.9001 121.981 83.9132 122.882 83.0565C123.705 82.27 124.898 81.744 125.37 80.7069C125.388 80.6719 125.383 80.6318 125.345 80.6118ZM124.525 37.565L124.503 37.5024C124.171 36.5924 125.621 36.2001 125.95 37.1026C126.449 38.4705 125.874 39.9577 124.525 40.5484C124.151 40.7122 123.723 40.6553 123.498 40.2788C123.309 39.962 123.397 39.4129 123.767 39.2508C124.526 38.9184 124.781 38.3316 124.525 37.565ZM137.013 35.0203C136.288 34.3791 137.352 33.3192 138.074 33.9577C138.748 34.5534 139.248 35.3625 139.118 36.293C138.986 37.2414 138.272 37.9109 137.49 38.3841C136.662 38.8859 135.907 37.5868 136.733 37.0863L136.826 37.0295C137.172 36.8138 137.578 36.5172 137.637 36.0929C137.699 35.642 137.318 35.2901 137.013 35.0203ZM132.895 23.7052L132.843 23.6674C132.064 23.1103 132.812 21.8062 133.601 22.3696C134.324 22.8864 134.903 23.5577 134.964 24.4835C135.024 25.3832 134.566 26.1632 133.969 26.7962C133.304 27.5004 132.244 26.4363 132.907 25.7337C133.554 25.0489 133.681 24.3016 132.895 23.7052Z" fill="black"/>
<path fill-rule="evenodd" clip-rule="evenodd" d="M75.4839 93.3326C74.0818 91.0276 71.0932 96.6741 70.7757 97.645C70.4944 98.505 70.3088 99.3861 70.2144 100.277C69.1274 100.521 67.9987 100.521 66.8849 100.308C65.2295 99.9905 64.2176 99.1011 62.7789 98.3374C61.7852 97.8097 60.5328 98.4285 60.016 99.3037C59.4082 100.334 59.7954 101.403 60.5949 102.171C62.111 103.627 65.094 103.962 67.073 103.575C68.2069 103.354 69.2461 102.929 70.1638 102.311C70.1699 102.426 70.174 102.542 70.1831 102.657L70.2006 102.856C70.3526 104.471 70.7968 106.502 72.0521 107.553C74.1109 109.277 76.6518 105.962 74.6513 104.24L74.5892 104.188C73.3458 103.184 73.0745 100.49 73.1415 99.0062C73.1854 98.0377 73.3619 97.0568 73.6679 96.1344L73.7308 95.9507C73.8229 95.6902 74.8271 93.2185 75.19 93.5333L75.2073 93.551C75.3569 93.7296 75.5988 93.5216 75.4839 93.3326ZM64.2893 80.3259C62.3966 81.4756 59.5128 84.1567 61.5489 87.007C63.9455 89.5203 67.3961 86.6387 69.0965 85.3354C70.6732 84.3254 72.4447 86.9231 70.9819 88.1025C58.6947 97.1941 53.7083 80.6265 63.332 78.9741C64.3916 78.792 64.7852 79.9702 64.2893 80.3259ZM84.4996 69.6984C82.6499 69.3705 80.755 69.8302 79.2244 70.9118L79.1084 70.9952C77.6338 72.073 75.9839 73.9655 76.8301 75.8234C77.1697 76.5693 78.1868 76.6863 78.8322 76.3482C79.9066 75.7851 80.1014 74.3996 81.0601 73.6329C81.8463 73.0044 82.905 72.6231 83.9176 72.7151C86.2964 72.931 87.7596 75.2758 88.4985 77.2965C88.593 77.555 88.9727 77.6555 89.1211 77.3779C90.8632 74.1236 87.7794 70.2801 84.4996 69.6984ZM54.8716 68.4703C51.3284 68.1784 47.1811 71.8496 48.1139 75.5874C48.5613 77.3809 51.2233 77.3296 51.6965 75.5874C51.9569 74.6288 51.9309 73.7806 52.6214 72.9846C53.1913 72.3273 54.0011 71.9456 54.8716 72.0042C55.831 72.0688 56.716 72.548 57.3885 73.2215C57.9958 73.8297 58.359 74.7197 58.9881 75.258C59.143 75.3903 59.3502 75.3988 59.5031 75.258C60.5859 74.2603 59.936 72.1833 59.2495 71.1417C58.267 69.6513 56.6672 68.6183 54.8716 68.4703ZM91.2469 63.0692C88.9739 61.0582 84.8437 59.1162 81.7786 60.1059C80.0164 60.6747 79.2482 63.5125 81.2154 64.412C83.4935 65.4536 86.1199 65.0297 88.4385 66.1094C89.4123 66.563 90.3281 67.1298 91.0061 67.9612C91.5402 68.6165 92.0836 69.4787 92.856 69.8564C93.059 69.9559 93.334 69.9584 93.4967 69.774C95.19 67.8598 92.7254 64.377 91.2469 63.0692ZM58.7785 60.0061C57.3736 59.612 55.8152 59.6201 54.3881 59.8675C52.9614 60.115 51.513 60.7059 50.3483 61.5679L50.2131 61.6688C48.9416 62.6264 47.4242 64.0196 47.5056 65.716C47.5735 67.1325 49.0645 68.0906 50.3518 67.3482C51.4012 66.7427 51.895 65.5299 52.7835 64.7223C53.5166 64.0557 54.3778 63.5302 55.2966 63.162C56.3172 62.7529 57.3396 62.5613 58.4348 62.543C59.2782 62.529 60.1266 62.8055 60.9542 62.894C60.8861 63.0337 61.5402 62.9686 61.9152 62.8446C62.1929 62.7264 62.1944 62.3754 62.0982 62.1477C61.6207 61.0198 59.8835 60.3157 58.7785 60.0061Z" fill="black"/>
<path fill-rule="evenodd" clip-rule="evenodd" d="M41.858 81.8515C44.901 84.9939 49.9809 85.8956 54.0294 84.2103C64.4249 79.8696 59.3367 66.3307 51.3196 62.6948C50.318 62.4453 48.9804 61.8534 47.7605 61.7192C47.6502 61.6651 47.4101 61.8216 47.1191 61.6736C38.2789 62.66 36.2658 76.3748 41.858 81.8515ZM75.3878 82.6558C78.8007 87.1799 85.1458 88.5756 90.33 86.4725C100.572 82.4416 96.939 70.4359 89.932 65.7292C75.1301 60.1706 69.0178 74.3143 75.3878 82.6558ZM97.5892 72.6317C97.5987 72.6272 97.6082 72.625 97.618 72.6204C97.5639 72.5966 97.5097 72.5729 97.4559 72.5486C97.4734 72.5944 97.4925 72.6397 97.5095 72.6856C97.5361 72.6673 97.5594 72.646 97.5892 72.6317ZM34.8121 67.7414C35.6477 67.7432 36.8548 67.8804 37.5465 68.4598C39.2524 62.7103 45.5489 57.3892 51.0248 61.2693C55.337 62.6552 58.5369 65.729 60.3555 69.8155C63.6346 67.8662 68.7907 68.6985 71.6342 71.2763C73.4964 65.1266 78.0796 62.9731 83.5347 62.6552C89.4889 61.6806 95.4234 67.4596 97.2752 72.0957C98.8148 71.9206 101.115 71.4309 102.564 72.3805C111.964 69.9167 128.4 68.5583 130.311 69.9272C131.673 70.4495 132.421 73.6622 130.518 73.8356C128.86 73.6004 130.712 71.4815 129.041 71.2503C120.137 70.6987 111.494 72.4907 102.685 73.2427C101.898 74.3 99.3572 74.6537 98.0015 74.2288C100.137 82.0932 95.5275 87.4436 88.6211 89.0463C77.9272 91.5013 68.6233 81.9406 71.4197 71.9962C68.1802 70.3856 64.454 70.4547 60.925 71.3031C66.822 92.993 31.8689 92.0198 37.328 69.203C33.695 71.009 32.906 68.1059 34.8121 67.7414Z" fill="black"/>
</svg>
